<?xml version="1.0" encoding="utf-8"?>
<!-- Generator: Adobe Illustrator 24.2.1, SVG Export Plug-In . SVG Version: 6.00 Build 0)  -->
<svg version="1.1" id="Capa_1" xmlns="http://www.w3.org/2000/svg" xmlns:xlink="http://www.w3.org/1999/xlink" x="0px" y="0px"
	 viewBox="0 0 129.6 154.53" style="enable-background:new 0 0 129.6 154.53;" xml:space="preserve">
<style type="text/css">
	.st0{opacity:0.32;fill:#D2D2D2;}
	.st1{fill:#5747E4;}
	.st2{clip-path:url(#SVGID_4_);}
	.st3{clip-path:url(#SVGID_10_);}
	.st4{fill:#51A5C1;}
	.st5{clip-path:url(#SVGID_16_);}
	.st6{clip-path:url(#SVGID_22_);}
	.st7{fill:#53A6C1;}
	.st8{fill:#808080;}
	.st9{fill:#6864E5;}
	.st10{fill:#FFFFFF;}
	.st11{fill:#FFFFFF;stroke:#DBDBDB;stroke-miterlimit:10;}
	.st12{opacity:0.78;}
	.st13{fill:#D2D2D2;}
	.st14{fill:#FF6680;}
	.st15{fill:none;stroke:#5747E4;stroke-miterlimit:10;}
	.st16{opacity:0.14;fill:#ACACAB;}
	.st17{fill:#ACACAB;}
	.st18{fill:none;stroke:#ACACAB;stroke-width:0.5;stroke-miterlimit:10;}
	.st19{fill:#6F6F6E;}
	.st20{clip-path:url(#SVGID_26_);}
	.st21{fill:none;stroke:#DBDBDB;stroke-width:3;stroke-miterlimit:10;}
	.st22{opacity:0.81;}
	.st23{fill:#DBDBDB;}
	.st24{opacity:0.39;fill:#D2D2D2;}
	.st25{fill:none;stroke:#ACACAB;stroke-miterlimit:10;}
	.st26{clip-path:url(#SVGID_28_);}
	.st27{clip-path:url(#SVGID_30_);fill:url(#SVGID_31_);}
	.st28{opacity:0.46;clip-path:url(#SVGID_30_);fill:#3F3CB2;}
	.st29{opacity:0.15;clip-path:url(#SVGID_30_);fill:#352D90;}
	.st30{fill:#352D90;}
	.st31{fill:#07C0D7;}
	.st32{opacity:0.46;clip-path:url(#SVGID_28_);fill:#3F3CB2;}
	.st33{fill:#5050C1;}
	.st34{fill:none;stroke:#07C0D7;stroke-miterlimit:10;}
	.st35{fill:#3F3CB2;}
	.st36{opacity:0.81;fill:#352D90;}
	.st37{fill:none;}
	.st38{clip-path:url(#SVGID_33_);}
	.st39{clip-path:url(#SVGID_35_);}
	.st40{clip-path:url(#SVGID_37_);fill:url(#SVGID_38_);}
	.st41{opacity:0.46;clip-path:url(#SVGID_37_);fill:#3F3CB2;}
	.st42{opacity:0.15;clip-path:url(#SVGID_37_);fill:#352D90;}
	.st43{opacity:0.46;clip-path:url(#SVGID_35_);fill:#3F3CB2;}
	.st44{clip-path:url(#SVGID_42_);}
	.st45{clip-path:url(#SVGID_48_);}
	.st46{clip-path:url(#SVGID_54_);}
	.st47{clip-path:url(#SVGID_60_);}
	.st48{clip-path:url(#SVGID_64_);}
	.st49{clip-path:url(#SVGID_68_);fill:#FFFFFF;}
	.st50{clip-path:url(#SVGID_68_);}
	.st51{clip-path:url(#SVGID_70_);fill:#FF668B;}
	.st52{clip-path:url(#SVGID_72_);}
	.st53{clip-path:url(#SVGID_76_);}
	.st54{clip-path:url(#SVGID_78_);fill:#FF668B;}
	.st55{clip-path:url(#SVGID_76_);fill:none;}
	.st56{clip-path:url(#SVGID_80_);}
	.st57{clip-path:url(#SVGID_82_);fill:#FF668B;}
	.st58{clip-path:url(#SVGID_80_);fill:none;}
	.st59{clip-path:url(#SVGID_84_);}
	.st60{clip-path:url(#SVGID_84_);fill:none;}
	.st61{clip-path:url(#SVGID_88_);}
	.st62{clip-path:url(#SVGID_88_);fill:none;}
	.st63{clip-path:url(#SVGID_92_);}
	.st64{clip-path:url(#SVGID_92_);fill:none;}
	.st65{clip-path:url(#SVGID_96_);}
	.st66{clip-path:url(#SVGID_96_);fill:none;}
	.st67{fill:#E3CDC9;}
	.st68{fill:#8155FF;}
	.st69{fill:none;stroke:#FFFFFF;stroke-width:0.6238;stroke-miterlimit:10;}
	.st70{fill:none;stroke:#FFFFFF;stroke-width:1.0888;stroke-miterlimit:10;}
	.st71{fill:none;stroke:#FAFAFA;stroke-width:1.103;stroke-linecap:round;stroke-linejoin:round;stroke-miterlimit:10;}
	.st72{fill:#FDB9B9;}
	.st73{fill:#2B4183;}
	.st74{fill:#FFCB2D;}
	.st75{fill:none;stroke:#F0E0DF;stroke-width:2.2132;stroke-miterlimit:10;}
	.st76{fill:#F88AA0;}
	.st77{fill:none;stroke:#FFFFFF;stroke-width:2.0174;stroke-miterlimit:10;}
	.st78{fill:#FFA80A;}
	.st79{fill:#F67B91;}
	.st80{fill:#F6F6F6;}
	.st81{opacity:0.71;}
	.st82{clip-path:url(#SVGID_100_);fill:#FFFFFF;}
	.st83{fill:#8054FF;}
	.st84{fill:#7041FD;}
	.st85{fill:#FA849B;}
	.st86{fill:#181F42;}
	.st87{fill:none;stroke:#FFFFFF;stroke-width:1.5042;stroke-linecap:round;stroke-linejoin:round;stroke-miterlimit:10;}
	.st88{fill:#FFCD2E;}
	.st89{fill:#F2BB19;}
	.st90{fill:#E6728C;}
	.st91{fill:#312725;}
	.st92{fill:#F8879D;}
	.st93{fill:none;stroke:#312725;stroke-width:0.5974;stroke-linecap:round;stroke-linejoin:round;stroke-miterlimit:10;}
	.st94{fill:none;stroke:#281F27;stroke-width:0.7565;stroke-miterlimit:10;}
</style>
<g>
	<path class="st23" d="M25.74,137.13c-1.04-0.62-1.42-1.51-1.39-2.73c0.1-4.52-0.11-9.05,0.25-13.55
		c0.72-8.98,8.47-16.79,17.4-17.87c1.08-0.13,2.17-0.19,3.26-0.22c4.26-0.12,7.86-3.66,8.06-7.91c0.03-0.58-0.05-0.97-0.66-1.3
		c-8.86-4.83-13.71-12.29-14.52-22.36c-0.01-0.11-0.05-0.22-0.08-0.33c-4.65-1.89-6.21-4.23-6.21-9.29c0-7.44,0-14.89,0-22.33
		c0-4.7,2.32-7.79,6.8-9.17c0.35-0.11,0.73-0.42,0.9-0.75c4.38-7.98,11.15-11.89,20.22-11.92c5.38-0.01,10.76-0.01,16.14,0
		c12.37,0.03,22.02,9.63,22.08,22c0.03,7.64,0.01,15.28,0,22.92c0,0.46-0.04,0.95-0.21,1.37c-0.37,0.89-1.1,1.31-2.06,1.17
		c-0.96-0.13-1.54-0.72-1.68-1.68c-0.06-0.38-0.03-0.78-0.03-1.17c0-7.56,0.03-15.12-0.01-22.68c-0.05-8.69-5.91-15.83-14.41-17.59
		c-1.17-0.24-2.4-0.34-3.6-0.35c-5.53-0.04-11.07-0.08-16.6,0c-7.8,0.11-13.42,3.7-16.74,10.79c-0.48,1.02-1.1,1.57-2.26,1.7
		c-2.91,0.31-4.54,2.16-4.55,5.08c-0.01,7.83,0,15.67-0.01,23.5c0,1.67,0.56,3.03,2.28,4.09c0-0.58,0-0.98,0-1.37
		c0-4.6,0-9.2,0-13.8c0-1.94,0.72-2.62,2.62-2.5c4.19,0.26,7.33-2.28,8.13-6.6c0.09-0.5,0.16-1,0.21-1.5
		c0.2-2.05,1.69-2.7,3.48-1.61c2.72,1.67,5.41,3.4,8.24,4.87c6.06,3.14,12.53,5.07,19.28,6.09c1.5,0.22,2.28,1.06,2.14,2.26
		c-0.15,1.29-1.21,2.01-2.81,1.67c-3.5-0.74-7.02-1.44-10.45-2.43c-5.52-1.6-10.68-4.07-15.57-7.11c-0.23-0.14-0.46-0.26-0.8-0.45
		c-1.59,5.21-4.98,8.29-10.49,8.85c0,2.92-0.03,5.76,0.01,8.6c0.04,3.78-0.13,7.58,0.26,11.32c1.03,9.86,9.34,18.14,19.16,19.42
		c12.38,1.61,23.25-6.21,25.6-18.47c0.27-1.4,0.34-2.86,0.35-4.3c0.04-5.22,0.03-10.44,0.01-15.67c0-1.06,0.26-1.93,1.33-2.36
		c1.29-0.51,2.6,0.41,2.65,1.89c0.05,1.44,0.01,2.88,0.01,4.33c0,4.29,0.04,8.57-0.02,12.86c-0.19,12.8-10.2,24.01-22.87,25.69
		c-3.76,0.5-7.46,0.27-11.1-0.75c-0.49,1.5-0.98,2.96-1.42,4.43c-0.05,0.16,0.11,0.44,0.25,0.59c2.78,3.11,5.57,6.2,8.45,9.41
		c1.17-1.33,2.29-2.61,3.42-3.89c0.74-0.84,1.63-1.04,2.62-0.52c0.86,0.46,1.13,1.43,0.83,2.42c-0.11,0.35-0.2,0.9-0.02,1.12
		c1.43,1.74,2.93,3.42,4.57,5.31c0.69-3.11,1.34-6,1.93-8.91c0.05-0.25-0.3-0.63-0.53-0.89c-1.09-1.16-2.29-2.22-3.28-3.45
		c-0.85-1.06-0.59-2.32,0.38-2.97c0.96-0.65,2.13-0.36,2.91,0.78c1.77,2.58,4.22,3.8,7.33,3.85c11.06,0.15,20.02,8.99,20.29,20.07
		c0.1,3.97,0,7.95,0.04,11.92c0.01,1.11-0.53,1.81-1.39,2.38c-0.47,0-0.94,0-1.4,0c-1-0.73-1.26-1.71-1.23-2.92
		c0.06-3.5,0.03-7.01,0.02-10.52c-0.02-9.84-7.54-17.73-19.27-17.04c-0.89,4.01-1.79,8.03-2.66,12.05
		c-0.22,1.01-0.67,1.88-1.76,1.86c-0.68-0.02-1.5-0.39-1.99-0.88c-1.25-1.24-2.36-2.64-3.72-4.2c0.8,6.49,1.54,12.63,2.35,18.77
		c0.17,1.26-0.16,2.19-1.21,2.89c-0.47,0-0.94,0-1.4,0c-1.02-0.64-1.29-1.62-1.42-2.76c-0.7-5.91-1.46-11.82-2.2-17.73
		c-0.15-1.16-0.31-2.32-0.52-3.92c-1.82,3.13-3.58,2.55-5.35,0.26c-0.92,7.41-1.82,14.51-2.67,21.62c-0.13,1.06-0.48,1.93-1.4,2.52
		c-0.47,0-0.94,0-1.4,0c-1.05-0.69-1.37-1.62-1.21-2.89c0.8-6.13,1.54-12.28,2.34-18.75c-1.34,1.53-2.5,2.83-3.62,4.15
		c-0.63,0.74-1.33,1.19-2.34,0.92c-0.96-0.26-1.32-0.98-1.51-1.88c-0.37-1.79-0.78-3.57-1.17-5.36c-0.5-2.26-1.01-4.53-1.51-6.74
		c-1.26,0.06-2.38,0.12-3.51,0.17c-7.99,0.37-14.86,6.68-15.53,14.64c-0.36,4.34-0.19,8.72-0.19,13.08c0,1.22-0.32,2.13-1.47,2.65
		C26.52,137.13,26.13,137.13,25.74,137.13z M58.32,108.73c-1.65-1.82-3.23-3.58-4.8-5.33c-0.63,0.47-1.19,0.83-1.67,1.28
		c-0.21,0.2-0.4,0.6-0.35,0.86c0.6,2.87,1.25,5.73,1.93,8.81C55.13,112.4,56.68,110.62,58.32,108.73z"/>
</g>
</svg>
