<?xml version="1.0" encoding="utf-8"?>
<!-- Generator: Adobe Illustrator 24.2.1, SVG Export Plug-In . SVG Version: 6.00 Build 0)  -->
<svg version="1.1" id="Capa_1" xmlns="http://www.w3.org/2000/svg" xmlns:xlink="http://www.w3.org/1999/xlink" x="0px" y="0px"
	 viewBox="0 0 59.4 50.26" style="enable-background:new 0 0 59.4 50.26;" xml:space="preserve">
<style type="text/css">
	.st0{opacity:0.43;}
	.st1{fill:#C1B9D0;}
	.st2{opacity:0.68;fill:#9199C1;}
	.st3{fill:#383A80;}
	.st4{fill-rule:evenodd;clip-rule:evenodd;fill:#E0BAAA;}
	.st5{fill-rule:evenodd;clip-rule:evenodd;fill:#DFAD97;}
	.st6{fill-rule:evenodd;clip-rule:evenodd;fill:#8890BC;}
	.st7{fill-rule:evenodd;clip-rule:evenodd;fill:#5050BE;}
	.st8{fill-rule:evenodd;clip-rule:evenodd;fill:#DEA689;}
	.st9{fill-rule:evenodd;clip-rule:evenodd;fill:#C0B6CE;}
	.st10{clip-path:url(#SVGID_2_);}
	.st11{fill:#5050BE;}
	.st12{fill:#4F4EBD;}
	.st13{fill:#4D4DBC;}
	.st14{fill:#4C4BBA;}
	.st15{fill:#4B4AB9;}
	.st16{fill:#4A48B8;}
	.st17{fill:#4847B7;}
	.st18{fill:#4746B6;}
	.st19{fill:#4645B5;}
	.st20{fill:#4543B5;}
	.st21{fill:#4442B4;}
	.st22{fill:#4341B3;}
	.st23{fill:#4340B2;}
	.st24{fill:#423FB2;}
	.st25{fill:#413FB1;}
	.st26{fill:#413EB0;}
	.st27{fill:#403DB0;}
	.st28{fill:#403DAF;}
	.st29{fill:#3F3CAF;}
	.st30{clip-path:url(#SVGID_4_);}
	.st31{opacity:0.81;}
	.st32{fill-rule:evenodd;clip-rule:evenodd;fill:#352D8D;}
	.st33{clip-path:url(#SVGID_6_);}
	.st34{fill:#FFFFFF;}
	.st35{fill:#37474F;}
	.st36{fill:#FF6680;}
	.st37{fill:#5747E4;}
	.st38{fill:#D3D3D3;}
	.st39{fill:none;stroke:#ACACAB;stroke-miterlimit:10;}
	.st40{opacity:0.32;fill:#D2D2D2;}
	.st41{fill:#D2D2D2;}
	.st42{fill:#ACACAB;}
	.st43{opacity:0.39;fill:#D2D2D2;}
	.st44{fill:none;stroke:#DBDBDB;stroke-width:3;stroke-miterlimit:10;}
	.st45{fill:#DBDBDB;}
	.st46{fill:none;}
	.st47{fill:none;stroke:#3C3C3B;stroke-miterlimit:10;}
	.st48{clip-path:url(#SVGID_8_);}
	.st49{clip-path:url(#SVGID_10_);}
	.st50{clip-path:url(#SVGID_13_);}
	.st51{clip-path:url(#SVGID_17_);fill:url(#SVGID_19_);}
	.st52{opacity:0.81;clip-path:url(#SVGID_17_);fill:#393C80;}
	.st53{clip-path:url(#SVGID_17_);fill:#4A5486;}
	.st54{opacity:0.46;clip-path:url(#SVGID_17_);fill:#3F4980;}
	.st55{opacity:0.49;clip-path:url(#SVGID_17_);fill:#393C80;}
	.st56{fill:#393C80;}
	.st57{fill:#53A6C1;}
	.st58{opacity:0.46;clip-path:url(#SVGID_13_);fill:#3F4980;}
	.st59{opacity:0.58;clip-path:url(#SVGID_13_);}
	.st60{fill:#4A5486;}
	.st61{fill:none;stroke:#53A6C1;stroke-miterlimit:10;}
	.st62{clip-path:url(#SVGID_8_);fill:none;stroke:#4A5486;stroke-width:3;stroke-miterlimit:10;}
	.st63{opacity:0.81;clip-path:url(#SVGID_8_);}
	.st64{fill:#D4D3D2;}
	.st65{clip-path:url(#SVGID_23_);}
	.st66{clip-path:url(#SVGID_29_);}
	.st67{fill:#51A5C1;}
	.st68{clip-path:url(#SVGID_35_);}
	.st69{clip-path:url(#SVGID_38_);}
	.st70{fill:#828181;}
	.st71{clip-path:url(#SVGID_41_);}
	.st72{clip-path:url(#SVGID_43_);}
	.st73{clip-path:url(#SVGID_45_);fill:url(#SVGID_46_);}
	.st74{opacity:0.46;clip-path:url(#SVGID_45_);fill:#3F3CB2;}
	.st75{opacity:0.15;clip-path:url(#SVGID_45_);fill:#352D90;}
	.st76{fill:#352D90;}
	.st77{fill:#07C0D7;}
	.st78{opacity:0.46;clip-path:url(#SVGID_43_);fill:#3F3CB2;}
	.st79{fill:#5050C1;}
	.st80{fill:none;stroke:#07C0D7;stroke-miterlimit:10;}
	.st81{fill:#3F3CB2;}
	.st82{opacity:0.81;fill:#352D90;}
	.st83{fill:none;stroke:#5050C1;stroke-width:3;stroke-miterlimit:10;}
	.st84{clip-path:url(#SVGID_48_);fill:#5747E4;}
	.st85{clip-path:url(#SVGID_50_);fill:#6C69E2;}
	.st86{clip-path:url(#SVGID_52_);fill:#6C69E2;}
	.st87{clip-path:url(#SVGID_55_);fill:#5747E4;}
	.st88{fill:#5747E4;stroke:#5747E4;stroke-width:0.5;stroke-linecap:round;stroke-linejoin:round;stroke-miterlimit:10;}
	.st89{fill:none;stroke:#DBDBDB;stroke-width:0.5;stroke-miterlimit:10;}
	.st90{fill:#6864E5;}
	.st91{fill:url(#SVGID_57_);}
	.st92{fill:url(#SVGID_59_);}
	.st93{fill:url(#SVGID_61_);}
	.st94{opacity:0.33;}
	.st95{clip-path:url(#SVGID_65_);}
	.st96{clip-path:url(#SVGID_71_);}
	.st97{clip-path:url(#SVGID_77_);}
	.st98{clip-path:url(#SVGID_80_);}
	.st99{clip-path:url(#SVGID_83_);}
	.st100{clip-path:url(#SVGID_85_);}
	.st101{clip-path:url(#SVGID_87_);fill:url(#SVGID_88_);}
	.st102{opacity:0.46;clip-path:url(#SVGID_87_);fill:#3F3CB2;}
	.st103{opacity:0.15;clip-path:url(#SVGID_87_);fill:#352D90;}
	.st104{opacity:0.46;clip-path:url(#SVGID_85_);fill:#3F3CB2;}
	.st105{clip-path:url(#SVGID_90_);fill:#5747E4;}
	.st106{clip-path:url(#SVGID_92_);fill:#6C69E2;}
	.st107{clip-path:url(#SVGID_94_);fill:#6C69E2;}
	.st108{clip-path:url(#SVGID_96_);fill:#5747E4;}
	.st109{fill:#6F6F6E;}
	.st110{clip-path:url(#SVGID_98_);fill:#808080;}
	.st111{clip-path:url(#SVGID_100_);fill:#979797;}
	.st112{clip-path:url(#SVGID_104_);fill:#979797;}
	.st113{clip-path:url(#SVGID_108_);fill:#828181;}
	.st114{clip-path:url(#SVGID_112_);}
	.st115{clip-path:url(#SVGID_118_);}
	.st116{clip-path:url(#SVGID_124_);}
	.st117{clip-path:url(#SVGID_127_);}
	.st118{fill:#D7D9DE;}
	.st119{fill:#C0B6CE;}
	.st120{fill:#8890BC;}
	.st121{fill:#8282C2;}
	.st122{opacity:0.39;}
	.st123{clip-path:url(#SVGID_136_);}
	.st124{fill:#B1B1E8;}
	.st125{fill:#99A1C5;}
	.st126{fill:#352D8D;}
	.st127{fill:#DFAD97;}
	.st128{fill:#4764BB;}
	.st129{fill:#5172D9;}
	.st130{fill:#060412;}
	.st131{fill:none;stroke:#060412;stroke-width:0.9422;stroke-miterlimit:10;}
	.st132{fill:#171032;}
	.st133{fill:#211D49;}
	.st134{opacity:0.22;fill:none;stroke:#FFFFFF;stroke-width:0.25;stroke-miterlimit:10;}
	.st135{fill:#2E2C60;}
	.st136{fill:#1C163F;}
	.st137{fill:#271F50;}
	.st138{fill:#D7DDFF;}
	.st139{fill:none;stroke:#FFFFFF;stroke-width:0.3951;stroke-linecap:round;stroke-linejoin:round;stroke-miterlimit:10;}
	.st140{fill:none;stroke:#FFFFFF;stroke-width:0.4765;stroke-linecap:round;stroke-linejoin:round;stroke-miterlimit:10;}
	.st141{fill:none;stroke:#FFFFFF;stroke-width:0.4362;stroke-linecap:round;stroke-linejoin:round;stroke-miterlimit:10;}
	.st142{clip-path:url(#SVGID_138_);}
	.st143{fill:#8091E8;}
	.st144{fill:#808080;}
	.st145{fill:none;stroke:#5C5CC4;stroke-miterlimit:10;}
	.st146{fill:#5C5CC4;}
	.st147{fill:none;stroke:#5747E4;stroke-miterlimit:10;}
	.st148{opacity:0.5;}
	.st149{fill:#9798A0;}
	.st150{opacity:0.3;fill:#C0B6CE;}
	.st151{opacity:0.5;fill:#FFFFFF;}
	.st152{clip-path:url(#SVGID_142_);}
	.st153{opacity:0.3;fill:#FFFFFF;}
	.st154{opacity:0.3;fill-rule:evenodd;clip-rule:evenodd;fill:#C0B6CE;}
	.st155{fill-rule:evenodd;clip-rule:evenodd;fill:#5747E4;}
	.st156{fill-rule:evenodd;clip-rule:evenodd;fill:#FFFFFF;}
	.st157{fill-rule:evenodd;clip-rule:evenodd;fill:#9ABED8;}
	.st158{fill:#D6DEE4;}
	.st159{fill:#DBD9DF;}
	.st160{fill:#E6E5EC;}
	.st161{fill:#90B0DF;}
	.st162{opacity:0.49;}
	.st163{clip-path:url(#SVGID_146_);}
	.st164{fill:#8C94BE;}
	.st165{fill:#8D95BF;}
	.st166{fill:#8E96BF;}
	.st167{fill:#8F97C0;}
	.st168{fill:#9098C0;}
	.st169{fill:#9199C1;}
	.st170{fill:#929AC1;}
	.st171{fill:#939BC2;}
	.st172{fill:#949CC3;}
	.st173{fill:#959DC3;}
	.st174{fill:#969EC4;}
	.st175{fill:#979FC4;}
	.st176{fill:#98A0C5;}
	.st177{fill:#9BA3C6;}
	.st178{fill:#9CA4C6;}
	.st179{fill:#9DA5C7;}
	.st180{clip-path:url(#SVGID_148_);}
	.st181{clip-path:url(#SVGID_150_);}
	.st182{clip-path:url(#SVGID_152_);}
	.st183{clip-path:url(#SVGID_154_);}
	.st184{clip-path:url(#SVGID_156_);}
	.st185{clip-path:url(#SVGID_158_);fill:#5747E4;}
	.st186{clip-path:url(#SVGID_160_);fill:#6C69E2;}
	.st187{clip-path:url(#SVGID_162_);fill:#5747E4;}
	.st188{clip-path:url(#SVGID_164_);fill:#6C69E2;}
	.st189{clip-path:url(#SVGID_166_);}
	.st190{clip-path:url(#SVGID_171_);}
	.st191{clip-path:url(#SVGID_177_);}
	.st192{clip-path:url(#SVGID_183_);}
	.st193{clip-path:url(#SVGID_189_);}
	.st194{clip-path:url(#SVGID_192_);}
	.st195{clip-path:url(#SVGID_194_);}
	.st196{clip-path:url(#SVGID_196_);}
	.st197{clip-path:url(#SVGID_198_);}
	.st198{clip-path:url(#SVGID_200_);}
	.st199{clip-path:url(#SVGID_202_);}
	.st200{clip-path:url(#SVGID_204_);}
	.st201{clip-path:url(#SVGID_206_);fill:url(#SVGID_207_);}
	.st202{opacity:0.46;clip-path:url(#SVGID_206_);fill:#3F3CB2;}
	.st203{opacity:0.15;clip-path:url(#SVGID_206_);fill:#352D90;}
	.st204{opacity:0.46;clip-path:url(#SVGID_204_);fill:#3F3CB2;}
	.st205{clip-path:url(#SVGID_209_);fill:#5747E4;}
	.st206{clip-path:url(#SVGID_211_);fill:#6C69E2;}
	.st207{clip-path:url(#SVGID_213_);fill:#5747E4;}
	.st208{clip-path:url(#SVGID_215_);fill:#6C69E2;}
	.st209{fill:none;stroke:#D2D2D2;stroke-miterlimit:10;}
	.st210{clip-path:url(#SVGID_217_);}
	.st211{fill:#4A48C9;}
	.st212{fill:#4847C8;}
	.st213{fill:#4746C7;}
	.st214{fill:#4645C6;}
	.st215{fill:#4543C6;}
	.st216{fill:#4442C5;}
	.st217{fill:#4341C4;}
	.st218{fill:#4340C3;}
	.st219{fill:#423FC3;}
	.st220{fill:#413FC2;}
	.st221{fill:#5050CF;}
	.st222{fill:#4F4ECE;}
	.st223{fill:#4D4DCD;}
	.st224{fill:#4C4BCB;}
	.st225{fill:#4B4ACA;}
	.st226{fill:#413EC1;}
	.st227{fill:#403DC1;}
	.st228{fill:#403DC0;}
	.st229{fill:#3F3CC0;}
	.st230{clip-path:url(#SVGID_219_);}
	.st231{fill:#07CEE5;}
	.st232{clip-path:url(#SVGID_221_);}
	.st233{clip-path:url(#SVGID_223_);}
	.st234{fill:#D2CAE1;}
	.st235{clip-path:url(#SVGID_225_);}
	.st236{fill:#9DA5CF;}
	.st237{fill:#9EA6D0;}
	.st238{fill:#9FA7D0;}
	.st239{fill:#A0A8D1;}
	.st240{fill:#A1A9D1;}
	.st241{fill:#A2AAD2;}
	.st242{fill:#A3ABD2;}
	.st243{fill:#A4ACD3;}
	.st244{fill:#A5ADD4;}
	.st245{fill:#A6AED4;}
	.st246{fill:#A7AFD5;}
	.st247{fill:#A8B0D5;}
	.st248{fill:#A9B1D6;}
	.st249{fill:#AAB2D6;}
	.st250{fill:#ACB4D7;}
	.st251{fill:#ADB5D7;}
	.st252{fill:#AEB6D8;}
	.st253{fill:#383A85;}
	.st254{fill-rule:evenodd;clip-rule:evenodd;fill:#F1CBBB;}
	.st255{fill-rule:evenodd;clip-rule:evenodd;fill:#F0BEA8;}
	.st256{fill-rule:evenodd;clip-rule:evenodd;fill:#99A1CD;}
	.st257{fill-rule:evenodd;clip-rule:evenodd;fill:#5050CF;}
	.st258{fill-rule:evenodd;clip-rule:evenodd;fill:#EFB79A;}
	.st259{fill-rule:evenodd;clip-rule:evenodd;fill:#D1C7DF;}
	.st260{clip-path:url(#SVGID_227_);}
	.st261{clip-path:url(#SVGID_229_);}
	.st262{clip-path:url(#SVGID_231_);}
	.st263{clip-path:url(#SVGID_233_);}
	.st264{fill-rule:evenodd;clip-rule:evenodd;fill:#352D9E;}
	.st265{clip-path:url(#SVGID_235_);}
	.st266{fill:#FF6683;}
	.st267{fill:#352D9E;}
	.st268{fill:#575756;}
	.st269{opacity:0.1;clip-path:url(#SVGID_237_);}
	.st270{fill:#ECECEC;}
	.st271{fill:#5747F5;}
	.st272{fill:#E4E4E4;}
	.st273{fill:#F5F5F5;}
	.st274{fill:#E0E0E0;}
	.st275{fill:#27DEBF;}
	.st276{fill:#AFA8BB;}
	.st277{fill:#263238;}
	.st278{opacity:0.2;fill:#8890BC;}
	.st279{opacity:0.2;fill:#4645B5;}
	.st280{fill:#C3998A;}
	.st281{fill:#262472;}
	.st282{opacity:0.2;}
	.st283{fill-rule:evenodd;clip-rule:evenodd;fill:#00000F;}
	.st284{fill:#FFFFFF;stroke:#DBDBDB;stroke-miterlimit:10;}
	.st285{opacity:0.35;fill:#DBDBDB;}
	.st286{opacity:0.78;}
	.st287{fill:#FFFFFF;stroke:#FFFFFF;stroke-width:0.2;stroke-miterlimit:10;}
	.st288{fill:url(#SVGID_238_);}
	.st289{fill:url(#SVGID_239_);}
	.st290{fill:url(#SVGID_240_);}
	.st291{fill:url(#SVGID_241_);}
	.st292{opacity:0.2;enable-background:new    ;}
	.st293{opacity:0.12;enable-background:new    ;}
	.st294{opacity:0.25;fill:#FFFFFF;enable-background:new    ;}
	.st295{clip-path:url(#SVGID_243_);}
	.st296{clip-path:url(#SVGID_246_);fill:#FFFFFF;}
	.st297{clip-path:url(#SVGID_248_);fill:#D8D8D8;}
	.st298{clip-path:url(#SVGID_250_);fill:#D8D8D8;}
	.st299{clip-path:url(#SVGID_254_);}
	.st300{clip-path:url(#SVGID_257_);}
	.st301{clip-path:url(#SVGID_259_);fill:url(#SVGID_260_);}
	.st302{opacity:0.46;clip-path:url(#SVGID_259_);fill:#3F3CB2;}
	.st303{opacity:0.15;clip-path:url(#SVGID_259_);fill:#352D90;}
	.st304{opacity:0.46;clip-path:url(#SVGID_257_);fill:#3F3CB2;}
	.st305{fill:#FFFFFF;stroke:#FFFFFF;stroke-width:0.25;stroke-miterlimit:10;}
	.st306{fill:#FFFFFF;stroke:#FFFFFF;stroke-width:0.25;stroke-linecap:round;stroke-linejoin:round;stroke-miterlimit:10;}
	.st307{clip-path:url(#SVGID_264_);fill:#FFFFFF;}
	.st308{clip-path:url(#SVGID_266_);fill:#F0F0F2;}
	.st309{clip-path:url(#SVGID_268_);fill:#F0F0F2;}
	.st310{clip-path:url(#SVGID_270_);fill:#FFFFFF;}
	.st311{opacity:0.39;clip-path:url(#SVGID_272_);fill:#D2D2D2;}
	.st312{opacity:0.32;clip-path:url(#SVGID_272_);fill:#D2D2D2;}
	.st313{clip-path:url(#SVGID_272_);}
	.st314{clip-path:url(#SVGID_272_);fill:none;stroke:#DBDBDB;stroke-width:3;stroke-miterlimit:10;}
	.st315{opacity:0.81;clip-path:url(#SVGID_272_);}
	.st316{clip-path:url(#SVGID_274_);}
	.st317{clip-path:url(#SVGID_276_);fill:url(#SVGID_277_);}
	.st318{opacity:0.46;clip-path:url(#SVGID_276_);fill:#3F3CB2;}
	.st319{opacity:0.15;clip-path:url(#SVGID_276_);fill:#352D90;}
	.st320{opacity:0.46;clip-path:url(#SVGID_274_);fill:#3F3CB2;}
	.st321{clip-path:url(#SVGID_281_);}
	.st322{clip-path:url(#SVGID_283_);fill:none;stroke:#DBDBDB;stroke-width:3;stroke-miterlimit:10;}
	.st323{opacity:0.81;clip-path:url(#SVGID_283_);}
	.st324{fill-rule:evenodd;clip-rule:evenodd;fill:#D7D9DE;}
	.st325{fill-rule:evenodd;clip-rule:evenodd;fill:#E7EAED;}
	.st326{fill-rule:evenodd;clip-rule:evenodd;fill:#FFEFF0;}
	.st327{fill-rule:evenodd;clip-rule:evenodd;fill:#C6C7C8;}
	.st328{fill-rule:evenodd;clip-rule:evenodd;fill:#E6E7E8;}
	.st329{fill-rule:evenodd;clip-rule:evenodd;fill:#C9C2C0;}
	.st330{fill-rule:evenodd;clip-rule:evenodd;fill:#E2DEDB;}
	.st331{fill-rule:evenodd;clip-rule:evenodd;fill:#B1B1E8;}
	.st332{fill-rule:evenodd;clip-rule:evenodd;fill:#9AA2C3;}
	.st333{fill-rule:evenodd;clip-rule:evenodd;fill:#D9D2E2;}
	.st334{fill-rule:evenodd;clip-rule:evenodd;fill:#0B1329;}
	.st335{fill-rule:evenodd;clip-rule:evenodd;fill:#EAA180;}
	.st336{fill-rule:evenodd;clip-rule:evenodd;fill:#78809D;}
	.st337{clip-path:url(#SVGID_285_);}
	.st338{opacity:0.32;clip-path:url(#SVGID_285_);fill:#D2D2D2;}
	.st339{clip-path:url(#SVGID_287_);}
	.st340{clip-path:url(#SVGID_289_);fill:url(#SVGID_290_);}
	.st341{opacity:0.46;clip-path:url(#SVGID_289_);fill:#3F3CB2;}
	.st342{opacity:0.15;clip-path:url(#SVGID_289_);fill:#352D90;}
	.st343{opacity:0.46;clip-path:url(#SVGID_287_);fill:#3F3CB2;}
	.st344{clip-path:url(#SVGID_285_);fill:none;stroke:#DBDBDB;stroke-width:3;stroke-miterlimit:10;}
	.st345{opacity:0.81;clip-path:url(#SVGID_285_);}
	.st346{clip-path:url(#SVGID_292_);}
	.st347{clip-path:url(#SVGID_294_);}
	.st348{clip-path:url(#SVGID_296_);fill:url(#SVGID_297_);}
	.st349{opacity:0.46;clip-path:url(#SVGID_296_);fill:#3F3CB2;}
	.st350{opacity:0.15;clip-path:url(#SVGID_296_);fill:#352D90;}
	.st351{opacity:0.46;clip-path:url(#SVGID_294_);fill:#3F3CB2;}
	.st352{fill:#412965;}
	.st353{fill:#EFE4DA;}
	.st354{fill:#E3D5C8;}
	.st355{fill:#BADBF0;}
	.st356{fill:#9A6A91;}
	.st357{fill:#B17644;}
	.st358{fill:#009245;}
	.st359{fill:#006837;}
	.st360{fill:#FFF1D2;}
	.st361{opacity:0.56;fill:#C1B9D0;}
	.st362{fill:none;stroke:#9A6A91;stroke-width:2.9512;stroke-miterlimit:10;}
	.st363{fill:#D6EFFD;}
	.st364{fill:none;stroke:#9A6A91;stroke-width:2.8383;stroke-miterlimit:10;}
	.st365{fill:none;stroke:#FFFFFF;stroke-width:1.0888;stroke-miterlimit:10;}
	.st366{fill:none;stroke:#FAFAFA;stroke-width:1.103;stroke-linecap:round;stroke-linejoin:round;stroke-miterlimit:10;}
	.st367{fill:#2B4183;}
	.st368{fill:none;stroke:#F0E0DF;stroke-width:2.2132;stroke-miterlimit:10;}
	.st369{fill:#FF668B;}
	.st370{fill:none;stroke:#FFFFFF;stroke-width:2.0174;stroke-miterlimit:10;}
	.st371{fill:#7041FD;}
	.st372{fill:#8155FF;}
	.st373{fill:#F6F6F6;}
	.st374{opacity:0.71;}
	.st375{clip-path:url(#SVGID_299_);fill:#FFFFFF;}
	.st376{fill:#8054FF;}
	.st377{fill:#181F42;}
	.st378{fill:none;stroke:#FFFFFF;stroke-width:1.5042;stroke-linecap:round;stroke-linejoin:round;stroke-miterlimit:10;}
	.st379{fill:none;stroke:#979797;stroke-width:0.7565;stroke-miterlimit:10;}
</style>
<g>
	<path class="st372" d="M17.27,7.29c0-0.52-0.01-0.97,0-1.42c0.03-1.55,1.26-2.77,2.79-2.77c1.53,0,2.76,1.22,2.79,2.77
		c0.01,0.45,0,0.9,0,1.39c1.86,0,3.69,0,5.59,0c0-0.41,0-0.82,0-1.24c0.01-1.66,1.2-2.91,2.78-2.92c1.6-0.01,2.8,1.24,2.81,2.93
		c0,0.4,0,0.81,0,1.24c1.86,0,3.69,0,5.59,0c0-0.49-0.01-0.99,0-1.49c0.05-1.34,1.05-2.44,2.41-2.65c1.25-0.19,2.55,0.57,2.98,1.78
		c0.12,0.32,0.16,0.68,0.19,1.02c0.03,0.43,0.01,0.87,0.01,1.37c0.19,0,0.36,0,0.53,0c1.21,0.02,2.43-0.06,3.62,0.09
		c1.64,0.21,2.83,1.67,2.84,3.33c0.02,6.04,0.01,12.08,0.01,18.12c0,0.51-0.29,0.82-0.71,0.81c-0.42-0.01-0.68-0.32-0.68-0.84
		c0-3.73,0-7.45,0-11.18c0-0.17,0-0.34,0-0.53c-13.05,0-26.06,0-39.14,0c0,0.15,0,0.31,0,0.46c0,6.97,0,13.94,0,20.92
		c0,1.51,0.84,2.36,2.34,2.36c6.3,0,12.61,0,18.91,0c0.15,0,0.29-0.01,0.44,0.01c0.39,0.04,0.66,0.32,0.67,0.68
		c0.01,0.38-0.27,0.67-0.68,0.71c-0.1,0.01-0.2,0-0.31,0c-6.36,0-12.72,0-19.09,0c-2.19,0-3.68-1.48-3.68-3.67c0-9.2,0-18.4,0-27.6
		c0-2.18,1.49-3.67,3.68-3.67C15.05,7.29,16.14,7.29,17.27,7.29z M22.86,8.71c0,0.49,0.01,0.92,0,1.36
		c-0.02,1.59-1.24,2.81-2.79,2.81c-1.55,0-2.77-1.23-2.79-2.81c-0.01-0.45,0-0.89,0-1.32c-0.07-0.03-0.1-0.05-0.12-0.05
		c-1.11,0-2.21-0.01-3.32-0.01c-1.25,0.01-2.14,0.91-2.15,2.16c-0.01,1.21,0,2.42,0,3.62c0,0.39,0,0.78,0,1.17
		c13.07,0,26.09,0,39.13,0c0-1.7,0.03-3.37-0.01-5.04c-0.03-1.06-0.96-1.88-2.03-1.91c-0.64-0.02-1.28,0-1.92,0
		c-0.53,0-1.07,0-1.62,0c0,0.49,0.03,0.93-0.01,1.36c-0.04,0.39-0.09,0.79-0.24,1.14c-0.49,1.19-1.78,1.88-3.01,1.65
		c-1.34-0.26-2.29-1.34-2.33-2.67c-0.01-0.49,0-0.98,0-1.46c-1.9,0-3.73,0-5.59,0c0,0.43,0,0.83,0,1.24
		c-0.01,1.69-1.21,2.94-2.81,2.93c-1.58-0.01-2.77-1.26-2.78-2.91c0-0.42,0-0.83,0-1.26C26.57,8.71,24.74,8.71,22.86,8.71z
		 M21.46,8.03c0-0.68,0-1.37,0-2.05c-0.01-0.86-0.59-1.48-1.39-1.48c-0.8-0.01-1.4,0.61-1.41,1.46c-0.01,1.35-0.01,2.71,0,4.06
		c0,0.85,0.61,1.47,1.41,1.46c0.79-0.01,1.38-0.63,1.39-1.48C21.47,9.34,21.46,8.69,21.46,8.03z M32.65,7.99
		c0-0.68,0.01-1.37,0-2.05c-0.01-0.82-0.61-1.44-1.38-1.44c-0.8-0.01-1.4,0.61-1.41,1.46c-0.01,1.35-0.01,2.71,0,4.06
		c0,0.85,0.61,1.47,1.4,1.47c0.79,0,1.38-0.63,1.39-1.48C32.65,9.33,32.65,8.66,32.65,7.99z M41.03,7.99c0,0.67,0,1.34,0,2.01
		c0.01,0.85,0.59,1.48,1.39,1.48c0.79,0.01,1.4-0.62,1.41-1.46c0.01-1.35,0.01-2.71,0-4.06c0-0.85-0.61-1.47-1.41-1.46
		c-0.8,0.01-1.38,0.63-1.38,1.48C41.03,6.65,41.03,7.32,41.03,7.99z"/>
	<path class="st372" d="M43.15,45.02c-5.06,0-9.11-4.06-9.11-9.14c0-4.95,4.09-9.01,9.1-9.02c4.97-0.01,9.07,4.09,9.07,9.06
		C52.21,40.93,48.15,45.02,43.15,45.02z M43.14,43.62c4.19,0.01,7.66-3.44,7.67-7.62c0.02-4.26-3.42-7.74-7.64-7.75
		c-4.29,0-7.73,3.41-7.74,7.69C35.43,40.17,38.89,43.62,43.14,43.62z"/>
	<path class="st372" d="M18.67,25.46c-0.47,0-0.93,0.01-1.4,0c-0.79-0.02-1.38-0.6-1.39-1.39c-0.01-0.7-0.01-1.4,0-2.1
		c0.01-0.8,0.59-1.39,1.38-1.4c0.95-0.02,1.89-0.02,2.84,0c0.77,0.01,1.35,0.6,1.37,1.36c0.02,0.71,0.02,1.43,0,2.14
		c-0.02,0.79-0.6,1.36-1.4,1.38C19.6,25.47,19.13,25.46,18.67,25.46z M20.04,24.04c0-0.7,0-1.38,0-2.04c-0.94,0-1.84,0-2.75,0
		c0,0.7,0,1.36,0,2.04C18.21,24.04,19.1,24.04,20.04,24.04z"/>
	<path class="st372" d="M27.05,25.46c-0.47,0-0.93,0.01-1.4,0c-0.79-0.02-1.37-0.6-1.39-1.39c-0.01-0.7-0.01-1.4,0-2.1
		c0.02-0.81,0.6-1.39,1.42-1.4c0.92-0.01,1.83-0.01,2.75,0c0.81,0.01,1.4,0.6,1.41,1.41c0.01,0.68,0.01,1.37,0,2.05
		c-0.01,0.84-0.6,1.41-1.45,1.42C27.95,25.46,27.5,25.46,27.05,25.46z M28.43,21.99c-0.94,0-1.85,0-2.74,0c0,0.7,0,1.38,0,2.04
		c0.93,0,1.83,0,2.74,0C28.43,23.35,28.43,22.69,28.43,21.99z"/>
	<path class="st372" d="M35.44,20.57c0.47,0,0.93-0.01,1.4,0c0.79,0.02,1.38,0.6,1.39,1.38c0.02,0.71,0.02,1.43,0,2.14
		c-0.02,0.76-0.6,1.35-1.37,1.36c-0.95,0.02-1.89,0.02-2.84,0c-0.77-0.01-1.35-0.6-1.37-1.36c-0.02-0.73-0.02-1.46,0-2.18
		c0.02-0.74,0.6-1.31,1.35-1.34C34.48,20.55,34.96,20.57,35.44,20.57z M36.81,24.04c0-0.71,0-1.38,0-2.04c-0.94,0-1.84,0-2.74,0
		c0,0.7,0,1.36,0,2.04C34.99,24.04,35.88,24.04,36.81,24.04z"/>
	<path class="st372" d="M43.84,25.46c-0.47,0-0.93,0.01-1.4,0c-0.81-0.02-1.39-0.6-1.41-1.42c-0.01-0.68-0.01-1.37,0-2.05
		c0.01-0.82,0.59-1.41,1.4-1.42c0.93-0.01,1.86-0.01,2.79,0c0.79,0.01,1.37,0.6,1.39,1.39c0.01,0.7,0.01,1.4,0,2.1
		c-0.02,0.81-0.61,1.38-1.43,1.4C44.74,25.46,44.29,25.46,43.84,25.46z M45.19,24.04c0-0.71,0-1.39,0-2.06c-0.93,0-1.82,0-2.74,0
		c0,0.69,0,1.37,0,2.06C43.38,24.04,44.27,24.04,45.19,24.04z"/>
	<path class="st372" d="M18.67,26.85c0.47,0,0.93-0.01,1.4,0c0.79,0.02,1.38,0.6,1.39,1.39c0.02,0.71,0.02,1.43,0,2.14
		c-0.02,0.76-0.6,1.35-1.37,1.36c-0.95,0.02-1.89,0.02-2.84,0c-0.77-0.01-1.35-0.6-1.37-1.36c-0.02-0.73-0.02-1.46,0-2.18
		c0.02-0.74,0.6-1.31,1.35-1.34C17.71,26.84,18.19,26.86,18.67,26.85z M17.3,28.27c0,0.71,0,1.38,0,2.04c0.94,0,1.84,0,2.74,0
		c0-0.7,0-1.36,0-2.04C19.12,28.27,18.23,28.27,17.3,28.27z"/>
	<path class="st372" d="M27.06,26.85c0.47,0,0.93-0.01,1.4,0c0.79,0.02,1.38,0.6,1.39,1.39c0.02,0.71,0.02,1.43,0,2.14
		c-0.02,0.76-0.6,1.35-1.37,1.36c-0.95,0.02-1.89,0.02-2.84,0c-0.77-0.01-1.35-0.6-1.37-1.36c-0.02-0.73-0.02-1.46,0-2.18
		c0.02-0.74,0.6-1.31,1.35-1.34C26.09,26.84,26.58,26.86,27.06,26.85z M28.44,28.28c-0.95,0-1.85,0-2.76,0c0,0.7,0,1.37,0,2.03
		c0.94,0,1.84,0,2.76,0C28.44,29.62,28.44,28.97,28.44,28.28z"/>
	<path class="st372" d="M18.65,38.03c-0.44,0-0.87,0.01-1.31,0c-0.87-0.01-1.45-0.59-1.47-1.45c-0.01-0.67-0.01-1.34,0-2.01
		c0.01-0.84,0.59-1.42,1.43-1.43c0.9-0.01,1.8-0.01,2.71,0c0.84,0.01,1.43,0.59,1.44,1.42c0.01,0.68,0.01,1.37,0,2.05
		c-0.01,0.82-0.6,1.39-1.41,1.41C19.58,38.04,19.12,38.03,18.65,38.03z M20.04,36.62c0-0.71,0-1.38,0-2.04c-0.94,0-1.84,0-2.74,0
		c0,0.7,0,1.36,0,2.04C18.21,36.62,19.11,36.62,20.04,36.62z"/>
	<path class="st372" d="M27.06,33.14c0.47,0,0.93-0.01,1.4,0c0.79,0.02,1.37,0.6,1.39,1.39c0.01,0.7,0.01,1.4,0,2.1
		c-0.02,0.81-0.6,1.39-1.42,1.4c-0.92,0.01-1.83,0.01-2.75,0c-0.81-0.01-1.4-0.6-1.41-1.41c-0.01-0.68-0.01-1.37,0-2.05
		c0.01-0.84,0.6-1.41,1.44-1.42C26.16,33.14,26.61,33.14,27.06,33.14z M28.42,36.62c0-0.72,0-1.39,0-2.06c-0.93,0-1.83,0-2.73,0
		c0,0.7,0,1.37,0,2.06C26.61,36.62,27.5,36.62,28.42,36.62z"/>
	<path class="st372" d="M34.06,28.25c0,0.72,0,1.39,0,2.06c0.1,0.04,0.2,0.07,0.29,0.12c0.31,0.16,0.45,0.42,0.38,0.76
		c-0.08,0.35-0.32,0.54-0.69,0.56c-0.69,0.03-1.35-0.58-1.38-1.31c-0.03-0.76-0.03-1.51,0-2.27c0.03-0.72,0.61-1.29,1.33-1.3
		c0.93-0.02,1.86-0.01,2.8,0c0.45,0,0.74,0.29,0.75,0.68c0.01,0.41-0.3,0.7-0.77,0.71C35.87,28.26,34.99,28.25,34.06,28.25z"/>
	<path class="st372" d="M41.74,38.45c0.6-0.61,1.17-1.18,1.73-1.74c1.19-1.19,2.38-2.39,3.58-3.58c0.39-0.39,0.8-0.42,1.11-0.09
		c0.3,0.31,0.27,0.7-0.11,1.08c-1.9,1.91-3.8,3.81-5.71,5.71c-0.43,0.43-0.77,0.42-1.2,0c-0.92-0.91-1.83-1.83-2.75-2.75
		c-0.38-0.38-0.41-0.76-0.11-1.07c0.31-0.32,0.71-0.3,1.11,0.1C40.15,36.86,40.92,37.63,41.74,38.45z"/>
</g>
</svg>
