<?xml version="1.0" encoding="utf-8"?>
<!-- Generator: Adobe Illustrator 24.2.1, SVG Export Plug-In . SVG Version: 6.00 Build 0)  -->
<svg version="1.1" id="Capa_1" xmlns="http://www.w3.org/2000/svg" xmlns:xlink="http://www.w3.org/1999/xlink" x="0px" y="0px"
	 viewBox="0 0 108 90.73" style="enable-background:new 0 0 108 90.73;" xml:space="preserve">
<style type="text/css">
	.st0{opacity:0.43;}
	.st1{fill:#C1B9D0;}
	.st2{opacity:0.68;fill:#9199C1;}
	.st3{fill:#383A80;}
	.st4{fill-rule:evenodd;clip-rule:evenodd;fill:#E0BAAA;}
	.st5{fill-rule:evenodd;clip-rule:evenodd;fill:#DFAD97;}
	.st6{fill-rule:evenodd;clip-rule:evenodd;fill:#8890BC;}
	.st7{fill-rule:evenodd;clip-rule:evenodd;fill:#5050BE;}
	.st8{fill-rule:evenodd;clip-rule:evenodd;fill:#DEA689;}
	.st9{fill-rule:evenodd;clip-rule:evenodd;fill:#C0B6CE;}
	.st10{clip-path:url(#SVGID_2_);}
	.st11{fill:#5050BE;}
	.st12{fill:#4F4EBD;}
	.st13{fill:#4D4DBC;}
	.st14{fill:#4C4BBA;}
	.st15{fill:#4B4AB9;}
	.st16{fill:#4A48B8;}
	.st17{fill:#4847B7;}
	.st18{fill:#4746B6;}
	.st19{fill:#4645B5;}
	.st20{fill:#4543B5;}
	.st21{fill:#4442B4;}
	.st22{fill:#4341B3;}
	.st23{fill:#4340B2;}
	.st24{fill:#423FB2;}
	.st25{fill:#413FB1;}
	.st26{fill:#413EB0;}
	.st27{fill:#403DB0;}
	.st28{fill:#403DAF;}
	.st29{fill:#3F3CAF;}
	.st30{clip-path:url(#SVGID_4_);}
	.st31{opacity:0.81;}
	.st32{fill-rule:evenodd;clip-rule:evenodd;fill:#352D8D;}
	.st33{clip-path:url(#SVGID_6_);}
	.st34{fill:#FFFFFF;}
	.st35{fill:#37474F;}
	.st36{fill:#FF6680;}
	.st37{fill:#5747E4;}
	.st38{fill:#D3D3D3;}
	.st39{fill:none;stroke:#ACACAB;stroke-miterlimit:10;}
	.st40{opacity:0.32;fill:#D2D2D2;}
	.st41{fill:#D2D2D2;}
	.st42{fill:#ACACAB;}
	.st43{opacity:0.39;fill:#D2D2D2;}
	.st44{fill:none;stroke:#DBDBDB;stroke-width:3;stroke-miterlimit:10;}
	.st45{fill:#DBDBDB;}
	.st46{fill:none;}
	.st47{fill:none;stroke:#3C3C3B;stroke-miterlimit:10;}
	.st48{clip-path:url(#SVGID_8_);}
	.st49{clip-path:url(#SVGID_10_);}
	.st50{clip-path:url(#SVGID_13_);}
	.st51{clip-path:url(#SVGID_17_);fill:url(#SVGID_19_);}
	.st52{opacity:0.81;clip-path:url(#SVGID_17_);fill:#393C80;}
	.st53{clip-path:url(#SVGID_17_);fill:#4A5486;}
	.st54{opacity:0.46;clip-path:url(#SVGID_17_);fill:#3F4980;}
	.st55{opacity:0.49;clip-path:url(#SVGID_17_);fill:#393C80;}
	.st56{fill:#393C80;}
	.st57{fill:#53A6C1;}
	.st58{opacity:0.46;clip-path:url(#SVGID_13_);fill:#3F4980;}
	.st59{opacity:0.58;clip-path:url(#SVGID_13_);}
	.st60{fill:#4A5486;}
	.st61{fill:none;stroke:#53A6C1;stroke-miterlimit:10;}
	.st62{clip-path:url(#SVGID_8_);fill:none;stroke:#4A5486;stroke-width:3;stroke-miterlimit:10;}
	.st63{opacity:0.81;clip-path:url(#SVGID_8_);}
	.st64{fill:#D4D3D2;}
	.st65{clip-path:url(#SVGID_23_);}
	.st66{clip-path:url(#SVGID_29_);}
	.st67{fill:#51A5C1;}
	.st68{clip-path:url(#SVGID_35_);}
	.st69{clip-path:url(#SVGID_38_);}
	.st70{fill:#828181;}
	.st71{clip-path:url(#SVGID_41_);}
	.st72{clip-path:url(#SVGID_43_);}
	.st73{clip-path:url(#SVGID_45_);fill:url(#SVGID_46_);}
	.st74{opacity:0.46;clip-path:url(#SVGID_45_);fill:#3F3CB2;}
	.st75{opacity:0.15;clip-path:url(#SVGID_45_);fill:#352D90;}
	.st76{fill:#352D90;}
	.st77{fill:#07C0D7;}
	.st78{opacity:0.46;clip-path:url(#SVGID_43_);fill:#3F3CB2;}
	.st79{fill:#5050C1;}
	.st80{fill:none;stroke:#07C0D7;stroke-miterlimit:10;}
	.st81{fill:#3F3CB2;}
	.st82{opacity:0.81;fill:#352D90;}
	.st83{fill:none;stroke:#5050C1;stroke-width:3;stroke-miterlimit:10;}
	.st84{clip-path:url(#SVGID_48_);fill:#5747E4;}
	.st85{clip-path:url(#SVGID_50_);fill:#6C69E2;}
	.st86{clip-path:url(#SVGID_52_);fill:#6C69E2;}
	.st87{clip-path:url(#SVGID_55_);fill:#5747E4;}
	.st88{fill:#5747E4;stroke:#5747E4;stroke-width:0.5;stroke-linecap:round;stroke-linejoin:round;stroke-miterlimit:10;}
	.st89{fill:none;stroke:#DBDBDB;stroke-width:0.5;stroke-miterlimit:10;}
	.st90{fill:#6864E5;}
	.st91{fill:url(#SVGID_57_);}
	.st92{fill:url(#SVGID_59_);}
	.st93{fill:url(#SVGID_61_);}
	.st94{opacity:0.33;}
	.st95{clip-path:url(#SVGID_65_);}
	.st96{clip-path:url(#SVGID_71_);}
	.st97{clip-path:url(#SVGID_77_);}
	.st98{clip-path:url(#SVGID_80_);}
	.st99{clip-path:url(#SVGID_83_);}
	.st100{clip-path:url(#SVGID_85_);}
	.st101{clip-path:url(#SVGID_87_);fill:url(#SVGID_88_);}
	.st102{opacity:0.46;clip-path:url(#SVGID_87_);fill:#3F3CB2;}
	.st103{opacity:0.15;clip-path:url(#SVGID_87_);fill:#352D90;}
	.st104{opacity:0.46;clip-path:url(#SVGID_85_);fill:#3F3CB2;}
	.st105{clip-path:url(#SVGID_90_);fill:#5747E4;}
	.st106{clip-path:url(#SVGID_92_);fill:#6C69E2;}
	.st107{clip-path:url(#SVGID_94_);fill:#6C69E2;}
	.st108{clip-path:url(#SVGID_96_);fill:#5747E4;}
	.st109{fill:#6F6F6E;}
	.st110{clip-path:url(#SVGID_98_);fill:#808080;}
	.st111{clip-path:url(#SVGID_100_);fill:#979797;}
	.st112{clip-path:url(#SVGID_104_);fill:#979797;}
	.st113{clip-path:url(#SVGID_108_);fill:#828181;}
	.st114{clip-path:url(#SVGID_112_);}
	.st115{clip-path:url(#SVGID_118_);}
	.st116{clip-path:url(#SVGID_124_);}
	.st117{clip-path:url(#SVGID_127_);}
	.st118{fill:#D7D9DE;}
	.st119{fill:#C0B6CE;}
	.st120{fill:#8890BC;}
	.st121{fill:#8282C2;}
	.st122{opacity:0.39;}
	.st123{clip-path:url(#SVGID_136_);}
	.st124{fill:#B1B1E8;}
	.st125{fill:#99A1C5;}
	.st126{fill:#352D8D;}
	.st127{fill:#DFAD97;}
	.st128{fill:#4764BB;}
	.st129{fill:#5172D9;}
	.st130{fill:#060412;}
	.st131{fill:none;stroke:#060412;stroke-width:0.9422;stroke-miterlimit:10;}
	.st132{fill:#171032;}
	.st133{fill:#211D49;}
	.st134{opacity:0.22;fill:none;stroke:#FFFFFF;stroke-width:0.25;stroke-miterlimit:10;}
	.st135{fill:#2E2C60;}
	.st136{fill:#1C163F;}
	.st137{fill:#271F50;}
	.st138{fill:#D7DDFF;}
	.st139{fill:none;stroke:#FFFFFF;stroke-width:0.3951;stroke-linecap:round;stroke-linejoin:round;stroke-miterlimit:10;}
	.st140{fill:none;stroke:#FFFFFF;stroke-width:0.4765;stroke-linecap:round;stroke-linejoin:round;stroke-miterlimit:10;}
	.st141{fill:none;stroke:#FFFFFF;stroke-width:0.4362;stroke-linecap:round;stroke-linejoin:round;stroke-miterlimit:10;}
	.st142{clip-path:url(#SVGID_138_);}
	.st143{fill:#8091E8;}
	.st144{fill:#808080;}
	.st145{fill:none;stroke:#5C5CC4;stroke-miterlimit:10;}
	.st146{fill:#5C5CC4;}
	.st147{fill:none;stroke:#5747E4;stroke-miterlimit:10;}
	.st148{opacity:0.5;}
	.st149{fill:#9798A0;}
	.st150{opacity:0.3;fill:#C0B6CE;}
	.st151{opacity:0.5;fill:#FFFFFF;}
	.st152{clip-path:url(#SVGID_142_);}
	.st153{opacity:0.3;fill:#FFFFFF;}
	.st154{opacity:0.3;fill-rule:evenodd;clip-rule:evenodd;fill:#C0B6CE;}
	.st155{fill-rule:evenodd;clip-rule:evenodd;fill:#5747E4;}
	.st156{fill-rule:evenodd;clip-rule:evenodd;fill:#FFFFFF;}
	.st157{fill-rule:evenodd;clip-rule:evenodd;fill:#9ABED8;}
	.st158{fill:#D6DEE4;}
	.st159{fill:#DBD9DF;}
	.st160{fill:#E6E5EC;}
	.st161{fill:#90B0DF;}
	.st162{opacity:0.49;}
	.st163{clip-path:url(#SVGID_146_);}
	.st164{fill:#8C94BE;}
	.st165{fill:#8D95BF;}
	.st166{fill:#8E96BF;}
	.st167{fill:#8F97C0;}
	.st168{fill:#9098C0;}
	.st169{fill:#9199C1;}
	.st170{fill:#929AC1;}
	.st171{fill:#939BC2;}
	.st172{fill:#949CC3;}
	.st173{fill:#959DC3;}
	.st174{fill:#969EC4;}
	.st175{fill:#979FC4;}
	.st176{fill:#98A0C5;}
	.st177{fill:#9BA3C6;}
	.st178{fill:#9CA4C6;}
	.st179{fill:#9DA5C7;}
	.st180{clip-path:url(#SVGID_148_);}
	.st181{clip-path:url(#SVGID_150_);}
	.st182{clip-path:url(#SVGID_152_);}
	.st183{clip-path:url(#SVGID_154_);}
	.st184{clip-path:url(#SVGID_156_);}
	.st185{clip-path:url(#SVGID_158_);fill:#5747E4;}
	.st186{clip-path:url(#SVGID_160_);fill:#6C69E2;}
	.st187{clip-path:url(#SVGID_162_);fill:#5747E4;}
	.st188{clip-path:url(#SVGID_164_);fill:#6C69E2;}
	.st189{clip-path:url(#SVGID_166_);}
	.st190{clip-path:url(#SVGID_171_);}
	.st191{clip-path:url(#SVGID_177_);}
	.st192{clip-path:url(#SVGID_183_);}
	.st193{clip-path:url(#SVGID_189_);}
	.st194{clip-path:url(#SVGID_192_);}
	.st195{clip-path:url(#SVGID_194_);}
	.st196{clip-path:url(#SVGID_196_);}
	.st197{clip-path:url(#SVGID_198_);}
	.st198{clip-path:url(#SVGID_200_);}
	.st199{clip-path:url(#SVGID_202_);}
	.st200{clip-path:url(#SVGID_204_);}
	.st201{clip-path:url(#SVGID_206_);fill:url(#SVGID_207_);}
	.st202{opacity:0.46;clip-path:url(#SVGID_206_);fill:#3F3CB2;}
	.st203{opacity:0.15;clip-path:url(#SVGID_206_);fill:#352D90;}
	.st204{opacity:0.46;clip-path:url(#SVGID_204_);fill:#3F3CB2;}
	.st205{clip-path:url(#SVGID_209_);fill:#5747E4;}
	.st206{clip-path:url(#SVGID_211_);fill:#6C69E2;}
	.st207{clip-path:url(#SVGID_213_);fill:#5747E4;}
	.st208{clip-path:url(#SVGID_215_);fill:#6C69E2;}
	.st209{fill:none;stroke:#D2D2D2;stroke-miterlimit:10;}
	.st210{clip-path:url(#SVGID_217_);}
	.st211{fill:#4A48C9;}
	.st212{fill:#4847C8;}
	.st213{fill:#4746C7;}
	.st214{fill:#4645C6;}
	.st215{fill:#4543C6;}
	.st216{fill:#4442C5;}
	.st217{fill:#4341C4;}
	.st218{fill:#4340C3;}
	.st219{fill:#423FC3;}
	.st220{fill:#413FC2;}
	.st221{fill:#5050CF;}
	.st222{fill:#4F4ECE;}
	.st223{fill:#4D4DCD;}
	.st224{fill:#4C4BCB;}
	.st225{fill:#4B4ACA;}
	.st226{fill:#413EC1;}
	.st227{fill:#403DC1;}
	.st228{fill:#403DC0;}
	.st229{fill:#3F3CC0;}
	.st230{clip-path:url(#SVGID_219_);}
	.st231{fill:#07CEE5;}
	.st232{clip-path:url(#SVGID_221_);}
	.st233{clip-path:url(#SVGID_223_);}
	.st234{fill:#D2CAE1;}
	.st235{clip-path:url(#SVGID_225_);}
	.st236{fill:#9DA5CF;}
	.st237{fill:#9EA6D0;}
	.st238{fill:#9FA7D0;}
	.st239{fill:#A0A8D1;}
	.st240{fill:#A1A9D1;}
	.st241{fill:#A2AAD2;}
	.st242{fill:#A3ABD2;}
	.st243{fill:#A4ACD3;}
	.st244{fill:#A5ADD4;}
	.st245{fill:#A6AED4;}
	.st246{fill:#A7AFD5;}
	.st247{fill:#A8B0D5;}
	.st248{fill:#A9B1D6;}
	.st249{fill:#AAB2D6;}
	.st250{fill:#ACB4D7;}
	.st251{fill:#ADB5D7;}
	.st252{fill:#AEB6D8;}
	.st253{fill:#383A85;}
	.st254{fill-rule:evenodd;clip-rule:evenodd;fill:#F1CBBB;}
	.st255{fill-rule:evenodd;clip-rule:evenodd;fill:#F0BEA8;}
	.st256{fill-rule:evenodd;clip-rule:evenodd;fill:#99A1CD;}
	.st257{fill-rule:evenodd;clip-rule:evenodd;fill:#5050CF;}
	.st258{fill-rule:evenodd;clip-rule:evenodd;fill:#EFB79A;}
	.st259{fill-rule:evenodd;clip-rule:evenodd;fill:#D1C7DF;}
	.st260{clip-path:url(#SVGID_227_);}
	.st261{clip-path:url(#SVGID_229_);}
	.st262{clip-path:url(#SVGID_231_);}
	.st263{clip-path:url(#SVGID_233_);}
	.st264{fill-rule:evenodd;clip-rule:evenodd;fill:#352D9E;}
	.st265{clip-path:url(#SVGID_235_);}
	.st266{fill:#FF6683;}
	.st267{fill:#352D9E;}
	.st268{fill:#575756;}
	.st269{opacity:0.1;clip-path:url(#SVGID_237_);}
	.st270{fill:#ECECEC;}
	.st271{fill:#5747F5;}
	.st272{fill:#E4E4E4;}
	.st273{fill:#F5F5F5;}
	.st274{fill:#E0E0E0;}
	.st275{fill:#27DEBF;}
	.st276{fill:#AFA8BB;}
	.st277{fill:#263238;}
	.st278{opacity:0.2;fill:#8890BC;}
	.st279{opacity:0.2;fill:#4645B5;}
	.st280{fill:#C3998A;}
	.st281{fill:#262472;}
	.st282{opacity:0.2;}
	.st283{fill-rule:evenodd;clip-rule:evenodd;fill:#00000F;}
	.st284{fill:#FFFFFF;stroke:#DBDBDB;stroke-miterlimit:10;}
	.st285{opacity:0.35;fill:#DBDBDB;}
	.st286{opacity:0.78;}
	.st287{fill:#FFFFFF;stroke:#FFFFFF;stroke-width:0.2;stroke-miterlimit:10;}
	.st288{fill:url(#SVGID_238_);}
	.st289{fill:url(#SVGID_239_);}
	.st290{fill:url(#SVGID_240_);}
	.st291{fill:url(#SVGID_241_);}
	.st292{opacity:0.2;enable-background:new    ;}
	.st293{opacity:0.12;enable-background:new    ;}
	.st294{opacity:0.25;fill:#FFFFFF;enable-background:new    ;}
	.st295{clip-path:url(#SVGID_243_);}
	.st296{clip-path:url(#SVGID_246_);fill:#FFFFFF;}
	.st297{clip-path:url(#SVGID_248_);fill:#D8D8D8;}
	.st298{clip-path:url(#SVGID_250_);fill:#D8D8D8;}
	.st299{clip-path:url(#SVGID_254_);}
	.st300{clip-path:url(#SVGID_257_);}
	.st301{clip-path:url(#SVGID_259_);fill:url(#SVGID_260_);}
	.st302{opacity:0.46;clip-path:url(#SVGID_259_);fill:#3F3CB2;}
	.st303{opacity:0.15;clip-path:url(#SVGID_259_);fill:#352D90;}
	.st304{opacity:0.46;clip-path:url(#SVGID_257_);fill:#3F3CB2;}
	.st305{fill:#FFFFFF;stroke:#FFFFFF;stroke-width:0.25;stroke-miterlimit:10;}
	.st306{fill:#FFFFFF;stroke:#FFFFFF;stroke-width:0.25;stroke-linecap:round;stroke-linejoin:round;stroke-miterlimit:10;}
	.st307{clip-path:url(#SVGID_264_);fill:#FFFFFF;}
	.st308{clip-path:url(#SVGID_266_);fill:#F0F0F2;}
	.st309{clip-path:url(#SVGID_268_);fill:#F0F0F2;}
	.st310{clip-path:url(#SVGID_270_);fill:#FFFFFF;}
	.st311{opacity:0.39;clip-path:url(#SVGID_272_);fill:#D2D2D2;}
	.st312{opacity:0.32;clip-path:url(#SVGID_272_);fill:#D2D2D2;}
	.st313{clip-path:url(#SVGID_272_);}
	.st314{clip-path:url(#SVGID_272_);fill:none;stroke:#DBDBDB;stroke-width:3;stroke-miterlimit:10;}
	.st315{opacity:0.81;clip-path:url(#SVGID_272_);}
	.st316{clip-path:url(#SVGID_274_);}
	.st317{clip-path:url(#SVGID_276_);fill:url(#SVGID_277_);}
	.st318{opacity:0.46;clip-path:url(#SVGID_276_);fill:#3F3CB2;}
	.st319{opacity:0.15;clip-path:url(#SVGID_276_);fill:#352D90;}
	.st320{opacity:0.46;clip-path:url(#SVGID_274_);fill:#3F3CB2;}
	.st321{clip-path:url(#SVGID_281_);}
	.st322{clip-path:url(#SVGID_283_);fill:none;stroke:#DBDBDB;stroke-width:3;stroke-miterlimit:10;}
	.st323{opacity:0.81;clip-path:url(#SVGID_283_);}
	.st324{fill-rule:evenodd;clip-rule:evenodd;fill:#D7D9DE;}
	.st325{fill-rule:evenodd;clip-rule:evenodd;fill:#E7EAED;}
	.st326{fill-rule:evenodd;clip-rule:evenodd;fill:#FFEFF0;}
	.st327{fill-rule:evenodd;clip-rule:evenodd;fill:#C6C7C8;}
	.st328{fill-rule:evenodd;clip-rule:evenodd;fill:#E6E7E8;}
	.st329{fill-rule:evenodd;clip-rule:evenodd;fill:#C9C2C0;}
	.st330{fill-rule:evenodd;clip-rule:evenodd;fill:#E2DEDB;}
	.st331{fill-rule:evenodd;clip-rule:evenodd;fill:#B1B1E8;}
	.st332{fill-rule:evenodd;clip-rule:evenodd;fill:#9AA2C3;}
	.st333{fill-rule:evenodd;clip-rule:evenodd;fill:#D9D2E2;}
	.st334{fill-rule:evenodd;clip-rule:evenodd;fill:#0B1329;}
	.st335{fill-rule:evenodd;clip-rule:evenodd;fill:#EAA180;}
	.st336{fill-rule:evenodd;clip-rule:evenodd;fill:#78809D;}
	.st337{clip-path:url(#SVGID_285_);}
	.st338{opacity:0.32;clip-path:url(#SVGID_285_);fill:#D2D2D2;}
	.st339{clip-path:url(#SVGID_287_);}
	.st340{clip-path:url(#SVGID_289_);fill:url(#SVGID_290_);}
	.st341{opacity:0.46;clip-path:url(#SVGID_289_);fill:#3F3CB2;}
	.st342{opacity:0.15;clip-path:url(#SVGID_289_);fill:#352D90;}
	.st343{opacity:0.46;clip-path:url(#SVGID_287_);fill:#3F3CB2;}
	.st344{clip-path:url(#SVGID_285_);fill:none;stroke:#DBDBDB;stroke-width:3;stroke-miterlimit:10;}
	.st345{opacity:0.81;clip-path:url(#SVGID_285_);}
	.st346{clip-path:url(#SVGID_292_);}
	.st347{clip-path:url(#SVGID_294_);}
	.st348{clip-path:url(#SVGID_296_);fill:url(#SVGID_297_);}
	.st349{opacity:0.46;clip-path:url(#SVGID_296_);fill:#3F3CB2;}
	.st350{opacity:0.15;clip-path:url(#SVGID_296_);fill:#352D90;}
	.st351{opacity:0.46;clip-path:url(#SVGID_294_);fill:#3F3CB2;}
	.st352{fill:#412965;}
	.st353{fill:#EFE4DA;}
	.st354{fill:#E3D5C8;}
	.st355{fill:#BADBF0;}
	.st356{fill:#9A6A91;}
	.st357{fill:#B17644;}
	.st358{fill:#009245;}
	.st359{fill:#006837;}
	.st360{fill:#FFF1D2;}
	.st361{opacity:0.56;fill:#C1B9D0;}
	.st362{fill:none;stroke:#9A6A91;stroke-width:2.9512;stroke-miterlimit:10;}
	.st363{fill:#D6EFFD;}
	.st364{fill:none;stroke:#9A6A91;stroke-width:2.8383;stroke-miterlimit:10;}
	.st365{fill:none;stroke:#FFFFFF;stroke-width:1.0888;stroke-miterlimit:10;}
	.st366{fill:none;stroke:#FAFAFA;stroke-width:1.103;stroke-linecap:round;stroke-linejoin:round;stroke-miterlimit:10;}
	.st367{fill:#2B4183;}
	.st368{fill:none;stroke:#F0E0DF;stroke-width:2.2132;stroke-miterlimit:10;}
	.st369{fill:#FF668B;}
	.st370{fill:none;stroke:#FFFFFF;stroke-width:2.0174;stroke-miterlimit:10;}
	.st371{fill:#7041FD;}
	.st372{fill:#8155FF;}
	.st373{fill:#F6F6F6;}
	.st374{opacity:0.71;}
	.st375{clip-path:url(#SVGID_299_);fill:#FFFFFF;}
	.st376{fill:#8054FF;}
	.st377{fill:#181F42;}
	.st378{fill:none;stroke:#FFFFFF;stroke-width:1.5042;stroke-linecap:round;stroke-linejoin:round;stroke-miterlimit:10;}
	.st379{fill:none;stroke:#979797;stroke-width:0.7565;stroke-miterlimit:10;}
</style>
<g>
	<path class="st34" d="M30.57,16.81c0-0.95-0.01-1.77,0-2.59c0.05-2.82,2.3-5.04,5.09-5.04c2.79,0,5.03,2.22,5.08,5.04
		c0.02,0.82,0,1.64,0,2.52c3.38,0,6.73,0,10.18,0c0-0.74,0-1.5,0-2.26c0.02-3.02,2.18-5.3,5.06-5.31c2.92-0.01,5.1,2.26,5.12,5.33
		c0,0.74,0,1.47,0,2.25c3.39,0,6.72,0,10.18,0c0-0.89-0.03-1.81,0.01-2.72c0.09-2.44,1.92-4.44,4.38-4.82
		c2.27-0.35,4.64,1.03,5.43,3.24c0.21,0.59,0.29,1.23,0.34,1.86c0.06,0.79,0.01,1.58,0.01,2.49c0.35,0,0.65,0,0.96,0
		c2.2,0.04,4.42-0.11,6.58,0.17c2.99,0.38,5.16,3.03,5.17,6.05c0.03,11,0.01,21.99,0.01,32.99c0,0.92-0.53,1.5-1.3,1.48
		c-0.77-0.02-1.24-0.59-1.24-1.53c0-6.78,0-13.57,0-20.35c0-0.31,0-0.62,0-0.97c-23.76,0-47.44,0-71.24,0c0,0.28,0,0.56,0,0.84
		c0,12.69,0,25.38,0,38.07c0,2.75,1.53,4.29,4.27,4.29c11.47,0,22.95,0,34.42,0c0.26,0,0.53-0.01,0.79,0.01
		c0.71,0.06,1.2,0.57,1.21,1.23c0.02,0.69-0.49,1.23-1.24,1.29c-0.18,0.02-0.37,0.01-0.56,0.01c-11.58,0-23.16,0-34.74,0
		c-3.99,0-6.7-2.7-6.7-6.67c0-16.74,0-33.49,0-50.23c0-3.98,2.71-6.67,6.69-6.68C26.52,16.81,28.5,16.81,30.57,16.81z M40.74,19.39
		c0,0.88,0.01,1.68,0,2.47c-0.04,2.89-2.26,5.12-5.08,5.12c-2.82,0-5.05-2.24-5.09-5.12c-0.01-0.81,0-1.63,0-2.41
		c-0.13-0.05-0.18-0.09-0.22-0.09c-2.01-0.01-4.03-0.02-6.04-0.01c-2.27,0.02-3.89,1.65-3.91,3.93c-0.01,2.2,0,4.4,0,6.6
		c0,0.71,0,1.42,0,2.14c23.79,0,47.49,0,71.22,0c0-3.1,0.06-6.14-0.02-9.18c-0.05-1.92-1.74-3.43-3.69-3.48
		c-1.17-0.03-2.33-0.01-3.5-0.01c-0.97,0-1.94,0-2.96,0c0,0.9,0.06,1.69-0.02,2.48c-0.06,0.7-0.17,1.43-0.43,2.08
		c-0.89,2.17-3.25,3.42-5.48,3c-2.45-0.46-4.17-2.43-4.24-4.86c-0.02-0.89,0-1.78,0-2.65c-3.46,0-6.78,0-10.18,0
		c0,0.78,0,1.51,0,2.25c-0.02,3.07-2.2,5.35-5.11,5.33c-2.87-0.01-5.05-2.29-5.06-5.31c0-0.76,0-1.52,0-2.29
		C47.48,19.39,44.16,19.39,40.74,19.39z M38.2,18.17c0-1.24,0.01-2.49,0-3.73c-0.01-1.56-1.08-2.69-2.52-2.7
		c-1.45-0.01-2.55,1.11-2.56,2.66c-0.01,2.46-0.01,4.93,0,7.39c0.01,1.54,1.11,2.67,2.56,2.66c1.44-0.01,2.51-1.14,2.52-2.7
		C38.21,20.55,38.2,19.36,38.2,18.17z M58.55,18.09c0-1.24,0.01-2.49,0-3.73c-0.02-1.5-1.1-2.61-2.52-2.63
		c-1.45-0.01-2.56,1.11-2.56,2.65c-0.01,2.46-0.01,4.93,0,7.39c0.01,1.54,1.11,2.68,2.55,2.67c1.44-0.01,2.51-1.14,2.53-2.7
		C58.56,20.53,58.55,19.31,58.55,18.09z M73.81,18.09c0,1.22-0.01,2.44,0,3.66c0.01,1.55,1.08,2.69,2.52,2.7
		c1.44,0.01,2.55-1.12,2.56-2.66c0.01-2.46,0.01-4.93,0-7.39c-0.01-1.54-1.12-2.67-2.56-2.66c-1.45,0.01-2.51,1.14-2.52,2.7
		C73.81,15.65,73.81,16.87,73.81,18.09z"/>
	<path class="st34" d="M77.68,85.49c-9.22,0-16.57-7.39-16.58-16.64c-0.01-9.02,7.45-16.41,16.57-16.42
		c9.05-0.01,16.5,7.44,16.5,16.48C94.17,78.05,86.76,85.49,77.68,85.49z M77.66,82.95c7.62,0.01,13.94-6.26,13.97-13.88
		c0.03-7.75-6.22-14.1-13.9-14.1c-7.81,0-14.06,6.21-14.08,13.99C63.62,76.66,69.91,82.94,77.66,82.95z"/>
	<path class="st34" d="M33.1,49.88c-0.85,0-1.7,0.02-2.54,0c-1.44-0.04-2.5-1.09-2.53-2.53c-0.03-1.27-0.02-2.54,0-3.81
		c0.03-1.45,1.07-2.52,2.5-2.55c1.72-0.03,3.44-0.03,5.17,0c1.39,0.02,2.46,1.09,2.49,2.48c0.03,1.3,0.03,2.6,0,3.89
		c-0.03,1.43-1.1,2.48-2.54,2.51C34.8,49.9,33.95,49.88,33.1,49.88z M35.6,47.3c0-1.28,0-2.5,0-3.72c-1.7,0-3.35,0-5,0
		c0,1.27,0,2.47,0,3.72C32.27,47.3,33.9,47.3,35.6,47.3z"/>
	<path class="st34" d="M48.36,49.88c-0.85,0-1.7,0.02-2.54,0c-1.44-0.04-2.5-1.1-2.53-2.53c-0.03-1.27-0.02-2.54,0-3.81
		c0.03-1.48,1.09-2.53,2.59-2.54c1.67-0.02,3.34-0.02,5.01,0c1.48,0.02,2.54,1.09,2.57,2.57c0.02,1.24,0.02,2.49,0,3.73
		c-0.03,1.53-1.09,2.56-2.63,2.59C50,49.89,49.18,49.88,48.36,49.88z M50.88,43.58c-1.71,0-3.36,0-4.99,0c0,1.28,0,2.51,0,3.72
		c1.69,0,3.32,0,4.99,0C50.88,46.05,50.88,44.84,50.88,43.58z"/>
	<path class="st34" d="M63.64,40.98c0.85,0,1.7-0.02,2.54,0c1.44,0.04,2.51,1.09,2.54,2.52c0.03,1.3,0.03,2.6,0,3.89
		c-0.04,1.39-1.1,2.45-2.5,2.48c-1.72,0.03-3.44,0.03-5.17,0c-1.39-0.02-2.46-1.09-2.5-2.48c-0.03-1.32-0.04-2.65,0-3.97
		c0.04-1.35,1.09-2.39,2.45-2.44C61.89,40.96,62.76,40.98,63.64,40.98z M66.13,47.3c0-1.29,0-2.52,0-3.72c-1.71,0-3.36,0-4.99,0
		c0,1.27,0,2.48,0,3.72C62.81,47.3,64.44,47.3,66.13,47.3z"/>
	<path class="st34" d="M78.93,49.88c-0.85,0-1.7,0.02-2.54,0c-1.48-0.03-2.54-1.1-2.56-2.58c-0.02-1.24-0.02-2.49,0-3.73
		c0.02-1.49,1.07-2.56,2.56-2.58c1.7-0.02,3.39-0.03,5.09,0c1.43,0.02,2.49,1.09,2.52,2.53c0.03,1.27,0.03,2.54,0,3.81
		c-0.03,1.47-1.1,2.51-2.6,2.54C80.57,49.89,79.75,49.88,78.93,49.88z M81.39,47.31c0-1.3,0-2.53,0-3.75c-1.69,0-3.32,0-4.98,0
		c0,1.26,0,2.49,0,3.75C78.08,47.31,79.71,47.31,81.39,47.31z"/>
	<path class="st34" d="M33.11,52.43c0.85,0,1.7-0.02,2.54,0c1.44,0.04,2.51,1.09,2.54,2.52c0.03,1.3,0.03,2.6,0,3.89
		c-0.04,1.39-1.1,2.45-2.5,2.47c-1.72,0.03-3.44,0.03-5.17,0c-1.39-0.03-2.46-1.09-2.49-2.48c-0.03-1.32-0.04-2.65,0-3.97
		c0.04-1.35,1.09-2.38,2.45-2.43C31.36,52.4,32.24,52.43,33.11,52.43z M30.62,55c0,1.29,0,2.52,0,3.72c1.71,0,3.36,0,4.99,0
		c0-1.27,0-2.48,0-3.72C33.94,55,32.31,55,30.62,55z"/>
	<path class="st34" d="M48.37,52.43c0.85,0,1.7-0.02,2.54,0c1.44,0.04,2.51,1.09,2.54,2.52c0.03,1.3,0.03,2.6,0,3.89
		c-0.04,1.39-1.1,2.45-2.5,2.47c-1.72,0.03-3.44,0.03-5.17,0c-1.39-0.03-2.46-1.09-2.49-2.48c-0.03-1.32-0.04-2.65,0-3.97
		c0.04-1.35,1.09-2.38,2.45-2.43C46.62,52.4,47.5,52.43,48.37,52.43z M50.9,55.02c-1.72,0-3.37,0-5.02,0c0,1.28,0,2.5,0,3.7
		c1.71,0,3.36,0,5.02,0C50.9,57.47,50.9,56.28,50.9,55.02z"/>
	<path class="st34" d="M33.08,72.77c-0.79,0-1.59,0.01-2.38,0c-1.59-0.02-2.65-1.07-2.67-2.64c-0.02-1.22-0.02-2.44,0-3.66
		c0.02-1.53,1.07-2.59,2.61-2.61c1.64-0.02,3.29-0.02,4.93,0c1.53,0.02,2.6,1.07,2.63,2.59c0.02,1.24,0.02,2.49,0,3.73
		c-0.03,1.49-1.08,2.54-2.57,2.57C34.77,72.79,33.92,72.77,33.08,72.77z M35.6,70.2c0-1.29,0-2.51,0-3.72c-1.71,0-3.36,0-4.99,0
		c0,1.27,0,2.48,0,3.72C32.28,70.2,33.91,70.2,35.6,70.2z"/>
	<path class="st34" d="M48.38,63.87c0.85,0,1.7-0.02,2.54,0c1.44,0.04,2.5,1.09,2.53,2.53c0.03,1.27,0.03,2.54,0,3.81
		c-0.03,1.48-1.1,2.53-2.59,2.55c-1.67,0.02-3.34,0.02-5.01,0c-1.48-0.02-2.54-1.09-2.57-2.57c-0.02-1.24-0.02-2.49,0-3.73
		c0.02-1.53,1.08-2.56,2.63-2.59C46.74,63.86,47.56,63.87,48.38,63.87z M50.85,70.2c0-1.31,0-2.54,0-3.74c-1.7,0-3.33,0-4.97,0
		c0,1.27,0,2.49,0,3.74C47.56,70.2,49.19,70.2,50.85,70.2z"/>
	<path class="st34" d="M61.12,54.97c0,1.32,0,2.53,0,3.75c0.18,0.07,0.36,0.13,0.52,0.21c0.56,0.29,0.82,0.77,0.69,1.38
		c-0.14,0.64-0.58,0.99-1.25,1.02c-1.25,0.05-2.46-1.05-2.51-2.38c-0.05-1.38-0.05-2.76,0-4.13c0.05-1.31,1.11-2.34,2.43-2.37
		c1.7-0.04,3.39-0.02,5.09-0.01c0.82,0.01,1.35,0.53,1.36,1.25c0.01,0.75-0.55,1.28-1.41,1.29C64.43,54.98,62.81,54.97,61.12,54.97z
		"/>
	<path class="st34" d="M75.1,73.53c1.1-1.11,2.12-2.14,3.15-3.17c2.17-2.17,4.34-4.35,6.52-6.51c0.72-0.71,1.45-0.76,2.01-0.17
		c0.54,0.57,0.49,1.27-0.2,1.96c-3.46,3.47-6.92,6.93-10.39,10.39c-0.78,0.78-1.41,0.77-2.19,0c-1.67-1.66-3.34-3.33-5-5
		c-0.68-0.69-0.74-1.38-0.2-1.95c0.57-0.59,1.29-0.54,2.01,0.18C72.22,70.64,73.61,72.04,75.1,73.53z"/>
</g>
</svg>
