<?xml version="1.0" encoding="utf-8"?>
<!-- Generator: Adobe Illustrator 24.2.1, SVG Export Plug-In . SVG Version: 6.00 Build 0)  -->
<svg version="1.1" id="Capa_1" xmlns="http://www.w3.org/2000/svg" xmlns:xlink="http://www.w3.org/1999/xlink" x="0px" y="0px"
	 viewBox="0 0 129.6 154.53" style="enable-background:new 0 0 129.6 154.53;" xml:space="preserve">
<style type="text/css">
	.st0{opacity:0.32;fill:#D2D2D2;}
	.st1{fill:#5747E4;}
	.st2{clip-path:url(#SVGID_4_);}
	.st3{clip-path:url(#SVGID_10_);}
	.st4{fill:#51A5C1;}
	.st5{clip-path:url(#SVGID_16_);}
	.st6{clip-path:url(#SVGID_22_);}
	.st7{fill:#53A6C1;}
	.st8{fill:#808080;}
	.st9{fill:#6864E5;}
	.st10{fill:#FFFFFF;}
	.st11{fill:#FFFFFF;stroke:#DBDBDB;stroke-miterlimit:10;}
	.st12{opacity:0.78;}
	.st13{fill:#D2D2D2;}
	.st14{fill:#FF6680;}
	.st15{fill:none;stroke:#5747E4;stroke-miterlimit:10;}
	.st16{opacity:0.14;fill:#ACACAB;}
	.st17{fill:#ACACAB;}
	.st18{fill:none;stroke:#ACACAB;stroke-width:0.5;stroke-miterlimit:10;}
	.st19{fill:#6F6F6E;}
	.st20{clip-path:url(#SVGID_26_);}
	.st21{fill:none;stroke:#DBDBDB;stroke-width:3;stroke-miterlimit:10;}
	.st22{opacity:0.81;}
	.st23{fill:#DBDBDB;}
	.st24{opacity:0.39;fill:#D2D2D2;}
	.st25{fill:none;stroke:#ACACAB;stroke-miterlimit:10;}
	.st26{clip-path:url(#SVGID_28_);}
	.st27{clip-path:url(#SVGID_30_);fill:url(#SVGID_31_);}
	.st28{opacity:0.46;clip-path:url(#SVGID_30_);fill:#3F3CB2;}
	.st29{opacity:0.15;clip-path:url(#SVGID_30_);fill:#352D90;}
	.st30{fill:#352D90;}
	.st31{fill:#07C0D7;}
	.st32{opacity:0.46;clip-path:url(#SVGID_28_);fill:#3F3CB2;}
	.st33{fill:#5050C1;}
	.st34{fill:none;stroke:#07C0D7;stroke-miterlimit:10;}
	.st35{fill:#3F3CB2;}
	.st36{opacity:0.81;fill:#352D90;}
	.st37{fill:none;}
	.st38{clip-path:url(#SVGID_33_);}
	.st39{clip-path:url(#SVGID_35_);}
	.st40{clip-path:url(#SVGID_37_);fill:url(#SVGID_38_);}
	.st41{opacity:0.46;clip-path:url(#SVGID_37_);fill:#3F3CB2;}
	.st42{opacity:0.15;clip-path:url(#SVGID_37_);fill:#352D90;}
	.st43{opacity:0.46;clip-path:url(#SVGID_35_);fill:#3F3CB2;}
	.st44{clip-path:url(#SVGID_42_);}
	.st45{clip-path:url(#SVGID_48_);}
	.st46{clip-path:url(#SVGID_54_);}
	.st47{clip-path:url(#SVGID_60_);}
	.st48{clip-path:url(#SVGID_64_);}
	.st49{clip-path:url(#SVGID_68_);fill:#FFFFFF;}
	.st50{clip-path:url(#SVGID_68_);}
	.st51{clip-path:url(#SVGID_70_);fill:#FF668B;}
	.st52{clip-path:url(#SVGID_72_);}
	.st53{clip-path:url(#SVGID_76_);}
	.st54{clip-path:url(#SVGID_78_);fill:#FF668B;}
	.st55{clip-path:url(#SVGID_76_);fill:none;}
	.st56{clip-path:url(#SVGID_80_);}
	.st57{clip-path:url(#SVGID_82_);fill:#FF668B;}
	.st58{clip-path:url(#SVGID_80_);fill:none;}
	.st59{clip-path:url(#SVGID_84_);}
	.st60{clip-path:url(#SVGID_84_);fill:none;}
	.st61{clip-path:url(#SVGID_88_);}
	.st62{clip-path:url(#SVGID_88_);fill:none;}
	.st63{clip-path:url(#SVGID_92_);}
	.st64{clip-path:url(#SVGID_92_);fill:none;}
	.st65{clip-path:url(#SVGID_96_);}
	.st66{clip-path:url(#SVGID_96_);fill:none;}
	.st67{fill:#E3CDC9;}
	.st68{fill:#8155FF;}
	.st69{fill:none;stroke:#FFFFFF;stroke-width:0.6238;stroke-miterlimit:10;}
	.st70{fill:none;stroke:#FFFFFF;stroke-width:1.0888;stroke-miterlimit:10;}
	.st71{fill:none;stroke:#FAFAFA;stroke-width:1.103;stroke-linecap:round;stroke-linejoin:round;stroke-miterlimit:10;}
	.st72{fill:#FDB9B9;}
	.st73{fill:#2B4183;}
	.st74{fill:#FFCB2D;}
	.st75{fill:none;stroke:#F0E0DF;stroke-width:2.2132;stroke-miterlimit:10;}
	.st76{fill:#F88AA0;}
	.st77{fill:none;stroke:#FFFFFF;stroke-width:2.0174;stroke-miterlimit:10;}
	.st78{fill:#FFA80A;}
	.st79{fill:#F67B91;}
	.st80{fill:#F6F6F6;}
	.st81{opacity:0.71;}
	.st82{clip-path:url(#SVGID_100_);fill:#FFFFFF;}
	.st83{fill:#8054FF;}
	.st84{fill:#7041FD;}
	.st85{fill:#FA849B;}
	.st86{fill:#181F42;}
	.st87{fill:none;stroke:#FFFFFF;stroke-width:1.5042;stroke-linecap:round;stroke-linejoin:round;stroke-miterlimit:10;}
	.st88{fill:#FFCD2E;}
	.st89{fill:#F2BB19;}
	.st90{fill:#E6728C;}
	.st91{fill:#312725;}
	.st92{fill:#F8879D;}
	.st93{fill:none;stroke:#312725;stroke-width:0.5974;stroke-linecap:round;stroke-linejoin:round;stroke-miterlimit:10;}
	.st94{fill:none;stroke:#281F27;stroke-width:0.7565;stroke-miterlimit:10;}
</style>
<g>
	<path class="st23" d="M48.37,131.19c-0.76,0-1.34,0-1.92,0c-12.77,0-25.54,0-38.3,0c-0.39,0-0.79,0.01-1.18-0.01
		c-1.33-0.07-2.23-0.9-2.23-2.05c0-1.15,0.9-2.04,2.23-2.05c4.08-0.03,8.15-0.01,12.23-0.01c1.17,0,2.34,0,3.68,0c0-0.76,0-1.38,0-2
		c0-32.55,0-65.1,0-97.65c0-0.39,0-0.79,0-1.18c0.02-2.3,0.59-2.89,2.86-2.89c6.92,0,13.85,0,20.77,0c0.54,0,1.07,0,1.86,0
		c0-1.22-0.02-2.37,0-3.52c0.04-1.97,0.97-2.75,2.89-2.54c12.87,1.45,25.75,2.89,38.62,4.34c4.88,0.55,9.75,1.12,14.62,1.7
		c1.59,0.19,2.15,0.8,2.2,2.38c0.02,0.49,0,0.98,0,1.47c0,32.6,0,65.2,0,97.8c0,0.63,0,1.26,0,2.09c0.64,0,1.16,0,1.68,0
		c4.71,0,9.43-0.01,14.14,0.01c1.42,0.01,2.36,0.92,2.32,2.11c-0.04,1.15-0.93,1.94-2.29,2c-0.34,0.01-0.69,0-1.03,0
		c-3.83,0-7.67-0.18-11.49,0.04c-6.46,0.38-12.91,0.91-19.35,1.57c-10.05,1.04-20.09,2.25-30.14,3.38
		c-3.07,0.35-6.15,0.68-9.21,1.05c-2.02,0.24-2.94-0.53-2.98-2.58C48.35,133.58,48.37,132.5,48.37,131.19z M52.61,21.59
		c0,37.2,0,74.23,0,111.36c16.72-1.89,33.31-3.77,49.89-5.65c0-33.45,0-66.71,0-100.08C85.86,25.35,69.31,23.48,52.61,21.59z
		 M36.54,36.98c0,30.06,0,60.02,0,89.97c3.99,0,7.88,0,11.76,0c0-30.04,0-59.96,0-89.97C44.37,36.98,40.52,36.98,36.54,36.98z
		 M32.31,127.02c0-0.79,0-1.42,0-2.05c0-29.7,0-59.4,0-89.1c0-2.6,0.5-3.1,3.08-3.11c3.63,0,7.27,0,10.9,0c0.67,0,1.33,0,1.99,0
		c0-1.87,0-3.52,0-5.19c-7.12,0-14.16,0-21.15,0c0,33.21,0,66.31,0,99.45C28.87,127.02,30.48,127.02,32.31,127.02z"/>
	<path class="st23" d="M67.51,77.3c-0.03,3.42-2.84,6.18-6.21,6.11c-3.34-0.07-6-2.82-5.98-6.19c0.02-3.41,2.81-6.16,6.21-6.1
		C64.85,71.18,67.54,73.95,67.51,77.3z M63.38,77.33c0.03-1.09-0.81-2.02-1.86-2.07c-1.14-0.05-2.06,0.85-2.06,2.02
		c0,1.08,0.88,1.99,1.93,2.01C62.44,79.3,63.35,78.41,63.38,77.33z"/>
</g>
</svg>
