<?xml version="1.0" encoding="utf-8"?>
<!-- Generator: Adobe Illustrator 24.2.1, SVG Export Plug-In . SVG Version: 6.00 Build 0)  -->
<svg version="1.1" id="Capa_1" xmlns="http://www.w3.org/2000/svg" xmlns:xlink="http://www.w3.org/1999/xlink" x="0px" y="0px"
	 viewBox="0 0 1350.6 1013.04" style="enable-background:new 0 0 1350.6 1013.04;" xml:space="preserve">
<style type="text/css">
	.st0{opacity:0.68;fill:#9199C1;}
	.st1{opacity:0.43;}
	.st2{fill:#C1B9D0;}
	.st3{fill:#383A80;}
	.st4{fill-rule:evenodd;clip-rule:evenodd;fill:#E0BAAA;}
	.st5{fill-rule:evenodd;clip-rule:evenodd;fill:#DFAD97;}
	.st6{fill-rule:evenodd;clip-rule:evenodd;fill:#8890BC;}
	.st7{fill-rule:evenodd;clip-rule:evenodd;fill:#5050BE;}
	.st8{fill-rule:evenodd;clip-rule:evenodd;fill:#DEA689;}
	.st9{fill-rule:evenodd;clip-rule:evenodd;fill:#C0B6CE;}
	.st10{clip-path:url(#SVGID_2_);}
	.st11{fill:#5050BE;}
	.st12{fill:#4F4EBD;}
	.st13{fill:#4D4DBC;}
	.st14{fill:#4C4BBA;}
	.st15{fill:#4B4AB9;}
	.st16{fill:#4A48B8;}
	.st17{fill:#4847B7;}
	.st18{fill:#4746B6;}
	.st19{fill:#4645B5;}
	.st20{fill:#4543B5;}
	.st21{fill:#4442B4;}
	.st22{fill:#4341B3;}
	.st23{fill:#4340B2;}
	.st24{fill:#423FB2;}
	.st25{fill:#413FB1;}
	.st26{fill:#413EB0;}
	.st27{fill:#403DB0;}
	.st28{fill:#403DAF;}
	.st29{fill:#3F3CAF;}
	.st30{clip-path:url(#SVGID_4_);}
	.st31{opacity:0.81;}
	.st32{fill-rule:evenodd;clip-rule:evenodd;fill:#352D8D;}
	.st33{clip-path:url(#SVGID_6_);}
	.st34{fill:#FFFFFF;}
	.st35{fill:#37474F;}
	.st36{fill:#FF6680;}
	.st37{fill:#5747E4;}
	.st38{fill:#D3D3D3;}
	.st39{fill:none;stroke:#ACACAB;stroke-miterlimit:10;}
	.st40{opacity:0.32;fill:#D2D2D2;}
	.st41{fill:#D2D2D2;}
	.st42{fill:#ACACAB;}
	.st43{opacity:0.39;fill:#D2D2D2;}
	.st44{fill:none;stroke:#DBDBDB;stroke-width:3;stroke-miterlimit:10;}
	.st45{fill:#DBDBDB;}
	.st46{fill:none;}
	.st47{fill:none;stroke:#3C3C3B;stroke-miterlimit:10;}
	.st48{clip-path:url(#SVGID_8_);}
	.st49{clip-path:url(#SVGID_10_);}
	.st50{clip-path:url(#SVGID_13_);}
	.st51{clip-path:url(#SVGID_17_);fill:url(#SVGID_19_);}
	.st52{opacity:0.81;clip-path:url(#SVGID_17_);fill:#393C80;}
	.st53{clip-path:url(#SVGID_17_);fill:#4A5486;}
	.st54{opacity:0.46;clip-path:url(#SVGID_17_);fill:#3F4980;}
	.st55{opacity:0.49;clip-path:url(#SVGID_17_);fill:#393C80;}
	.st56{fill:#393C80;}
	.st57{fill:#53A6C1;}
	.st58{opacity:0.46;clip-path:url(#SVGID_13_);fill:#3F4980;}
	.st59{opacity:0.58;clip-path:url(#SVGID_13_);}
	.st60{fill:#4A5486;}
	.st61{fill:none;stroke:#53A6C1;stroke-miterlimit:10;}
	.st62{clip-path:url(#SVGID_8_);fill:none;stroke:#4A5486;stroke-width:3;stroke-miterlimit:10;}
	.st63{opacity:0.81;clip-path:url(#SVGID_8_);}
	.st64{fill:#D4D3D2;}
	.st65{clip-path:url(#SVGID_23_);}
	.st66{clip-path:url(#SVGID_29_);}
	.st67{fill:#51A5C1;}
	.st68{clip-path:url(#SVGID_35_);}
	.st69{clip-path:url(#SVGID_38_);}
	.st70{fill:#828181;}
	.st71{clip-path:url(#SVGID_41_);}
	.st72{clip-path:url(#SVGID_43_);}
	.st73{clip-path:url(#SVGID_45_);fill:url(#SVGID_46_);}
	.st74{opacity:0.46;clip-path:url(#SVGID_45_);fill:#3F3CB2;}
	.st75{opacity:0.15;clip-path:url(#SVGID_45_);fill:#352D90;}
	.st76{fill:#352D90;}
	.st77{fill:#07C0D7;}
	.st78{opacity:0.46;clip-path:url(#SVGID_43_);fill:#3F3CB2;}
	.st79{fill:#5050C1;}
	.st80{fill:none;stroke:#07C0D7;stroke-miterlimit:10;}
	.st81{fill:#3F3CB2;}
	.st82{opacity:0.81;fill:#352D90;}
	.st83{fill:none;stroke:#5050C1;stroke-width:3;stroke-miterlimit:10;}
	.st84{clip-path:url(#SVGID_48_);fill:#5747E4;}
	.st85{clip-path:url(#SVGID_50_);fill:#6C69E2;}
	.st86{clip-path:url(#SVGID_52_);fill:#6C69E2;}
	.st87{clip-path:url(#SVGID_55_);fill:#5747E4;}
	.st88{fill:#5747E4;stroke:#5747E4;stroke-width:0.5;stroke-linecap:round;stroke-linejoin:round;stroke-miterlimit:10;}
	.st89{fill:none;stroke:#DBDBDB;stroke-width:0.5;stroke-miterlimit:10;}
	.st90{fill:#6864E5;}
	.st91{fill:url(#SVGID_57_);}
	.st92{fill:url(#SVGID_59_);}
	.st93{fill:url(#SVGID_61_);}
	.st94{opacity:0.33;}
	.st95{clip-path:url(#SVGID_65_);}
	.st96{clip-path:url(#SVGID_71_);}
	.st97{clip-path:url(#SVGID_77_);}
	.st98{clip-path:url(#SVGID_80_);}
	.st99{clip-path:url(#SVGID_83_);}
	.st100{clip-path:url(#SVGID_85_);}
	.st101{clip-path:url(#SVGID_87_);fill:url(#SVGID_88_);}
	.st102{opacity:0.46;clip-path:url(#SVGID_87_);fill:#3F3CB2;}
	.st103{opacity:0.15;clip-path:url(#SVGID_87_);fill:#352D90;}
	.st104{opacity:0.46;clip-path:url(#SVGID_85_);fill:#3F3CB2;}
	.st105{clip-path:url(#SVGID_90_);fill:#5747E4;}
	.st106{clip-path:url(#SVGID_92_);fill:#6C69E2;}
	.st107{clip-path:url(#SVGID_94_);fill:#6C69E2;}
	.st108{clip-path:url(#SVGID_96_);fill:#5747E4;}
	.st109{fill:#6F6F6E;}
	.st110{clip-path:url(#SVGID_98_);fill:#808080;}
	.st111{clip-path:url(#SVGID_100_);fill:#979797;}
	.st112{clip-path:url(#SVGID_104_);fill:#979797;}
	.st113{clip-path:url(#SVGID_108_);fill:#828181;}
	.st114{clip-path:url(#SVGID_112_);}
	.st115{clip-path:url(#SVGID_118_);}
	.st116{clip-path:url(#SVGID_124_);}
	.st117{clip-path:url(#SVGID_127_);}
	.st118{fill:#D7D9DE;}
	.st119{fill:#C0B6CE;}
	.st120{fill:#8890BC;}
	.st121{fill:#8282C2;}
	.st122{opacity:0.39;}
	.st123{clip-path:url(#SVGID_136_);}
	.st124{fill:#B1B1E8;}
	.st125{fill:#99A1C5;}
	.st126{fill:#352D8D;}
	.st127{fill:#DFAD97;}
	.st128{fill:#4764BB;}
	.st129{fill:#5172D9;}
	.st130{fill:#060412;}
	.st131{fill:none;stroke:#060412;stroke-width:0.9422;stroke-miterlimit:10;}
	.st132{fill:#171032;}
	.st133{fill:#211D49;}
	.st134{opacity:0.22;fill:none;stroke:#FFFFFF;stroke-width:0.25;stroke-miterlimit:10;}
	.st135{fill:#2E2C60;}
	.st136{fill:#1C163F;}
	.st137{fill:#271F50;}
	.st138{fill:#D7DDFF;}
	.st139{fill:none;stroke:#FFFFFF;stroke-width:0.3951;stroke-linecap:round;stroke-linejoin:round;stroke-miterlimit:10;}
	.st140{fill:none;stroke:#FFFFFF;stroke-width:0.4765;stroke-linecap:round;stroke-linejoin:round;stroke-miterlimit:10;}
	.st141{fill:none;stroke:#FFFFFF;stroke-width:0.4362;stroke-linecap:round;stroke-linejoin:round;stroke-miterlimit:10;}
	.st142{fill:#8091E8;}
	.st143{fill:#808080;}
	.st144{fill:none;stroke:#5C5CC4;stroke-miterlimit:10;}
	.st145{fill:#5C5CC4;}
	.st146{fill:none;stroke:#5747E4;stroke-miterlimit:10;}
	.st147{opacity:0.5;}
	.st148{fill:#9798A0;}
	.st149{opacity:0.3;fill:#C0B6CE;}
	.st150{opacity:0.5;fill:#FFFFFF;}
	.st151{clip-path:url(#SVGID_140_);}
	.st152{opacity:0.3;fill:#FFFFFF;}
	.st153{opacity:0.3;fill-rule:evenodd;clip-rule:evenodd;fill:#C0B6CE;}
	.st154{fill-rule:evenodd;clip-rule:evenodd;fill:#5747E4;}
	.st155{fill-rule:evenodd;clip-rule:evenodd;fill:#FFFFFF;}
	.st156{fill-rule:evenodd;clip-rule:evenodd;fill:#9ABED8;}
	.st157{fill:#D6DEE4;}
	.st158{fill:#DBD9DF;}
	.st159{fill:#E6E5EC;}
	.st160{fill:#90B0DF;}
	.st161{opacity:0.49;}
	.st162{clip-path:url(#SVGID_144_);}
	.st163{fill:#8C94BE;}
	.st164{fill:#8D95BF;}
	.st165{fill:#8E96BF;}
	.st166{fill:#8F97C0;}
	.st167{fill:#9098C0;}
	.st168{fill:#9199C1;}
	.st169{fill:#929AC1;}
	.st170{fill:#939BC2;}
	.st171{fill:#949CC3;}
	.st172{fill:#959DC3;}
	.st173{fill:#969EC4;}
	.st174{fill:#979FC4;}
	.st175{fill:#98A0C5;}
	.st176{fill:#9BA3C6;}
	.st177{fill:#9CA4C6;}
	.st178{fill:#9DA5C7;}
	.st179{clip-path:url(#SVGID_146_);}
	.st180{clip-path:url(#SVGID_148_);}
	.st181{clip-path:url(#SVGID_150_);}
	.st182{clip-path:url(#SVGID_152_);}
	.st183{clip-path:url(#SVGID_154_);}
	.st184{clip-path:url(#SVGID_156_);fill:#5747E4;}
	.st185{clip-path:url(#SVGID_158_);fill:#6C69E2;}
	.st186{clip-path:url(#SVGID_160_);fill:#5747E4;}
	.st187{clip-path:url(#SVGID_162_);fill:#6C69E2;}
	.st188{clip-path:url(#SVGID_164_);}
	.st189{clip-path:url(#SVGID_167_);}
	.st190{clip-path:url(#SVGID_173_);}
	.st191{clip-path:url(#SVGID_179_);}
	.st192{clip-path:url(#SVGID_185_);}
	.st193{clip-path:url(#SVGID_189_);}
	.st194{clip-path:url(#SVGID_192_);}
	.st195{clip-path:url(#SVGID_194_);}
	.st196{clip-path:url(#SVGID_196_);}
	.st197{clip-path:url(#SVGID_198_);}
	.st198{clip-path:url(#SVGID_200_);}
	.st199{clip-path:url(#SVGID_202_);}
	.st200{clip-path:url(#SVGID_204_);fill:url(#SVGID_205_);}
	.st201{opacity:0.46;clip-path:url(#SVGID_204_);fill:#3F3CB2;}
	.st202{opacity:0.15;clip-path:url(#SVGID_204_);fill:#352D90;}
	.st203{opacity:0.46;clip-path:url(#SVGID_202_);fill:#3F3CB2;}
	.st204{clip-path:url(#SVGID_207_);fill:#5747E4;}
	.st205{clip-path:url(#SVGID_209_);fill:#6C69E2;}
	.st206{clip-path:url(#SVGID_211_);fill:#5747E4;}
	.st207{clip-path:url(#SVGID_213_);fill:#6C69E2;}
	.st208{fill:none;stroke:#D2D2D2;stroke-miterlimit:10;}
	.st209{clip-path:url(#SVGID_215_);}
	.st210{fill:#4A48C9;}
	.st211{fill:#4847C8;}
	.st212{fill:#4746C7;}
	.st213{fill:#4645C6;}
	.st214{fill:#4543C6;}
	.st215{fill:#4442C5;}
	.st216{fill:#4341C4;}
	.st217{fill:#4340C3;}
	.st218{fill:#423FC3;}
	.st219{fill:#413FC2;}
	.st220{fill:#5050CF;}
	.st221{fill:#4F4ECE;}
	.st222{fill:#4D4DCD;}
	.st223{fill:#4C4BCB;}
	.st224{fill:#4B4ACA;}
	.st225{fill:#413EC1;}
	.st226{fill:#403DC1;}
	.st227{fill:#403DC0;}
	.st228{fill:#3F3CC0;}
	.st229{clip-path:url(#SVGID_217_);}
	.st230{fill:#07CEE5;}
	.st231{clip-path:url(#SVGID_219_);}
	.st232{clip-path:url(#SVGID_221_);}
	.st233{fill:#D2CAE1;}
	.st234{clip-path:url(#SVGID_223_);}
	.st235{fill:#9DA5CF;}
	.st236{fill:#9EA6D0;}
	.st237{fill:#9FA7D0;}
	.st238{fill:#A0A8D1;}
	.st239{fill:#A1A9D1;}
	.st240{fill:#A2AAD2;}
	.st241{fill:#A3ABD2;}
	.st242{fill:#A4ACD3;}
	.st243{fill:#A5ADD4;}
	.st244{fill:#A6AED4;}
	.st245{fill:#A7AFD5;}
	.st246{fill:#A8B0D5;}
	.st247{fill:#A9B1D6;}
	.st248{fill:#AAB2D6;}
	.st249{fill:#ACB4D7;}
	.st250{fill:#ADB5D7;}
	.st251{fill:#AEB6D8;}
	.st252{fill:#383A85;}
	.st253{fill-rule:evenodd;clip-rule:evenodd;fill:#F1CBBB;}
	.st254{fill-rule:evenodd;clip-rule:evenodd;fill:#F0BEA8;}
	.st255{fill-rule:evenodd;clip-rule:evenodd;fill:#99A1CD;}
	.st256{fill-rule:evenodd;clip-rule:evenodd;fill:#5050CF;}
	.st257{fill-rule:evenodd;clip-rule:evenodd;fill:#EFB79A;}
	.st258{fill-rule:evenodd;clip-rule:evenodd;fill:#D1C7DF;}
	.st259{clip-path:url(#SVGID_225_);}
	.st260{clip-path:url(#SVGID_227_);}
	.st261{clip-path:url(#SVGID_229_);}
	.st262{clip-path:url(#SVGID_231_);}
	.st263{fill-rule:evenodd;clip-rule:evenodd;fill:#352D9E;}
	.st264{clip-path:url(#SVGID_233_);}
	.st265{fill:#FF6683;}
	.st266{fill:#352D9E;}
	.st267{fill:#575756;}
	.st268{opacity:0.1;clip-path:url(#SVGID_235_);}
	.st269{fill:#ECECEC;}
	.st270{fill:#5747F5;}
	.st271{fill:#E4E4E4;}
	.st272{fill:#F5F5F5;}
	.st273{fill:#E0E0E0;}
	.st274{fill:#27DEBF;}
	.st275{fill:#AFA8BB;}
	.st276{fill:#263238;}
	.st277{opacity:0.2;fill:#8890BC;}
	.st278{opacity:0.2;fill:#4645B5;}
	.st279{fill:#C3998A;}
	.st280{fill:#262472;}
	.st281{opacity:0.2;}
	.st282{fill-rule:evenodd;clip-rule:evenodd;fill:#00000F;}
	.st283{fill:#FFFFFF;stroke:#DBDBDB;stroke-miterlimit:10;}
	.st284{opacity:0.35;fill:#DBDBDB;}
	.st285{opacity:0.78;}
	.st286{fill:#FFFFFF;stroke:#FFFFFF;stroke-width:0.2;stroke-miterlimit:10;}
	.st287{fill:url(#SVGID_236_);}
	.st288{fill:url(#SVGID_237_);}
	.st289{fill:url(#SVGID_238_);}
	.st290{fill:url(#SVGID_239_);}
	.st291{opacity:0.2;enable-background:new    ;}
	.st292{opacity:0.12;enable-background:new    ;}
	.st293{opacity:0.25;fill:#FFFFFF;enable-background:new    ;}
	.st294{clip-path:url(#SVGID_241_);}
	.st295{clip-path:url(#SVGID_244_);fill:#FFFFFF;}
	.st296{clip-path:url(#SVGID_246_);fill:#D8D8D8;}
	.st297{clip-path:url(#SVGID_248_);fill:#D8D8D8;}
	.st298{clip-path:url(#SVGID_250_);}
	.st299{clip-path:url(#SVGID_254_);}
	.st300{clip-path:url(#SVGID_257_);fill:url(#SVGID_258_);}
	.st301{opacity:0.46;clip-path:url(#SVGID_257_);fill:#3F3CB2;}
	.st302{opacity:0.15;clip-path:url(#SVGID_257_);fill:#352D90;}
	.st303{opacity:0.46;clip-path:url(#SVGID_254_);fill:#3F3CB2;}
	.st304{fill:#FFFFFF;stroke:#FFFFFF;stroke-width:0.25;stroke-miterlimit:10;}
	.st305{fill:#FFFFFF;stroke:#FFFFFF;stroke-width:0.25;stroke-linecap:round;stroke-linejoin:round;stroke-miterlimit:10;}
	.st306{clip-path:url(#SVGID_262_);fill:#FFFFFF;}
	.st307{clip-path:url(#SVGID_264_);fill:#F0F0F2;}
	.st308{clip-path:url(#SVGID_266_);fill:#F0F0F2;}
	.st309{clip-path:url(#SVGID_268_);fill:#FFFFFF;}
	.st310{opacity:0.39;clip-path:url(#SVGID_270_);fill:#D2D2D2;}
	.st311{opacity:0.32;clip-path:url(#SVGID_270_);fill:#D2D2D2;}
	.st312{clip-path:url(#SVGID_270_);}
	.st313{clip-path:url(#SVGID_270_);fill:none;stroke:#DBDBDB;stroke-width:3;stroke-miterlimit:10;}
	.st314{opacity:0.81;clip-path:url(#SVGID_270_);}
	.st315{clip-path:url(#SVGID_272_);}
	.st316{clip-path:url(#SVGID_274_);fill:url(#SVGID_275_);}
	.st317{opacity:0.46;clip-path:url(#SVGID_274_);fill:#3F3CB2;}
	.st318{opacity:0.15;clip-path:url(#SVGID_274_);fill:#352D90;}
	.st319{opacity:0.46;clip-path:url(#SVGID_272_);fill:#3F3CB2;}
	.st320{clip-path:url(#SVGID_279_);}
	.st321{clip-path:url(#SVGID_281_);fill:none;stroke:#DBDBDB;stroke-width:3;stroke-miterlimit:10;}
	.st322{opacity:0.81;clip-path:url(#SVGID_281_);}
	.st323{fill-rule:evenodd;clip-rule:evenodd;fill:#D7D9DE;}
	.st324{fill-rule:evenodd;clip-rule:evenodd;fill:#E7EAED;}
	.st325{fill-rule:evenodd;clip-rule:evenodd;fill:#FFEFF0;}
	.st326{fill-rule:evenodd;clip-rule:evenodd;fill:#C6C7C8;}
	.st327{fill-rule:evenodd;clip-rule:evenodd;fill:#E6E7E8;}
	.st328{fill-rule:evenodd;clip-rule:evenodd;fill:#C9C2C0;}
	.st329{fill-rule:evenodd;clip-rule:evenodd;fill:#E2DEDB;}
	.st330{fill-rule:evenodd;clip-rule:evenodd;fill:#B1B1E8;}
	.st331{fill-rule:evenodd;clip-rule:evenodd;fill:#9AA2C3;}
	.st332{fill-rule:evenodd;clip-rule:evenodd;fill:#D9D2E2;}
	.st333{fill-rule:evenodd;clip-rule:evenodd;fill:#0B1329;}
	.st334{fill-rule:evenodd;clip-rule:evenodd;fill:#EAA180;}
	.st335{fill-rule:evenodd;clip-rule:evenodd;fill:#78809D;}
	.st336{clip-path:url(#SVGID_283_);}
	.st337{opacity:0.18;clip-path:url(#SVGID_283_);fill:#D2D2D2;}
	.st338{clip-path:url(#SVGID_285_);}
	.st339{clip-path:url(#SVGID_287_);fill:url(#SVGID_288_);}
	.st340{opacity:0.46;clip-path:url(#SVGID_287_);fill:#3F3CB2;}
	.st341{opacity:0.15;clip-path:url(#SVGID_287_);fill:#352D90;}
	.st342{opacity:0.46;clip-path:url(#SVGID_285_);fill:#3F3CB2;}
	.st343{opacity:0.32;clip-path:url(#SVGID_283_);fill:#D2D2D2;}
	.st344{clip-path:url(#SVGID_283_);fill:none;stroke:#DBDBDB;stroke-width:3;stroke-miterlimit:10;}
	.st345{opacity:0.81;clip-path:url(#SVGID_283_);}
	.st346{clip-path:url(#SVGID_290_);}
	.st347{clip-path:url(#SVGID_292_);}
	.st348{clip-path:url(#SVGID_294_);fill:url(#SVGID_295_);}
	.st349{opacity:0.46;clip-path:url(#SVGID_294_);fill:#3F3CB2;}
	.st350{opacity:0.15;clip-path:url(#SVGID_294_);fill:#352D90;}
	.st351{opacity:0.46;clip-path:url(#SVGID_292_);fill:#3F3CB2;}
	.st352{fill:#412965;}
	.st353{fill:#EFE4DA;}
	.st354{fill:#E3D5C8;}
	.st355{fill:#BADBF0;}
	.st356{fill:#9A6A91;}
	.st357{fill:#B17644;}
	.st358{fill:#009245;}
	.st359{fill:#006837;}
	.st360{fill:#FFF1D2;}
	.st361{opacity:0.56;fill:#C1B9D0;}
	.st362{fill:none;stroke:#9A6A91;stroke-width:2.9512;stroke-miterlimit:10;}
	.st363{fill:#D6EFFD;}
	.st364{fill:none;stroke:#9A6A91;stroke-width:2.8383;stroke-miterlimit:10;}
</style>
<g>
	<defs>
		<rect id="SVGID_269_" x="-1692.84" y="-8.64" width="1358.45" height="2965.68"/>
	</defs>
	<clipPath id="SVGID_2_">
		<use xlink:href="#SVGID_269_"  style="overflow:visible;"/>
	</clipPath>
	<path style="opacity:0.39;clip-path:url(#SVGID_2_);fill:#D2D2D2;" d="M-828.41-9.19c50.67,37.6,110.65,52.47,168.29,46.88
		c44.91-4.36,85.88,27.2,93.46,71.68c9.11,53.39,31.97,105.17,69.09,149.81c26,31.25,56.71,56.26,90.24,74.85
		c39.12,21.69,55,70.33,36.68,111.13c-2.66,5.92-4.98,12.08-6.95,18.46c-23.15,75.25,14.5,157.54,86.61,189.14
		c83.57,36.63,179.39-5.19,210.23-89.57c16.5-45.16,10.91-92.98-11.27-131.66c-22.88-39.9-12.84-90.07,24.57-116.83
		c11.54-8.25,22.68-17.38,33.34-27.4C86.01,174.41,99.32-14.35-3.51-143.19C-89.19-250.55-229.34-287.45-351.8-247.36
		c-43.34,14.19-89.84-8.5-107.39-50.59c-17.56-42.12-47.17-79.77-87.76-107.31c-111.21-75.44-262.57-46.31-337.81,65.12
		C-956.93-233.25-931.97-86.06-828.41-9.19z"/>
</g>
<g>
	<defs>
		<rect id="SVGID_282_" width="1370.13" height="2341.15"/>
	</defs>
	<clipPath id="SVGID_4_">
		<use xlink:href="#SVGID_282_"  style="overflow:visible;"/>
	</clipPath>
	<g class="st30">
		<g>
			<path class="st39" d="M1346.52,228.66c0-2.79,2.27-5.06,5.06-5.06s5.06,2.27,5.06,5.06c0,2.79-2.27,5.06-5.06,5.06
				S1346.52,231.46,1346.52,228.66z"/>
			<path class="st39" d="M1319.59,228.66c0-2.79,2.27-5.06,5.06-5.06c2.79,0,5.06,2.27,5.06,5.06c0,2.79-2.27,5.06-5.06,5.06
				C1321.86,233.72,1319.59,231.46,1319.59,228.66z"/>
			<path class="st39" d="M1292.67,228.66c0-2.79,2.27-5.06,5.06-5.06s5.06,2.27,5.06,5.06c0,2.79-2.27,5.06-5.06,5.06
				S1292.67,231.46,1292.67,228.66z"/>
			<path class="st39" d="M1265.74,228.66c0-2.79,2.27-5.06,5.06-5.06s5.06,2.27,5.06,5.06c0,2.79-2.27,5.06-5.06,5.06
				S1265.74,231.46,1265.74,228.66z"/>
			<path class="st39" d="M1238.81,228.66c0-2.79,2.26-5.06,5.06-5.06c2.79,0,5.06,2.27,5.06,5.06c0,2.79-2.27,5.06-5.06,5.06
				C1241.08,233.72,1238.81,231.46,1238.81,228.66z"/>
			<circle class="st39" cx="1216.94" cy="228.66" r="5.06"/>
			<path class="st39" d="M1184.96,228.66c0-2.79,2.27-5.06,5.06-5.06c2.79,0,5.06,2.27,5.06,5.06c0,2.79-2.27,5.06-5.06,5.06
				C1187.22,233.72,1184.96,231.46,1184.96,228.66z"/>
		</g>
		<g>
			<path class="st39" d="M1346.52,201.81c0-2.79,2.27-5.06,5.06-5.06s5.06,2.27,5.06,5.06s-2.27,5.06-5.06,5.06
				S1346.52,204.6,1346.52,201.81z"/>
			<path class="st39" d="M1319.59,201.81c0-2.79,2.27-5.06,5.06-5.06c2.79,0,5.06,2.27,5.06,5.06s-2.27,5.06-5.06,5.06
				C1321.86,206.87,1319.59,204.6,1319.59,201.81z"/>
			<path class="st39" d="M1292.67,201.81c0-2.79,2.27-5.06,5.06-5.06s5.06,2.27,5.06,5.06s-2.27,5.06-5.06,5.06
				S1292.67,204.6,1292.67,201.81z"/>
			<path class="st39" d="M1265.74,201.81c0-2.79,2.27-5.06,5.06-5.06s5.06,2.27,5.06,5.06s-2.27,5.06-5.06,5.06
				S1265.74,204.6,1265.74,201.81z"/>
			<path class="st39" d="M1238.81,201.81c0-2.79,2.26-5.06,5.06-5.06c2.79,0,5.06,2.27,5.06,5.06s-2.27,5.06-5.06,5.06
				C1241.08,206.87,1238.81,204.6,1238.81,201.81z"/>
			<path class="st39" d="M1211.88,201.81c0-2.79,2.27-5.06,5.06-5.06s5.06,2.27,5.06,5.06s-2.27,5.06-5.06,5.06
				S1211.88,204.6,1211.88,201.81z"/>
			<path class="st39" d="M1184.96,201.81c0-2.79,2.27-5.06,5.06-5.06c2.79,0,5.06,2.27,5.06,5.06s-2.27,5.06-5.06,5.06
				C1187.22,206.87,1184.96,204.6,1184.96,201.81z"/>
		</g>
		<g>
			<path class="st39" d="M1346.52,174.96c0-2.79,2.27-5.06,5.06-5.06s5.06,2.27,5.06,5.06c0,2.79-2.27,5.06-5.06,5.06
				S1346.52,177.75,1346.52,174.96z"/>
			<path class="st39" d="M1319.59,174.96c0-2.79,2.27-5.06,5.06-5.06c2.79,0,5.06,2.27,5.06,5.06c0,2.79-2.27,5.06-5.06,5.06
				C1321.86,180.02,1319.59,177.75,1319.59,174.96z"/>
			<path class="st39" d="M1292.67,174.96c0-2.79,2.27-5.06,5.06-5.06s5.06,2.27,5.06,5.06c0,2.79-2.27,5.06-5.06,5.06
				S1292.67,177.75,1292.67,174.96z"/>
			<path class="st39" d="M1265.74,174.96c0-2.79,2.27-5.06,5.06-5.06s5.06,2.27,5.06,5.06c0,2.79-2.27,5.06-5.06,5.06
				S1265.74,177.75,1265.74,174.96z"/>
			<path class="st39" d="M1238.81,174.96c0-2.79,2.26-5.06,5.06-5.06c2.79,0,5.06,2.27,5.06,5.06c0,2.79-2.27,5.06-5.06,5.06
				C1241.08,180.02,1238.81,177.75,1238.81,174.96z"/>
			<path class="st39" d="M1211.88,174.96c0-2.79,2.27-5.06,5.06-5.06s5.06,2.27,5.06,5.06c0,2.79-2.27,5.06-5.06,5.06
				S1211.88,177.75,1211.88,174.96z"/>
			<path class="st39" d="M1184.96,174.96c0-2.79,2.27-5.06,5.06-5.06c2.79,0,5.06,2.27,5.06,5.06c0,2.79-2.27,5.06-5.06,5.06
				C1187.22,180.02,1184.96,177.75,1184.96,174.96z"/>
		</g>
		<g>
			<path class="st39" d="M1346.52,148.11c0-2.79,2.27-5.06,5.06-5.06s5.06,2.27,5.06,5.06c0,2.79-2.27,5.06-5.06,5.06
				S1346.52,150.9,1346.52,148.11z"/>
			<path class="st39" d="M1319.59,148.11c0-2.79,2.27-5.06,5.06-5.06c2.79,0,5.06,2.27,5.06,5.06c0,2.79-2.27,5.06-5.06,5.06
				C1321.86,153.17,1319.59,150.9,1319.59,148.11z"/>
			<path class="st39" d="M1292.67,148.11c0-2.79,2.27-5.06,5.06-5.06s5.06,2.27,5.06,5.06c0,2.79-2.27,5.06-5.06,5.06
				S1292.67,150.9,1292.67,148.11z"/>
			<path class="st39" d="M1265.74,148.11c0-2.79,2.27-5.06,5.06-5.06s5.06,2.27,5.06,5.06c0,2.79-2.27,5.06-5.06,5.06
				S1265.74,150.9,1265.74,148.11z"/>
			<path class="st39" d="M1238.81,148.11c0-2.79,2.26-5.06,5.06-5.06c2.79,0,5.06,2.27,5.06,5.06c0,2.79-2.27,5.06-5.06,5.06
				C1241.08,153.17,1238.81,150.9,1238.81,148.11z"/>
			<circle class="st39" cx="1216.94" cy="148.11" r="5.06"/>
			<path class="st39" d="M1184.96,148.11c0-2.79,2.27-5.06,5.06-5.06c2.79,0,5.06,2.27,5.06,5.06c0,2.79-2.27,5.06-5.06,5.06
				C1187.22,153.17,1184.96,150.9,1184.96,148.11z"/>
		</g>
		<g>
			<path class="st39" d="M1346.52,121.26c0-2.79,2.27-5.06,5.06-5.06s5.06,2.27,5.06,5.06c0,2.79-2.27,5.06-5.06,5.06
				S1346.52,124.05,1346.52,121.26z"/>
			<path class="st39" d="M1319.59,121.26c0-2.79,2.27-5.06,5.06-5.06c2.79,0,5.06,2.27,5.06,5.06c0,2.79-2.27,5.06-5.06,5.06
				C1321.86,126.32,1319.59,124.05,1319.59,121.26z"/>
			<path class="st39" d="M1292.67,121.26c0-2.79,2.27-5.06,5.06-5.06s5.06,2.27,5.06,5.06c0,2.79-2.27,5.06-5.06,5.06
				S1292.67,124.05,1292.67,121.26z"/>
			<path class="st39" d="M1265.74,121.26c0-2.79,2.27-5.06,5.06-5.06s5.06,2.27,5.06,5.06c0,2.79-2.27,5.06-5.06,5.06
				S1265.74,124.05,1265.74,121.26z"/>
			<path class="st39" d="M1238.81,121.26c0-2.79,2.26-5.06,5.06-5.06c2.79,0,5.06,2.27,5.06,5.06c0,2.79-2.27,5.06-5.06,5.06
				C1241.08,126.32,1238.81,124.05,1238.81,121.26z"/>
			<circle class="st39" cx="1216.94" cy="121.26" r="5.06"/>
			<path class="st39" d="M1184.96,121.26c0-2.79,2.27-5.06,5.06-5.06c2.79,0,5.06,2.27,5.06,5.06c0,2.79-2.27,5.06-5.06,5.06
				C1187.22,126.32,1184.96,124.05,1184.96,121.26z"/>
		</g>
	</g>
	<g class="st30">
		<g>
			<path class="st39" d="M1346.52,361.8c0-2.79,2.27-5.06,5.06-5.06s5.06,2.27,5.06,5.06c0,2.79-2.27,5.06-5.06,5.06
				S1346.52,364.59,1346.52,361.8z"/>
			<path class="st39" d="M1319.59,361.8c0-2.79,2.27-5.06,5.06-5.06c2.79,0,5.06,2.27,5.06,5.06c0,2.79-2.27,5.06-5.06,5.06
				C1321.86,366.86,1319.59,364.59,1319.59,361.8z"/>
			<path class="st39" d="M1292.67,361.8c0-2.79,2.27-5.06,5.06-5.06s5.06,2.27,5.06,5.06c0,2.79-2.27,5.06-5.06,5.06
				S1292.67,364.59,1292.67,361.8z"/>
			<path class="st39" d="M1265.74,361.8c0-2.79,2.27-5.06,5.06-5.06s5.06,2.27,5.06,5.06c0,2.79-2.27,5.06-5.06,5.06
				S1265.74,364.59,1265.74,361.8z"/>
			<path class="st39" d="M1238.81,361.8c0-2.79,2.26-5.06,5.06-5.06c2.79,0,5.06,2.27,5.06,5.06c0,2.79-2.27,5.06-5.06,5.06
				C1241.08,366.86,1238.81,364.59,1238.81,361.8z"/>
			<circle class="st39" cx="1216.94" cy="361.8" r="5.06"/>
			<path class="st39" d="M1184.96,361.8c0-2.79,2.27-5.06,5.06-5.06c2.79,0,5.06,2.27,5.06,5.06c0,2.79-2.27,5.06-5.06,5.06
				C1187.22,366.86,1184.96,364.59,1184.96,361.8z"/>
		</g>
		<g>
			<path class="st39" d="M1346.52,334.95c0-2.79,2.27-5.06,5.06-5.06s5.06,2.27,5.06,5.06s-2.27,5.06-5.06,5.06
				S1346.52,337.74,1346.52,334.95z"/>
			<path class="st39" d="M1319.59,334.95c0-2.79,2.27-5.06,5.06-5.06c2.79,0,5.06,2.27,5.06,5.06s-2.27,5.06-5.06,5.06
				C1321.86,340.01,1319.59,337.74,1319.59,334.95z"/>
			<path class="st39" d="M1292.67,334.95c0-2.79,2.27-5.06,5.06-5.06s5.06,2.27,5.06,5.06s-2.27,5.06-5.06,5.06
				S1292.67,337.74,1292.67,334.95z"/>
			<path class="st39" d="M1265.74,334.95c0-2.79,2.27-5.06,5.06-5.06s5.06,2.27,5.06,5.06s-2.27,5.06-5.06,5.06
				S1265.74,337.74,1265.74,334.95z"/>
			<path class="st39" d="M1238.81,334.95c0-2.79,2.26-5.06,5.06-5.06c2.79,0,5.06,2.27,5.06,5.06s-2.27,5.06-5.06,5.06
				C1241.08,340.01,1238.81,337.74,1238.81,334.95z"/>
			<path class="st39" d="M1211.88,334.95c0-2.79,2.27-5.06,5.06-5.06s5.06,2.27,5.06,5.06s-2.27,5.06-5.06,5.06
				S1211.88,337.74,1211.88,334.95z"/>
			<path class="st39" d="M1184.96,334.95c0-2.79,2.27-5.06,5.06-5.06c2.79,0,5.06,2.27,5.06,5.06s-2.27,5.06-5.06,5.06
				C1187.22,340.01,1184.96,337.74,1184.96,334.95z"/>
		</g>
		<g>
			<path class="st39" d="M1346.52,308.1c0-2.79,2.27-5.06,5.06-5.06s5.06,2.27,5.06,5.06c0,2.79-2.27,5.06-5.06,5.06
				S1346.52,310.89,1346.52,308.1z"/>
			<path class="st39" d="M1319.59,308.1c0-2.79,2.27-5.06,5.06-5.06c2.79,0,5.06,2.27,5.06,5.06c0,2.79-2.27,5.06-5.06,5.06
				C1321.86,313.16,1319.59,310.89,1319.59,308.1z"/>
			<path class="st39" d="M1292.67,308.1c0-2.79,2.27-5.06,5.06-5.06s5.06,2.27,5.06,5.06c0,2.79-2.27,5.06-5.06,5.06
				S1292.67,310.89,1292.67,308.1z"/>
			<path class="st39" d="M1265.74,308.1c0-2.79,2.27-5.06,5.06-5.06s5.06,2.27,5.06,5.06c0,2.79-2.27,5.06-5.06,5.06
				S1265.74,310.89,1265.74,308.1z"/>
			<path class="st39" d="M1238.81,308.1c0-2.79,2.26-5.06,5.06-5.06c2.79,0,5.06,2.27,5.06,5.06c0,2.79-2.27,5.06-5.06,5.06
				C1241.08,313.16,1238.81,310.89,1238.81,308.1z"/>
			<path class="st39" d="M1211.88,308.1c0-2.79,2.27-5.06,5.06-5.06s5.06,2.27,5.06,5.06c0,2.79-2.27,5.06-5.06,5.06
				S1211.88,310.89,1211.88,308.1z"/>
			<path class="st39" d="M1184.96,308.1c0-2.79,2.27-5.06,5.06-5.06c2.79,0,5.06,2.27,5.06,5.06c0,2.79-2.27,5.06-5.06,5.06
				C1187.22,313.16,1184.96,310.89,1184.96,308.1z"/>
		</g>
		<g>
			<path class="st39" d="M1346.52,281.24c0-2.79,2.27-5.06,5.06-5.06s5.06,2.27,5.06,5.06c0,2.79-2.27,5.06-5.06,5.06
				S1346.52,284.04,1346.52,281.24z"/>
			<path class="st39" d="M1319.59,281.24c0-2.79,2.27-5.06,5.06-5.06c2.79,0,5.06,2.27,5.06,5.06c0,2.79-2.27,5.06-5.06,5.06
				C1321.86,286.3,1319.59,284.04,1319.59,281.24z"/>
			<path class="st39" d="M1292.67,281.24c0-2.79,2.27-5.06,5.06-5.06s5.06,2.27,5.06,5.06c0,2.79-2.27,5.06-5.06,5.06
				S1292.67,284.04,1292.67,281.24z"/>
			<path class="st39" d="M1265.74,281.24c0-2.79,2.27-5.06,5.06-5.06s5.06,2.27,5.06,5.06c0,2.79-2.27,5.06-5.06,5.06
				S1265.74,284.04,1265.74,281.24z"/>
			<path class="st39" d="M1238.81,281.24c0-2.79,2.26-5.06,5.06-5.06c2.79,0,5.06,2.27,5.06,5.06c0,2.79-2.27,5.06-5.06,5.06
				C1241.08,286.3,1238.81,284.04,1238.81,281.24z"/>
			<circle class="st39" cx="1216.94" cy="281.24" r="5.06"/>
			<path class="st39" d="M1184.96,281.24c0-2.79,2.27-5.06,5.06-5.06c2.79,0,5.06,2.27,5.06,5.06c0,2.79-2.27,5.06-5.06,5.06
				C1187.22,286.3,1184.96,284.04,1184.96,281.24z"/>
		</g>
		<g>
			<path class="st39" d="M1346.52,254.39c0-2.79,2.27-5.06,5.06-5.06s5.06,2.27,5.06,5.06c0,2.79-2.27,5.06-5.06,5.06
				S1346.52,257.19,1346.52,254.39z"/>
			<path class="st39" d="M1319.59,254.39c0-2.79,2.27-5.06,5.06-5.06c2.79,0,5.06,2.27,5.06,5.06c0,2.79-2.27,5.06-5.06,5.06
				C1321.86,259.45,1319.59,257.19,1319.59,254.39z"/>
			<path class="st39" d="M1292.67,254.39c0-2.79,2.27-5.06,5.06-5.06s5.06,2.27,5.06,5.06c0,2.79-2.27,5.06-5.06,5.06
				S1292.67,257.19,1292.67,254.39z"/>
			<path class="st39" d="M1265.74,254.39c0-2.79,2.27-5.06,5.06-5.06s5.06,2.27,5.06,5.06c0,2.79-2.27,5.06-5.06,5.06
				S1265.74,257.19,1265.74,254.39z"/>
			<path class="st39" d="M1238.81,254.39c0-2.79,2.26-5.06,5.06-5.06c2.79,0,5.06,2.27,5.06,5.06c0,2.79-2.27,5.06-5.06,5.06
				C1241.08,259.45,1238.81,257.19,1238.81,254.39z"/>
			<circle class="st39" cx="1216.94" cy="254.39" r="5.06"/>
			<path class="st39" d="M1184.96,254.39c0-2.79,2.27-5.06,5.06-5.06c2.79,0,5.06,2.27,5.06,5.06c0,2.79-2.27,5.06-5.06,5.06
				C1187.22,259.45,1184.96,257.19,1184.96,254.39z"/>
		</g>
	</g>
	<path style="opacity:0.18;clip-path:url(#SVGID_4_);fill:#D2D2D2;" d="M837.55,368.58c0.49-58.45-47.39-113.41-105.35-120.94
		c-32.36-4.21-64.81,4.76-97.33,7.51c-32.52,2.75-69.21-2.67-89.65-28.11c-22.7-28.25-16.78-68.9-12.34-104.87
		c4.44-35.97,3.02-79.17-26.98-99.51c-32.3-21.89-79.1-3.8-113.35-22.48c-34.69-18.91-40.96-65.5-40.37-105
		c0.59-39.5,1.93-84.33-26.31-111.96c-44-43.04-128.44-13.56-171.26-57.78c-26.33-27.19-24.9-70.79-43.08-103.99
		C80.65-434.92,5.22-446-46.21-484.55c-50.55-37.89-67.93-101.98-61.01-162.42c4.74-41.42,23.61-82.04,6.64-122.81
		c-49.86-119.78-222.44-129.03-293.59-26.66c-58.71,84.47-31.71,205.46-83.63,294.26c-32.41,55.44-94.44,96.6-102.38,160.32
		c-6.08,48.8,22.5,94.93,53.74,132.9c31.24,37.98,67.44,74.5,81.5,121.62C-426.6-25.89-449.27,43.5-425,102.85
		c31.46,76.91,126.32,104.01,209.26,109.05c82.94,5.04,172.69-0.29,241.41,46.41c41.82,28.42,69.74,72.49,101.47,111.87
		c31.72,39.38,72.16,76.96,122.38,82.92c73.53,8.73,139.5-52.53,213.54-52.95c95.09-0.53,172.65,98.26,267.14,87.58
		C788.28,481.18,837.07,427.03,837.55,368.58z"/>
	<path style="opacity:0.32;clip-path:url(#SVGID_4_);fill:#D2D2D2;" d="M1188.58,1227.5c-12.89-57.01-72.06-99.57-130.21-93.65
		c-32.47,3.31-62.01,19.45-93.04,29.56c-31.03,10.11-67.99,13.22-93.7-6.87c-28.56-22.32-32.09-63.24-35.99-99.27
		c-3.9-36.03-15.16-77.77-49.02-90.7c-36.44-13.92-77.87,14.38-115.49,4.03c-38.09-10.48-54.85-54.4-63.31-92.99
		c-8.46-38.59-17.4-82.54-51.21-102.98c-52.68-31.84-128.14,16.16-179.94-17.1c-31.85-20.45-40.43-63.22-65.72-91.38
		c-42.94-47.82-118.91-41.36-177.79-67.13C75.3,573.7,43.73,515.28,36.64,454.86c-4.86-41.41,4.22-85.27-21.61-121.07
		c-75.92-105.21-246.05-74.76-291.91,41.17c-37.84,95.65,16.1,207.26-14.13,305.58c-18.87,61.38-69.86,115.63-63.02,179.48
		c5.24,48.9,43.61,87.27,82.71,117.1c39.1,29.83,82.69,57.11,107.15,99.76c31.9,55.62,25.69,128.36,62.89,180.59
		c48.21,67.68,146.76,72.38,228.65,58.32c81.89-14.06,168.05-39.77,245.63-10.01c47.21,18.11,84.47,54.63,124.36,85.71
		c39.89,31.08,87.85,58.42,138.1,52.75c73.57-8.31,123.8-83.04,195.78-100.37c92.45-22.26,190.55,56.18,280.09,24.18
		C1166.36,1348.39,1201.47,1284.51,1188.58,1227.5z"/>
	<g class="st30">
		<path class="st42" d="M121.31,563.87c-0.42-0.42-1.09-0.42-1.51,0c-0.42,0.42-0.42,1.09,0,1.51c0.42,0.41,1.09,0.42,1.51,0
			C121.72,564.96,121.72,564.29,121.31,563.87z"/>
		<circle class="st42" cx="105.5" cy="594.73" r="1.06"/>
		<circle class="st42" cx="105.5" cy="579.68" r="1.06"/>
		<circle class="st42" cx="75.4" cy="624.83" r="1.06"/>
		<path class="st42" d="M89.7,609.03c-0.42,0.42-0.42,1.09,0,1.51c0.42,0.42,1.09,0.42,1.51,0c0.42-0.42,0.42-1.09,0-1.51
			C90.79,608.61,90.11,608.61,89.7,609.03z"/>
		<path class="st42" d="M46.05,639.13c-0.42-0.42-1.09-0.42-1.51,0c-0.42,0.42-0.42,1.09,0,1.51c0.16,0.16,0.36,0.24,0.56,0.27
			c0.31-0.09,0.62-0.17,0.93-0.26c0,0,0.01-0.01,0.02-0.01C46.47,640.22,46.47,639.54,46.05,639.13z"/>
		<path class="st42" d="M119.8,533.77c-0.42,0.42-0.42,1.09,0,1.51c0.42,0.42,1.09,0.42,1.51,0c0.42-0.42,0.42-1.09,0-1.51
			C120.89,533.35,120.22,533.35,119.8,533.77z"/>
		<circle class="st42" cx="120.55" cy="549.57" r="1.06"/>
		<path class="st42" d="M104.75,535.27c0.42,0.42,1.09,0.42,1.51,0c0.42-0.42,0.42-1.09,0-1.51c-0.42-0.42-1.09-0.42-1.51,0
			C104.33,534.19,104.33,534.86,104.75,535.27z"/>
		<path class="st42" d="M119.8,518.72c-0.42,0.42-0.42,1.09,0,1.51c0.42,0.42,1.09,0.42,1.51,0c0.42-0.42,0.42-1.09,0-1.51
			C120.89,518.3,120.22,518.3,119.8,518.72z"/>
		<path class="st42" d="M91.2,533.77c-0.42-0.42-1.09-0.42-1.51,0c-0.42,0.42-0.42,1.09,0,1.51c0.42,0.42,1.09,0.42,1.51,0
			C91.62,534.86,91.62,534.18,91.2,533.77z"/>
		<path class="st42" d="M76.15,578.92c-0.42-0.42-1.09-0.42-1.51,0c-0.42,0.42-0.42,1.09,0,1.51c0.42,0.42,1.09,0.42,1.51,0
			C76.57,580.01,76.57,579.34,76.15,578.92z"/>
		<path class="st42" d="M89.7,565.38c0.42,0.41,1.09,0.42,1.51,0c0.42-0.42,0.42-1.09,0-1.51c-0.42-0.42-1.09-0.42-1.51,0
			C89.28,564.29,89.28,564.96,89.7,565.38z"/>
		<circle class="st42" cx="90.45" cy="579.68" r="1.06"/>
		<path class="st42" d="M74.65,565.38c0.42,0.41,1.09,0.42,1.51,0c0.42-0.42,0.42-1.09,0-1.51c-0.42-0.42-1.09-0.42-1.51,0
			C74.23,564.29,74.23,564.96,74.65,565.38z"/>
		<path class="st42" d="M104.75,563.87c-0.42,0.42-0.42,1.09,0,1.51c0.42,0.41,1.09,0.42,1.51,0c0.42-0.42,0.42-1.09,0-1.51
			C105.84,563.46,105.17,563.46,104.75,563.87z"/>
		<path class="st42" d="M89.7,550.33c0.42,0.42,1.09,0.42,1.51,0c0.42-0.42,0.42-1.09,0-1.51c-0.42-0.42-1.09-0.42-1.51,0
			C89.28,549.24,89.28,549.91,89.7,550.33z"/>
		<path class="st42" d="M61.1,563.87c-0.42-0.42-1.09-0.42-1.51,0c-0.42,0.42-0.42,1.09,0,1.51c0.42,0.41,1.09,0.42,1.51,0
			C61.52,564.96,61.52,564.29,61.1,563.87z"/>
		<path class="st42" d="M104.75,550.33c0.42,0.42,1.09,0.42,1.51,0c0.42-0.42,0.42-1.09,0-1.51c-0.42-0.42-1.09-0.42-1.51,0
			C104.33,549.24,104.33,549.91,104.75,550.33z"/>
		<path class="st42" d="M46.05,609.03c-0.42-0.42-1.09-0.41-1.51,0c-0.42,0.42-0.42,1.09,0,1.51c0.42,0.42,1.09,0.42,1.51,0
			C46.47,610.12,46.47,609.44,46.05,609.03z"/>
		<path class="st42" d="M61.1,593.97c-0.42-0.42-1.09-0.42-1.51,0c-0.42,0.42-0.42,1.09,0,1.51c0.42,0.42,1.09,0.42,1.51,0
			C61.52,595.06,61.52,594.39,61.1,593.97z"/>
		<path class="st42" d="M74.65,610.53c0.42,0.42,1.09,0.42,1.51,0c0.42-0.42,0.42-1.09,0-1.51c-0.42-0.42-1.09-0.41-1.51,0
			C74.23,609.44,74.23,610.12,74.65,610.53z"/>
		<path class="st42" d="M61.1,609.03c-0.42-0.42-1.09-0.41-1.51,0c-0.42,0.42-0.42,1.09,0,1.51c0.42,0.42,1.09,0.42,1.51,0
			C61.52,610.12,61.52,609.44,61.1,609.03z"/>
		<path class="st42" d="M46.05,595.48c0.42-0.42,0.42-1.09,0-1.51c-0.42-0.42-1.09-0.42-1.51,0c-0.42,0.42-0.42,1.09,0,1.51
			C44.96,595.9,45.63,595.9,46.05,595.48z"/>
		<path class="st42" d="M76.15,593.97c-0.42-0.42-1.09-0.42-1.51,0c-0.42,0.42-0.42,1.09,0,1.51c0.42,0.42,1.09,0.42,1.51,0
			C76.57,595.06,76.57,594.39,76.15,593.97z"/>
		<path class="st42" d="M61.1,578.92c-0.42-0.42-1.09-0.42-1.51,0c-0.42,0.42-0.42,1.09,0,1.51c0.42,0.42,1.09,0.42,1.51,0
			C61.52,580.01,61.52,579.34,61.1,578.92z"/>
		<path class="st42" d="M31,593.97c-0.42-0.42-1.09-0.42-1.51,0c-0.42,0.42-0.42,1.09,0,1.51c0.42,0.42,1.09,0.42,1.51,0
			C31.41,595.06,31.41,594.39,31,593.97z"/>
		<circle class="st42" cx="90.45" cy="594.73" r="1.06"/>
		<circle class="st42" cx="30.25" cy="624.83" r="1.06"/>
		<path class="st42" d="M29.49,640.63c0.42,0.42,1.09,0.42,1.51,0c0.42-0.42,0.42-1.09,0-1.51c-0.42-0.42-1.09-0.42-1.51,0
			C29.08,639.54,29.08,640.22,29.49,640.63z"/>
		<path class="st42" d="M15.95,624.08c-0.42-0.42-1.09-0.42-1.51,0c-0.42,0.42-0.42,1.09,0,1.51c0.42,0.42,1.09,0.42,1.51,0
			C16.36,625.17,16.36,624.49,15.95,624.08z"/>
		<path class="st42" d="M44.54,624.08c-0.42,0.42-0.42,1.09,0,1.51c0.42,0.42,1.09,0.42,1.51,0c0.42-0.42,0.42-1.09,0-1.51
			C45.63,623.66,44.96,623.66,44.54,624.08z"/>
		<path class="st42" d="M31,609.03c-0.42-0.42-1.09-0.41-1.51,0c-0.42,0.42-0.42,1.09,0,1.51c0.42,0.42,1.09,0.42,1.51,0
			C31.41,610.12,31.41,609.44,31,609.03z"/>
		<path class="st42" d="M0.9,624.08c-0.42-0.42-1.09-0.42-1.51,0c-0.42,0.42-0.42,1.09,0,1.51c0.42,0.42,1.09,0.42,1.51,0
			C1.31,625.17,1.31,624.49,0.9,624.08z"/>
		<path class="st42" d="M15.95,609.03c-0.42-0.42-1.09-0.41-1.51,0c-0.42,0.42-0.42,1.09,0,1.51c0.42,0.42,1.09,0.42,1.51,0
			C16.36,610.12,16.36,609.44,15.95,609.03z"/>
		<circle class="st42" cx="60.35" cy="624.83" r="1.06"/>
		<path class="st42" d="M-0.61,639.13c-0.42,0.42-0.42,1.09,0,1.51c0.42,0.42,1.09,0.42,1.51,0c0.42-0.42,0.42-1.09,0-1.51
			C0.48,638.71-0.19,638.71-0.61,639.13z"/>
		<path class="st42" d="M14.44,640.63c0.42,0.42,1.09,0.42,1.51,0c0.42-0.42,0.42-1.09,0-1.51c-0.42-0.42-1.09-0.42-1.51,0
			C14.03,639.54,14.03,640.22,14.44,640.63z"/>
		<path class="st42" d="M106.26,488.62c-0.42-0.42-1.09-0.42-1.51,0c-0.42,0.42-0.42,1.09,0,1.51c0.42,0.42,1.09,0.42,1.51,0
			C106.67,489.71,106.67,489.03,106.26,488.62z"/>
		<path class="st42" d="M106.26,475.07c0.42-0.42,0.42-1.09,0-1.51c-0.42-0.42-1.09-0.42-1.51,0c-0.42,0.42-0.42,1.09,0,1.51
			C105.17,475.48,105.84,475.49,106.26,475.07z"/>
		<circle class="st42" cx="90.45" cy="504.42" r="1.06"/>
		<path class="st42" d="M104.75,520.22c0.42,0.42,1.09,0.42,1.51,0c0.42-0.42,0.42-1.09,0-1.51c-0.42-0.42-1.09-0.42-1.51,0
			C104.33,519.13,104.33,519.81,104.75,520.22z"/>
		<path class="st42" d="M89.7,520.22c0.42,0.42,1.09,0.42,1.51,0c0.42-0.42,0.42-1.09,0-1.51c-0.42-0.42-1.09-0.42-1.51,0
			C89.28,519.13,89.28,519.81,89.7,520.22z"/>
		<path class="st42" d="M74.65,505.17c0.42,0.42,1.09,0.42,1.51,0c0.42-0.42,0.42-1.09,0-1.51c-0.42-0.42-1.09-0.42-1.51,0
			C74.23,504.08,74.23,504.76,74.65,505.17z"/>
		<circle class="st42" cx="105.5" cy="504.42" r="1.06"/>
		<path class="st42" d="M89.7,490.12c0.42,0.42,1.09,0.42,1.51,0c0.42-0.42,0.42-1.09,0-1.51c-0.42-0.42-1.09-0.42-1.51,0
			C89.28,489.03,89.28,489.7,89.7,490.12z"/>
		<path class="st42" d="M119.8,505.17c0.42,0.42,1.09,0.42,1.51,0c0.42-0.42,0.42-1.09,0-1.51c-0.42-0.42-1.09-0.42-1.51,0
			C119.39,504.08,119.39,504.76,119.8,505.17z"/>
		<path class="st42" d="M46.05,548.82c-0.42-0.42-1.09-0.42-1.51,0c-0.42,0.42-0.42,1.09,0,1.51c0.42,0.42,1.09,0.42,1.51,0
			C46.47,549.91,46.47,549.24,46.05,548.82z"/>
		<path class="st42" d="M59.6,535.27c0.42,0.42,1.09,0.42,1.51,0c0.42-0.42,0.42-1.09,0-1.51c-0.42-0.42-1.09-0.42-1.51,0
			C59.18,534.19,59.18,534.86,59.6,535.27z"/>
		<circle class="st42" cx="75.4" cy="549.57" r="1.06"/>
		<circle class="st42" cx="60.35" cy="549.57" r="1.06"/>
		<path class="st42" d="M44.54,535.27c0.42,0.42,1.09,0.42,1.51,0c0.42-0.42,0.42-1.09,0-1.51c-0.42-0.42-1.09-0.42-1.51,0
			C44.13,534.19,44.13,534.86,44.54,535.27z"/>
		<path class="st42" d="M76.15,533.77c-0.42-0.42-1.09-0.42-1.51,0c-0.42,0.42-0.42,1.09,0,1.51c0.42,0.42,1.09,0.42,1.51,0
			C76.57,534.86,76.57,534.18,76.15,533.77z"/>
		<path class="st42" d="M59.6,520.22c0.42,0.42,1.09,0.42,1.51,0c0.42-0.42,0.42-1.09,0-1.51c-0.42-0.42-1.09-0.42-1.51,0
			C59.18,519.13,59.18,519.81,59.6,520.22z"/>
		<path class="st42" d="M31,533.77c-0.42-0.42-1.09-0.42-1.51,0c-0.42,0.42-0.42,1.09,0,1.51c0.42,0.42,1.09,0.42,1.51,0
			C31.41,534.86,31.41,534.18,31,533.77z"/>
		<path class="st42" d="M74.65,520.22c0.42,0.42,1.09,0.42,1.51,0c0.42-0.42,0.42-1.09,0-1.51c-0.42-0.42-1.09-0.42-1.51,0
			C74.23,519.13,74.23,519.81,74.65,520.22z"/>
		<circle class="st42" cx="15.19" cy="579.68" r="1.06"/>
		<path class="st42" d="M31,563.87c-0.42-0.42-1.09-0.42-1.51,0c-0.42,0.42-0.42,1.09,0,1.51c0.42,0.41,1.09,0.42,1.51,0
			C31.41,564.96,31.41,564.29,31,563.87z"/>
		<path class="st42" d="M44.54,580.43c0.42,0.42,1.09,0.42,1.51,0c0.42-0.42,0.42-1.09,0-1.51c-0.42-0.42-1.09-0.42-1.51,0
			C44.13,579.34,44.13,580.01,44.54,580.43z"/>
		<path class="st42" d="M31,578.92c-0.42-0.42-1.09-0.42-1.51,0c-0.42,0.42-0.42,1.09,0,1.51c0.42,0.42,1.09,0.42,1.51,0
			C31.41,580.01,31.41,579.34,31,578.92z"/>
		<path class="st42" d="M15.95,563.87c-0.42-0.42-1.09-0.42-1.51,0c-0.42,0.42-0.42,1.09,0,1.51c0.42,0.41,1.09,0.42,1.51,0
			C16.36,564.96,16.36,564.29,15.95,563.87z"/>
		<path class="st42" d="M46.05,563.87c-0.42-0.42-1.09-0.42-1.51,0c-0.42,0.42-0.42,1.09,0,1.51c0.42,0.41,1.09,0.42,1.51,0
			C46.47,564.96,46.47,564.29,46.05,563.87z"/>
		<circle class="st42" cx="30.25" cy="549.57" r="1.06"/>
		<path class="st42" d="M0.9,563.87c-0.42-0.42-1.09-0.42-1.51,0c-0.42,0.42-0.42,1.09,0,1.51c0.42,0.41,1.09,0.42,1.51,0
			C1.31,564.96,1.31,564.29,0.9,563.87z"/>
		<path class="st42" d="M15.95,548.82c-0.42-0.42-1.09-0.42-1.51,0c-0.42,0.42-0.42,1.09,0,1.51c0.42,0.42,1.09,0.42,1.51,0
			C16.36,549.91,16.36,549.24,15.95,548.82z"/>
		<circle class="st42" cx="0.14" cy="594.73" r="1.06"/>
		<path class="st42" d="M0.9,609.03c-0.42-0.42-1.09-0.41-1.51,0c-0.42,0.42-0.42,1.09,0,1.51c0.42,0.42,1.09,0.42,1.51,0
			C1.31,610.12,1.31,609.44,0.9,609.03z"/>
		<circle class="st42" cx="15.19" cy="594.73" r="1.06"/>
		<circle class="st42" cx="0.14" cy="579.68" r="1.06"/>
		<path class="st42" d="M76.15,458.51c-0.42-0.42-1.09-0.42-1.51,0c-0.42,0.42-0.42,1.09,0,1.51c0.42,0.42,1.09,0.42,1.51,0
			C76.57,459.6,76.57,458.93,76.15,458.51z"/>
		<path class="st42" d="M89.7,460.02c0.42,0.42,1.09,0.42,1.51,0c0.42-0.42,0.42-1.09,0-1.51c-0.42-0.42-1.09-0.42-1.51,0
			C89.28,458.93,89.28,459.6,89.7,460.02z"/>
		<path class="st42" d="M76.15,444.97c0.42-0.42,0.42-1.09,0-1.51c-0.42-0.42-1.09-0.42-1.51,0c-0.42,0.42-0.42,1.09,0,1.51
			C75.06,445.38,75.74,445.38,76.15,444.97z"/>
		<path class="st42" d="M61.1,443.46c-0.42-0.42-1.09-0.42-1.51,0c-0.42,0.42-0.42,1.09,0,1.51c0.42,0.42,1.09,0.42,1.51,0
			C61.52,444.55,61.52,443.88,61.1,443.46z"/>
		<path class="st42" d="M59.6,475.07c0.42,0.42,1.09,0.42,1.51,0c0.42-0.42,0.42-1.09,0-1.51c-0.42-0.42-1.09-0.42-1.51,0
			C59.18,473.98,59.18,474.65,59.6,475.07z"/>
		<path class="st42" d="M74.65,490.12c0.42,0.42,1.09,0.42,1.51,0c0.42-0.42,0.42-1.09,0-1.51c-0.42-0.42-1.09-0.42-1.51,0
			C74.23,489.03,74.23,489.7,74.65,490.12z"/>
		<path class="st42" d="M59.6,490.12c0.42,0.42,1.09,0.42,1.51,0c0.42-0.42,0.42-1.09,0-1.51c-0.42-0.42-1.09-0.42-1.51,0
			C59.18,489.03,59.18,489.7,59.6,490.12z"/>
		<path class="st42" d="M44.54,475.07c0.42,0.42,1.09,0.42,1.51,0c0.42-0.42,0.42-1.09,0-1.51c-0.42-0.42-1.09-0.42-1.51,0
			C44.13,473.98,44.13,474.65,44.54,475.07z"/>
		<path class="st42" d="M74.65,475.07c0.42,0.42,1.09,0.42,1.51,0c0.42-0.42,0.42-1.09,0-1.51c-0.42-0.42-1.09-0.42-1.51,0
			C74.23,473.98,74.23,474.65,74.65,475.07z"/>
		<path class="st42" d="M59.6,460.02c0.42,0.42,1.09,0.42,1.51,0c0.42-0.42,0.42-1.09,0-1.51c-0.42-0.42-1.09-0.42-1.51,0
			C59.18,458.93,59.18,459.6,59.6,460.02z"/>
		<path class="st42" d="M89.7,475.07c0.42,0.42,1.09,0.42,1.51,0c0.42-0.42,0.42-1.09,0-1.51c-0.42-0.42-1.09-0.42-1.51,0
			C89.28,473.98,89.28,474.65,89.7,475.07z"/>
		<path class="st42" d="M15.95,518.72c-0.42-0.42-1.09-0.42-1.51,0c-0.42,0.42-0.42,1.09,0,1.51c0.42,0.42,1.09,0.42,1.51,0
			C16.36,519.81,16.36,519.13,15.95,518.72z"/>
		<path class="st42" d="M29.49,505.17c0.42,0.42,1.09,0.42,1.51,0c0.42-0.42,0.42-1.09,0-1.51c-0.42-0.42-1.09-0.42-1.51,0
			C29.08,504.08,29.08,504.76,29.49,505.17z"/>
		<path class="st42" d="M44.54,520.22c0.42,0.42,1.09,0.42,1.51,0c0.42-0.42,0.42-1.09,0-1.51c-0.42-0.42-1.09-0.42-1.51,0
			C44.13,519.13,44.13,519.81,44.54,520.22z"/>
		<path class="st42" d="M29.49,520.22c0.42,0.42,1.09,0.42,1.51,0c0.42-0.42,0.42-1.09,0-1.51c-0.42-0.42-1.09-0.42-1.51,0
			C29.08,519.13,29.08,519.81,29.49,520.22z"/>
		<circle class="st42" cx="15.19" cy="504.42" r="1.06"/>
		<path class="st42" d="M44.54,505.17c0.42,0.42,1.09,0.42,1.51,0c0.42-0.42,0.42-1.09,0-1.51c-0.42-0.42-1.09-0.42-1.51,0
			C44.13,504.08,44.13,504.76,44.54,505.17z"/>
		<path class="st42" d="M29.49,490.12c0.42,0.42,1.09,0.42,1.51,0c0.42-0.42,0.42-1.09,0-1.51c-0.42-0.42-1.09-0.42-1.51,0
			C29.08,489.03,29.08,489.7,29.49,490.12z"/>
		<path class="st42" d="M15.95,488.62c-0.42-0.42-1.09-0.42-1.51,0c-0.42,0.42-0.42,1.09,0,1.51c0.42,0.42,1.09,0.42,1.51,0
			C16.36,489.71,16.36,489.03,15.95,488.62z"/>
		<path class="st42" d="M44.54,490.12c0.42,0.42,1.09,0.42,1.51,0c0.42-0.42,0.42-1.09,0-1.51c-0.42-0.42-1.09-0.42-1.51,0
			C44.13,489.03,44.13,489.7,44.54,490.12z"/>
		<path class="st42" d="M59.6,505.17c0.42,0.42,1.09,0.42,1.51,0c0.42-0.42,0.42-1.09,0-1.51c-0.42-0.42-1.09-0.42-1.51,0
			C59.18,504.08,59.18,504.76,59.6,505.17z"/>
		<path class="st42" d="M0.9,533.77c-0.42-0.42-1.09-0.42-1.51,0c-0.42,0.42-0.42,1.09,0,1.51c0.42,0.42,1.09,0.42,1.51,0
			C1.31,534.86,1.31,534.18,0.9,533.77z"/>
		<path class="st42" d="M0.9,548.82c-0.42-0.42-1.09-0.42-1.51,0c-0.42,0.42-0.42,1.09,0,1.51c0.42,0.42,1.09,0.42,1.51,0
			C1.31,549.91,1.31,549.24,0.9,548.82z"/>
		<path class="st42" d="M15.95,533.77c-0.42-0.42-1.09-0.42-1.51,0c-0.42,0.42-0.42,1.09,0,1.51c0.42,0.42,1.09,0.42,1.51,0
			C16.36,534.86,16.36,534.18,15.95,533.77z"/>
		<path class="st42" d="M0.9,518.72c-0.42-0.42-1.09-0.42-1.51,0c-0.42,0.42-0.42,1.09,0,1.51c0.42,0.42,1.09,0.42,1.51,0
			C1.31,519.81,1.31,519.13,0.9,518.72z"/>
		<path class="st42" d="M46.05,428.41c-0.42-0.42-1.09-0.42-1.51,0c-0.42,0.42-0.42,1.09,0,1.51c0.42,0.42,1.09,0.42,1.51,0
			C46.47,429.5,46.47,428.83,46.05,428.41z"/>
		<path class="st42" d="M61.1,429.92c0.42-0.42,0.42-1.09,0-1.51c-0.42-0.42-1.09-0.42-1.51,0c-0.42,0.42-0.42,1.09,0,1.51
			C60.01,430.33,60.69,430.33,61.1,429.92z"/>
		<path class="st42" d="M31,443.46c-0.42-0.42-1.09-0.42-1.51,0c-0.42,0.42-0.42,1.09,0,1.51c0.42,0.42,1.09,0.42,1.51,0
			C31.41,444.55,31.41,443.88,31,443.46z"/>
		<path class="st42" d="M44.54,460.02c0.42,0.42,1.09,0.42,1.51,0c0.42-0.42,0.42-1.09,0-1.51c-0.42-0.42-1.09-0.42-1.51,0
			C44.13,458.93,44.13,459.6,44.54,460.02z"/>
		<path class="st42" d="M29.49,460.02c0.42,0.42,1.09,0.42,1.51,0c0.42-0.42,0.42-1.09,0-1.51c-0.42-0.42-1.09-0.42-1.51,0
			C29.08,458.93,29.08,459.6,29.49,460.02z"/>
		<path class="st42" d="M14.44,444.97c0.42,0.42,1.09,0.42,1.51,0c0.42-0.42,0.42-1.09,0-1.51c-0.42-0.42-1.09-0.42-1.51,0
			C14.03,443.88,14.03,444.55,14.44,444.97z"/>
		<path class="st42" d="M44.54,444.97c0.42,0.42,1.09,0.42,1.51,0c0.42-0.42,0.42-1.09,0-1.51c-0.42-0.42-1.09-0.42-1.51,0
			C44.13,443.88,44.13,444.55,44.54,444.97z"/>
		<path class="st42" d="M29.49,428.41c-0.42,0.42-0.42,1.09,0,1.51c0.42,0.42,1.09,0.42,1.51,0c0.42-0.42,0.42-1.09,0-1.51
			C30.58,427.99,29.91,427.99,29.49,428.41z"/>
		<path class="st42" d="M0.9,443.46c-0.42-0.42-1.09-0.42-1.51,0c-0.42,0.42-0.42,1.09,0,1.51c0.42,0.42,1.09,0.42,1.51,0
			C1.31,444.55,1.31,443.88,0.9,443.46z"/>
		<path class="st42" d="M15.95,428.41c-0.42-0.42-1.09-0.42-1.51,0c-0.42,0.42-0.42,1.09,0,1.51c0.42,0.42,1.09,0.42,1.51,0
			C16.36,429.5,16.36,428.83,15.95,428.41z"/>
		<path class="st42" d="M-0.61,475.07c0.42,0.42,1.09,0.42,1.51,0c0.42-0.42,0.42-1.09,0-1.51c-0.42-0.42-1.09-0.42-1.51,0
			C-1.03,473.98-1.03,474.65-0.61,475.07z"/>
		<path class="st42" d="M-0.61,490.12c0.42,0.42,1.09,0.42,1.51,0c0.42-0.42,0.42-1.09,0-1.51c-0.42-0.42-1.09-0.42-1.51,0
			C-1.03,489.03-1.03,489.7-0.61,490.12z"/>
		<path class="st42" d="M14.44,473.56c-0.42,0.42-0.42,1.09,0,1.51c0.42,0.42,1.09,0.42,1.51,0c0.42-0.42,0.42-1.09,0-1.51
			C15.53,473.15,14.86,473.15,14.44,473.56z"/>
		<path class="st42" d="M-0.61,460.02c0.42,0.42,1.09,0.42,1.51,0c0.42-0.42,0.42-1.09,0-1.51c-0.42-0.42-1.09-0.42-1.51,0
			C-1.03,458.93-1.03,459.6-0.61,460.02z"/>
		<path class="st42" d="M14.44,460.02c0.42,0.42,1.09,0.42,1.51,0c0.42-0.42,0.42-1.09,0-1.51c-0.42-0.42-1.09-0.42-1.51,0
			C14.03,458.93,14.03,459.6,14.44,460.02z"/>
		<path class="st42" d="M29.49,475.07c0.42,0.42,1.09,0.42,1.51,0c0.42-0.42,0.42-1.09,0-1.51c-0.42-0.42-1.09-0.42-1.51,0
			C29.08,473.98,29.08,474.65,29.49,475.07z"/>
		<circle class="st42" cx="0.14" cy="504.42" r="1.06"/>
		<path class="st42" d="M0.9,429.92c0.42-0.42,0.42-1.09,0-1.51c-0.42-0.42-1.09-0.42-1.51,0c-0.42,0.42-0.42,1.09,0,1.51
			C-0.19,430.33,0.48,430.33,0.9,429.92z"/>
	</g>
	
		<circle style="clip-path:url(#SVGID_4_);fill:none;stroke:#DBDBDB;stroke-width:3;stroke-miterlimit:10;" cx="1237.52" cy="689.04" r="25.18"/>
	<g style="opacity:0.81;clip-path:url(#SVGID_4_);">
		<path class="st45" d="M1288.89,754.86c-8.52,0-15.46-6.93-15.46-15.46c0-8.52,6.93-15.46,15.46-15.46
			c8.52,0,15.46,6.93,15.46,15.46C1304.34,747.92,1297.41,754.86,1288.89,754.86z M1288.89,729.68c-5.36,0-9.72,4.36-9.72,9.72
			c0,5.36,4.36,9.72,9.72,9.72c5.36,0,9.72-4.36,9.72-9.72C1298.61,734.04,1294.25,729.68,1288.89,729.68z"/>
	</g>
	<g class="st30">
		<path class="st42" d="M688.18,986.71c-0.37,0.37-0.37,0.98,0,1.36c0.37,0.37,0.98,0.37,1.36,0c0.37-0.37,0.37-0.98,0-1.36
			C689.16,986.34,688.55,986.34,688.18,986.71z"/>
		<path class="st42" d="M689.53,1001.62c0.37-0.37,0.37-0.98,0-1.36c-0.37-0.37-0.98-0.37-1.36,0c-0.37,0.37-0.37,0.98,0,1.36
			C688.55,1001.99,689.16,1001.99,689.53,1001.62z"/>
		<path class="st42" d="M674.62,988.06c0.37,0.37,0.98,0.37,1.36,0c0.37-0.37,0.37-0.98,0-1.36c-0.37-0.37-0.98-0.37-1.36,0
			C674.25,987.08,674.25,987.69,674.62,988.06z"/>
		<path class="st42" d="M688.18,973.16c-0.37,0.37-0.37,0.98,0,1.36c0.37,0.37,0.98,0.37,1.36,0c0.37-0.37,0.37-0.98,0-1.36
			C689.16,972.78,688.55,972.79,688.18,973.16z"/>
		<path class="st42" d="M662.43,986.71c-0.37-0.37-0.98-0.37-1.36,0c-0.37,0.37-0.37,0.98,0,1.36c0.37,0.37,0.98,0.37,1.36,0
			C662.8,987.69,662.8,987.08,662.43,986.71z"/>
		<path class="st42" d="M661.07,1001.62c0.37,0.37,0.98,0.37,1.36,0c0.37-0.37,0.37-0.98,0-1.36c-0.37-0.37-0.98-0.37-1.36,0
			C660.7,1000.63,660.7,1001.24,661.07,1001.62z"/>
		<path class="st42" d="M674.62,1001.62c0.37,0.37,0.98,0.37,1.36,0c0.37-0.37,0.37-0.98,0-1.36c-0.37-0.37-0.98-0.37-1.36,0
			C674.25,1000.63,674.25,1001.24,674.62,1001.62z"/>
		<path class="st42" d="M675.98,946.06c-0.37-0.37-0.98-0.37-1.36,0c-0.37,0.37-0.37,0.98,0,1.36c0.37,0.37,0.98,0.37,1.36,0
			C676.35,947.04,676.35,946.43,675.98,946.06z"/>
		<path class="st42" d="M675.98,933.86c0.37-0.37,0.37-0.98,0-1.36c-0.37-0.37-0.98-0.37-1.36,0c-0.37,0.37-0.37,0.98,0,1.36
			C675,934.24,675.61,934.24,675.98,933.86z"/>
		<path class="st42" d="M661.07,960.96c0.37,0.37,0.98,0.37,1.36,0c0.37-0.37,0.37-0.98,0-1.36c-0.37-0.37-0.98-0.37-1.36,0
			C660.7,959.98,660.7,960.59,661.07,960.96z"/>
		<path class="st42" d="M674.62,974.51c0.37,0.37,0.98,0.37,1.36,0c0.37-0.37,0.37-0.98,0-1.36c-0.37-0.37-0.98-0.37-1.36,0
			C674.25,973.53,674.25,974.14,674.62,974.51z"/>
		<path class="st42" d="M661.07,974.51c0.37,0.37,0.98,0.37,1.36,0c0.37-0.37,0.37-0.98,0-1.36c-0.37-0.37-0.98-0.37-1.36,0
			C660.7,973.53,660.7,974.14,661.07,974.51z"/>
		<path class="st42" d="M647.52,960.96c0.37,0.37,0.98,0.37,1.36,0c0.37-0.37,0.37-0.98,0-1.36c-0.37-0.37-0.98-0.37-1.36,0
			C647.15,959.98,647.15,960.59,647.52,960.96z"/>
		<path class="st42" d="M674.62,960.96c0.37,0.37,0.98,0.37,1.36,0c0.37-0.37,0.37-0.98,0-1.36c-0.37-0.37-0.98-0.37-1.36,0
			C674.25,959.98,674.25,960.59,674.62,960.96z"/>
		<path class="st42" d="M661.07,947.41c0.37,0.37,0.98,0.37,1.36,0c0.37-0.37,0.37-0.98,0-1.36c-0.37-0.37-0.98-0.37-1.36,0
			C660.7,946.43,660.7,947.04,661.07,947.41z"/>
		<path class="st42" d="M688.18,960.96c0.37,0.37,0.98,0.37,1.36,0c0.37-0.37,0.37-0.98,0-1.36c-0.37-0.37-0.98-0.37-1.36,0
			C687.8,959.98,687.8,960.59,688.18,960.96z"/>
		<path class="st42" d="M621.78,1000.26c-0.37-0.37-0.98-0.37-1.36,0c-0.37,0.37-0.37,0.98,0,1.36c0.37,0.37,0.98,0.37,1.36,0
			C622.15,1001.24,622.15,1000.63,621.78,1000.26z"/>
		<path class="st42" d="M633.97,988.06c0.37,0.37,0.98,0.37,1.36,0c0.37-0.37,0.37-0.98,0-1.36c-0.37-0.37-0.98-0.37-1.36,0
			C633.6,987.08,633.6,987.69,633.97,988.06z"/>
		<path class="st42" d="M647.52,1001.62c0.37,0.37,0.98,0.37,1.36,0c0.37-0.37,0.37-0.98,0-1.36c-0.37-0.37-0.98-0.37-1.36,0
			C647.15,1000.63,647.15,1001.24,647.52,1001.62z"/>
		<path class="st42" d="M635.33,1001.62c0.37-0.37,0.37-0.98,0-1.36c-0.37-0.37-0.98-0.37-1.36,0c-0.37,0.37-0.37,0.98,0,1.36
			C634.35,1001.99,634.95,1001.99,635.33,1001.62z"/>
		<path class="st42" d="M620.42,988.06c0.37,0.37,0.98,0.37,1.36,0c0.37-0.37,0.37-0.98,0-1.36c-0.37-0.37-0.98-0.37-1.36,0
			C620.05,987.08,620.05,987.69,620.42,988.06z"/>
		<path class="st42" d="M648.88,986.71c-0.37-0.37-0.98-0.37-1.36,0c-0.37,0.37-0.37,0.98,0,1.36c0.37,0.37,0.98,0.37,1.36,0
			C649.25,987.69,649.25,987.08,648.88,986.71z"/>
		<path class="st42" d="M633.97,974.51c0.37,0.37,0.98,0.37,1.36,0c0.37-0.37,0.37-0.98,0-1.36c-0.37-0.37-0.98-0.37-1.36,0
			C633.6,973.53,633.6,974.14,633.97,974.51z"/>
		<path class="st42" d="M608.23,986.71c-0.37-0.37-0.98-0.37-1.36,0c-0.37,0.37-0.37,0.98,0,1.36c0.37,0.37,0.98,0.37,1.36,0
			C608.6,987.69,608.6,987.08,608.23,986.71z"/>
		<path class="st42" d="M647.52,974.51c0.37,0.37,0.98,0.37,1.36,0c0.37-0.37,0.37-0.98,0-1.36c-0.37-0.37-0.98-0.37-1.36,0
			C647.15,973.53,647.15,974.14,647.52,974.51z"/>
		<path class="st42" d="M608.23,1000.26c-0.37-0.37-0.98-0.37-1.36,0c-0.37,0.37-0.37,0.98,0,1.36c0.37,0.37,0.98,0.37,1.36,0
			C608.6,1001.24,608.6,1000.63,608.23,1000.26z"/>
		<path class="st42" d="M594.68,1000.26c-0.37-0.37-0.98-0.37-1.36,0c-0.37,0.37-0.37,0.98,0,1.36c0.37,0.37,0.98,0.37,1.36,0
			C595.05,1001.24,595.05,1000.63,594.68,1000.26z"/>
		<path class="st42" d="M648.88,918.96c-0.37-0.37-0.98-0.37-1.36,0c-0.37,0.37-0.37,0.98,0,1.36c0.37,0.37,0.98,0.37,1.36,0
			C649.25,919.94,649.25,919.33,648.88,918.96z"/>
		<path class="st42" d="M661.07,920.31c0.37,0.37,0.98,0.37,1.36,0c0.37-0.37,0.37-0.98,0-1.36c-0.37-0.37-0.98-0.37-1.36,0
			C660.7,919.33,660.7,919.94,661.07,920.31z"/>
		<path class="st42" d="M648.88,906.76c0.37-0.37,0.37-0.98,0-1.36c-0.37-0.37-0.98-0.37-1.36,0c-0.37,0.37-0.37,0.98,0,1.36
			C647.9,907.14,648.5,907.14,648.88,906.76z"/>
		<path class="st42" d="M635.33,905.41c-0.37-0.37-0.98-0.37-1.36,0c-0.37,0.37-0.37,0.98,0,1.36c0.37,0.37,0.98,0.37,1.36,0
			C635.7,906.39,635.7,905.78,635.33,905.41z"/>
		<path class="st42" d="M633.97,933.86c0.37,0.37,0.98,0.37,1.36,0c0.37-0.37,0.37-0.98,0-1.36c-0.37-0.37-0.98-0.37-1.36,0
			C633.6,932.88,633.6,933.49,633.97,933.86z"/>
		<path class="st42" d="M647.52,947.41c0.37,0.37,0.98,0.37,1.36,0c0.37-0.37,0.37-0.98,0-1.36c-0.37-0.37-0.98-0.37-1.36,0
			C647.15,946.43,647.15,947.04,647.52,947.41z"/>
		<path class="st42" d="M633.97,947.41c0.37,0.37,0.98,0.37,1.36,0c0.37-0.37,0.37-0.98,0-1.36c-0.37-0.37-0.98-0.37-1.36,0
			C633.6,946.43,633.6,947.04,633.97,947.41z"/>
		<path class="st42" d="M620.42,933.86c0.37,0.37,0.98,0.37,1.36,0c0.37-0.37,0.37-0.98,0-1.36c-0.37-0.37-0.98-0.37-1.36,0
			C620.05,932.88,620.05,933.49,620.42,933.86z"/>
		<path class="st42" d="M647.52,933.86c0.37,0.37,0.98,0.37,1.36,0c0.37-0.37,0.37-0.98,0-1.36c-0.37-0.37-0.98-0.37-1.36,0
			C647.15,932.88,647.15,933.49,647.52,933.86z"/>
		<path class="st42" d="M633.97,920.31c0.37,0.37,0.98,0.37,1.36,0c0.37-0.37,0.37-0.98,0-1.36c-0.37-0.37-0.98-0.37-1.36,0
			C633.6,919.33,633.6,919.94,633.97,920.31z"/>
		<path class="st42" d="M661.07,933.86c0.37,0.37,0.98,0.37,1.36,0c0.37-0.37,0.37-0.98,0-1.36c-0.37-0.37-0.98-0.37-1.36,0
			C660.7,932.88,660.7,933.49,661.07,933.86z"/>
		<path class="st42" d="M594.68,973.16c-0.37-0.37-0.98-0.37-1.36,0c-0.37,0.37-0.37,0.98,0,1.36c0.37,0.37,0.98,0.37,1.36,0
			C595.05,974.14,595.05,973.53,594.68,973.16z"/>
		<path class="st42" d="M606.87,960.96c0.37,0.37,0.98,0.37,1.36,0c0.37-0.37,0.37-0.98,0-1.36c-0.37-0.37-0.98-0.37-1.36,0
			C606.5,959.98,606.5,960.59,606.87,960.96z"/>
		<path class="st42" d="M620.42,974.51c0.37,0.37,0.98,0.37,1.36,0c0.37-0.37,0.37-0.98,0-1.36c-0.37-0.37-0.98-0.37-1.36,0
			C620.05,973.53,620.05,974.14,620.42,974.51z"/>
		<path class="st42" d="M606.87,974.51c0.37,0.37,0.98,0.37,1.36,0c0.37-0.37,0.37-0.98,0-1.36c-0.37-0.37-0.98-0.37-1.36,0
			C606.5,973.53,606.5,974.14,606.87,974.51z"/>
		<path class="st42" d="M593.32,960.96c0.37,0.37,0.98,0.37,1.36,0c0.37-0.37,0.37-0.98,0-1.36c-0.37-0.37-0.98-0.37-1.36,0
			C592.95,959.98,592.95,960.59,593.32,960.96z"/>
		<path class="st42" d="M620.42,960.96c0.37,0.37,0.98,0.37,1.36,0c0.37-0.37,0.37-0.98,0-1.36c-0.37-0.37-0.98-0.37-1.36,0
			C620.05,959.98,620.05,960.59,620.42,960.96z"/>
		<path class="st42" d="M606.87,947.41c0.37,0.37,0.98,0.37,1.36,0c0.37-0.37,0.37-0.98,0-1.36c-0.37-0.37-0.98-0.37-1.36,0
			C606.5,946.43,606.5,947.04,606.87,947.41z"/>
		<path class="st42" d="M594.68,946.06c-0.37-0.37-0.98-0.37-1.36,0c-0.37,0.37-0.37,0.98,0,1.36c0.37,0.37,0.98,0.37,1.36,0
			C595.05,947.04,595.05,946.43,594.68,946.06z"/>
		<path class="st42" d="M620.42,947.41c0.37,0.37,0.98,0.37,1.36,0c0.37-0.37,0.37-0.98,0-1.36c-0.37-0.37-0.98-0.37-1.36,0
			C620.05,946.43,620.05,947.04,620.42,947.41z"/>
		<path class="st42" d="M633.97,960.96c0.37,0.37,0.98,0.37,1.36,0c0.37-0.37,0.37-0.98,0-1.36c-0.37-0.37-0.98-0.37-1.36,0
			C633.6,959.98,633.6,960.59,633.97,960.96z"/>
		<path class="st42" d="M567.58,1000.26c-0.37-0.37-0.98-0.37-1.36,0c-0.37,0.37-0.37,0.98,0,1.36c0.37,0.37,0.98,0.37,1.36,0
			C567.95,1001.24,567.95,1000.63,567.58,1000.26z"/>
		<path class="st42" d="M581.13,986.71c-0.37-0.37-0.98-0.37-1.36,0c-0.37,0.37-0.37,0.98,0,1.36c0.37,0.37,0.98,0.37,1.36,0
			C581.5,987.69,581.5,987.08,581.13,986.71z"/>
		<path class="st42" d="M581.13,1000.26c-0.37-0.37-0.98-0.37-1.36,0c-0.37,0.37-0.37,0.98,0,1.36c0.37,0.37,0.98,0.37,1.36,0
			C581.5,1001.24,581.5,1000.63,581.13,1000.26z"/>
		<path class="st42" d="M567.58,986.71c-0.37-0.37-0.98-0.37-1.36,0c-0.37,0.37-0.37,0.98,0,1.36c0.37,0.37,0.98,0.37,1.36,0
			C567.95,987.69,567.95,987.08,567.58,986.71z"/>
		<path class="st42" d="M594.68,986.71c-0.37-0.37-0.98-0.37-1.36,0c-0.37,0.37-0.37,0.98,0,1.36c0.37,0.37,0.98,0.37,1.36,0
			C595.05,987.69,595.05,987.08,594.68,986.71z"/>
		<path class="st42" d="M581.13,973.16c-0.37-0.37-0.98-0.37-1.36,0c-0.37,0.37-0.37,0.98,0,1.36c0.37,0.37,0.98,0.37,1.36,0
			C581.5,974.14,581.5,973.53,581.13,973.16z"/>
		<path class="st42" d="M554.03,986.71c-0.37-0.37-0.98-0.37-1.36,0c-0.37,0.37-0.37,0.98,0,1.36c0.37,0.37,0.98,0.37,1.36,0
			C554.4,987.69,554.4,987.08,554.03,986.71z"/>
		<path class="st42" d="M567.58,973.16c-0.37-0.37-0.98-0.37-1.36,0c-0.37,0.37-0.37,0.98,0,1.36c0.37,0.37,0.98,0.37,1.36,0
			C567.95,974.14,567.95,973.53,567.58,973.16z"/>
		<path class="st42" d="M554.03,1000.26c-0.37-0.37-0.98-0.37-1.36,0c-0.37,0.37-0.37,0.98,0,1.36c0.37,0.37,0.98,0.37,1.36,0
			C554.4,1001.24,554.4,1000.63,554.03,1000.26z"/>
		<path class="st42" d="M540.47,1000.26c-0.37-0.37-0.98-0.37-1.36,0c-0.37,0.37-0.37,0.98,0,1.36c0.37,0.37,0.98,0.37,1.36,0
			C540.85,1001.24,540.85,1000.63,540.47,1000.26z"/>
		<path class="st42" d="M621.78,891.86c-0.37-0.37-0.98-0.37-1.36,0c-0.37,0.37-0.37,0.98,0,1.36c0.37,0.37,0.98,0.37,1.36,0
			C622.15,892.84,622.15,892.23,621.78,891.86z"/>
		<path class="st42" d="M635.33,893.21c0.37-0.37,0.37-0.98,0-1.36c-0.37-0.37-0.98-0.37-1.36,0c-0.37,0.37-0.37,0.98,0,1.36
			C634.35,893.58,634.95,893.59,635.33,893.21z"/>
		<path class="st42" d="M608.23,905.41c-0.37-0.37-0.98-0.37-1.36,0c-0.37,0.37-0.37,0.98,0,1.36c0.37,0.37,0.98,0.37,1.36,0
			C608.6,906.39,608.6,905.78,608.23,905.41z"/>
		<path class="st42" d="M620.42,920.31c0.37,0.37,0.98,0.37,1.36,0c0.37-0.37,0.37-0.98,0-1.36c-0.37-0.37-0.98-0.37-1.36,0
			C620.05,919.33,620.05,919.94,620.42,920.31z"/>
		<path class="st42" d="M606.87,920.31c0.37,0.37,0.98,0.37,1.36,0c0.37-0.37,0.37-0.98,0-1.36c-0.37-0.37-0.98-0.37-1.36,0
			C606.5,919.33,606.5,919.94,606.87,920.31z"/>
		<path class="st42" d="M593.32,906.76c0.37,0.37,0.98,0.37,1.36,0c0.37-0.37,0.37-0.98,0-1.36c-0.37-0.37-0.98-0.37-1.36,0
			C592.95,905.78,592.95,906.39,593.32,906.76z"/>
		<path class="st42" d="M620.42,906.76c0.37,0.37,0.98,0.37,1.36,0c0.37-0.37,0.37-0.98,0-1.36c-0.37-0.37-0.98-0.37-1.36,0
			C620.05,905.78,620.05,906.39,620.42,906.76z"/>
		<path class="st42" d="M606.87,891.86c-0.37,0.37-0.37,0.98,0,1.36c0.37,0.37,0.98,0.37,1.36,0c0.37-0.37,0.37-0.98,0-1.36
			C607.85,891.48,607.25,891.48,606.87,891.86z"/>
		<path class="st42" d="M581.13,905.41c-0.37-0.37-0.98-0.37-1.36,0c-0.37,0.37-0.37,0.98,0,1.36c0.37,0.37,0.98,0.37,1.36,0
			C581.5,906.39,581.5,905.78,581.13,905.41z"/>
		<path class="st42" d="M594.68,891.86c-0.37-0.37-0.98-0.37-1.36,0c-0.37,0.37-0.37,0.98,0,1.36c0.37,0.37,0.98,0.37,1.36,0
			C595.05,892.84,595.05,892.23,594.68,891.86z"/>
		<path class="st42" d="M579.77,933.86c0.37,0.37,0.98,0.37,1.36,0c0.37-0.37,0.37-0.98,0-1.36c-0.37-0.37-0.98-0.37-1.36,0
			C579.4,932.88,579.4,933.49,579.77,933.86z"/>
		<path class="st42" d="M579.77,947.41c0.37,0.37,0.98,0.37,1.36,0c0.37-0.37,0.37-0.98,0-1.36c-0.37-0.37-0.98-0.37-1.36,0
			C579.4,946.43,579.4,947.04,579.77,947.41z"/>
		<path class="st42" d="M566.22,933.86c0.37,0.37,0.98,0.37,1.36,0c0.37-0.37,0.37-0.98,0-1.36c-0.37-0.37-0.98-0.37-1.36,0
			C565.85,932.88,565.85,933.49,566.22,933.86z"/>
		<path class="st42" d="M593.32,932.51c-0.37,0.37-0.37,0.98,0,1.36c0.37,0.37,0.98,0.37,1.36,0c0.37-0.37,0.37-0.98,0-1.36
			C594.3,932.13,593.7,932.13,593.32,932.51z"/>
		<path class="st42" d="M579.77,920.31c0.37,0.37,0.98,0.37,1.36,0c0.37-0.37,0.37-0.98,0-1.36c-0.37-0.37-0.98-0.37-1.36,0
			C579.4,919.33,579.4,919.94,579.77,920.31z"/>
		<path class="st42" d="M554.03,932.51c-0.37-0.37-0.98-0.37-1.36,0c-0.37,0.37-0.37,0.98,0,1.36c0.37,0.37,0.98,0.37,1.36,0
			C554.4,933.49,554.4,932.88,554.03,932.51z"/>
		<path class="st42" d="M567.58,918.96c-0.37-0.37-0.98-0.37-1.36,0c-0.37,0.37-0.37,0.98,0,1.36c0.37,0.37,0.98,0.37,1.36,0
			C567.95,919.94,567.95,919.33,567.58,918.96z"/>
		<path class="st42" d="M593.32,920.31c0.37,0.37,0.98,0.37,1.36,0c0.37-0.37,0.37-0.98,0-1.36c-0.37-0.37-0.98-0.37-1.36,0
			C592.95,919.33,592.95,919.94,593.32,920.31z"/>
		<path class="st42" d="M606.87,933.86c0.37,0.37,0.98,0.37,1.36,0c0.37-0.37,0.37-0.98,0-1.36c-0.37-0.37-0.98-0.37-1.36,0
			C606.5,932.88,606.5,933.49,606.87,933.86z"/>
		<path class="st42" d="M540.47,973.16c-0.37-0.37-0.98-0.37-1.36,0c-0.37,0.37-0.37,0.98,0,1.36c0.37,0.37,0.98,0.37,1.36,0
			C540.85,974.14,540.85,973.53,540.47,973.16z"/>
		<path class="st42" d="M554.03,959.61c-0.37-0.37-0.98-0.37-1.36,0c-0.37,0.37-0.37,0.98,0,1.36c0.37,0.37,0.98,0.37,1.36,0
			C554.4,960.59,554.4,959.98,554.03,959.61z"/>
		<path class="st42" d="M554.03,973.16c-0.37-0.37-0.98-0.37-1.36,0c-0.37,0.37-0.37,0.98,0,1.36c0.37,0.37,0.98,0.37,1.36,0
			C554.4,974.14,554.4,973.53,554.03,973.16z"/>
		<path class="st42" d="M540.47,959.61c-0.37-0.37-0.98-0.37-1.36,0c-0.37,0.37-0.37,0.98,0,1.36c0.37,0.37,0.98,0.37,1.36,0
			C540.85,960.59,540.85,959.98,540.47,959.61z"/>
		<path class="st42" d="M567.58,959.61c-0.37-0.37-0.98-0.37-1.36,0c-0.37,0.37-0.37,0.98,0,1.36c0.37,0.37,0.98,0.37,1.36,0
			C567.95,960.59,567.95,959.98,567.58,959.61z"/>
		<path class="st42" d="M554.03,946.06c-0.37-0.37-0.98-0.37-1.36,0c-0.37,0.37-0.37,0.98,0,1.36c0.37,0.37,0.98,0.37,1.36,0
			C554.4,947.04,554.4,946.43,554.03,946.06z"/>
		<path class="st42" d="M526.92,959.61c-0.37-0.37-0.98-0.37-1.36,0c-0.37,0.37-0.37,0.98,0,1.36c0.37,0.37,0.98,0.37,1.36,0
			C527.3,960.59,527.3,959.98,526.92,959.61z"/>
		<path class="st42" d="M540.47,946.06c-0.37-0.37-0.98-0.37-1.36,0c-0.37,0.37-0.37,0.98,0,1.36c0.37,0.37,0.98,0.37,1.36,0
			C540.85,947.04,540.85,946.43,540.47,946.06z"/>
		<path class="st42" d="M566.22,947.41c0.37,0.37,0.98,0.37,1.36,0c0.37-0.37,0.37-0.98,0-1.36c-0.37-0.37-0.98-0.37-1.36,0
			C565.85,946.43,565.85,947.04,566.22,947.41z"/>
		<path class="st42" d="M579.77,960.96c0.37,0.37,0.98,0.37,1.36,0c0.37-0.37,0.37-0.98,0-1.36c-0.37-0.37-0.98-0.37-1.36,0
			C579.4,959.98,579.4,960.59,579.77,960.96z"/>
		<path class="st42" d="M513.37,1000.26c-0.37-0.37-0.98-0.37-1.36,0c-0.37,0.37-0.37,0.98,0,1.36c0.37,0.37,0.98,0.37,1.36,0
			C513.75,1001.24,513.75,1000.63,513.37,1000.26z"/>
		<path class="st42" d="M526.92,986.71c-0.37-0.37-0.98-0.37-1.36,0c-0.37,0.37-0.37,0.98,0,1.36c0.37,0.37,0.98,0.37,1.36,0
			C527.3,987.69,527.3,987.08,526.92,986.71z"/>
		<path class="st42" d="M526.92,1000.26c-0.37-0.37-0.98-0.37-1.36,0c-0.37,0.37-0.37,0.98,0,1.36c0.37,0.37,0.98,0.37,1.36,0
			C527.3,1001.24,527.3,1000.63,526.92,1000.26z"/>
		<path class="st42" d="M513.37,986.71c-0.37-0.37-0.98-0.37-1.36,0c-0.37,0.37-0.37,0.98,0,1.36c0.37,0.37,0.98,0.37,1.36,0
			C513.75,987.69,513.75,987.08,513.37,986.71z"/>
		<path class="st42" d="M540.47,986.71c-0.37-0.37-0.98-0.37-1.36,0c-0.37,0.37-0.37,0.98,0,1.36c0.37,0.37,0.98,0.37,1.36,0
			C540.85,987.69,540.85,987.08,540.47,986.71z"/>
		<path class="st42" d="M526.92,973.16c-0.37-0.37-0.98-0.37-1.36,0c-0.37,0.37-0.37,0.98,0,1.36c0.37,0.37,0.98,0.37,1.36,0
			C527.3,974.14,527.3,973.53,526.92,973.16z"/>
		<path class="st42" d="M513.37,973.16c-0.37-0.37-0.98-0.37-1.36,0c-0.37,0.37-0.37,0.98,0,1.36c0.37,0.37,0.98,0.37,1.36,0
			C513.75,974.14,513.75,973.53,513.37,973.16z"/>
		<path class="st42" d="M498.47,1000.26c-0.37,0.37-0.37,0.98,0,1.36c0.37,0.37,0.98,0.37,1.36,0c0.37-0.37,0.37-0.98,0-1.36
			C499.45,999.89,498.84,999.89,498.47,1000.26z"/>
		<path class="st42" d="M567.58,891.86c-0.37-0.37-0.98-0.37-1.36,0c-0.37,0.37-0.37,0.98,0,1.36c0.37,0.37,0.98,0.37,1.36,0
			C567.95,892.84,567.95,892.23,567.58,891.86z"/>
		<path class="st42" d="M581.13,893.21c0.37-0.37,0.37-0.98,0-1.36c-0.37-0.37-0.98-0.37-1.36,0c-0.37,0.37-0.37,0.98,0,1.36
			C580.15,893.58,580.75,893.59,581.13,893.21z"/>
		<path class="st42" d="M554.03,905.41c-0.37-0.37-0.98-0.37-1.36,0c-0.37,0.37-0.37,0.98,0,1.36c0.37,0.37,0.98,0.37,1.36,0
			C554.4,906.39,554.4,905.78,554.03,905.41z"/>
		<path class="st42" d="M552.67,920.31c0.37,0.37,0.98,0.37,1.36,0c0.37-0.37,0.37-0.98,0-1.36c-0.37-0.37-0.98-0.37-1.36,0
			C552.3,919.33,552.3,919.94,552.67,920.31z"/>
		<path class="st42" d="M540.47,905.41c-0.37-0.37-0.98-0.37-1.36,0c-0.37,0.37-0.37,0.98,0,1.36c0.37,0.37,0.98,0.37,1.36,0
			C540.85,906.39,540.85,905.78,540.47,905.41z"/>
		<path class="st42" d="M566.22,906.76c0.37,0.37,0.98,0.37,1.36,0c0.37-0.37,0.37-0.98,0-1.36c-0.37-0.37-0.98-0.37-1.36,0
			C565.85,905.78,565.85,906.39,566.22,906.76z"/>
		<path class="st42" d="M554.03,891.86c-0.37-0.37-0.98-0.37-1.36,0c-0.37,0.37-0.37,0.98,0,1.36c0.37,0.37,0.98,0.37,1.36,0
			C554.4,892.84,554.4,892.23,554.03,891.86z"/>
		<path class="st42" d="M513.37,946.06c-0.37-0.37-0.98-0.37-1.36,0c-0.37,0.37-0.37,0.98,0,1.36c0.37,0.37,0.98,0.37,1.36,0
			C513.75,947.04,513.75,946.43,513.37,946.06z"/>
		<path class="st42" d="M526.92,932.51c-0.37-0.37-0.98-0.37-1.36,0c-0.37,0.37-0.37,0.98,0,1.36c0.37,0.37,0.98,0.37,1.36,0
			C527.3,933.49,527.3,932.88,526.92,932.51z"/>
		<path class="st42" d="M526.92,946.06c-0.37-0.37-0.98-0.37-1.36,0c-0.37,0.37-0.37,0.98,0,1.36c0.37,0.37,0.98,0.37,1.36,0
			C527.3,947.04,527.3,946.43,526.92,946.06z"/>
		<path class="st42" d="M512.02,933.86c0.37,0.37,0.98,0.37,1.36,0c0.37-0.37,0.37-0.98,0-1.36c-0.37-0.37-0.98-0.37-1.36,0
			C511.64,932.88,511.64,933.49,512.02,933.86z"/>
		<path class="st42" d="M540.47,932.51c-0.37-0.37-0.98-0.37-1.36,0c-0.37,0.37-0.37,0.98,0,1.36c0.37,0.37,0.98,0.37,1.36,0
			C540.85,933.49,540.85,932.88,540.47,932.51z"/>
		<path class="st42" d="M525.57,918.96c-0.37,0.37-0.37,0.98,0,1.36c0.37,0.37,0.98,0.37,1.36,0c0.37-0.37,0.37-0.98,0-1.36
			C526.55,918.58,525.94,918.58,525.57,918.96z"/>
		<path class="st42" d="M539.12,920.31c0.37,0.37,0.98,0.37,1.36,0c0.37-0.37,0.37-0.98,0-1.36c-0.37-0.37-0.98-0.37-1.36,0
			C538.75,919.33,538.75,919.94,539.12,920.31z"/>
		<path class="st42" d="M499.82,959.61c-0.37-0.37-0.98-0.37-1.36,0c-0.37,0.37-0.37,0.98,0,1.36c0.37,0.37,0.98,0.37,1.36,0
			C500.2,960.59,500.2,959.98,499.82,959.61z"/>
		<path class="st42" d="M499.82,973.16c-0.37-0.37-0.98-0.37-1.36,0c-0.37,0.37-0.37,0.98,0,1.36c0.37,0.37,0.98,0.37,1.36,0
			C500.2,974.14,500.2,973.53,499.82,973.16z"/>
		<path class="st42" d="M513.37,959.61c-0.37-0.37-0.98-0.37-1.36,0c-0.37,0.37-0.37,0.98,0,1.36c0.37,0.37,0.98,0.37,1.36,0
			C513.75,960.59,513.75,959.98,513.37,959.61z"/>
		<path class="st42" d="M499.82,947.41c0.37-0.37,0.37-0.98,0-1.36c-0.37-0.37-0.98-0.37-1.35,0c-0.09,0.23-0.18,0.47-0.28,0.7
			c0.01,0.24,0.1,0.47,0.28,0.65C498.84,947.79,499.45,947.79,499.82,947.41z"/>
		<path class="st42" d="M498.47,988.06c0.37,0.37,0.98,0.37,1.36,0c0.37-0.37,0.37-0.98,0-1.36c-0.37-0.37-0.98-0.37-1.36,0
			C498.09,987.08,498.09,987.69,498.47,988.06z"/>
	</g>
</g>
</svg>
