<?xml version="1.0" encoding="utf-8"?>
<!-- Generator: Adobe Illustrator 24.1.3, SVG Export Plug-In . SVG Version: 6.00 Build 0)  -->
<svg version="1.1" id="Capa_1" xmlns="http://www.w3.org/2000/svg" xmlns:xlink="http://www.w3.org/1999/xlink" x="0px" y="0px"
	 viewBox="0 0 1349.56 2339.07" style="enable-background:new 0 0 1349.56 2339.07;" xml:space="preserve">
<style type="text/css">
	.st0{opacity:0.32;fill:#D2D2D2;}
	.st1{fill:#5747E4;}
	.st2{clip-path:url(#SVGID_4_);}
	.st3{clip-path:url(#SVGID_10_);}
	.st4{fill:#51A5C1;}
	.st5{clip-path:url(#SVGID_16_);}
	.st6{clip-path:url(#SVGID_22_);}
	.st7{fill:#53A6C1;}
	.st8{fill:#808080;}
	.st9{fill:#6864E5;}
	.st10{fill:#FFFFFF;}
	.st11{fill:#FFFFFF;stroke:#DBDBDB;stroke-miterlimit:10;}
	.st12{opacity:0.78;}
	.st13{fill:#D2D2D2;}
	.st14{fill:#FF6680;}
	.st15{fill:none;stroke:#5747E4;stroke-miterlimit:10;}
	.st16{opacity:0.14;fill:#ACACAB;}
	.st17{fill:#ACACAB;}
	.st18{fill:none;stroke:#ACACAB;stroke-width:0.5;stroke-miterlimit:10;}
	.st19{fill:#6F6F6E;}
	.st20{clip-path:url(#SVGID_26_);}
	.st21{fill:none;stroke:#DBDBDB;stroke-width:3;stroke-miterlimit:10;}
	.st22{opacity:0.81;}
	.st23{fill:#DBDBDB;}
	.st24{opacity:0.39;fill:#D2D2D2;}
	.st25{fill:none;stroke:#ACACAB;stroke-miterlimit:10;}
	.st26{clip-path:url(#SVGID_28_);}
	.st27{clip-path:url(#SVGID_30_);fill:url(#SVGID_31_);}
	.st28{opacity:0.46;clip-path:url(#SVGID_30_);fill:#3F3CB2;}
	.st29{opacity:0.15;clip-path:url(#SVGID_30_);fill:#352D90;}
	.st30{fill:#352D90;}
	.st31{fill:#07C0D7;}
	.st32{opacity:0.46;clip-path:url(#SVGID_28_);fill:#3F3CB2;}
	.st33{fill:#5050C1;}
	.st34{fill:none;stroke:#07C0D7;stroke-miterlimit:10;}
	.st35{fill:#3F3CB2;}
	.st36{opacity:0.81;fill:#352D90;}
	.st37{fill:none;}
	.st38{clip-path:url(#SVGID_33_);}
	.st39{clip-path:url(#SVGID_35_);}
	.st40{clip-path:url(#SVGID_37_);fill:url(#SVGID_38_);}
	.st41{opacity:0.46;clip-path:url(#SVGID_37_);fill:#3F3CB2;}
	.st42{opacity:0.15;clip-path:url(#SVGID_37_);fill:#352D90;}
	.st43{opacity:0.46;clip-path:url(#SVGID_35_);fill:#3F3CB2;}
	.st44{clip-path:url(#SVGID_42_);}
	.st45{clip-path:url(#SVGID_48_);}
	.st46{clip-path:url(#SVGID_54_);}
	.st47{clip-path:url(#SVGID_60_);}
	.st48{clip-path:url(#SVGID_64_);}
	.st49{clip-path:url(#SVGID_68_);fill:#FFFFFF;}
	.st50{clip-path:url(#SVGID_68_);}
	.st51{clip-path:url(#SVGID_70_);fill:#FF668B;}
	.st52{clip-path:url(#SVGID_72_);}
	.st53{clip-path:url(#SVGID_76_);}
	.st54{clip-path:url(#SVGID_78_);fill:#FF668B;}
	.st55{clip-path:url(#SVGID_76_);fill:none;}
	.st56{clip-path:url(#SVGID_80_);}
	.st57{clip-path:url(#SVGID_82_);fill:#FF668B;}
	.st58{clip-path:url(#SVGID_80_);fill:none;}
	.st59{clip-path:url(#SVGID_84_);}
	.st60{clip-path:url(#SVGID_84_);fill:none;}
	.st61{clip-path:url(#SVGID_88_);}
	.st62{clip-path:url(#SVGID_88_);fill:none;}
	.st63{clip-path:url(#SVGID_92_);}
	.st64{clip-path:url(#SVGID_92_);fill:none;}
	.st65{clip-path:url(#SVGID_96_);}
	.st66{clip-path:url(#SVGID_96_);fill:none;}
</style>
<g>
	<defs>
		<rect id="SVGID_25_" x="-1514.26" y="-18.93" width="1349.56" height="2965.68"/>
	</defs>
	<clipPath id="SVGID_2_">
		<use xlink:href="#SVGID_25_"  style="overflow:visible;"/>
	</clipPath>
	<g style="clip-path:url(#SVGID_2_);">
		<g>
			<g>
				<path class="st25" d="M36.76,402.23c0-2.8,2.27-5.06,5.07-5.06c2.8,0,5.07,2.27,5.07,5.06s-2.27,5.06-5.07,5.06
					C39.03,407.29,36.76,405.02,36.76,402.23z"/>
				<path class="st25" d="M9.76,402.23c0-2.8,2.27-5.06,5.07-5.06s5.07,2.27,5.07,5.06s-2.27,5.06-5.07,5.06
					S9.76,405.02,9.76,402.23z"/>
			</g>
			<g>
				<path class="st25" d="M36.76,375.36c0-2.8,2.27-5.06,5.07-5.06c2.8,0,5.07,2.27,5.07,5.06s-2.27,5.06-5.07,5.06
					C39.03,380.42,36.76,378.15,36.76,375.36z"/>
				<path class="st25" d="M9.76,375.36c0-2.8,2.27-5.06,5.07-5.06s5.07,2.27,5.07,5.06s-2.27,5.06-5.07,5.06
					S9.76,378.15,9.76,375.36z"/>
			</g>
			<g>
				<path class="st25" d="M36.76,348.49c0-2.8,2.27-5.06,5.07-5.06c2.8,0,5.07,2.27,5.07,5.06c0,2.8-2.27,5.06-5.07,5.06
					C39.03,353.55,36.76,351.28,36.76,348.49z"/>
				<path class="st25" d="M9.76,348.49c0-2.8,2.27-5.06,5.07-5.06s5.07,2.27,5.07,5.06c0,2.8-2.27,5.06-5.07,5.06
					S9.76,351.28,9.76,348.49z"/>
			</g>
			<g>
				<path class="st25" d="M36.76,321.62c0-2.8,2.27-5.06,5.07-5.06c2.8,0,5.07,2.27,5.07,5.06c0,2.8-2.27,5.06-5.07,5.06
					C39.03,326.68,36.76,324.41,36.76,321.62z"/>
				<path class="st25" d="M9.76,321.62c0-2.8,2.27-5.06,5.07-5.06s5.07,2.27,5.07,5.06c0,2.8-2.27,5.06-5.07,5.06
					S9.76,324.41,9.76,321.62z"/>
			</g>
			<g>
				<path class="st25" d="M36.76,294.75c0-2.8,2.27-5.06,5.07-5.06c2.8,0,5.07,2.27,5.07,5.06s-2.27,5.06-5.07,5.06
					C39.03,299.81,36.76,297.54,36.76,294.75z"/>
				<path class="st25" d="M9.76,294.75c0-2.8,2.27-5.06,5.07-5.06s5.07,2.27,5.07,5.06s-2.27,5.06-5.07,5.06
					S9.76,297.54,9.76,294.75z"/>
			</g>
		</g>
		<g>
			<g>
				<path class="st25" d="M36.76,535.46c0-2.8,2.27-5.06,5.07-5.06c2.8,0,5.07,2.27,5.07,5.06s-2.27,5.06-5.07,5.06
					C39.03,540.52,36.76,538.25,36.76,535.46z"/>
				<path class="st25" d="M9.76,535.46c0-2.8,2.27-5.06,5.07-5.06s5.07,2.27,5.07,5.06s-2.27,5.06-5.07,5.06
					S9.76,538.25,9.76,535.46z"/>
			</g>
			<g>
				<path class="st25" d="M36.76,508.59c0-2.8,2.27-5.06,5.07-5.06c2.8,0,5.07,2.27,5.07,5.06c0,2.8-2.27,5.06-5.07,5.06
					C39.03,513.65,36.76,511.38,36.76,508.59z"/>
				<path class="st25" d="M9.76,508.59c0-2.8,2.27-5.06,5.07-5.06s5.07,2.27,5.07,5.06c0,2.8-2.27,5.06-5.07,5.06
					S9.76,511.38,9.76,508.59z"/>
			</g>
			<g>
				<path class="st25" d="M36.76,481.72c0-2.8,2.27-5.06,5.07-5.06c2.8,0,5.07,2.27,5.07,5.06c0,2.8-2.27,5.06-5.07,5.06
					C39.03,486.78,36.76,484.51,36.76,481.72z"/>
				<path class="st25" d="M9.76,481.72c0-2.8,2.27-5.06,5.07-5.06s5.07,2.27,5.07,5.06c0,2.8-2.27,5.06-5.07,5.06
					S9.76,484.51,9.76,481.72z"/>
			</g>
			<g>
				<path class="st25" d="M36.76,454.85c0-2.8,2.27-5.06,5.07-5.06c2.8,0,5.07,2.27,5.07,5.06c0,2.8-2.27,5.06-5.07,5.06
					C39.03,459.91,36.76,457.64,36.76,454.85z"/>
				<path class="st25" d="M9.76,454.85c0-2.8,2.27-5.06,5.07-5.06s5.07,2.27,5.07,5.06c0,2.8-2.27,5.06-5.07,5.06
					S9.76,457.64,9.76,454.85z"/>
			</g>
			<g>
				<path class="st25" d="M36.76,427.98c0-2.8,2.27-5.06,5.07-5.06c2.8,0,5.07,2.27,5.07,5.06s-2.27,5.06-5.07,5.06
					C39.03,433.04,36.76,430.77,36.76,427.98z"/>
				<path class="st25" d="M9.76,427.98c0-2.8,2.27-5.06,5.07-5.06s5.07,2.27,5.07,5.06s-2.27,5.06-5.07,5.06
					S9.76,430.77,9.76,427.98z"/>
			</g>
		</g>
		<g>
			<defs>
				<rect id="SVGID_27_" x="-1596.37" y="2357.82" width="1519.74" height="819.9"/>
			</defs>
			<clipPath id="SVGID_4_">
				<use xlink:href="#SVGID_27_"  style="overflow:visible;"/>
			</clipPath>
			<g class="st2">
				<defs>
					<rect id="SVGID_29_" x="-1596.37" y="2366.52" width="1519.74" height="811.2"/>
				</defs>
				<clipPath id="SVGID_6_">
					<use xlink:href="#SVGID_29_"  style="overflow:visible;"/>
				</clipPath>
				<path style="opacity:0.46;clip-path:url(#SVGID_6_);fill:#3F3CB2;" d="M-575.05,2149.78c2.98,56.86,38.41,110.9,89.37,136.3
					c31.88,15.89,68.01,20.84,101.44,33.16c33.42,12.32,66.59,35.56,74.53,70.29c6.34,27.72-4.36,58.81,8.59,84.12
					c12.65,24.72,43.71,35.17,57.85,59.06c20.13,34.02-1.78,79.24,11.48,116.47c14.52,40.76,63.98,55.9,107.06,59.87
					c43.08,3.96,90.66,3.94,123.21,32.44c11.18,9.79,19.66,22.32,30.69,32.26c11.03,9.95,26.16,17.35,40.52,13.54
					c20.94-5.56,29.34-31.95,25.55-53.28c-6.52-36.6-36.57-64.16-67.16-85.28c-30.59-21.12-64.43-39.68-86.04-69.92
					c-37.06-51.88-28.26-122.01-37.59-185.08c-17.17-116.2-106.7-218.52-219.59-250.96c-24.37-7-51.11-11.81-68.94-29.84
					c-13.63-13.79-19.7-33.11-25.97-51.46c-13.72-40.2-54.37-81.97-98.53-52.71C-552.26,2037.69-577.72,2098.93-575.05,2149.78z"/>
			</g>
		</g>
	</g>
</g>
<g>
	<defs>
		<rect id="SVGID_32_" width="1349.56" height="2965.68"/>
	</defs>
	<clipPath id="SVGID_8_">
		<use xlink:href="#SVGID_32_"  style="overflow:visible;"/>
	</clipPath>
	<g style="clip-path:url(#SVGID_8_);">
		<ellipse class="st21" cx="1216.87" cy="894.29" rx="22.2" ry="22.16"/>
		<g class="st22">
			<path class="st23" d="M1169.15,855.35c7.32-1.7,14.66,2.86,16.37,10.16c1.71,7.31-2.86,14.64-10.18,16.34
				c-7.32,1.7-14.66-2.86-16.37-10.16C1157.26,864.38,1161.83,857.05,1169.15,855.35z M1174.19,876.93c4.6-1.07,7.48-5.68,6.4-10.28
				c-1.07-4.6-5.69-7.46-10.3-6.39c-4.6,1.07-7.48,5.68-6.4,10.28C1164.97,875.13,1169.58,878,1174.19,876.93z"/>
		</g>
		<g>
			<g>
				<path class="st13" d="M96.84,985.07c-0.32,0-0.65-0.12-0.9-0.37c-0.5-0.49-0.5-1.3,0-1.79l24.87-24.83c0.5-0.49,1.3-0.49,1.79,0
					c0.5,0.49,0.5,1.3,0,1.79L97.73,984.7C97.48,984.95,97.16,985.07,96.84,985.07z"/>
			</g>
			<g>
				<path class="st13" d="M84.67,1008.13c-0.32,0-0.65-0.12-0.9-0.37c-0.5-0.49-0.5-1.3,0-1.79l60.14-60.03
					c0.5-0.49,1.3-0.49,1.79,0c0.5,0.49,0.5,1.3,0,1.79l-60.14,60.03C85.32,1008.01,85,1008.13,84.67,1008.13z"/>
			</g>
			<g>
				<path class="st13" d="M80.31,1023.41c-0.32,0-0.65-0.12-0.9-0.37c-0.5-0.49-0.5-1.3,0-1.79l79.82-79.67
					c0.5-0.49,1.3-0.49,1.79,0c0.5,0.49,0.5,1.3,0,1.79l-79.82,79.67C80.96,1023.29,80.63,1023.41,80.31,1023.41z"/>
			</g>
			<g>
				<path class="st13" d="M78.58,1036.06c-0.32,0-0.65-0.12-0.9-0.37c-0.5-0.49-0.5-1.3,0-1.79l94.22-94.04
					c0.5-0.49,1.3-0.49,1.79,0c0.5,0.49,0.5,1.3,0,1.79l-94.22,94.04C79.23,1035.94,78.9,1036.06,78.58,1036.06z"/>
			</g>
			<g>
				<path class="st13" d="M78.35,1047.21c-0.32,0-0.65-0.12-0.9-0.37c-0.5-0.49-0.5-1.3,0-1.79l105.61-105.42
					c0.5-0.49,1.3-0.49,1.79,0c0.5,0.49,0.5,1.3,0,1.79L79.25,1046.84C79,1047.09,78.68,1047.21,78.35,1047.21z"/>
			</g>
			<g>
				<path class="st13" d="M79.2,1057.29c-0.32,0-0.65-0.12-0.9-0.37c-0.5-0.49-0.5-1.3,0-1.79l114.86-114.65
					c0.5-0.49,1.3-0.49,1.79,0c0.5,0.49,0.5,1.3,0,1.79L80.1,1056.92C79.85,1057.17,79.52,1057.29,79.2,1057.29z"/>
			</g>
			<g>
				<path class="st13" d="M80.88,1066.53c-0.32,0-0.65-0.12-0.9-0.37c-0.5-0.49-0.5-1.3,0-1.79l122.44-122.21
					c0.5-0.49,1.3-0.49,1.79,0c0.5,0.49,0.5,1.3,0,1.79L81.78,1066.16C81.53,1066.41,81.21,1066.53,80.88,1066.53z"/>
			</g>
			<g>
				<path class="st13" d="M83.25,1075.09c-0.32,0-0.65-0.12-0.9-0.37c-0.5-0.49-0.5-1.3,0-1.79L211,944.52c0.5-0.49,1.3-0.49,1.79,0
					c0.5,0.49,0.5,1.3,0,1.79L84.15,1074.72C83.9,1074.97,83.58,1075.09,83.25,1075.09z"/>
			</g>
			<g>
				<path class="st13" d="M86.2,1083.07c-0.32,0-0.65-0.12-0.9-0.37c-0.5-0.49-0.5-1.3,0-1.79l133.69-133.44
					c0.5-0.49,1.3-0.49,1.79,0c0.5,0.49,0.5,1.3,0,1.79L87.1,1082.7C86.85,1082.95,86.53,1083.07,86.2,1083.07z"/>
			</g>
			<g>
				<path class="st13" d="M89.68,1090.52c-0.32,0-0.65-0.12-0.9-0.37c-0.5-0.49-0.5-1.3,0-1.79l137.67-137.42
					c0.5-0.49,1.3-0.49,1.79,0c0.5,0.49,0.5,1.3,0,1.79L90.58,1090.15C90.33,1090.4,90.01,1090.52,89.68,1090.52z"/>
			</g>
			<g>
				<path class="st13" d="M93.66,1097.47c-0.32,0-0.65-0.12-0.9-0.37c-0.5-0.49-0.5-1.3,0-1.79l140.65-140.39
					c0.5-0.49,1.3-0.49,1.79,0c0.5,0.49,0.5,1.3,0,1.79L94.56,1097.1C94.31,1097.35,93.99,1097.47,93.66,1097.47z"/>
			</g>
			<g>
				<path class="st13" d="M98.06,1104c-0.32,0-0.65-0.12-0.9-0.37c-0.5-0.49-0.5-1.3,0-1.79l142.8-142.53c0.5-0.49,1.3-0.49,1.79,0
					c0.5,0.49,0.5,1.3,0,1.79l-142.8,142.53C98.71,1103.88,98.39,1104,98.06,1104z"/>
			</g>
			<g>
				<path class="st13" d="M102.94,1110.06c-0.32,0-0.65-0.12-0.9-0.37c-0.5-0.49-0.5-1.3,0-1.79l143.99-143.72
					c0.5-0.49,1.3-0.49,1.79,0c0.5,0.49,0.5,1.3,0,1.79l-143.99,143.72C103.59,1109.93,103.26,1110.06,102.94,1110.06z"/>
			</g>
			<g>
				<path class="st13" d="M108.18,1115.75c-0.32,0-0.65-0.12-0.9-0.37c-0.5-0.49-0.5-1.3,0-1.79l144.44-144.18
					c0.5-0.49,1.3-0.49,1.79,0c0.5,0.49,0.5,1.3,0,1.79l-144.44,144.18C108.83,1115.62,108.51,1115.75,108.18,1115.75z"/>
			</g>
			<g>
				<path class="st13" d="M113.88,1120.98c-0.32,0-0.65-0.12-0.9-0.37c-0.5-0.49-0.5-1.3,0-1.79L256.98,975.1
					c0.5-0.49,1.3-0.49,1.79,0c0.5,0.49,0.5,1.3,0,1.79l-143.99,143.72C114.53,1120.86,114.21,1120.98,113.88,1120.98z"/>
			</g>
			<g>
				<path class="st13" d="M119.95,1125.85c-0.32,0-0.65-0.12-0.9-0.37c-0.5-0.49-0.5-1.3,0-1.79l142.79-142.53
					c0.5-0.49,1.3-0.49,1.79,0c0.5,0.49,0.5,1.3,0,1.79l-142.79,142.53C120.6,1125.72,120.28,1125.85,119.95,1125.85z"/>
			</g>
			<g>
				<path class="st13" d="M126.49,1130.24c-0.32,0-0.65-0.12-0.9-0.37c-0.5-0.49-0.5-1.3,0-1.79l140.65-140.39
					c0.5-0.49,1.3-0.49,1.79,0c0.5,0.49,0.5,1.3,0,1.79l-140.65,140.39C127.14,1130.12,126.82,1130.24,126.49,1130.24z"/>
			</g>
			<g>
				<path class="st13" d="M133.46,1134.21c-0.32,0-0.65-0.12-0.9-0.37c-0.5-0.49-0.5-1.3,0-1.79l137.67-137.42
					c0.5-0.49,1.3-0.49,1.79,0c0.5,0.49,0.5,1.3,0,1.79l-137.67,137.42C134.11,1134.09,133.78,1134.21,133.46,1134.21z"/>
			</g>
			<g>
				<path class="st13" d="M140.92,1137.69c-0.32,0-0.65-0.12-0.9-0.37c-0.5-0.49-0.5-1.3,0-1.79l133.69-133.44
					c0.5-0.49,1.3-0.49,1.79,0c0.5,0.49,0.5,1.3,0,1.79l-133.69,133.44C141.57,1137.56,141.24,1137.69,140.92,1137.69z"/>
			</g>
			<g>
				<path class="st13" d="M148.91,1140.63c-0.32,0-0.65-0.12-0.9-0.37c-0.5-0.49-0.5-1.3,0-1.79l128.64-128.41
					c0.5-0.49,1.3-0.49,1.79,0c0.5,0.49,0.5,1.3,0,1.79l-128.64,128.41C149.56,1140.51,149.24,1140.63,148.91,1140.63z"/>
			</g>
			<g>
				<path class="st13" d="M157.49,1143c-0.32,0-0.65-0.12-0.9-0.37c-0.5-0.49-0.5-1.3,0-1.79l122.44-122.21
					c0.5-0.49,1.3-0.49,1.79,0c0.5,0.49,0.5,1.3,0,1.79l-122.44,122.21C158.14,1142.87,157.81,1143,157.49,1143z"/>
			</g>
			<g>
				<path class="st13" d="M166.75,1144.68c-0.32,0-0.65-0.12-0.9-0.37c-0.5-0.49-0.5-1.3,0-1.79l114.86-114.65
					c0.5-0.49,1.3-0.49,1.79,0c0.5,0.49,0.5,1.3,0,1.79l-114.86,114.65C167.4,1144.55,167.07,1144.68,166.75,1144.68z"/>
			</g>
			<g>
				<path class="st13" d="M176.85,1145.52c-0.32,0-0.65-0.12-0.9-0.37c-0.5-0.49-0.5-1.3,0-1.79l105.61-105.42
					c0.5-0.49,1.3-0.49,1.79,0c0.5,0.49,0.5,1.3,0,1.79l-105.61,105.42C177.49,1145.4,177.17,1145.52,176.85,1145.52z"/>
			</g>
			<g>
				<path class="st13" d="M188.02,1145.3c-0.32,0-0.65-0.12-0.9-0.37c-0.5-0.49-0.5-1.3,0-1.79l94.22-94.04
					c0.5-0.49,1.3-0.49,1.79,0c0.5,0.49,0.5,1.3,0,1.79l-94.22,94.04C188.66,1145.17,188.34,1145.3,188.02,1145.3z"/>
			</g>
			<g>
				<path class="st13" d="M200.69,1143.57c-0.32,0-0.65-0.12-0.9-0.37c-0.5-0.49-0.5-1.3,0-1.79l79.82-79.67
					c0.5-0.49,1.3-0.49,1.79,0c0.5,0.49,0.5,1.3,0,1.79l-79.82,79.67C201.34,1143.45,201.01,1143.57,200.69,1143.57z"/>
			</g>
			<g>
				<path class="st13" d="M216,1139.21c-0.32,0-0.65-0.12-0.9-0.37c-0.5-0.49-0.5-1.3,0-1.79l60.14-60.03c0.5-0.49,1.3-0.49,1.79,0
					c0.5,0.49,0.5,1.3,0,1.79l-60.14,60.03C216.65,1139.09,216.32,1139.21,216,1139.21z"/>
			</g>
			<g>
				<path class="st13" d="M239.1,1127.07c-0.32,0-0.65-0.12-0.9-0.37c-0.5-0.49-0.5-1.3,0-1.79l24.87-24.83
					c0.5-0.49,1.3-0.49,1.79,0c0.5,0.49,0.5,1.3,0,1.79L240,1126.7C239.75,1126.95,239.43,1127.07,239.1,1127.07z"/>
			</g>
		</g>
		<path class="st0" d="M2.22,2627.21c89.77,32.02,188.12-46.48,280.81-24.2c72.17,17.34,122.52,92.12,196.29,100.44
			c50.38,5.68,98.46-21.68,138.45-52.78c39.99-31.11,77.34-67.65,124.68-85.77c77.78-29.78,164.15-4.05,246.26,10.02
			c82.1,14.07,180.91,9.36,229.24-58.36c37.29-52.26,31.07-125.05,63.05-180.72c24.53-42.69,68.23-69.99,107.42-99.84
			c39.2-29.85,77.67-68.25,82.92-117.18c6.86-63.89-44.26-118.19-63.18-179.61c-30.32-98.39,23.77-210.08-14.17-305.8
			c-45.98-116.01-216.55-146.49-292.66-41.2c-25.9,35.83-16.8,79.72-21.67,121.16c-7.1,60.46-38.76,118.92-96.78,144.27
			c-59.03,25.79-135.19,19.32-178.25,67.18c-25.36,28.18-33.95,70.98-65.89,91.45c-51.93,33.28-127.59-14.76-180.4,17.11
			c-33.89,20.45-42.86,64.43-51.34,103.05c-8.48,38.62-25.28,82.57-63.47,93.06c-37.71,10.35-79.25-17.97-115.78-4.04
			c-33.94,12.94-45.23,54.71-49.14,90.77c-3.91,36.06-7.45,77.01-36.08,99.34c-25.78,20.11-62.83,16.99-93.94,6.87
			c-31.11-10.12-60.72-26.27-93.27-29.58c-58.3-5.92-117.62,36.66-130.54,93.72C-88.17,2543.61-52.96,2607.53,2.22,2627.21z"/>
		<g>
			<path class="st17" d="M129.12,520.33c-0.42-0.42-1.09-0.42-1.51,0c-0.42,0.42-0.42,1.09,0,1.51c0.42,0.42,1.09,0.42,1.51,0
				C129.54,521.42,129.54,520.74,129.12,520.33z"/>
			<circle class="st17" cx="113.28" cy="551.21" r="1.07"/>
			<circle class="st17" cx="113.28" cy="536.14" r="1.07"/>
			<path class="st17" d="M83.85,582.08c0.42-0.42,0.42-1.09,0-1.51c-0.42-0.42-1.09-0.42-1.51,0c-0.42,0.42-0.42,1.09,0,1.51
				C82.76,582.5,83.43,582.5,83.85,582.08z"/>
			<path class="st17" d="M97.43,565.51c-0.42,0.42-0.42,1.09,0,1.51c0.42,0.42,1.09,0.42,1.51,0c0.42-0.42,0.42-1.09,0-1.51
				C98.52,565.1,97.85,565.1,97.43,565.51z"/>
			<path class="st17" d="M53.67,595.64c-0.42-0.42-1.09-0.42-1.51,0c-0.42,0.42-0.42,1.09,0,1.51c0.16,0.16,0.36,0.24,0.56,0.27
				c0.31-0.09,0.62-0.17,0.93-0.26c0,0,0.01-0.01,0.02-0.01C54.09,596.73,54.09,596.05,53.67,595.64z"/>
			<path class="st17" d="M127.61,490.2c-0.42,0.42-0.42,1.09,0,1.51c0.42,0.42,1.09,0.42,1.51,0c0.42-0.42,0.42-1.09,0-1.51
				C128.7,489.79,128.03,489.79,127.61,490.2z"/>
			<path class="st17" d="M129.12,506.77c0.42-0.42,0.42-1.09,0-1.51c-0.42-0.42-1.09-0.42-1.51,0c-0.42,0.42-0.42,1.09,0,1.51
				C128.03,507.19,128.7,507.19,129.12,506.77z"/>
			<path class="st17" d="M112.52,491.71c0.42,0.42,1.09,0.42,1.51,0c0.42-0.42,0.42-1.09,0-1.51c-0.42-0.42-1.09-0.42-1.51,0
				C112.1,490.62,112.1,491.29,112.52,491.71z"/>
			<path class="st17" d="M127.61,475.14c-0.42,0.42-0.42,1.09,0,1.51c0.42,0.42,1.09,0.42,1.51,0c0.42-0.42,0.42-1.09,0-1.51
				C128.7,474.73,128.03,474.73,127.61,475.14z"/>
			<path class="st17" d="M98.94,490.2c-0.42-0.42-1.09-0.42-1.51,0c-0.42,0.42-0.42,1.09,0,1.51c0.42,0.42,1.09,0.42,1.51,0
				C99.36,491.3,99.36,490.62,98.94,490.2z"/>
			<circle class="st17" cx="83.1" cy="536.14" r="1.07"/>
			<path class="st17" d="M97.43,521.84c0.42,0.42,1.09,0.42,1.51,0c0.42-0.42,0.42-1.09,0-1.51c-0.42-0.42-1.09-0.42-1.51,0
				C97.01,520.74,97.01,521.42,97.43,521.84z"/>
			<path class="st17" d="M97.43,536.9c0.42,0.42,1.09,0.42,1.51,0c0.42-0.42,0.42-1.09,0-1.51c-0.42-0.42-1.09-0.42-1.51,0
				C97.01,535.81,97.01,536.48,97.43,536.9z"/>
			<path class="st17" d="M82.34,521.84c0.42,0.42,1.09,0.42,1.51,0c0.42-0.42,0.42-1.09,0-1.51c-0.42-0.42-1.09-0.42-1.51,0
				C81.92,520.74,81.92,521.42,82.34,521.84z"/>
			<path class="st17" d="M112.52,520.33c-0.42,0.42-0.42,1.09,0,1.51c0.42,0.42,1.09,0.42,1.51,0c0.42-0.42,0.42-1.09,0-1.51
				C113.61,519.91,112.94,519.91,112.52,520.33z"/>
			<ellipse class="st17" cx="98.19" cy="506.02" rx="1.07" ry="1.07"/>
			<path class="st17" d="M68.76,520.33c-0.42-0.42-1.09-0.42-1.51,0c-0.42,0.42-0.42,1.09,0,1.51c0.42,0.42,1.09,0.42,1.51,0
				C69.18,521.42,69.18,520.74,68.76,520.33z"/>
			<path class="st17" d="M112.52,506.77c0.42,0.42,1.09,0.42,1.51,0c0.42-0.42,0.42-1.09,0-1.51c-0.42-0.42-1.09-0.42-1.51,0
				C112.1,505.68,112.1,506.36,112.52,506.77z"/>
			<path class="st17" d="M53.67,565.51c-0.42-0.42-1.09-0.42-1.51,0c-0.42,0.42-0.42,1.09,0,1.51c0.42,0.42,1.09,0.42,1.51,0
				C54.09,566.61,54.09,565.93,53.67,565.51z"/>
			<path class="st17" d="M68.76,550.45c-0.42-0.42-1.09-0.42-1.51,0c-0.42,0.42-0.42,1.09,0,1.51c0.42,0.42,1.09,0.42,1.51,0
				C69.18,551.54,69.18,550.87,68.76,550.45z"/>
			<path class="st17" d="M82.34,567.02c0.42,0.42,1.09,0.42,1.51,0c0.42-0.42,0.42-1.09,0-1.51c-0.42-0.42-1.09-0.42-1.51,0
				C81.92,565.93,81.92,566.6,82.34,567.02z"/>
			<path class="st17" d="M68.76,565.51c-0.42-0.42-1.09-0.42-1.51,0c-0.42,0.42-0.42,1.09,0,1.51c0.42,0.42,1.09,0.42,1.51,0
				C69.18,566.61,69.18,565.93,68.76,565.51z"/>
			<path class="st17" d="M53.67,551.96c0.42-0.42,0.42-1.09,0-1.51c-0.42-0.42-1.09-0.42-1.51,0c-0.42,0.42-0.42,1.09,0,1.51
				C52.58,552.37,53.25,552.38,53.67,551.96z"/>
			<circle class="st17" cx="83.1" cy="551.21" r="1.07"/>
			<path class="st17" d="M68.76,535.39c-0.42-0.42-1.09-0.42-1.51,0c-0.42,0.42-0.42,1.09,0,1.51c0.42,0.42,1.09,0.42,1.51,0
				C69.18,536.48,69.18,535.81,68.76,535.39z"/>
			<circle class="st17" cx="37.83" cy="551.21" r="1.07"/>
			<path class="st17" d="M97.43,551.96c0.42,0.42,1.09,0.42,1.51,0c0.42-0.42,0.42-1.09,0-1.51c-0.42-0.42-1.09-0.42-1.51,0
				C97.01,550.87,97.01,551.54,97.43,551.96z"/>
			<path class="st17" d="M37.07,582.08c0.42,0.42,1.09,0.42,1.51,0c0.42-0.42,0.42-1.09,0-1.51c-0.42-0.42-1.09-0.42-1.51,0
				C36.65,580.99,36.65,581.67,37.07,582.08z"/>
			<path class="st17" d="M37.07,597.15c0.42,0.42,1.09,0.42,1.51,0c0.42-0.42,0.42-1.09,0-1.51c-0.42-0.42-1.09-0.42-1.51,0
				C36.65,596.06,36.65,596.73,37.07,597.15z"/>
			<path class="st17" d="M23.49,580.58c-0.42-0.42-1.09-0.42-1.51,0c-0.42,0.42-0.42,1.09,0,1.51c0.42,0.42,1.09,0.42,1.51,0
				C23.91,581.67,23.91,580.99,23.49,580.58z"/>
			<path class="st17" d="M52.16,580.58c-0.42,0.42-0.42,1.09,0,1.51c0.42,0.42,1.09,0.42,1.51,0c0.42-0.42,0.42-1.09,0-1.51
				C53.25,580.16,52.58,580.16,52.16,580.58z"/>
			<path class="st17" d="M38.58,565.51c-0.42-0.42-1.09-0.42-1.51,0c-0.42,0.42-0.42,1.09,0,1.51c0.42,0.42,1.09,0.42,1.51,0
				C39,566.61,39,565.93,38.58,565.51z"/>
			<ellipse class="st17" cx="7.65" cy="581.33" rx="1.07" ry="1.07"/>
			<path class="st17" d="M23.49,565.51c-0.42-0.42-1.09-0.42-1.51,0c-0.42,0.42-0.42,1.09,0,1.51c0.42,0.42,1.09,0.42,1.51,0
				C23.91,566.61,23.91,565.93,23.49,565.51z"/>
			<circle class="st17" cx="68.01" cy="581.33" r="1.07"/>
			<path class="st17" d="M6.89,595.64c-0.42,0.42-0.42,1.09,0,1.51c0.42,0.42,1.09,0.42,1.51,0c0.42-0.42,0.42-1.09,0-1.51
				C7.98,595.22,7.31,595.22,6.89,595.64z"/>
			<path class="st17" d="M21.98,597.15c0.42,0.42,1.09,0.42,1.51,0c0.42-0.42,0.42-1.09,0-1.51c-0.42-0.42-1.09-0.42-1.51,0
				C21.56,596.06,21.56,596.73,21.98,597.15z"/>
			<path class="st17" d="M114.03,445.02c-0.42-0.42-1.09-0.42-1.51,0c-0.42,0.42-0.42,1.09,0,1.51c0.42,0.42,1.09,0.42,1.51,0
				C114.45,446.11,114.45,445.43,114.03,445.02z"/>
			<path class="st17" d="M114.03,431.46c0.42-0.42,0.42-1.09,0-1.51c-0.42-0.42-1.09-0.42-1.51,0c-0.42,0.42-0.42,1.09,0,1.51
				C112.94,431.88,113.61,431.88,114.03,431.46z"/>
			<path class="st17" d="M97.43,461.59c0.42,0.42,1.09,0.42,1.51,0c0.42-0.42,0.42-1.09,0-1.51c-0.42-0.42-1.09-0.42-1.51,0
				C97.01,460.5,97.01,461.17,97.43,461.59z"/>
			<path class="st17" d="M112.52,476.65c0.42,0.42,1.09,0.42,1.51,0c0.42-0.42,0.42-1.09,0-1.51c-0.42-0.42-1.09-0.42-1.51,0
				C112.1,475.56,112.1,476.23,112.52,476.65z"/>
			<path class="st17" d="M97.43,476.65c0.42,0.42,1.09,0.42,1.51,0c0.42-0.42,0.42-1.09,0-1.51c-0.42-0.42-1.09-0.42-1.51,0
				C97.01,475.56,97.01,476.23,97.43,476.65z"/>
			<circle class="st17" cx="83.1" cy="460.83" r="1.07"/>
			<circle class="st17" cx="113.28" cy="460.83" r="1.07"/>
			<path class="st17" d="M97.43,446.52c0.42,0.42,1.09,0.42,1.51,0c0.42-0.42,0.42-1.09,0-1.51c-0.42-0.42-1.09-0.42-1.51,0
				C97.01,445.43,97.01,446.11,97.43,446.52z"/>
			<circle class="st17" cx="128.37" cy="460.83" r="1.07"/>
			<path class="st17" d="M53.67,505.27c-0.42-0.42-1.09-0.42-1.51,0c-0.42,0.42-0.42,1.09,0,1.51c0.42,0.42,1.09,0.42,1.51,0
				C54.09,506.36,54.09,505.68,53.67,505.27z"/>
			<path class="st17" d="M67.25,491.71c0.42,0.42,1.09,0.42,1.51,0c0.42-0.42,0.42-1.09,0-1.51c-0.42-0.42-1.09-0.42-1.51,0
				C66.83,490.62,66.83,491.29,67.25,491.71z"/>
			<path class="st17" d="M82.34,506.77c0.42,0.42,1.09,0.42,1.51,0c0.42-0.42,0.42-1.09,0-1.51c-0.42-0.42-1.09-0.42-1.51,0
				C81.92,505.68,81.92,506.36,82.34,506.77z"/>
			<circle class="st17" cx="68.01" cy="506.02" r="1.07"/>
			<path class="st17" d="M52.16,491.71c0.42,0.42,1.09,0.42,1.51,0c0.42-0.42,0.42-1.09,0-1.51c-0.42-0.42-1.09-0.42-1.51,0
				C51.74,490.62,51.74,491.29,52.16,491.71z"/>
			<path class="st17" d="M83.85,490.2c-0.42-0.42-1.09-0.42-1.51,0c-0.42,0.42-0.42,1.09,0,1.51c0.42,0.42,1.09,0.42,1.51,0
				C84.27,491.3,84.27,490.62,83.85,490.2z"/>
			<path class="st17" d="M67.25,476.65c0.42,0.42,1.09,0.42,1.51,0c0.42-0.42,0.42-1.09,0-1.51c-0.42-0.42-1.09-0.42-1.51,0
				C66.83,475.56,66.83,476.23,67.25,476.65z"/>
			<path class="st17" d="M38.58,490.2c-0.42-0.42-1.09-0.42-1.51,0c-0.42,0.42-0.42,1.09,0,1.51c0.42,0.42,1.09,0.42,1.51,0
				C39,491.3,39,490.62,38.58,490.2z"/>
			<path class="st17" d="M82.34,476.65c0.42,0.42,1.09,0.42,1.51,0c0.42-0.42,0.42-1.09,0-1.51c-0.42-0.42-1.09-0.42-1.51,0
				C81.92,475.56,81.92,476.23,82.34,476.65z"/>
			<circle class="st17" cx="22.74" cy="536.14" r="1.07"/>
			<path class="st17" d="M38.58,520.33c-0.42-0.42-1.09-0.42-1.51,0c-0.42,0.42-0.42,1.09,0,1.51c0.42,0.42,1.09,0.42,1.51,0
				C39,521.42,39,520.74,38.58,520.33z"/>
			<path class="st17" d="M52.16,536.9c0.42,0.42,1.09,0.42,1.51,0c0.42-0.42,0.42-1.09,0-1.51c-0.42-0.42-1.09-0.42-1.51,0
				C51.74,535.81,51.74,536.48,52.16,536.9z"/>
			<circle class="st17" cx="37.83" cy="536.14" r="1.07"/>
			<path class="st17" d="M23.49,520.33c-0.42-0.42-1.09-0.42-1.51,0c-0.42,0.42-0.42,1.09,0,1.51c0.42,0.42,1.09,0.42,1.51,0
				C23.91,521.42,23.91,520.74,23.49,520.33z"/>
			<path class="st17" d="M53.67,520.33c-0.42-0.42-1.09-0.42-1.51,0c-0.42,0.42-0.42,1.09,0,1.51c0.42,0.42,1.09,0.42,1.51,0
				C54.09,521.42,54.09,520.74,53.67,520.33z"/>
			<path class="st17" d="M38.58,505.27c-0.42-0.42-1.09-0.42-1.51,0c-0.42,0.42-0.42,1.09,0,1.51c0.42,0.42,1.09,0.42,1.51,0
				C39,506.36,39,505.68,38.58,505.27z"/>
			<path class="st17" d="M8.4,520.33c-0.42-0.42-1.09-0.42-1.51,0c-0.42,0.42-0.42,1.09,0,1.51c0.42,0.42,1.09,0.42,1.51,0
				C8.82,521.42,8.82,520.74,8.4,520.33z"/>
			<path class="st17" d="M23.49,505.27c-0.42-0.42-1.09-0.42-1.51,0c-0.42,0.42-0.42,1.09,0,1.51c0.42,0.42,1.09,0.42,1.51,0
				C23.91,506.36,23.91,505.68,23.49,505.27z"/>
			<path class="st17" d="M8.4,550.45c-0.42-0.42-1.09-0.42-1.51,0c-0.42,0.42-0.42,1.09,0,1.51c0.42,0.42,1.09,0.42,1.51,0
				C8.82,551.54,8.82,550.87,8.4,550.45z"/>
			<path class="st17" d="M8.4,565.51c-0.42-0.42-1.09-0.42-1.51,0c-0.42,0.42-0.42,1.09,0,1.51c0.42,0.42,1.09,0.42,1.51,0
				C8.82,566.61,8.82,565.93,8.4,565.51z"/>
			<circle class="st17" cx="22.74" cy="551.21" r="1.07"/>
			<path class="st17" d="M8.4,535.39c-0.42-0.42-1.09-0.42-1.51,0c-0.42,0.42-0.42,1.09,0,1.51c0.42,0.42,1.09,0.42,1.51,0
				C8.82,536.48,8.82,535.81,8.4,535.39z"/>
			<path class="st17" d="M83.85,414.89c-0.42-0.42-1.09-0.42-1.51,0c-0.42,0.42-0.42,1.09,0,1.51c0.42,0.42,1.09,0.42,1.51,0
				C84.27,415.98,84.27,415.31,83.85,414.89z"/>
			<path class="st17" d="M97.43,416.4c0.42,0.42,1.09,0.42,1.51,0c0.42-0.42,0.42-1.09,0-1.51c-0.42-0.42-1.09-0.42-1.51,0
				C97.01,415.31,97.01,415.98,97.43,416.4z"/>
			<path class="st17" d="M83.85,401.34c0.42-0.42,0.42-1.09,0-1.51c-0.42-0.42-1.09-0.42-1.51,0c-0.42,0.42-0.42,1.09,0,1.51
				C82.76,401.75,83.43,401.75,83.85,401.34z"/>
			<path class="st17" d="M68.76,399.83c-0.42-0.42-1.09-0.42-1.51,0c-0.42,0.42-0.42,1.09,0,1.51c0.42,0.42,1.09,0.42,1.51,0
				C69.18,400.92,69.18,400.25,68.76,399.83z"/>
			<path class="st17" d="M67.25,431.46c0.42,0.42,1.09,0.42,1.51,0c0.42-0.42,0.42-1.09,0-1.51c-0.42-0.42-1.09-0.42-1.51,0
				C66.83,430.37,66.83,431.05,67.25,431.46z"/>
			<path class="st17" d="M82.34,446.52c0.42,0.42,1.09,0.42,1.51,0c0.42-0.42,0.42-1.09,0-1.51c-0.42-0.42-1.09-0.42-1.51,0
				C81.92,445.43,81.92,446.11,82.34,446.52z"/>
			<path class="st17" d="M67.25,446.52c0.42,0.42,1.09,0.42,1.51,0c0.42-0.42,0.42-1.09,0-1.51c-0.42-0.42-1.09-0.42-1.51,0
				C66.83,445.43,66.83,446.11,67.25,446.52z"/>
			<path class="st17" d="M52.16,431.46c0.42,0.42,1.09,0.42,1.51,0c0.42-0.42,0.42-1.09,0-1.51c-0.42-0.42-1.09-0.42-1.51,0
				C51.74,430.37,51.74,431.05,52.16,431.46z"/>
			<path class="st17" d="M82.34,431.46c0.42,0.42,1.09,0.42,1.51,0c0.42-0.42,0.42-1.09,0-1.51c-0.42-0.42-1.09-0.42-1.51,0
				C81.92,430.37,81.92,431.05,82.34,431.46z"/>
			<path class="st17" d="M67.25,416.4c0.42,0.42,1.09,0.42,1.51,0c0.42-0.42,0.42-1.09,0-1.51c-0.42-0.42-1.09-0.42-1.51,0
				C66.83,415.31,66.83,415.98,67.25,416.4z"/>
			<path class="st17" d="M97.43,431.46c0.42,0.42,1.09,0.42,1.51,0c0.42-0.42,0.42-1.09,0-1.51c-0.42-0.42-1.09-0.42-1.51,0
				C97.01,430.37,97.01,431.05,97.43,431.46z"/>
			<path class="st17" d="M23.49,475.14c-0.42-0.42-1.09-0.42-1.51,0c-0.42,0.42-0.42,1.09,0,1.51c0.42,0.42,1.09,0.42,1.51,0
				C23.91,476.23,23.91,475.56,23.49,475.14z"/>
			<circle class="st17" cx="37.83" cy="460.83" r="1.07"/>
			<path class="st17" d="M52.16,476.65c0.42,0.42,1.09,0.42,1.51,0c0.42-0.42,0.42-1.09,0-1.51c-0.42-0.42-1.09-0.42-1.51,0
				C51.74,475.56,51.74,476.23,52.16,476.65z"/>
			<path class="st17" d="M37.07,476.65c0.42,0.42,1.09,0.42,1.51,0c0.42-0.42,0.42-1.09,0-1.51c-0.42-0.42-1.09-0.42-1.51,0
				C36.65,475.56,36.65,476.23,37.07,476.65z"/>
			<circle class="st17" cx="22.74" cy="460.83" r="1.07"/>
			<path class="st17" d="M52.16,461.59c0.42,0.42,1.09,0.42,1.51,0c0.42-0.42,0.42-1.09,0-1.51c-0.42-0.42-1.09-0.42-1.51,0
				C51.74,460.5,51.74,461.17,52.16,461.59z"/>
			<path class="st17" d="M37.07,446.52c0.42,0.42,1.09,0.42,1.51,0c0.42-0.42,0.42-1.09,0-1.51c-0.42-0.42-1.09-0.42-1.51,0
				C36.65,445.43,36.65,446.11,37.07,446.52z"/>
			<path class="st17" d="M23.49,445.02c-0.42-0.42-1.09-0.42-1.51,0c-0.42,0.42-0.42,1.09,0,1.51c0.42,0.42,1.09,0.42,1.51,0
				C23.91,446.11,23.91,445.43,23.49,445.02z"/>
			<path class="st17" d="M52.16,446.52c0.42,0.42,1.09,0.42,1.51,0c0.42-0.42,0.42-1.09,0-1.51c-0.42-0.42-1.09-0.42-1.51,0
				C51.74,445.43,51.74,446.11,52.16,446.52z"/>
			<path class="st17" d="M67.25,461.59c0.42,0.42,1.09,0.42,1.51,0c0.42-0.42,0.42-1.09,0-1.51c-0.42-0.42-1.09-0.42-1.51,0
				C66.83,460.5,66.83,461.17,67.25,461.59z"/>
			<path class="st17" d="M8.4,490.2c-0.42-0.42-1.09-0.42-1.51,0c-0.42,0.42-0.42,1.09,0,1.51c0.42,0.42,1.09,0.42,1.51,0
				C8.82,491.3,8.82,490.62,8.4,490.2z"/>
			<ellipse class="st17" cx="7.65" cy="506.02" rx="1.07" ry="1.07"/>
			<path class="st17" d="M23.49,490.2c-0.42-0.42-1.09-0.42-1.51,0c-0.42,0.42-0.42,1.09,0,1.51c0.42,0.42,1.09,0.42,1.51,0
				C23.91,491.3,23.91,490.62,23.49,490.2z"/>
			<path class="st17" d="M8.4,475.14c-0.42-0.42-1.09-0.42-1.51,0c-0.42,0.42-0.42,1.09,0,1.51c0.42,0.42,1.09,0.42,1.51,0
				C8.82,476.23,8.82,475.56,8.4,475.14z"/>
			<path class="st17" d="M53.67,384.77c-0.42-0.42-1.09-0.42-1.51,0c-0.42,0.42-0.42,1.09,0,1.51c0.42,0.42,1.09,0.42,1.51,0
				C54.09,385.86,54.09,385.18,53.67,384.77z"/>
			<path class="st17" d="M68.76,386.28c0.42-0.42,0.42-1.09,0-1.51c-0.42-0.42-1.09-0.42-1.51,0c-0.42,0.42-0.42,1.09,0,1.51
				C67.67,386.69,68.34,386.69,68.76,386.28z"/>
			<path class="st17" d="M38.58,399.83c-0.42-0.42-1.09-0.42-1.51,0c-0.42,0.42-0.42,1.09,0,1.51c0.42,0.42,1.09,0.42,1.51,0
				C39,400.92,39,400.25,38.58,399.83z"/>
			<path class="st17" d="M52.16,416.4c0.42,0.42,1.09,0.42,1.51,0c0.42-0.42,0.42-1.09,0-1.51c-0.42-0.42-1.09-0.42-1.51,0
				C51.74,415.31,51.74,415.98,52.16,416.4z"/>
			<path class="st17" d="M37.07,416.4c0.42,0.42,1.09,0.42,1.51,0c0.42-0.42,0.42-1.09,0-1.51c-0.42-0.42-1.09-0.42-1.51,0
				C36.65,415.31,36.65,415.98,37.07,416.4z"/>
			<path class="st17" d="M21.98,401.34c0.42,0.42,1.09,0.42,1.51,0c0.42-0.42,0.42-1.09,0-1.51c-0.42-0.42-1.09-0.42-1.51,0
				C21.56,400.25,21.56,400.92,21.98,401.34z"/>
			<path class="st17" d="M52.16,401.34c0.42,0.42,1.09,0.42,1.51,0c0.42-0.42,0.42-1.09,0-1.51c-0.42-0.42-1.09-0.42-1.51,0
				C51.74,400.25,51.74,400.92,52.16,401.34z"/>
			<path class="st17" d="M37.07,384.77c-0.42,0.42-0.42,1.09,0,1.51c0.42,0.42,1.09,0.42,1.51,0c0.42-0.42,0.42-1.09,0-1.51
				C38.16,384.35,37.49,384.35,37.07,384.77z"/>
			<path class="st17" d="M8.4,399.83c-0.42-0.42-1.09-0.42-1.51,0c-0.42,0.42-0.42,1.09,0,1.51c0.42,0.42,1.09,0.42,1.51,0
				C8.82,400.92,8.82,400.25,8.4,399.83z"/>
			<path class="st17" d="M23.49,384.77c-0.42-0.42-1.09-0.42-1.51,0c-0.42,0.42-0.42,1.09,0,1.51c0.42,0.42,1.09,0.42,1.51,0
				C23.91,385.86,23.91,385.18,23.49,384.77z"/>
			<path class="st17" d="M6.89,431.46c0.42,0.42,1.09,0.42,1.51,0c0.42-0.42,0.42-1.09,0-1.51c-0.42-0.42-1.09-0.42-1.51,0
				C6.47,430.37,6.47,431.05,6.89,431.46z"/>
			<path class="st17" d="M6.89,446.52c0.42,0.42,1.09,0.42,1.51,0c0.42-0.42,0.42-1.09,0-1.51c-0.42-0.42-1.09-0.42-1.51,0
				C6.47,445.43,6.47,446.11,6.89,446.52z"/>
			<path class="st17" d="M21.98,429.96c-0.42,0.42-0.42,1.09,0,1.51c0.42,0.42,1.09,0.42,1.51,0c0.42-0.42,0.42-1.09,0-1.51
				C23.07,429.54,22.4,429.54,21.98,429.96z"/>
			<path class="st17" d="M6.89,416.4c0.42,0.42,1.09,0.42,1.51,0c0.42-0.42,0.42-1.09,0-1.51c-0.42-0.42-1.09-0.42-1.51,0
				C6.47,415.31,6.47,415.98,6.89,416.4z"/>
			<path class="st17" d="M21.98,416.4c0.42,0.42,1.09,0.42,1.51,0c0.42-0.42,0.42-1.09,0-1.51c-0.42-0.42-1.09-0.42-1.51,0
				C21.56,415.31,21.56,415.98,21.98,416.4z"/>
			<path class="st17" d="M37.07,431.46c0.42,0.42,1.09,0.42,1.51,0c0.42-0.42,0.42-1.09,0-1.51c-0.42-0.42-1.09-0.42-1.51,0
				C36.65,430.37,36.65,431.05,37.07,431.46z"/>
			<path class="st17" d="M6.89,461.59c0.42,0.42,1.09,0.42,1.51,0c0.42-0.42,0.42-1.09,0-1.51c-0.42-0.42-1.09-0.42-1.51,0
				C6.47,460.5,6.47,461.17,6.89,461.59z"/>
			<path class="st17" d="M8.4,386.28c0.42-0.42,0.42-1.09,0-1.51c-0.42-0.42-1.09-0.42-1.51,0c-0.42,0.42-0.42,1.09,0,1.51
				C7.31,386.69,7.98,386.69,8.4,386.28z"/>
		</g>
		<g>
			<path class="st17" d="M1345.32,1163.2c-0.42-0.42-1.09-0.42-1.51,0c-0.42,0.42-0.42,1.09,0,1.51c0.42,0.42,1.09,0.42,1.51,0
				C1345.74,1164.29,1345.74,1163.62,1345.32,1163.2z"/>
			<path class="st17" d="M1343.81,1194.83c0.42,0.42,1.09,0.42,1.51,0c0.42-0.42,0.42-1.09,0-1.51c-0.42-0.42-1.09-0.42-1.51,0
				C1343.4,1193.74,1343.4,1194.42,1343.81,1194.83z"/>
			<path class="st17" d="M1343.81,1209.89c0.42,0.42,1.09,0.42,1.51,0c0.42-0.42,0.42-1.09,0-1.51c-0.42-0.42-1.09-0.42-1.51,0
				C1343.4,1208.8,1343.4,1209.48,1343.81,1209.89z"/>
			<path class="st17" d="M1330.23,1193.32c-0.42-0.42-1.09-0.42-1.51,0c-0.42,0.42-0.42,1.09,0,1.51c0.42,0.42,1.09,0.42,1.51,0
				C1330.65,1194.42,1330.65,1193.74,1330.23,1193.32z"/>
			<path class="st17" d="M1345.32,1178.26c-0.42-0.42-1.09-0.42-1.51,0c-0.42,0.42-0.42,1.09,0,1.51c0.42,0.42,1.09,0.42,1.51,0
				C1345.74,1179.35,1345.74,1178.68,1345.32,1178.26z"/>
			<path class="st17" d="M1315.14,1193.32c-0.42-0.42-1.09-0.42-1.51,0c-0.42,0.42-0.42,1.09,0,1.51c0.42,0.42,1.09,0.42,1.51,0
				C1315.56,1194.42,1315.56,1193.74,1315.14,1193.32z"/>
			<path class="st17" d="M1330.23,1178.26c-0.42-0.42-1.09-0.42-1.51,0c-0.42,0.42-0.42,1.09,0,1.51c0.42,0.42,1.09,0.42,1.51,0
				C1330.65,1179.35,1330.65,1178.68,1330.23,1178.26z"/>
			<path class="st17" d="M1313.63,1208.39c-0.42,0.42-0.42,1.09,0,1.51c0.42,0.42,1.09,0.42,1.51,0c0.42-0.42,0.42-1.09,0-1.51
				C1314.73,1207.97,1314.05,1207.97,1313.63,1208.39z"/>
			<path class="st17" d="M1300.05,1208.39c-0.42-0.42-1.09-0.42-1.51,0c-0.42,0.42-0.42,1.09,0,1.51c0.42,0.42,1.09,0.42,1.51,0
				C1300.47,1209.48,1300.47,1208.8,1300.05,1208.39z"/>
			<path class="st17" d="M1328.72,1209.89c0.42,0.42,1.09,0.42,1.51,0c0.42-0.42,0.42-1.09,0-1.51c-0.42-0.42-1.09-0.42-1.51,0
				C1328.31,1208.8,1328.31,1209.48,1328.72,1209.89z"/>
			<path class="st17" d="M1345.32,1102.95c-0.42-0.42-1.09-0.42-1.51,0c-0.42,0.42-0.42,1.09,0,1.51c0.42,0.42,1.09,0.42,1.51,0
				C1345.74,1104.04,1345.74,1103.37,1345.32,1102.95z"/>
			<path class="st17" d="M1330.23,1148.14c-0.42-0.42-1.09-0.42-1.51,0c-0.42,0.42-0.42,1.09,0,1.51c0.42,0.42,1.09,0.42,1.51,0
				C1330.65,1149.23,1330.65,1148.55,1330.23,1148.14z"/>
			<path class="st17" d="M1345.32,1133.08c-0.42-0.42-1.09-0.42-1.51,0c-0.42,0.42-0.42,1.09,0,1.51c0.42,0.42,1.09,0.42,1.51,0
				C1345.74,1134.17,1345.74,1133.49,1345.32,1133.08z"/>
			<path class="st17" d="M1345.32,1148.14c-0.42-0.42-1.09-0.42-1.51,0c-0.42,0.42-0.42,1.09,0,1.51c0.42,0.42,1.09,0.42,1.51,0
				C1345.74,1149.23,1345.74,1148.55,1345.32,1148.14z"/>
			<path class="st17" d="M1330.23,1133.08c-0.42-0.42-1.09-0.42-1.51,0c-0.42,0.42-0.42,1.09,0,1.51c0.42,0.42,1.09,0.42,1.51,0
				C1330.65,1134.17,1330.65,1133.49,1330.23,1133.08z"/>
			<path class="st17" d="M1345.32,1118.01c-0.42-0.42-1.09-0.42-1.51,0c-0.42,0.42-0.42,1.09,0,1.51c0.42,0.42,1.09,0.42,1.51,0
				C1345.74,1119.11,1345.74,1118.43,1345.32,1118.01z"/>
			<path class="st17" d="M1315.14,1133.08c-0.42-0.42-1.09-0.42-1.51,0c-0.42,0.42-0.42,1.09,0,1.51c0.42,0.42,1.09,0.42,1.51,0
				C1315.56,1134.17,1315.56,1133.49,1315.14,1133.08z"/>
			<path class="st17" d="M1330.23,1118.01c-0.42-0.42-1.09-0.42-1.51,0c-0.42,0.42-0.42,1.09,0,1.51c0.42,0.42,1.09,0.42,1.51,0
				C1330.65,1119.11,1330.65,1118.43,1330.23,1118.01z"/>
			<path class="st17" d="M1300.05,1178.26c-0.42-0.42-1.09-0.42-1.51,0c-0.42,0.42-0.42,1.09,0,1.51c0.42,0.42,1.09,0.42,1.51,0
				C1300.47,1179.35,1300.47,1178.68,1300.05,1178.26z"/>
			<circle class="st17" cx="1314.39" cy="1163.95" r="1.07"/>
			<path class="st17" d="M1315.14,1178.26c-0.42-0.42-1.09-0.42-1.51,0c-0.42,0.42-0.42,1.09,0,1.51c0.42,0.42,1.09,0.42,1.51,0
				C1315.56,1179.35,1315.56,1178.68,1315.14,1178.26z"/>
			<path class="st17" d="M1300.05,1163.2c-0.42-0.42-1.09-0.42-1.51,0c-0.42,0.42-0.42,1.09,0,1.51c0.42,0.42,1.09,0.42,1.51,0
				C1300.47,1164.29,1300.47,1163.62,1300.05,1163.2z"/>
			<path class="st17" d="M1330.23,1163.2c-0.42-0.42-1.09-0.42-1.51,0c-0.42,0.42-0.42,1.09,0,1.51c0.42,0.42,1.09,0.42,1.51,0
				C1330.65,1164.29,1330.65,1163.62,1330.23,1163.2z"/>
			<circle class="st17" cx="1314.39" cy="1148.89" r="1.07"/>
			<path class="st17" d="M1284.96,1163.2c-0.42-0.42-1.09-0.42-1.51,0c-0.42,0.42-0.42,1.09,0,1.51c0.42,0.42,1.09,0.42,1.51,0
				C1285.38,1164.29,1285.38,1163.62,1284.96,1163.2z"/>
			<path class="st17" d="M1300.05,1148.14c-0.42-0.42-1.09-0.42-1.51,0c-0.42,0.42-0.42,1.09,0,1.51c0.42,0.42,1.09,0.42,1.51,0
				C1300.47,1149.23,1300.47,1148.55,1300.05,1148.14z"/>
			<ellipse class="st17" cx="1284.21" cy="1194.08" rx="1.07" ry="1.07"/>
			<path class="st17" d="M1269.87,1193.32c-0.42-0.42-1.09-0.42-1.51,0c-0.42,0.42-0.42,1.09,0,1.51c0.42,0.42,1.09,0.42,1.51,0
				C1270.29,1194.42,1270.29,1193.74,1269.87,1193.32z"/>
			<path class="st17" d="M1298.54,1193.32c-0.42,0.42-0.42,1.09,0,1.51c0.42,0.42,1.09,0.42,1.51,0c0.42-0.42,0.42-1.09,0-1.51
				C1299.64,1192.91,1298.96,1192.91,1298.54,1193.32z"/>
			<path class="st17" d="M1284.96,1178.26c-0.42-0.42-1.09-0.42-1.51,0c-0.42,0.42-0.42,1.09,0,1.51c0.42,0.42,1.09,0.42,1.51,0
				C1285.38,1179.35,1285.38,1178.68,1284.96,1178.26z"/>
			<path class="st17" d="M1269.87,1178.26c-0.42-0.42-1.09-0.42-1.51,0c-0.42,0.42-0.42,1.09,0,1.51c0.42,0.42,1.09,0.42,1.51,0
				C1270.29,1179.35,1270.29,1178.68,1269.87,1178.26z"/>
			<path class="st17" d="M1330.23,1087.89c-0.42-0.42-1.09-0.42-1.51,0c-0.42,0.42-0.42,1.09,0,1.51c0.42,0.42,1.09,0.42,1.51,0
				C1330.65,1088.98,1330.65,1088.31,1330.23,1087.89z"/>
			<path class="st17" d="M1343.81,1074.33c0.42,0.42,1.09,0.42,1.51,0c0.42-0.42,0.42-1.09,0-1.51c-0.42-0.42-1.09-0.42-1.51,0
				C1343.4,1073.24,1343.4,1073.92,1343.81,1074.33z"/>
			<path class="st17" d="M1343.81,1089.4c0.42,0.42,1.09,0.42,1.51,0c0.42-0.42,0.42-1.09,0-1.51c-0.42-0.42-1.09-0.42-1.51,0
				C1343.4,1088.31,1343.4,1088.98,1343.81,1089.4z"/>
			<path class="st17" d="M1328.72,1074.33c0.42,0.42,1.09,0.42,1.51,0c0.42-0.42,0.42-1.09,0-1.51c-0.42-0.42-1.09-0.42-1.51,0
				C1328.31,1073.24,1328.31,1073.92,1328.72,1074.33z"/>
			<path class="st17" d="M1343.81,1059.27c0.42,0.42,1.09,0.42,1.51,0c0.42-0.42,0.42-1.09,0-1.51c-0.42-0.42-1.09-0.42-1.51,0
				C1343.4,1058.18,1343.4,1058.86,1343.81,1059.27z"/>
			<path class="st17" d="M1330.23,1057.77c-0.42-0.42-1.09-0.42-1.51,0c-0.42,0.42-0.42,1.09,0,1.51c0.42,0.42,1.09,0.42,1.51,0
				C1330.65,1058.86,1330.65,1058.18,1330.23,1057.77z"/>
			<path class="st17" d="M1300.05,1118.01c-0.42-0.42-1.09-0.42-1.51,0c-0.42,0.42-0.42,1.09,0,1.51c0.42,0.42,1.09,0.42,1.51,0
				C1300.47,1119.11,1300.47,1118.43,1300.05,1118.01z"/>
			<path class="st17" d="M1315.14,1102.95c-0.42-0.42-1.09-0.42-1.51,0c-0.42,0.42-0.42,1.09,0,1.51c0.42,0.42,1.09,0.42,1.51,0
				C1315.56,1104.04,1315.56,1103.37,1315.14,1102.95z"/>
			<path class="st17" d="M1315.14,1118.01c-0.42-0.42-1.09-0.42-1.51,0c-0.42,0.42-0.42,1.09,0,1.51c0.42,0.42,1.09,0.42,1.51,0
				C1315.56,1119.11,1315.56,1118.43,1315.14,1118.01z"/>
			<path class="st17" d="M1300.05,1102.95c-0.42-0.42-1.09-0.42-1.51,0c-0.42,0.42-0.42,1.09,0,1.51c0.42,0.42,1.09,0.42,1.51,0
				C1300.47,1104.04,1300.47,1103.37,1300.05,1102.95z"/>
			<path class="st17" d="M1330.23,1102.95c-0.42-0.42-1.09-0.42-1.51,0c-0.42,0.42-0.42,1.09,0,1.51c0.42,0.42,1.09,0.42,1.51,0
				C1330.65,1104.04,1330.65,1103.37,1330.23,1102.95z"/>
			<path class="st17" d="M1315.14,1087.89c-0.42-0.42-1.09-0.42-1.51,0c-0.42,0.42-0.42,1.09,0,1.51c0.42,0.42,1.09,0.42,1.51,0
				C1315.56,1088.98,1315.56,1088.31,1315.14,1087.89z"/>
			<path class="st17" d="M1284.96,1102.95c-0.42-0.42-1.09-0.42-1.51,0c-0.42,0.42-0.42,1.09,0,1.51c0.42,0.42,1.09,0.42,1.51,0
				C1285.38,1104.04,1285.38,1103.37,1284.96,1102.95z"/>
			<path class="st17" d="M1300.05,1087.89c-0.42-0.42-1.09-0.42-1.51,0c-0.42,0.42-0.42,1.09,0,1.51c0.42,0.42,1.09,0.42,1.51,0
				C1300.47,1088.98,1300.47,1088.31,1300.05,1087.89z"/>
			<path class="st17" d="M1269.87,1148.14c-0.42-0.42-1.09-0.42-1.51,0c-0.42,0.42-0.42,1.09,0,1.51c0.42,0.42,1.09,0.42,1.51,0
				C1270.29,1149.23,1270.29,1148.55,1269.87,1148.14z"/>
			<path class="st17" d="M1284.96,1133.08c-0.42-0.42-1.09-0.42-1.51,0c-0.42,0.42-0.42,1.09,0,1.51c0.42,0.42,1.09,0.42,1.51,0
				C1285.38,1134.17,1285.38,1133.49,1284.96,1133.08z"/>
			<path class="st17" d="M1284.96,1148.14c-0.42-0.42-1.09-0.42-1.51,0c-0.42,0.42-0.42,1.09,0,1.51c0.42,0.42,1.09,0.42,1.51,0
				C1285.38,1149.23,1285.38,1148.55,1284.96,1148.14z"/>
			<path class="st17" d="M1269.87,1133.08c-0.42-0.42-1.09-0.42-1.51,0c-0.42,0.42-0.42,1.09,0,1.51c0.42,0.42,1.09,0.42,1.51,0
				C1270.29,1134.17,1270.29,1133.49,1269.87,1133.08z"/>
			<path class="st17" d="M1300.05,1133.08c-0.42-0.42-1.09-0.42-1.51,0c-0.42,0.42-0.42,1.09,0,1.51c0.42,0.42,1.09,0.42,1.51,0
				C1300.47,1134.17,1300.47,1133.49,1300.05,1133.08z"/>
			<ellipse class="st17" cx="1284.21" cy="1118.77" rx="1.07" ry="1.07"/>
			<path class="st17" d="M1254.78,1133.08c-0.42-0.42-1.09-0.42-1.51,0c-0.42,0.42-0.42,1.09,0,1.51c0.42,0.42,1.09,0.42,1.51,0
				C1255.2,1134.17,1255.2,1133.49,1254.78,1133.08z"/>
			<path class="st17" d="M1269.87,1118.01c-0.42-0.42-1.09-0.42-1.51,0c-0.42,0.42-0.42,1.09,0,1.51c0.42,0.42,1.09,0.42,1.51,0
				C1270.29,1119.11,1270.29,1118.43,1269.87,1118.01z"/>
			<path class="st17" d="M1254.78,1163.2c-0.42-0.42-1.09-0.42-1.51,0c-0.42,0.42-0.42,1.09,0,1.51c0.42,0.42,1.09,0.42,1.51,0
				C1255.2,1164.29,1255.2,1163.62,1254.78,1163.2z"/>
			<path class="st17" d="M1254.78,1178.26c-0.42-0.42-1.09-0.42-1.51,0c-0.42,0.42-0.42,1.09,0,1.51c0.42,0.42,1.09,0.42,1.51,0
				C1255.2,1179.35,1255.2,1178.68,1254.78,1178.26z"/>
			<path class="st17" d="M1239.69,1163.2c-0.42-0.42-1.09-0.42-1.51,0c-0.42,0.42-0.42,1.09,0,1.51c0.42,0.42,1.09,0.42,1.51,0
				C1240.11,1164.29,1240.11,1163.62,1239.69,1163.2z"/>
			<path class="st17" d="M1269.87,1163.2c-0.42-0.42-1.09-0.42-1.51,0c-0.42,0.42-0.42,1.09,0,1.51c0.42,0.42,1.09,0.42,1.51,0
				C1270.29,1164.29,1270.29,1163.62,1269.87,1163.2z"/>
			<path class="st17" d="M1254.78,1148.14c-0.42-0.42-1.09-0.42-1.51,0c-0.42,0.42-0.42,1.09,0,1.51c0.42,0.42,1.09,0.42,1.51,0
				C1255.2,1149.23,1255.2,1148.55,1254.78,1148.14z"/>
			<path class="st17" d="M1239.69,1148.14c-0.42-0.42-1.09-0.42-1.51,0c-0.42,0.42-0.42,1.09,0,1.51c0.42,0.42,1.09,0.42,1.51,0
				C1240.11,1149.23,1240.11,1148.55,1239.69,1148.14z"/>
			<path class="st17" d="M1345.32,1012.58c-0.42-0.42-1.09-0.42-1.51,0c-0.42,0.42-0.42,1.09,0,1.51c0.42,0.42,1.09,0.42,1.51,0
				C1345.74,1013.67,1345.74,1013,1345.32,1012.58z"/>
			<path class="st17" d="M1343.81,1029.15c0.42,0.42,1.09,0.42,1.51,0c0.42-0.42,0.42-1.09,0-1.51c-0.42-0.42-1.09-0.42-1.51,0
				C1343.4,1028.06,1343.4,1028.73,1343.81,1029.15z"/>
			<path class="st17" d="M1328.72,1014.09c0.42,0.42,1.09,0.42,1.51,0c0.42-0.42,0.42-1.09,0-1.51c-0.42-0.42-1.09-0.42-1.51,0
				C1328.31,1013,1328.31,1013.67,1328.72,1014.09z"/>
			<path class="st17" d="M1343.81,997.52c-0.42,0.42-0.42,1.09,0,1.51c0.42,0.42,1.09,0.42,1.51,0c0.42-0.42,0.42-1.09,0-1.51
				C1344.91,997.1,1344.23,997.1,1343.81,997.52z"/>
			<path class="st17" d="M1315.14,1012.58c-0.42-0.42-1.09-0.42-1.51,0c-0.42,0.42-0.42,1.09,0,1.51c0.42,0.42,1.09,0.42,1.51,0
				C1315.56,1013.67,1315.56,1013,1315.14,1012.58z"/>
			<path class="st17" d="M1330.23,997.52c-0.42-0.42-1.09-0.42-1.51,0c-0.42,0.42-0.42,1.09,0,1.51c0.42,0.42,1.09,0.42,1.51,0
				C1330.65,998.61,1330.65,997.93,1330.23,997.52z"/>
			<path class="st17" d="M1313.63,1044.21c0.42,0.42,1.09,0.42,1.51,0c0.42-0.42,0.42-1.09,0-1.51c-0.42-0.42-1.09-0.42-1.51,0
				C1313.22,1043.12,1313.22,1043.79,1313.63,1044.21z"/>
			<path class="st17" d="M1313.63,1059.27c0.42,0.42,1.09,0.42,1.51,0c0.42-0.42,0.42-1.09,0-1.51c-0.42-0.42-1.09-0.42-1.51,0
				C1313.22,1058.18,1313.22,1058.86,1313.63,1059.27z"/>
			<path class="st17" d="M1298.54,1044.21c0.42,0.42,1.09,0.42,1.51,0c0.42-0.42,0.42-1.09,0-1.51c-0.42-0.42-1.09-0.42-1.51,0
				C1298.13,1043.12,1298.13,1043.79,1298.54,1044.21z"/>
			<path class="st17" d="M1328.72,1042.7c-0.42,0.42-0.42,1.09,0,1.51c0.42,0.42,1.09,0.42,1.51,0c0.42-0.42,0.42-1.09,0-1.51
				C1329.82,1042.29,1329.14,1042.29,1328.72,1042.7z"/>
			<path class="st17" d="M1313.63,1029.15c0.42,0.42,1.09,0.42,1.51,0c0.42-0.42,0.42-1.09,0-1.51c-0.42-0.42-1.09-0.42-1.51,0
				C1313.22,1028.06,1313.22,1028.73,1313.63,1029.15z"/>
			<path class="st17" d="M1284.96,1042.7c-0.42-0.42-1.09-0.42-1.51,0c-0.42,0.42-0.42,1.09,0,1.51c0.42,0.42,1.09,0.42,1.51,0
				C1285.38,1043.79,1285.38,1043.12,1284.96,1042.7z"/>
			<path class="st17" d="M1300.05,1027.64c-0.42-0.42-1.09-0.42-1.51,0c-0.42,0.42-0.42,1.09,0,1.51c0.42,0.42,1.09,0.42,1.51,0
				C1300.47,1028.73,1300.47,1028.06,1300.05,1027.64z"/>
			<path class="st17" d="M1328.72,1029.15c0.42,0.42,1.09,0.42,1.51,0c0.42-0.42,0.42-1.09,0-1.51c-0.42-0.42-1.09-0.42-1.51,0
				C1328.31,1028.06,1328.31,1028.73,1328.72,1029.15z"/>
			<path class="st17" d="M1343.81,1044.21c0.42,0.42,1.09,0.42,1.51,0c0.42-0.42,0.42-1.09,0-1.51c-0.42-0.42-1.09-0.42-1.51,0
				C1343.4,1043.12,1343.4,1043.79,1343.81,1044.21z"/>
			<path class="st17" d="M1269.87,1087.89c-0.42-0.42-1.09-0.42-1.51,0c-0.42,0.42-0.42,1.09,0,1.51c0.42,0.42,1.09,0.42,1.51,0
				C1270.29,1088.98,1270.29,1088.31,1269.87,1087.89z"/>
			<path class="st17" d="M1284.96,1072.83c-0.42-0.42-1.09-0.42-1.51,0c-0.42,0.42-0.42,1.09,0,1.51c0.42,0.42,1.09,0.42,1.51,0
				C1285.38,1073.92,1285.38,1073.24,1284.96,1072.83z"/>
			<path class="st17" d="M1284.96,1087.89c-0.42-0.42-1.09-0.42-1.51,0c-0.42,0.42-0.42,1.09,0,1.51c0.42,0.42,1.09,0.42,1.51,0
				C1285.38,1088.98,1285.38,1088.31,1284.96,1087.89z"/>
			<path class="st17" d="M1269.87,1072.83c-0.42-0.42-1.09-0.42-1.51,0c-0.42,0.42-0.42,1.09,0,1.51c0.42,0.42,1.09,0.42,1.51,0
				C1270.29,1073.92,1270.29,1073.24,1269.87,1072.83z"/>
			<path class="st17" d="M1300.05,1072.83c-0.42-0.42-1.09-0.42-1.51,0c-0.42,0.42-0.42,1.09,0,1.51c0.42,0.42,1.09,0.42,1.51,0
				C1300.47,1073.92,1300.47,1073.24,1300.05,1072.83z"/>
			<path class="st17" d="M1284.96,1057.77c-0.42-0.42-1.09-0.42-1.51,0c-0.42,0.42-0.42,1.09,0,1.51c0.42,0.42,1.09,0.42,1.51,0
				C1285.38,1058.86,1285.38,1058.18,1284.96,1057.77z"/>
			<path class="st17" d="M1254.78,1072.83c-0.42-0.42-1.09-0.42-1.51,0c-0.42,0.42-0.42,1.09,0,1.51c0.42,0.42,1.09,0.42,1.51,0
				C1255.2,1073.92,1255.2,1073.24,1254.78,1072.83z"/>
			<path class="st17" d="M1269.87,1057.77c-0.42-0.42-1.09-0.42-1.51,0c-0.42,0.42-0.42,1.09,0,1.51c0.42,0.42,1.09,0.42,1.51,0
				C1270.29,1058.86,1270.29,1058.18,1269.87,1057.77z"/>
			<path class="st17" d="M1298.54,1059.27c0.42,0.42,1.09,0.42,1.51,0c0.42-0.42,0.42-1.09,0-1.51c-0.42-0.42-1.09-0.42-1.51,0
				C1298.13,1058.18,1298.13,1058.86,1298.54,1059.27z"/>
			<circle class="st17" cx="1314.39" cy="1073.58" r="1.07"/>
			<path class="st17" d="M1239.69,1118.01c-0.42-0.42-1.09-0.42-1.51,0c-0.42,0.42-0.42,1.09,0,1.51c0.42,0.42,1.09,0.42,1.51,0
				C1240.11,1119.11,1240.11,1118.43,1239.69,1118.01z"/>
			<path class="st17" d="M1254.78,1102.95c-0.42-0.42-1.09-0.42-1.51,0c-0.42,0.42-0.42,1.09,0,1.51c0.42,0.42,1.09,0.42,1.51,0
				C1255.2,1104.04,1255.2,1103.37,1254.78,1102.95z"/>
			<path class="st17" d="M1254.78,1118.01c-0.42-0.42-1.09-0.42-1.51,0c-0.42,0.42-0.42,1.09,0,1.51c0.42,0.42,1.09,0.42,1.51,0
				C1255.2,1119.11,1255.2,1118.43,1254.78,1118.01z"/>
			<path class="st17" d="M1239.69,1102.95c-0.42-0.42-1.09-0.42-1.51,0c-0.42,0.42-0.42,1.09,0,1.51c0.42,0.42,1.09,0.42,1.51,0
				C1240.11,1104.04,1240.11,1103.37,1239.69,1102.95z"/>
			<path class="st17" d="M1269.87,1102.95c-0.42-0.42-1.09-0.42-1.51,0c-0.42,0.42-0.42,1.09,0,1.51c0.42,0.42,1.09,0.42,1.51,0
				C1270.29,1104.04,1270.29,1103.37,1269.87,1102.95z"/>
			<path class="st17" d="M1254.78,1087.89c-0.42-0.42-1.09-0.42-1.51,0c-0.42,0.42-0.42,1.09,0,1.51c0.42,0.42,1.09,0.42,1.51,0
				C1255.2,1088.98,1255.2,1088.31,1254.78,1087.89z"/>
			<path class="st17" d="M1239.69,1087.89c-0.42-0.42-1.09-0.42-1.51,0c-0.42,0.42-0.42,1.09,0,1.51c0.42,0.42,1.09,0.42,1.51,0
				C1240.11,1088.98,1240.11,1088.31,1239.69,1087.89z"/>
			<path class="st17" d="M1224.6,1133.08c-0.42-0.42-1.09-0.42-1.51,0c-0.42,0.42-0.42,1.09,0,1.51c0.42,0.42,1.09,0.42,1.51,0
				C1225.02,1134.17,1225.02,1133.49,1224.6,1133.08z"/>
			<path class="st17" d="M1238.18,1133.08c-0.42,0.42-0.42,1.09,0,1.51c0.42,0.42,1.09,0.42,1.51,0c0.42-0.42,0.42-1.09,0-1.51
				C1239.28,1132.66,1238.6,1132.66,1238.18,1133.08z"/>
			<path class="st17" d="M1223.09,1118.01c-0.42,0.42-0.42,1.09,0,1.51c0.42,0.42,1.09,0.42,1.51,0c0.42-0.42,0.42-1.09,0-1.51
				C1224.19,1117.6,1223.51,1117.6,1223.09,1118.01z"/>
			<path class="st17" d="M1300.05,997.52c-0.42-0.42-1.09-0.42-1.51,0c-0.42,0.42-0.42,1.09,0,1.51c0.42,0.42,1.09,0.42,1.51,0
				C1300.47,998.61,1300.47,997.93,1300.05,997.52z"/>
			<path class="st17" d="M1315.14,999.02c0.42-0.42,0.42-1.09,0-1.51c-0.42-0.42-1.09-0.42-1.51,0c-0.42,0.42-0.42,1.09,0,1.51
				C1314.05,999.44,1314.73,999.44,1315.14,999.02z"/>
			<path class="st17" d="M1284.96,1012.58c-0.42-0.42-1.09-0.42-1.51,0c-0.42,0.42-0.42,1.09,0,1.51c0.42,0.42,1.09,0.42,1.51,0
				C1285.38,1013.67,1285.38,1013,1284.96,1012.58z"/>
			<path class="st17" d="M1283.45,1029.15c0.42,0.42,1.09,0.42,1.51,0c0.42-0.42,0.42-1.09,0-1.51c-0.42-0.42-1.09-0.42-1.51,0
				C1283.04,1028.06,1283.04,1028.73,1283.45,1029.15z"/>
			<path class="st17" d="M1269.87,1012.58c-0.42-0.42-1.09-0.42-1.51,0c-0.42,0.42-0.42,1.09,0,1.51c0.42,0.42,1.09,0.42,1.51,0
				C1270.29,1013.67,1270.29,1013,1269.87,1012.58z"/>
			<path class="st17" d="M1298.54,1014.09c0.42,0.42,1.09,0.42,1.51,0c0.42-0.42,0.42-1.09,0-1.51c-0.42-0.42-1.09-0.42-1.51,0
				C1298.13,1013,1298.13,1013.67,1298.54,1014.09z"/>
			<path class="st17" d="M1284.96,997.52c-0.42-0.42-1.09-0.42-1.51,0c-0.42,0.42-0.42,1.09,0,1.51c0.42,0.42,1.09,0.42,1.51,0
				C1285.38,998.61,1285.38,997.93,1284.96,997.52z"/>
			<path class="st17" d="M1239.69,1057.77c-0.42-0.42-1.09-0.42-1.51,0c-0.42,0.42-0.42,1.09,0,1.51c0.42,0.42,1.09,0.42,1.51,0
				C1240.11,1058.86,1240.11,1058.18,1239.69,1057.77z"/>
			<path class="st17" d="M1254.78,1042.7c-0.42-0.42-1.09-0.42-1.51,0c-0.42,0.42-0.42,1.09,0,1.51c0.42,0.42,1.09,0.42,1.51,0
				C1255.2,1043.79,1255.2,1043.12,1254.78,1042.7z"/>
			<path class="st17" d="M1254.78,1057.77c-0.42-0.42-1.09-0.42-1.51,0c-0.42,0.42-0.42,1.09,0,1.51c0.42,0.42,1.09,0.42,1.51,0
				C1255.2,1058.86,1255.2,1058.18,1254.78,1057.77z"/>
			<path class="st17" d="M1238.18,1044.21c0.42,0.42,1.09,0.42,1.51,0c0.42-0.42,0.42-1.09,0-1.51c-0.42-0.42-1.09-0.42-1.51,0
				C1237.77,1043.12,1237.77,1043.79,1238.18,1044.21z"/>
			<path class="st17" d="M1269.87,1042.7c-0.42-0.42-1.09-0.42-1.51,0c-0.42,0.42-0.42,1.09,0,1.51c0.42,0.42,1.09,0.42,1.51,0
				C1270.29,1043.79,1270.29,1043.12,1269.87,1042.7z"/>
			<path class="st17" d="M1253.27,1027.64c-0.42,0.42-0.42,1.09,0,1.51c0.42,0.42,1.09,0.42,1.51,0c0.42-0.42,0.42-1.09,0-1.51
				C1254.37,1027.23,1253.69,1027.23,1253.27,1027.64z"/>
			<path class="st17" d="M1268.36,1029.15c0.42,0.42,1.09,0.42,1.51,0c0.42-0.42,0.42-1.09,0-1.51c-0.42-0.42-1.09-0.42-1.51,0
				C1267.95,1028.06,1267.95,1028.73,1268.36,1029.15z"/>
			<path class="st17" d="M1224.6,1072.83c-0.42-0.42-1.09-0.42-1.51,0c-0.42,0.42-0.42,1.09,0,1.51c0.42,0.42,1.09,0.42,1.51,0
				C1225.02,1073.92,1225.02,1073.24,1224.6,1072.83z"/>
			<path class="st17" d="M1224.6,1087.89c-0.42-0.42-1.09-0.42-1.51,0c-0.42,0.42-0.42,1.09,0,1.51c0.42,0.42,1.09,0.42,1.51,0
				C1225.02,1088.98,1225.02,1088.31,1224.6,1087.89z"/>
			<path class="st17" d="M1239.69,1072.83c-0.42-0.42-1.09-0.42-1.51,0c-0.42,0.42-0.42,1.09,0,1.51c0.42,0.42,1.09,0.42,1.51,0
				C1240.11,1073.92,1240.11,1073.24,1239.69,1072.83z"/>
			<path class="st17" d="M1224.6,1059.27c0.42-0.42,0.42-1.09,0-1.51c-0.42-0.42-1.09-0.42-1.51,0c-0.11,0.26-0.2,0.52-0.31,0.78
				c0.01,0.26,0.11,0.52,0.31,0.72C1223.51,1059.69,1224.19,1059.69,1224.6,1059.27z"/>
			<path class="st17" d="M1223.09,1104.46c0.42,0.42,1.09,0.42,1.51,0c0.42-0.42,0.42-1.09,0-1.51c-0.42-0.42-1.09-0.42-1.51,0
				C1222.68,1103.37,1222.68,1104.04,1223.09,1104.46z"/>
		</g>
		<path class="st24" d="M679.66,142.21c42.81,32.76,93.88,46.25,143.23,42.24c38.45-3.12,73.04,24.35,78.94,62.4
			c7.07,45.68,25.92,90.16,57.06,128.74c21.8,27.01,47.73,48.75,76.14,65.07c33.15,19.03,46.08,60.74,29.87,95.31
			c-2.35,5.02-4.42,10.24-6.19,15.66c-20.79,63.9,10.29,134.61,71.51,162.54c70.95,32.37,153.42-2.04,180.9-73.62
			c14.71-38.31,10.56-79.19-7.88-112.48c-19.03-34.35-9.77-77.03,22.56-99.36c9.97-6.89,19.62-14.53,28.86-22.93
			c104.18-94.71,118.08-255.6,31.9-366.89c-71.81-92.74-191.11-126.1-296.33-93.52c-37.23,11.53-76.68-8.45-91.12-44.6
			c-14.45-36.17-39.26-68.69-73.58-92.72c-94.05-65.85-223.83-43.01-289.63,51.06C572.78-50.68,592.15,75.25,679.66,142.21z"/>
		<g>
			<g>
				<path class="st25" d="M1282.63,421.15c0-2.8,2.27-5.06,5.07-5.06c2.8,0,5.07,2.27,5.07,5.06s-2.27,5.06-5.07,5.06
					C1284.91,426.22,1282.63,423.95,1282.63,421.15z"/>
				<ellipse class="st25" cx="1260.71" cy="421.15" rx="5.07" ry="5.06"/>
				<path class="st25" d="M1228.64,421.15c0-2.8,2.27-5.06,5.07-5.06s5.07,2.27,5.07,5.06s-2.27,5.06-5.07,5.06
					S1228.64,423.95,1228.64,421.15z"/>
				<path class="st25" d="M1201.65,421.15c0-2.8,2.27-5.06,5.07-5.06s5.07,2.27,5.07,5.06s-2.27,5.06-5.07,5.06
					S1201.65,423.95,1201.65,421.15z"/>
				<path class="st25" d="M1174.65,421.15c0-2.8,2.27-5.06,5.07-5.06c2.8,0,5.07,2.27,5.07,5.06s-2.27,5.06-5.07,5.06
					C1176.92,426.22,1174.65,423.95,1174.65,421.15z"/>
				<path class="st25" d="M1147.65,421.15c0-2.8,2.27-5.06,5.07-5.06s5.07,2.27,5.07,5.06s-2.27,5.06-5.07,5.06
					S1147.65,423.95,1147.65,421.15z"/>
				<path class="st25" d="M1120.66,421.15c0-2.8,2.27-5.06,5.07-5.06c2.8,0,5.07,2.27,5.07,5.06s-2.27,5.06-5.07,5.06
					C1122.93,426.22,1120.66,423.95,1120.66,421.15z"/>
				<ellipse class="st25" cx="1098.73" cy="421.15" rx="5.07" ry="5.06"/>
				<path class="st25" d="M1066.66,421.15c0-2.8,2.27-5.06,5.07-5.06s5.07,2.27,5.07,5.06s-2.27,5.06-5.07,5.06
					S1066.66,423.95,1066.66,421.15z"/>
				<path class="st25" d="M1039.67,421.15c0-2.8,2.27-5.06,5.07-5.06c2.8,0,5.07,2.27,5.07,5.06s-2.27,5.06-5.07,5.06
					C1041.94,426.22,1039.67,423.95,1039.67,421.15z"/>
			</g>
			<g>
				<path class="st25" d="M1282.63,394.28c0-2.8,2.27-5.06,5.07-5.06c2.8,0,5.07,2.27,5.07,5.06s-2.27,5.06-5.07,5.06
					C1284.91,399.35,1282.63,397.08,1282.63,394.28z"/>
				<path class="st25" d="M1255.64,394.28c0-2.8,2.27-5.06,5.07-5.06c2.8,0,5.07,2.27,5.07,5.06s-2.27,5.06-5.07,5.06
					C1257.91,399.35,1255.64,397.08,1255.64,394.28z"/>
				<path class="st25" d="M1228.64,394.28c0-2.8,2.27-5.06,5.07-5.06s5.07,2.27,5.07,5.06s-2.27,5.06-5.07,5.06
					S1228.64,397.08,1228.64,394.28z"/>
				<path class="st25" d="M1201.65,394.28c0-2.8,2.27-5.06,5.07-5.06s5.07,2.27,5.07,5.06s-2.27,5.06-5.07,5.06
					S1201.65,397.08,1201.65,394.28z"/>
				<path class="st25" d="M1174.65,394.28c0-2.8,2.27-5.06,5.07-5.06c2.8,0,5.07,2.27,5.07,5.06s-2.27,5.06-5.07,5.06
					C1176.92,399.35,1174.65,397.08,1174.65,394.28z"/>
				<path class="st25" d="M1147.65,394.28c0-2.8,2.27-5.06,5.07-5.06s5.07,2.27,5.07,5.06s-2.27,5.06-5.07,5.06
					S1147.65,397.08,1147.65,394.28z"/>
				<path class="st25" d="M1120.66,394.28c0-2.8,2.27-5.06,5.07-5.06c2.8,0,5.07,2.27,5.07,5.06s-2.27,5.06-5.07,5.06
					C1122.93,399.35,1120.66,397.08,1120.66,394.28z"/>
				<path class="st25" d="M1093.66,394.28c0-2.8,2.27-5.06,5.07-5.06c2.8,0,5.07,2.27,5.07,5.06s-2.27,5.06-5.07,5.06
					C1095.93,399.35,1093.66,397.08,1093.66,394.28z"/>
				<path class="st25" d="M1066.66,394.28c0-2.8,2.27-5.06,5.07-5.06s5.07,2.27,5.07,5.06s-2.27,5.06-5.07,5.06
					S1066.66,397.08,1066.66,394.28z"/>
				<path class="st25" d="M1039.67,394.28c0-2.8,2.27-5.06,5.07-5.06c2.8,0,5.07,2.27,5.07,5.06s-2.27,5.06-5.07,5.06
					C1041.94,399.35,1039.67,397.08,1039.67,394.28z"/>
			</g>
			<g>
				<path class="st25" d="M1282.63,367.41c0-2.8,2.27-5.06,5.07-5.06c2.8,0,5.07,2.27,5.07,5.06c0,2.8-2.27,5.06-5.07,5.06
					C1284.91,372.48,1282.63,370.21,1282.63,367.41z"/>
				<path class="st25" d="M1255.64,367.41c0-2.8,2.27-5.06,5.07-5.06c2.8,0,5.07,2.27,5.07,5.06c0,2.8-2.27,5.06-5.07,5.06
					C1257.91,372.48,1255.64,370.21,1255.64,367.41z"/>
				<path class="st25" d="M1228.64,367.41c0-2.8,2.27-5.06,5.07-5.06s5.07,2.27,5.07,5.06c0,2.8-2.27,5.06-5.07,5.06
					S1228.64,370.21,1228.64,367.41z"/>
				<path class="st25" d="M1201.65,367.41c0-2.8,2.27-5.06,5.07-5.06s5.07,2.27,5.07,5.06c0,2.8-2.27,5.06-5.07,5.06
					S1201.65,370.21,1201.65,367.41z"/>
				<path class="st25" d="M1174.65,367.41c0-2.8,2.27-5.06,5.07-5.06c2.8,0,5.07,2.27,5.07,5.06c0,2.8-2.27,5.06-5.07,5.06
					C1176.92,372.48,1174.65,370.21,1174.65,367.41z"/>
				<path class="st25" d="M1147.65,367.41c0-2.8,2.27-5.06,5.07-5.06s5.07,2.27,5.07,5.06c0,2.8-2.27,5.06-5.07,5.06
					S1147.65,370.21,1147.65,367.41z"/>
				<path class="st25" d="M1120.66,367.41c0-2.8,2.27-5.06,5.07-5.06c2.8,0,5.07,2.27,5.07,5.06c0,2.8-2.27,5.06-5.07,5.06
					C1122.93,372.48,1120.66,370.21,1120.66,367.41z"/>
				<path class="st25" d="M1093.66,367.41c0-2.8,2.27-5.06,5.07-5.06c2.8,0,5.07,2.27,5.07,5.06c0,2.8-2.27,5.06-5.07,5.06
					C1095.93,372.48,1093.66,370.21,1093.66,367.41z"/>
				<path class="st25" d="M1066.66,367.41c0-2.8,2.27-5.06,5.07-5.06s5.07,2.27,5.07,5.06c0,2.8-2.27,5.06-5.07,5.06
					S1066.66,370.21,1066.66,367.41z"/>
				<path class="st25" d="M1039.67,367.41c0-2.8,2.27-5.06,5.07-5.06c2.8,0,5.07,2.27,5.07,5.06c0,2.8-2.27,5.06-5.07,5.06
					C1041.94,372.48,1039.67,370.21,1039.67,367.41z"/>
			</g>
			<g>
				<path class="st25" d="M1282.63,340.54c0-2.8,2.27-5.06,5.07-5.06c2.8,0,5.07,2.27,5.07,5.06c0,2.8-2.27,5.06-5.07,5.06
					C1284.91,345.61,1282.63,343.34,1282.63,340.54z"/>
				<path class="st25" d="M1255.64,340.54c0-2.8,2.27-5.06,5.07-5.06c2.8,0,5.07,2.27,5.07,5.06c0,2.8-2.27,5.06-5.07,5.06
					C1257.91,345.61,1255.64,343.34,1255.64,340.54z"/>
				<path class="st25" d="M1228.64,340.54c0-2.8,2.27-5.06,5.07-5.06s5.07,2.27,5.07,5.06c0,2.8-2.27,5.06-5.07,5.06
					S1228.64,343.34,1228.64,340.54z"/>
				<path class="st25" d="M1201.65,340.54c0-2.8,2.27-5.06,5.07-5.06s5.07,2.27,5.07,5.06c0,2.8-2.27,5.06-5.07,5.06
					S1201.65,343.34,1201.65,340.54z"/>
				<path class="st25" d="M1174.65,340.54c0-2.8,2.27-5.06,5.07-5.06c2.8,0,5.07,2.27,5.07,5.06c0,2.8-2.27,5.06-5.07,5.06
					C1176.92,345.61,1174.65,343.34,1174.65,340.54z"/>
				<path class="st25" d="M1147.65,340.54c0-2.8,2.27-5.06,5.07-5.06s5.07,2.27,5.07,5.06c0,2.8-2.27,5.06-5.07,5.06
					S1147.65,343.34,1147.65,340.54z"/>
				<path class="st25" d="M1120.66,340.54c0-2.8,2.27-5.06,5.07-5.06c2.8,0,5.07,2.27,5.07,5.06c0,2.8-2.27,5.06-5.07,5.06
					C1122.93,345.61,1120.66,343.34,1120.66,340.54z"/>
				<path class="st25" d="M1093.66,340.54c0-2.8,2.27-5.06,5.07-5.06c2.8,0,5.07,2.27,5.07,5.06c0,2.8-2.27,5.06-5.07,5.06
					C1095.93,345.61,1093.66,343.34,1093.66,340.54z"/>
				<path class="st25" d="M1066.66,340.54c0-2.8,2.27-5.06,5.07-5.06s5.07,2.27,5.07,5.06c0,2.8-2.27,5.06-5.07,5.06
					S1066.66,343.34,1066.66,340.54z"/>
				<path class="st25" d="M1039.67,340.54c0-2.8,2.27-5.06,5.07-5.06c2.8,0,5.07,2.27,5.07,5.06c0,2.8-2.27,5.06-5.07,5.06
					C1041.94,345.61,1039.67,343.34,1039.67,340.54z"/>
			</g>
			<g>
				<path class="st25" d="M1282.63,313.67c0-2.8,2.27-5.06,5.07-5.06c2.8,0,5.07,2.27,5.07,5.06s-2.27,5.06-5.07,5.06
					C1284.91,318.74,1282.63,316.47,1282.63,313.67z"/>
				<ellipse class="st25" cx="1260.71" cy="313.67" rx="5.07" ry="5.06"/>
				<path class="st25" d="M1228.64,313.67c0-2.8,2.27-5.06,5.07-5.06s5.07,2.27,5.07,5.06s-2.27,5.06-5.07,5.06
					S1228.64,316.47,1228.64,313.67z"/>
				<path class="st25" d="M1201.65,313.67c0-2.8,2.27-5.06,5.07-5.06s5.07,2.27,5.07,5.06s-2.27,5.06-5.07,5.06
					S1201.65,316.47,1201.65,313.67z"/>
				<path class="st25" d="M1174.65,313.67c0-2.8,2.27-5.06,5.07-5.06c2.8,0,5.07,2.27,5.07,5.06s-2.27,5.06-5.07,5.06
					C1176.92,318.74,1174.65,316.47,1174.65,313.67z"/>
				<path class="st25" d="M1147.65,313.67c0-2.8,2.27-5.06,5.07-5.06s5.07,2.27,5.07,5.06s-2.27,5.06-5.07,5.06
					S1147.65,316.47,1147.65,313.67z"/>
				<path class="st25" d="M1120.66,313.67c0-2.8,2.27-5.06,5.07-5.06c2.8,0,5.07,2.27,5.07,5.06s-2.27,5.06-5.07,5.06
					C1122.93,318.74,1120.66,316.47,1120.66,313.67z"/>
				<ellipse class="st25" cx="1098.73" cy="313.67" rx="5.07" ry="5.06"/>
				<path class="st25" d="M1066.66,313.67c0-2.8,2.27-5.06,5.07-5.06s5.07,2.27,5.07,5.06s-2.27,5.06-5.07,5.06
					S1066.66,316.47,1066.66,313.67z"/>
				<path class="st25" d="M1039.67,313.67c0-2.8,2.27-5.06,5.07-5.06c2.8,0,5.07,2.27,5.07,5.06s-2.27,5.06-5.07,5.06
					C1041.94,318.74,1039.67,316.47,1039.67,313.67z"/>
			</g>
		</g>
		<g>
			<g>
				<path class="st25" d="M1282.63,554.38c0-2.8,2.27-5.06,5.07-5.06c2.8,0,5.07,2.27,5.07,5.06s-2.27,5.06-5.07,5.06
					C1284.91,559.45,1282.63,557.18,1282.63,554.38z"/>
				<ellipse class="st25" cx="1260.71" cy="554.38" rx="5.07" ry="5.06"/>
				<path class="st25" d="M1228.64,554.38c0-2.8,2.27-5.06,5.07-5.06s5.07,2.27,5.07,5.06s-2.27,5.06-5.07,5.06
					S1228.64,557.18,1228.64,554.38z"/>
				<path class="st25" d="M1201.65,554.38c0-2.8,2.27-5.06,5.07-5.06s5.07,2.27,5.07,5.06s-2.27,5.06-5.07,5.06
					S1201.65,557.18,1201.65,554.38z"/>
				<path class="st25" d="M1174.65,554.38c0-2.8,2.27-5.06,5.07-5.06c2.8,0,5.07,2.27,5.07,5.06s-2.27,5.06-5.07,5.06
					C1176.92,559.45,1174.65,557.18,1174.65,554.38z"/>
				<path class="st25" d="M1147.65,554.38c0-2.8,2.27-5.06,5.07-5.06s5.07,2.27,5.07,5.06s-2.27,5.06-5.07,5.06
					S1147.65,557.18,1147.65,554.38z"/>
				<path class="st25" d="M1120.66,554.38c0-2.8,2.27-5.06,5.07-5.06c2.8,0,5.07,2.27,5.07,5.06s-2.27,5.06-5.07,5.06
					C1122.93,559.45,1120.66,557.18,1120.66,554.38z"/>
				<ellipse class="st25" cx="1098.73" cy="554.38" rx="5.07" ry="5.06"/>
				<path class="st25" d="M1066.66,554.38c0-2.8,2.27-5.06,5.07-5.06s5.07,2.27,5.07,5.06s-2.27,5.06-5.07,5.06
					S1066.66,557.18,1066.66,554.38z"/>
				<path class="st25" d="M1039.67,554.38c0-2.8,2.27-5.06,5.07-5.06c2.8,0,5.07,2.27,5.07,5.06s-2.27,5.06-5.07,5.06
					C1041.94,559.45,1039.67,557.18,1039.67,554.38z"/>
			</g>
			<g>
				<path class="st25" d="M1282.63,527.51c0-2.8,2.27-5.06,5.07-5.06c2.8,0,5.07,2.27,5.07,5.06c0,2.8-2.27,5.06-5.07,5.06
					C1284.91,532.58,1282.63,530.31,1282.63,527.51z"/>
				<ellipse class="st25" cx="1260.71" cy="527.51" rx="5.07" ry="5.06"/>
				<path class="st25" d="M1228.64,527.51c0-2.8,2.27-5.06,5.07-5.06s5.07,2.27,5.07,5.06c0,2.8-2.27,5.06-5.07,5.06
					S1228.64,530.31,1228.64,527.51z"/>
				<path class="st25" d="M1201.65,527.51c0-2.8,2.27-5.06,5.07-5.06s5.07,2.27,5.07,5.06c0,2.8-2.27,5.06-5.07,5.06
					S1201.65,530.31,1201.65,527.51z"/>
				<path class="st25" d="M1174.65,527.51c0-2.8,2.27-5.06,5.07-5.06c2.8,0,5.07,2.27,5.07,5.06c0,2.8-2.27,5.06-5.07,5.06
					C1176.92,532.58,1174.65,530.31,1174.65,527.51z"/>
				<path class="st25" d="M1147.65,527.51c0-2.8,2.27-5.06,5.07-5.06s5.07,2.27,5.07,5.06c0,2.8-2.27,5.06-5.07,5.06
					S1147.65,530.31,1147.65,527.51z"/>
				<path class="st25" d="M1120.66,527.51c0-2.8,2.27-5.06,5.07-5.06c2.8,0,5.07,2.27,5.07,5.06c0,2.8-2.27,5.06-5.07,5.06
					C1122.93,532.58,1120.66,530.31,1120.66,527.51z"/>
				<ellipse class="st25" cx="1098.73" cy="527.51" rx="5.07" ry="5.06"/>
				<path class="st25" d="M1066.66,527.51c0-2.8,2.27-5.06,5.07-5.06s5.07,2.27,5.07,5.06c0,2.8-2.27,5.06-5.07,5.06
					S1066.66,530.31,1066.66,527.51z"/>
				<path class="st25" d="M1039.67,527.51c0-2.8,2.27-5.06,5.07-5.06c2.8,0,5.07,2.27,5.07,5.06c0,2.8-2.27,5.06-5.07,5.06
					C1041.94,532.58,1039.67,530.31,1039.67,527.51z"/>
			</g>
			<g>
				<path class="st25" d="M1282.63,500.64c0-2.8,2.27-5.06,5.07-5.06c2.8,0,5.07,2.27,5.07,5.06c0,2.8-2.27,5.06-5.07,5.06
					C1284.91,505.71,1282.63,503.44,1282.63,500.64z"/>
				<path class="st25" d="M1255.64,500.64c0-2.8,2.27-5.06,5.07-5.06c2.8,0,5.07,2.27,5.07,5.06c0,2.8-2.27,5.06-5.07,5.06
					C1257.91,505.71,1255.64,503.44,1255.64,500.64z"/>
				<path class="st25" d="M1228.64,500.64c0-2.8,2.27-5.06,5.07-5.06s5.07,2.27,5.07,5.06c0,2.8-2.27,5.06-5.07,5.06
					S1228.64,503.44,1228.64,500.64z"/>
				<path class="st25" d="M1201.65,500.64c0-2.8,2.27-5.06,5.07-5.06s5.07,2.27,5.07,5.06c0,2.8-2.27,5.06-5.07,5.06
					S1201.65,503.44,1201.65,500.64z"/>
				<path class="st25" d="M1174.65,500.64c0-2.8,2.27-5.06,5.07-5.06c2.8,0,5.07,2.27,5.07,5.06c0,2.8-2.27,5.06-5.07,5.06
					C1176.92,505.71,1174.65,503.44,1174.65,500.64z"/>
				<path class="st25" d="M1147.65,500.64c0-2.8,2.27-5.06,5.07-5.06s5.07,2.27,5.07,5.06c0,2.8-2.27,5.06-5.07,5.06
					S1147.65,503.44,1147.65,500.64z"/>
				<path class="st25" d="M1120.66,500.64c0-2.8,2.27-5.06,5.07-5.06c2.8,0,5.07,2.27,5.07,5.06c0,2.8-2.27,5.06-5.07,5.06
					C1122.93,505.71,1120.66,503.44,1120.66,500.64z"/>
				<path class="st25" d="M1093.66,500.64c0-2.8,2.27-5.06,5.07-5.06c2.8,0,5.07,2.27,5.07,5.06c0,2.8-2.27,5.06-5.07,5.06
					C1095.93,505.71,1093.66,503.44,1093.66,500.64z"/>
				<path class="st25" d="M1066.66,500.64c0-2.8,2.27-5.06,5.07-5.06s5.07,2.27,5.07,5.06c0,2.8-2.27,5.06-5.07,5.06
					S1066.66,503.44,1066.66,500.64z"/>
				<path class="st25" d="M1039.67,500.64c0-2.8,2.27-5.06,5.07-5.06c2.8,0,5.07,2.27,5.07,5.06c0,2.8-2.27,5.06-5.07,5.06
					C1041.94,505.71,1039.67,503.44,1039.67,500.64z"/>
			</g>
			<g>
				<path class="st25" d="M1282.63,473.77c0-2.8,2.27-5.06,5.07-5.06c2.8,0,5.07,2.27,5.07,5.06c0,2.8-2.27,5.06-5.07,5.06
					C1284.91,478.84,1282.63,476.57,1282.63,473.77z"/>
				<path class="st25" d="M1255.64,473.77c0-2.8,2.27-5.06,5.07-5.06c2.8,0,5.07,2.27,5.07,5.06c0,2.8-2.27,5.06-5.07,5.06
					C1257.91,478.84,1255.64,476.57,1255.64,473.77z"/>
				<path class="st25" d="M1228.64,473.77c0-2.8,2.27-5.06,5.07-5.06s5.07,2.27,5.07,5.06c0,2.8-2.27,5.06-5.07,5.06
					S1228.64,476.57,1228.64,473.77z"/>
				<path class="st25" d="M1201.65,473.77c0-2.8,2.27-5.06,5.07-5.06s5.07,2.27,5.07,5.06c0,2.8-2.27,5.06-5.07,5.06
					S1201.65,476.57,1201.65,473.77z"/>
				<path class="st25" d="M1174.65,473.77c0-2.8,2.27-5.06,5.07-5.06c2.8,0,5.07,2.27,5.07,5.06c0,2.8-2.27,5.06-5.07,5.06
					C1176.92,478.84,1174.65,476.57,1174.65,473.77z"/>
				<path class="st25" d="M1147.65,473.77c0-2.8,2.27-5.06,5.07-5.06s5.07,2.27,5.07,5.06c0,2.8-2.27,5.06-5.07,5.06
					S1147.65,476.57,1147.65,473.77z"/>
				<path class="st25" d="M1120.66,473.77c0-2.8,2.27-5.06,5.07-5.06c2.8,0,5.07,2.27,5.07,5.06c0,2.8-2.27,5.06-5.07,5.06
					C1122.93,478.84,1120.66,476.57,1120.66,473.77z"/>
				<path class="st25" d="M1093.66,473.77c0-2.8,2.27-5.06,5.07-5.06c2.8,0,5.07,2.27,5.07,5.06c0,2.8-2.27,5.06-5.07,5.06
					C1095.93,478.84,1093.66,476.57,1093.66,473.77z"/>
				<path class="st25" d="M1066.66,473.77c0-2.8,2.27-5.06,5.07-5.06s5.07,2.27,5.07,5.06c0,2.8-2.27,5.06-5.07,5.06
					S1066.66,476.57,1066.66,473.77z"/>
				<path class="st25" d="M1039.67,473.77c0-2.8,2.27-5.06,5.07-5.06c2.8,0,5.07,2.27,5.07,5.06c0,2.8-2.27,5.06-5.07,5.06
					C1041.94,478.84,1039.67,476.57,1039.67,473.77z"/>
			</g>
			<g>
				<path class="st25" d="M1282.63,446.9c0-2.8,2.27-5.06,5.07-5.06c2.8,0,5.07,2.27,5.07,5.06c0,2.8-2.27,5.06-5.07,5.06
					C1284.91,451.97,1282.63,449.7,1282.63,446.9z"/>
				<ellipse class="st25" cx="1260.71" cy="446.9" rx="5.07" ry="5.06"/>
				<path class="st25" d="M1228.64,446.9c0-2.8,2.27-5.06,5.07-5.06s5.07,2.27,5.07,5.06c0,2.8-2.27,5.06-5.07,5.06
					S1228.64,449.7,1228.64,446.9z"/>
				<path class="st25" d="M1201.65,446.9c0-2.8,2.27-5.06,5.07-5.06s5.07,2.27,5.07,5.06c0,2.8-2.27,5.06-5.07,5.06
					S1201.65,449.7,1201.65,446.9z"/>
				<path class="st25" d="M1174.65,446.9c0-2.8,2.27-5.06,5.07-5.06c2.8,0,5.07,2.27,5.07,5.06c0,2.8-2.27,5.06-5.07,5.06
					C1176.92,451.97,1174.65,449.7,1174.65,446.9z"/>
				<path class="st25" d="M1147.65,446.9c0-2.8,2.27-5.06,5.07-5.06s5.07,2.27,5.07,5.06c0,2.8-2.27,5.06-5.07,5.06
					S1147.65,449.7,1147.65,446.9z"/>
				<path class="st25" d="M1120.66,446.9c0-2.8,2.27-5.06,5.07-5.06c2.8,0,5.07,2.27,5.07,5.06c0,2.8-2.27,5.06-5.07,5.06
					C1122.93,451.97,1120.66,449.7,1120.66,446.9z"/>
				<ellipse class="st25" cx="1098.73" cy="446.9" rx="5.07" ry="5.06"/>
				<path class="st25" d="M1066.66,446.9c0-2.8,2.27-5.06,5.07-5.06s5.07,2.27,5.07,5.06c0,2.8-2.27,5.06-5.07,5.06
					S1066.66,449.7,1066.66,446.9z"/>
				<path class="st25" d="M1039.67,446.9c0-2.8,2.27-5.06,5.07-5.06c2.8,0,5.07,2.27,5.07,5.06c0,2.8-2.27,5.06-5.07,5.06
					C1041.94,451.97,1039.67,449.7,1039.67,446.9z"/>
			</g>
		</g>
		<g>
			<g>
				<ellipse class="st25" cx="1340.12" cy="421.15" rx="5.07" ry="5.06"/>
				<path class="st25" d="M1308.05,421.15c0-2.8,2.27-5.06,5.07-5.06c2.8,0,5.07,2.27,5.07,5.06s-2.27,5.06-5.07,5.06
					C1310.32,426.22,1308.05,423.95,1308.05,421.15z"/>
			</g>
			<g>
				<path class="st25" d="M1335.05,394.28c0-2.8,2.27-5.06,5.07-5.06s5.07,2.27,5.07,5.06s-2.27,5.06-5.07,5.06
					S1335.05,397.08,1335.05,394.28z"/>
				<path class="st25" d="M1308.05,394.28c0-2.8,2.27-5.06,5.07-5.06c2.8,0,5.07,2.27,5.07,5.06s-2.27,5.06-5.07,5.06
					C1310.32,399.35,1308.05,397.08,1308.05,394.28z"/>
			</g>
			<g>
				<path class="st25" d="M1335.05,367.41c0-2.8,2.27-5.06,5.07-5.06s5.07,2.27,5.07,5.06c0,2.8-2.27,5.06-5.07,5.06
					S1335.05,370.21,1335.05,367.41z"/>
				<path class="st25" d="M1308.05,367.41c0-2.8,2.27-5.06,5.07-5.06c2.8,0,5.07,2.27,5.07,5.06c0,2.8-2.27,5.06-5.07,5.06
					C1310.32,372.48,1308.05,370.21,1308.05,367.41z"/>
			</g>
			<g>
				<path class="st25" d="M1335.05,340.54c0-2.8,2.27-5.06,5.07-5.06s5.07,2.27,5.07,5.06c0,2.8-2.27,5.06-5.07,5.06
					S1335.05,343.34,1335.05,340.54z"/>
				<path class="st25" d="M1308.05,340.54c0-2.8,2.27-5.06,5.07-5.06c2.8,0,5.07,2.27,5.07,5.06c0,2.8-2.27,5.06-5.07,5.06
					C1310.32,345.61,1308.05,343.34,1308.05,340.54z"/>
			</g>
			<g>
				<ellipse class="st25" cx="1340.12" cy="313.67" rx="5.07" ry="5.06"/>
				<path class="st25" d="M1308.05,313.67c0-2.8,2.27-5.06,5.07-5.06c2.8,0,5.07,2.27,5.07,5.06s-2.27,5.06-5.07,5.06
					C1310.32,318.74,1308.05,316.47,1308.05,313.67z"/>
			</g>
		</g>
		<g>
			<g>
				<ellipse class="st25" cx="1340.12" cy="554.38" rx="5.07" ry="5.06"/>
				<path class="st25" d="M1308.05,554.38c0-2.8,2.27-5.06,5.07-5.06c2.8,0,5.07,2.27,5.07,5.06s-2.27,5.06-5.07,5.06
					C1310.32,559.45,1308.05,557.18,1308.05,554.38z"/>
			</g>
			<g>
				<ellipse class="st25" cx="1340.12" cy="527.51" rx="5.07" ry="5.06"/>
				<path class="st25" d="M1308.05,527.51c0-2.8,2.27-5.06,5.07-5.06c2.8,0,5.07,2.27,5.07,5.06c0,2.8-2.27,5.06-5.07,5.06
					C1310.32,532.58,1308.05,530.31,1308.05,527.51z"/>
			</g>
			<g>
				<path class="st25" d="M1335.05,500.64c0-2.8,2.27-5.06,5.07-5.06s5.07,2.27,5.07,5.06c0,2.8-2.27,5.06-5.07,5.06
					S1335.05,503.44,1335.05,500.64z"/>
				<path class="st25" d="M1308.05,500.64c0-2.8,2.27-5.06,5.07-5.06c2.8,0,5.07,2.27,5.07,5.06c0,2.8-2.27,5.06-5.07,5.06
					C1310.32,505.71,1308.05,503.44,1308.05,500.64z"/>
			</g>
			<g>
				<path class="st25" d="M1335.05,473.77c0-2.8,2.27-5.06,5.07-5.06s5.07,2.27,5.07,5.06c0,2.8-2.27,5.06-5.07,5.06
					S1335.05,476.57,1335.05,473.77z"/>
				<path class="st25" d="M1308.05,473.77c0-2.8,2.27-5.06,5.07-5.06c2.8,0,5.07,2.27,5.07,5.06c0,2.8-2.27,5.06-5.07,5.06
					C1310.32,478.84,1308.05,476.57,1308.05,473.77z"/>
			</g>
			<g>
				<ellipse class="st25" cx="1340.12" cy="446.9" rx="5.07" ry="5.06"/>
				<path class="st25" d="M1308.05,446.9c0-2.8,2.27-5.06,5.07-5.06c2.8,0,5.07,2.27,5.07,5.06c0,2.8-2.27,5.06-5.07,5.06
					C1310.32,451.97,1308.05,449.7,1308.05,446.9z"/>
			</g>
		</g>
		<g>
			<g>
				<path class="st25" d="M261.13,1792.2c0-3.06,2.49-5.54,5.55-5.54c3.07,0,5.55,2.48,5.55,5.54c0,3.06-2.49,5.54-5.55,5.54
					C263.61,1797.74,261.13,1795.26,261.13,1792.2z"/>
				<path class="st25" d="M231.58,1792.2c0-3.06,2.49-5.54,5.55-5.54c3.07,0,5.55,2.48,5.55,5.54c0,3.06-2.49,5.54-5.55,5.54
					C234.06,1797.74,231.58,1795.26,231.58,1792.2z"/>
				<path class="st25" d="M202.03,1792.2c0-3.06,2.49-5.54,5.55-5.54c3.07,0,5.55,2.48,5.55,5.54c0,3.06-2.49,5.54-5.55,5.54
					C204.51,1797.74,202.03,1795.26,202.03,1792.2z"/>
				<path class="st25" d="M172.48,1792.2c0-3.06,2.49-5.54,5.55-5.54c3.07,0,5.55,2.48,5.55,5.54c0,3.06-2.49,5.54-5.55,5.54
					C174.96,1797.74,172.48,1795.26,172.48,1792.2z"/>
				<path class="st25" d="M142.93,1792.2c0-3.06,2.49-5.54,5.55-5.54c3.07,0,5.55,2.48,5.55,5.54c0,3.06-2.49,5.54-5.55,5.54
					C145.41,1797.74,142.93,1795.26,142.93,1792.2z"/>
				<path class="st25" d="M113.38,1792.2c0-3.06,2.49-5.54,5.55-5.54c3.07,0,5.55,2.48,5.55,5.54c0,3.06-2.49,5.54-5.55,5.54
					C115.86,1797.74,113.38,1795.26,113.38,1792.2z"/>
				<path class="st25" d="M83.83,1792.2c0-3.06,2.49-5.54,5.55-5.54c3.07,0,5.55,2.48,5.55,5.54c0,3.06-2.49,5.54-5.55,5.54
					C86.31,1797.74,83.83,1795.26,83.83,1792.2z"/>
				<path class="st25" d="M54.27,1792.2c0-3.06,2.49-5.54,5.55-5.54c3.07,0,5.55,2.48,5.55,5.54c0,3.06-2.49,5.54-5.55,5.54
					C56.76,1797.74,54.27,1795.26,54.27,1792.2z"/>
				<path class="st25" d="M24.72,1792.2c0-3.06,2.49-5.54,5.55-5.54s5.55,2.48,5.55,5.54c0,3.06-2.49,5.54-5.55,5.54
					S24.72,1795.26,24.72,1792.2z"/>
				<path class="st25" d="M-4.83,1792.2c0-3.06,2.49-5.54,5.55-5.54c3.07,0,5.55,2.48,5.55,5.54c0,3.06-2.49,5.54-5.55,5.54
					C-2.34,1797.74-4.83,1795.26-4.83,1792.2z"/>
			</g>
			<g>
				<path class="st25" d="M261.13,1762.79c0-3.06,2.49-5.54,5.55-5.54c3.07,0,5.55,2.48,5.55,5.54c0,3.06-2.49,5.54-5.55,5.54
					C263.61,1768.33,261.13,1765.85,261.13,1762.79z"/>
				<path class="st25" d="M231.58,1762.79c0-3.06,2.49-5.54,5.55-5.54c3.07,0,5.55,2.48,5.55,5.54c0,3.06-2.49,5.54-5.55,5.54
					C234.06,1768.33,231.58,1765.85,231.58,1762.79z"/>
				<path class="st25" d="M202.03,1762.79c0-3.06,2.49-5.54,5.55-5.54c3.07,0,5.55,2.48,5.55,5.54c0,3.06-2.49,5.54-5.55,5.54
					C204.51,1768.33,202.03,1765.85,202.03,1762.79z"/>
				<path class="st25" d="M172.48,1762.79c0-3.06,2.49-5.54,5.55-5.54c3.07,0,5.55,2.48,5.55,5.54c0,3.06-2.49,5.54-5.55,5.54
					C174.96,1768.33,172.48,1765.85,172.48,1762.79z"/>
				<path class="st25" d="M142.93,1762.79c0-3.06,2.49-5.54,5.55-5.54c3.07,0,5.55,2.48,5.55,5.54c0,3.06-2.49,5.54-5.55,5.54
					C145.41,1768.33,142.93,1765.85,142.93,1762.79z"/>
				<path class="st25" d="M113.38,1762.79c0-3.06,2.49-5.54,5.55-5.54c3.07,0,5.55,2.48,5.55,5.54c0,3.06-2.49,5.54-5.55,5.54
					C115.86,1768.33,113.38,1765.85,113.38,1762.79z"/>
				<path class="st25" d="M83.83,1762.79c0-3.06,2.49-5.54,5.55-5.54c3.07,0,5.55,2.48,5.55,5.54c0,3.06-2.49,5.54-5.55,5.54
					C86.31,1768.33,83.83,1765.85,83.83,1762.79z"/>
				<path class="st25" d="M54.27,1762.79c0-3.06,2.49-5.54,5.55-5.54c3.07,0,5.55,2.48,5.55,5.54c0,3.06-2.49,5.54-5.55,5.54
					C56.76,1768.33,54.27,1765.85,54.27,1762.79z"/>
				<path class="st25" d="M24.72,1762.79c0-3.06,2.49-5.54,5.55-5.54s5.55,2.48,5.55,5.54c0,3.06-2.49,5.54-5.55,5.54
					S24.72,1765.85,24.72,1762.79z"/>
				<path class="st25" d="M-4.83,1762.79c0-3.06,2.49-5.54,5.55-5.54c3.07,0,5.55,2.48,5.55,5.54c0,3.06-2.49,5.54-5.55,5.54
					C-2.34,1768.33-4.83,1765.85-4.83,1762.79z"/>
			</g>
			<g>
				<path class="st25" d="M261.13,1733.38c0-3.06,2.49-5.54,5.55-5.54c3.07,0,5.55,2.48,5.55,5.54c0,3.06-2.49,5.54-5.55,5.54
					C263.61,1738.92,261.13,1736.44,261.13,1733.38z"/>
				<path class="st25" d="M231.58,1733.38c0-3.06,2.49-5.54,5.55-5.54c3.07,0,5.55,2.48,5.55,5.54c0,3.06-2.49,5.54-5.55,5.54
					C234.06,1738.92,231.58,1736.44,231.58,1733.38z"/>
				<path class="st25" d="M202.03,1733.38c0-3.06,2.49-5.54,5.55-5.54c3.07,0,5.55,2.48,5.55,5.54c0,3.06-2.49,5.54-5.55,5.54
					C204.51,1738.92,202.03,1736.44,202.03,1733.38z"/>
				<path class="st25" d="M172.48,1733.38c0-3.06,2.49-5.54,5.55-5.54c3.07,0,5.55,2.48,5.55,5.54c0,3.06-2.49,5.54-5.55,5.54
					C174.96,1738.92,172.48,1736.44,172.48,1733.38z"/>
				<path class="st25" d="M142.93,1733.38c0-3.06,2.49-5.54,5.55-5.54c3.07,0,5.55,2.48,5.55,5.54c0,3.06-2.49,5.54-5.55,5.54
					C145.41,1738.92,142.93,1736.44,142.93,1733.38z"/>
				<path class="st25" d="M113.38,1733.38c0-3.06,2.49-5.54,5.55-5.54c3.07,0,5.55,2.48,5.55,5.54c0,3.06-2.49,5.54-5.55,5.54
					C115.86,1738.92,113.38,1736.44,113.38,1733.38z"/>
				<path class="st25" d="M83.83,1733.38c0-3.06,2.49-5.54,5.55-5.54c3.07,0,5.55,2.48,5.55,5.54c0,3.06-2.49,5.54-5.55,5.54
					C86.31,1738.92,83.83,1736.44,83.83,1733.38z"/>
				<path class="st25" d="M54.27,1733.38c0-3.06,2.49-5.54,5.55-5.54c3.07,0,5.55,2.48,5.55,5.54c0,3.06-2.49,5.54-5.55,5.54
					C56.76,1738.92,54.27,1736.44,54.27,1733.38z"/>
				<path class="st25" d="M24.72,1733.38c0-3.06,2.49-5.54,5.55-5.54s5.55,2.48,5.55,5.54c0,3.06-2.49,5.54-5.55,5.54
					S24.72,1736.44,24.72,1733.38z"/>
				<path class="st25" d="M-4.83,1733.38c0-3.06,2.49-5.54,5.55-5.54c3.07,0,5.55,2.48,5.55,5.54c0,3.06-2.49,5.54-5.55,5.54
					C-2.34,1738.92-4.83,1736.44-4.83,1733.38z"/>
			</g>
			<g>
				<path class="st25" d="M261.13,1703.96c0-3.06,2.49-5.54,5.55-5.54c3.07,0,5.55,2.48,5.55,5.54c0,3.06-2.49,5.54-5.55,5.54
					C263.61,1709.51,261.13,1707.03,261.13,1703.96z"/>
				<path class="st25" d="M231.58,1703.96c0-3.06,2.49-5.54,5.55-5.54c3.07,0,5.55,2.48,5.55,5.54c0,3.06-2.49,5.54-5.55,5.54
					C234.06,1709.51,231.58,1707.03,231.58,1703.96z"/>
				<path class="st25" d="M202.03,1703.96c0-3.06,2.49-5.54,5.55-5.54c3.07,0,5.55,2.48,5.55,5.54c0,3.06-2.49,5.54-5.55,5.54
					C204.51,1709.51,202.03,1707.03,202.03,1703.96z"/>
				<path class="st25" d="M172.48,1703.96c0-3.06,2.49-5.54,5.55-5.54c3.07,0,5.55,2.48,5.55,5.54c0,3.06-2.49,5.54-5.55,5.54
					C174.96,1709.51,172.48,1707.03,172.48,1703.96z"/>
				<path class="st25" d="M142.93,1703.96c0-3.06,2.49-5.54,5.55-5.54c3.07,0,5.55,2.48,5.55,5.54c0,3.06-2.49,5.54-5.55,5.54
					C145.41,1709.51,142.93,1707.03,142.93,1703.96z"/>
				<path class="st25" d="M113.38,1703.96c0-3.06,2.49-5.54,5.55-5.54c3.07,0,5.55,2.48,5.55,5.54c0,3.06-2.49,5.54-5.55,5.54
					C115.86,1709.51,113.38,1707.03,113.38,1703.96z"/>
				<path class="st25" d="M83.83,1703.96c0-3.06,2.49-5.54,5.55-5.54c3.07,0,5.55,2.48,5.55,5.54c0,3.06-2.49,5.54-5.55,5.54
					C86.31,1709.51,83.83,1707.03,83.83,1703.96z"/>
				<path class="st25" d="M54.27,1703.96c0-3.06,2.49-5.54,5.55-5.54c3.07,0,5.55,2.48,5.55,5.54c0,3.06-2.49,5.54-5.55,5.54
					C56.76,1709.51,54.27,1707.03,54.27,1703.96z"/>
				<path class="st25" d="M24.72,1703.96c0-3.06,2.49-5.54,5.55-5.54s5.55,2.48,5.55,5.54c0,3.06-2.49,5.54-5.55,5.54
					S24.72,1707.03,24.72,1703.96z"/>
				<path class="st25" d="M-4.83,1703.96c0-3.06,2.49-5.54,5.55-5.54c3.07,0,5.55,2.48,5.55,5.54c0,3.06-2.49,5.54-5.55,5.54
					C-2.34,1709.51-4.83,1707.03-4.83,1703.96z"/>
			</g>
			<g>
				<path class="st25" d="M261.13,1674.55c0-3.06,2.49-5.54,5.55-5.54c3.07,0,5.55,2.48,5.55,5.54s-2.49,5.54-5.55,5.54
					C263.61,1680.09,261.13,1677.61,261.13,1674.55z"/>
				<path class="st25" d="M231.58,1674.55c0-3.06,2.49-5.54,5.55-5.54c3.07,0,5.55,2.48,5.55,5.54s-2.49,5.54-5.55,5.54
					C234.06,1680.09,231.58,1677.61,231.58,1674.55z"/>
				<path class="st25" d="M202.03,1674.55c0-3.06,2.49-5.54,5.55-5.54c3.07,0,5.55,2.48,5.55,5.54s-2.49,5.54-5.55,5.54
					C204.51,1680.09,202.03,1677.61,202.03,1674.55z"/>
				<path class="st25" d="M172.48,1674.55c0-3.06,2.49-5.54,5.55-5.54c3.07,0,5.55,2.48,5.55,5.54s-2.49,5.54-5.55,5.54
					C174.96,1680.09,172.48,1677.61,172.48,1674.55z"/>
				<path class="st25" d="M142.93,1674.55c0-3.06,2.49-5.54,5.55-5.54c3.07,0,5.55,2.48,5.55,5.54s-2.49,5.54-5.55,5.54
					C145.41,1680.09,142.93,1677.61,142.93,1674.55z"/>
				<path class="st25" d="M113.38,1674.55c0-3.06,2.49-5.54,5.55-5.54c3.07,0,5.55,2.48,5.55,5.54s-2.49,5.54-5.55,5.54
					C115.86,1680.09,113.38,1677.61,113.38,1674.55z"/>
				<path class="st25" d="M83.83,1674.55c0-3.06,2.49-5.54,5.55-5.54c3.07,0,5.55,2.48,5.55,5.54s-2.49,5.54-5.55,5.54
					C86.31,1680.09,83.83,1677.61,83.83,1674.55z"/>
				<path class="st25" d="M54.27,1674.55c0-3.06,2.49-5.54,5.55-5.54c3.07,0,5.55,2.48,5.55,5.54s-2.49,5.54-5.55,5.54
					C56.76,1680.09,54.27,1677.61,54.27,1674.55z"/>
				<path class="st25" d="M24.72,1674.55c0-3.06,2.49-5.54,5.55-5.54s5.55,2.48,5.55,5.54s-2.49,5.54-5.55,5.54
					S24.72,1677.61,24.72,1674.55z"/>
				<path class="st25" d="M-4.83,1674.55c0-3.06,2.49-5.54,5.55-5.54c3.07,0,5.55,2.48,5.55,5.54s-2.49,5.54-5.55,5.54
					C-2.34,1680.09-4.83,1677.61-4.83,1674.55z"/>
			</g>
		</g>
		<g>
			<g>
				<path class="st25" d="M1344,2129.26c0-3.06,2.49-5.54,5.55-5.54s5.55,2.48,5.55,5.54c0,3.06-2.49,5.54-5.55,5.54
					S1344,2132.32,1344,2129.26z"/>
				<path class="st25" d="M1314.45,2129.26c0-3.06,2.49-5.54,5.55-5.54c3.07,0,5.55,2.48,5.55,5.54c0,3.06-2.49,5.54-5.55,5.54
					C1316.94,2134.8,1314.45,2132.32,1314.45,2129.26z"/>
				<path class="st25" d="M1284.9,2129.26c0-3.06,2.49-5.54,5.55-5.54c3.07,0,5.55,2.48,5.55,5.54c0,3.06-2.49,5.54-5.55,5.54
					C1287.39,2134.8,1284.9,2132.32,1284.9,2129.26z"/>
				<path class="st25" d="M1255.35,2129.26c0-3.06,2.49-5.54,5.55-5.54s5.55,2.48,5.55,5.54c0,3.06-2.49,5.54-5.55,5.54
					S1255.35,2132.32,1255.35,2129.26z"/>
				<path class="st25" d="M1225.8,2129.26c0-3.06,2.49-5.54,5.55-5.54c3.07,0,5.55,2.48,5.55,5.54c0,3.06-2.49,5.54-5.55,5.54
					C1228.29,2134.8,1225.8,2132.32,1225.8,2129.26z"/>
				<path class="st25" d="M1196.25,2129.26c0-3.06,2.49-5.54,5.55-5.54s5.55,2.48,5.55,5.54c0,3.06-2.49,5.54-5.55,5.54
					S1196.25,2132.32,1196.25,2129.26z"/>
				<path class="st25" d="M1166.7,2129.26c0-3.06,2.49-5.54,5.55-5.54c3.07,0,5.55,2.48,5.55,5.54c0,3.06-2.49,5.54-5.55,5.54
					C1169.19,2134.8,1166.7,2132.32,1166.7,2129.26z"/>
				<path class="st25" d="M1137.15,2129.26c0-3.06,2.49-5.54,5.55-5.54c3.07,0,5.55,2.48,5.55,5.54c0,3.06-2.49,5.54-5.55,5.54
					C1139.64,2134.8,1137.15,2132.32,1137.15,2129.26z"/>
				<path class="st25" d="M1107.6,2129.26c0-3.06,2.49-5.54,5.55-5.54s5.55,2.48,5.55,5.54c0,3.06-2.49,5.54-5.55,5.54
					S1107.6,2132.32,1107.6,2129.26z"/>
				<path class="st25" d="M1078.05,2129.26c0-3.06,2.49-5.54,5.55-5.54c3.07,0,5.55,2.48,5.55,5.54c0,3.06-2.49,5.54-5.55,5.54
					C1080.54,2134.8,1078.05,2132.32,1078.05,2129.26z"/>
			</g>
			<g>
				<path class="st25" d="M1344,2099.85c0-3.06,2.49-5.54,5.55-5.54s5.55,2.48,5.55,5.54c0,3.06-2.49,5.54-5.55,5.54
					S1344,2102.91,1344,2099.85z"/>
				<path class="st25" d="M1314.45,2099.85c0-3.06,2.49-5.54,5.55-5.54c3.07,0,5.55,2.48,5.55,5.54c0,3.06-2.49,5.54-5.55,5.54
					C1316.94,2105.39,1314.45,2102.91,1314.45,2099.85z"/>
				<path class="st25" d="M1284.9,2099.85c0-3.06,2.49-5.54,5.55-5.54c3.07,0,5.55,2.48,5.55,5.54c0,3.06-2.49,5.54-5.55,5.54
					C1287.39,2105.39,1284.9,2102.91,1284.9,2099.85z"/>
				<path class="st25" d="M1255.35,2099.85c0-3.06,2.49-5.54,5.55-5.54s5.55,2.48,5.55,5.54c0,3.06-2.49,5.54-5.55,5.54
					S1255.35,2102.91,1255.35,2099.85z"/>
				<path class="st25" d="M1225.8,2099.85c0-3.06,2.49-5.54,5.55-5.54c3.07,0,5.55,2.48,5.55,5.54c0,3.06-2.49,5.54-5.55,5.54
					C1228.29,2105.39,1225.8,2102.91,1225.8,2099.85z"/>
				<path class="st25" d="M1196.25,2099.85c0-3.06,2.49-5.54,5.55-5.54s5.55,2.48,5.55,5.54c0,3.06-2.49,5.54-5.55,5.54
					S1196.25,2102.91,1196.25,2099.85z"/>
				<path class="st25" d="M1166.7,2099.85c0-3.06,2.49-5.54,5.55-5.54c3.07,0,5.55,2.48,5.55,5.54c0,3.06-2.49,5.54-5.55,5.54
					C1169.19,2105.39,1166.7,2102.91,1166.7,2099.85z"/>
				<path class="st25" d="M1137.15,2099.85c0-3.06,2.49-5.54,5.55-5.54c3.07,0,5.55,2.48,5.55,5.54c0,3.06-2.49,5.54-5.55,5.54
					C1139.64,2105.39,1137.15,2102.91,1137.15,2099.85z"/>
				<path class="st25" d="M1107.6,2099.85c0-3.06,2.49-5.54,5.55-5.54s5.55,2.48,5.55,5.54c0,3.06-2.49,5.54-5.55,5.54
					S1107.6,2102.91,1107.6,2099.85z"/>
				<path class="st25" d="M1078.05,2099.85c0-3.06,2.49-5.54,5.55-5.54c3.07,0,5.55,2.48,5.55,5.54c0,3.06-2.49,5.54-5.55,5.54
					C1080.54,2105.39,1078.05,2102.91,1078.05,2099.85z"/>
			</g>
			<g>
				<path class="st25" d="M1344,2070.43c0-3.06,2.49-5.54,5.55-5.54s5.55,2.48,5.55,5.54s-2.49,5.54-5.55,5.54
					S1344,2073.49,1344,2070.43z"/>
				<path class="st25" d="M1314.45,2070.43c0-3.06,2.49-5.54,5.55-5.54c3.07,0,5.55,2.48,5.55,5.54s-2.49,5.54-5.55,5.54
					C1316.94,2075.98,1314.45,2073.49,1314.45,2070.43z"/>
				<path class="st25" d="M1284.9,2070.43c0-3.06,2.49-5.54,5.55-5.54c3.07,0,5.55,2.48,5.55,5.54s-2.49,5.54-5.55,5.54
					C1287.39,2075.98,1284.9,2073.49,1284.9,2070.43z"/>
				<path class="st25" d="M1255.35,2070.43c0-3.06,2.49-5.54,5.55-5.54s5.55,2.48,5.55,5.54s-2.49,5.54-5.55,5.54
					S1255.35,2073.49,1255.35,2070.43z"/>
				<path class="st25" d="M1225.8,2070.43c0-3.06,2.49-5.54,5.55-5.54c3.07,0,5.55,2.48,5.55,5.54s-2.49,5.54-5.55,5.54
					C1228.29,2075.98,1225.8,2073.49,1225.8,2070.43z"/>
				<path class="st25" d="M1196.25,2070.43c0-3.06,2.49-5.54,5.55-5.54s5.55,2.48,5.55,5.54s-2.49,5.54-5.55,5.54
					S1196.25,2073.49,1196.25,2070.43z"/>
				<path class="st25" d="M1166.7,2070.43c0-3.06,2.49-5.54,5.55-5.54c3.07,0,5.55,2.48,5.55,5.54s-2.49,5.54-5.55,5.54
					C1169.19,2075.98,1166.7,2073.49,1166.7,2070.43z"/>
				<path class="st25" d="M1137.15,2070.43c0-3.06,2.49-5.54,5.55-5.54c3.07,0,5.55,2.48,5.55,5.54s-2.49,5.54-5.55,5.54
					C1139.64,2075.98,1137.15,2073.49,1137.15,2070.43z"/>
				<path class="st25" d="M1107.6,2070.43c0-3.06,2.49-5.54,5.55-5.54s5.55,2.48,5.55,5.54s-2.49,5.54-5.55,5.54
					S1107.6,2073.49,1107.6,2070.43z"/>
				<path class="st25" d="M1078.05,2070.43c0-3.06,2.49-5.54,5.55-5.54c3.07,0,5.55,2.48,5.55,5.54s-2.49,5.54-5.55,5.54
					C1080.54,2075.98,1078.05,2073.49,1078.05,2070.43z"/>
			</g>
			<g>
				<path class="st25" d="M1344,2041.02c0-3.06,2.49-5.54,5.55-5.54s5.55,2.48,5.55,5.54c0,3.06-2.49,5.54-5.55,5.54
					S1344,2044.08,1344,2041.02z"/>
				<path class="st25" d="M1314.45,2041.02c0-3.06,2.49-5.54,5.55-5.54c3.07,0,5.55,2.48,5.55,5.54c0,3.06-2.49,5.54-5.55,5.54
					C1316.94,2046.56,1314.45,2044.08,1314.45,2041.02z"/>
				<path class="st25" d="M1284.9,2041.02c0-3.06,2.49-5.54,5.55-5.54c3.07,0,5.55,2.48,5.55,5.54c0,3.06-2.49,5.54-5.55,5.54
					C1287.39,2046.56,1284.9,2044.08,1284.9,2041.02z"/>
				<path class="st25" d="M1255.35,2041.02c0-3.06,2.49-5.54,5.55-5.54s5.55,2.48,5.55,5.54c0,3.06-2.49,5.54-5.55,5.54
					S1255.35,2044.08,1255.35,2041.02z"/>
				<path class="st25" d="M1225.8,2041.02c0-3.06,2.49-5.54,5.55-5.54c3.07,0,5.55,2.48,5.55,5.54c0,3.06-2.49,5.54-5.55,5.54
					C1228.29,2046.56,1225.8,2044.08,1225.8,2041.02z"/>
				<path class="st25" d="M1196.25,2041.02c0-3.06,2.49-5.54,5.55-5.54s5.55,2.48,5.55,5.54c0,3.06-2.49,5.54-5.55,5.54
					S1196.25,2044.08,1196.25,2041.02z"/>
				<path class="st25" d="M1166.7,2041.02c0-3.06,2.49-5.54,5.55-5.54c3.07,0,5.55,2.48,5.55,5.54c0,3.06-2.49,5.54-5.55,5.54
					C1169.19,2046.56,1166.7,2044.08,1166.7,2041.02z"/>
				<path class="st25" d="M1137.15,2041.02c0-3.06,2.49-5.54,5.55-5.54c3.07,0,5.55,2.48,5.55,5.54c0,3.06-2.49,5.54-5.55,5.54
					C1139.64,2046.56,1137.15,2044.08,1137.15,2041.02z"/>
				<path class="st25" d="M1107.6,2041.02c0-3.06,2.49-5.54,5.55-5.54s5.55,2.48,5.55,5.54c0,3.06-2.49,5.54-5.55,5.54
					S1107.6,2044.08,1107.6,2041.02z"/>
				<path class="st25" d="M1078.05,2041.02c0-3.06,2.49-5.54,5.55-5.54c3.07,0,5.55,2.48,5.55,5.54c0,3.06-2.49,5.54-5.55,5.54
					C1080.54,2046.56,1078.05,2044.08,1078.05,2041.02z"/>
			</g>
			<g>
				<path class="st25" d="M1344,2011.61c0-3.06,2.49-5.54,5.55-5.54s5.55,2.48,5.55,5.54c0,3.06-2.49,5.54-5.55,5.54
					S1344,2014.67,1344,2011.61z"/>
				<path class="st25" d="M1314.45,2011.61c0-3.06,2.49-5.54,5.55-5.54c3.07,0,5.55,2.48,5.55,5.54c0,3.06-2.49,5.54-5.55,5.54
					C1316.94,2017.15,1314.45,2014.67,1314.45,2011.61z"/>
				<path class="st25" d="M1284.9,2011.61c0-3.06,2.49-5.54,5.55-5.54c3.07,0,5.55,2.48,5.55,5.54c0,3.06-2.49,5.54-5.55,5.54
					C1287.39,2017.15,1284.9,2014.67,1284.9,2011.61z"/>
				<path class="st25" d="M1255.35,2011.61c0-3.06,2.49-5.54,5.55-5.54s5.55,2.48,5.55,5.54c0,3.06-2.49,5.54-5.55,5.54
					S1255.35,2014.67,1255.35,2011.61z"/>
				<path class="st25" d="M1225.8,2011.61c0-3.06,2.49-5.54,5.55-5.54c3.07,0,5.55,2.48,5.55,5.54c0,3.06-2.49,5.54-5.55,5.54
					C1228.29,2017.15,1225.8,2014.67,1225.8,2011.61z"/>
				<path class="st25" d="M1196.25,2011.61c0-3.06,2.49-5.54,5.55-5.54s5.55,2.48,5.55,5.54c0,3.06-2.49,5.54-5.55,5.54
					S1196.25,2014.67,1196.25,2011.61z"/>
				<path class="st25" d="M1166.7,2011.61c0-3.06,2.49-5.54,5.55-5.54c3.07,0,5.55,2.48,5.55,5.54c0,3.06-2.49,5.54-5.55,5.54
					C1169.19,2017.15,1166.7,2014.67,1166.7,2011.61z"/>
				<path class="st25" d="M1137.15,2011.61c0-3.06,2.49-5.54,5.55-5.54c3.07,0,5.55,2.48,5.55,5.54c0,3.06-2.49,5.54-5.55,5.54
					C1139.64,2017.15,1137.15,2014.67,1137.15,2011.61z"/>
				<path class="st25" d="M1107.6,2011.61c0-3.06,2.49-5.54,5.55-5.54s5.55,2.48,5.55,5.54c0,3.06-2.49,5.54-5.55,5.54
					S1107.6,2014.67,1107.6,2011.61z"/>
				<path class="st25" d="M1078.05,2011.61c0-3.06,2.49-5.54,5.55-5.54c3.07,0,5.55,2.48,5.55,5.54c0,3.06-2.49,5.54-5.55,5.54
					C1080.54,2017.15,1078.05,2014.67,1078.05,2011.61z"/>
			</g>
		</g>
		<g class="st22">
			<path class="st23" d="M729.88,509.02c-8.54,0-15.5-6.94-15.5-15.47c0-8.53,6.95-15.47,15.5-15.47c8.54,0,15.5,6.94,15.5,15.47
				C745.38,502.08,738.43,509.02,729.88,509.02z M729.88,483.82c-5.38,0-9.75,4.36-9.75,9.73c0,5.37,4.37,9.73,9.75,9.73
				c5.38,0,9.75-4.36,9.75-9.73C739.63,488.19,735.26,483.82,729.88,483.82z"/>
		</g>
		<g>
			<defs>
				<rect id="SVGID_34_" x="-82.11" y="2376.75" width="1519.74" height="819.9"/>
			</defs>
			<clipPath id="SVGID_10_">
				<use xlink:href="#SVGID_34_"  style="overflow:visible;"/>
			</clipPath>
			<g class="st3">
				<defs>
					<rect id="SVGID_36_" x="-82.11" y="2385.44" width="1519.74" height="811.2"/>
				</defs>
				<clipPath id="SVGID_12_">
					<use xlink:href="#SVGID_36_"  style="overflow:visible;"/>
				</clipPath>
				<linearGradient id="SVGID_14_" gradientUnits="userSpaceOnUse" x1="-128.7058" y1="2289.5378" x2="1349.4419" y2="3219.9124">
					<stop  offset="0" style="stop-color:#5050C1"/>
					<stop  offset="0.527" style="stop-color:#4442B7"/>
					<stop  offset="1" style="stop-color:#3F3CB2"/>
				</linearGradient>
				<rect x="-82.11" y="2290.64" style="clip-path:url(#SVGID_12_);fill:url(#SVGID_14_);" width="1515.72" height="1010.48"/>
				<path style="opacity:0.46;clip-path:url(#SVGID_12_);fill:#3F3CB2;" d="M939.21,2168.71c2.98,56.86,38.41,110.9,89.37,136.3
					c31.88,15.89,68.01,20.84,101.44,33.16c33.42,12.32,66.59,35.56,74.53,70.29c6.34,27.72-4.36,58.81,8.59,84.12
					c12.65,24.72,43.71,35.17,57.85,59.06c20.13,34.02-1.78,79.24,11.48,116.47c14.52,40.76,63.98,55.9,107.06,59.87
					c43.08,3.96,90.66,3.94,123.21,32.44c11.18,9.78,19.66,22.32,30.69,32.26c11.03,9.95,26.16,17.35,40.52,13.54
					c20.94-5.56,29.34-31.95,25.55-53.28c-6.52-36.6-36.57-64.16-67.16-85.28c-30.59-21.12-64.43-39.68-86.04-69.93
					c-37.06-51.88-28.26-122.01-37.59-185.08c-17.17-116.2-106.7-218.52-219.59-250.96c-24.37-7-51.11-11.81-68.94-29.84
					c-13.63-13.79-19.7-33.11-25.97-51.46c-13.72-40.2-54.37-81.97-98.53-52.71C962,2056.61,936.54,2117.86,939.21,2168.71z"/>
				<path style="opacity:0.15;clip-path:url(#SVGID_12_);fill:#352D90;" d="M559.66,2573.31c-11.51-27.24-32.2-47.51-56.8-58.96
					c-19.17-8.92-28.21-31.41-20.69-51.18c9.02-23.73,12.11-50.07,7.74-76.93c-3.06-18.8-9.52-36.21-18.63-51.69
					c-10.64-18.06-5.48-41.48,11.63-53.6c2.48-1.76,4.89-3.69,7.2-5.8c27.25-24.88,31.62-67.06,10.02-96.98
					c-25.03-34.67-73.67-40.58-106.2-13.84c-17.4,14.31-26.52,34.95-26.77,55.84c-0.25,21.56-16.24,39.43-37.72,41.33
					c-6.62,0.59-13.29,1.62-19.98,3.13c-75.36,17.01-125.63,90.07-114.76,166.55c9.06,63.73,56.87,111.98,115.86,124.92
					c20.87,4.58,34.25,24.8,31.33,45.98c-2.93,21.19,0.07,43.43,9.91,64.21c26.96,56.92,95.01,81.16,151.9,54.07
					C558.25,2694.35,583.19,2628.98,559.66,2573.31z"/>
			</g>
		</g>
		<rect x="14.96" y="2099.85" class="st37" width="1292.04" height="706.24"/>
	</g>
</g>
</svg>
