<?xml version="1.0" encoding="utf-8"?>
<!-- Generator: Adobe Illustrator 24.1.3, SVG Export Plug-In . SVG Version: 6.00 Build 0)  -->
<svg version="1.1" id="Capa_1" xmlns="http://www.w3.org/2000/svg" xmlns:xlink="http://www.w3.org/1999/xlink" x="0px" y="0px"
	 viewBox="0 0 511.2 757.44" style="enable-background:new 0 0 511.2 757.44;" xml:space="preserve">
<style type="text/css">
	.st0{opacity:0.32;fill:#D2D2D2;}
	.st1{fill:#5747E4;}
	.st2{clip-path:url(#SVGID_4_);}
	.st3{clip-path:url(#SVGID_10_);}
	.st4{fill:#51A5C1;}
	.st5{clip-path:url(#SVGID_16_);}
	.st6{clip-path:url(#SVGID_22_);}
	.st7{fill:#53A6C1;}
	.st8{fill:#808080;}
	.st9{fill:#6864E5;}
	.st10{fill:#FFFFFF;}
	.st11{fill:#FFFFFF;stroke:#DBDBDB;stroke-miterlimit:10;}
	.st12{opacity:0.78;}
	.st13{fill:#D2D2D2;}
	.st14{fill:#FF6680;}
	.st15{fill:none;stroke:#5747E4;stroke-miterlimit:10;}
	.st16{opacity:0.14;fill:#ACACAB;}
	.st17{fill:#ACACAB;}
	.st18{fill:none;stroke:#ACACAB;stroke-width:0.5;stroke-miterlimit:10;}
	.st19{fill:#6F6F6E;}
	.st20{clip-path:url(#SVGID_26_);}
	.st21{fill:none;stroke:#DBDBDB;stroke-width:3;stroke-miterlimit:10;}
	.st22{opacity:0.81;}
	.st23{fill:#DBDBDB;}
	.st24{opacity:0.39;fill:#D2D2D2;}
	.st25{fill:none;stroke:#ACACAB;stroke-miterlimit:10;}
	.st26{clip-path:url(#SVGID_28_);}
	.st27{clip-path:url(#SVGID_30_);fill:url(#SVGID_31_);}
	.st28{opacity:0.46;clip-path:url(#SVGID_30_);fill:#3F3CB2;}
	.st29{opacity:0.15;clip-path:url(#SVGID_30_);fill:#352D90;}
	.st30{fill:#352D90;}
	.st31{fill:#07C0D7;}
	.st32{opacity:0.46;clip-path:url(#SVGID_28_);fill:#3F3CB2;}
	.st33{fill:#5050C1;}
	.st34{fill:none;stroke:#07C0D7;stroke-miterlimit:10;}
	.st35{fill:#3F3CB2;}
	.st36{opacity:0.81;fill:#352D90;}
	.st37{fill:none;}
	.st38{clip-path:url(#SVGID_33_);}
	.st39{clip-path:url(#SVGID_35_);}
	.st40{clip-path:url(#SVGID_37_);fill:url(#SVGID_38_);}
	.st41{opacity:0.46;clip-path:url(#SVGID_37_);fill:#3F3CB2;}
	.st42{opacity:0.15;clip-path:url(#SVGID_37_);fill:#352D90;}
	.st43{opacity:0.46;clip-path:url(#SVGID_35_);fill:#3F3CB2;}
	.st44{clip-path:url(#SVGID_42_);}
	.st45{clip-path:url(#SVGID_48_);}
	.st46{clip-path:url(#SVGID_54_);}
	.st47{clip-path:url(#SVGID_60_);}
	.st48{clip-path:url(#SVGID_64_);}
	.st49{clip-path:url(#SVGID_68_);fill:#FFFFFF;}
	.st50{clip-path:url(#SVGID_68_);}
	.st51{clip-path:url(#SVGID_70_);fill:#FF668B;}
	.st52{clip-path:url(#SVGID_72_);}
	.st53{clip-path:url(#SVGID_76_);}
	.st54{clip-path:url(#SVGID_78_);fill:#FF668B;}
	.st55{clip-path:url(#SVGID_76_);fill:none;}
	.st56{clip-path:url(#SVGID_80_);}
	.st57{clip-path:url(#SVGID_82_);fill:#FF668B;}
	.st58{clip-path:url(#SVGID_80_);fill:none;}
	.st59{clip-path:url(#SVGID_84_);}
	.st60{clip-path:url(#SVGID_84_);fill:none;}
	.st61{clip-path:url(#SVGID_88_);}
	.st62{clip-path:url(#SVGID_88_);fill:none;}
	.st63{clip-path:url(#SVGID_92_);}
	.st64{clip-path:url(#SVGID_92_);fill:none;}
	.st65{clip-path:url(#SVGID_96_);}
	.st66{clip-path:url(#SVGID_96_);fill:none;}
</style>
<g>
	<path class="st11" d="M460.7,737.93H40.96c-13.92,0-25.2-11.28-25.2-25.2V62.43c0-13.92,11.28-25.2,25.2-25.2H460.7
		c13.92,0,25.2,11.28,25.2,25.2v650.3C485.9,726.65,474.62,737.93,460.7,737.93z"/>
	<g class="st12">
		<g>
			<g>
				<circle class="st13" cx="468.83" cy="43.93" r="33.92"/>
			</g>
		</g>
	</g>
	<g>
		<g>
			<g>
				<path class="st14" d="M468.84,38.4c0.05-0.11,0.09-0.18,0.12-0.25c1.38-2.71,3.56-4.41,6.55-4.96c4.34-0.79,8.5,1.61,10.07,5.73
					c0.51,1.32,0.65,2.7,0.53,4.1c-0.21,2.64-1.22,4.99-2.62,7.2c-1.45,2.28-3.24,4.27-5.22,6.09c-2.75,2.54-5.75,4.74-8.97,6.64
					c-0.33,0.19-0.63,0.2-0.96,0c-4-2.38-7.68-5.16-10.89-8.55c-1.74-1.84-3.26-3.84-4.39-6.11c-0.72-1.45-1.24-2.98-1.46-4.59
					c-0.35-2.53,0.11-4.89,1.65-6.97c1.44-1.95,3.37-3.16,5.77-3.57c4.16-0.71,8.01,1.5,9.7,5.04
					C468.76,38.27,468.79,38.31,468.84,38.4z"/>
			</g>
		</g>
	</g>
	<path class="st1" d="M349.86,712.23H179.42c-4.71,0-8.52-3.81-8.52-8.52v-29.38c0-4.71,3.81-8.52,8.52-8.52h170.44
		c4.71,0,8.52,3.81,8.52,8.52v29.38C358.38,708.42,354.56,712.23,349.86,712.23z"/>
	<g>
		<g>
			<path class="st10" d="M227.45,693.79c-0.84-0.24-1.54-0.58-2.09-1.01l0.85-1.89c1.16,0.8,2.45,1.21,3.89,1.21
				c0.75,0,1.32-0.12,1.73-0.37c0.4-0.24,0.6-0.58,0.6-1.01c0-0.38-0.18-0.69-0.55-0.9c-0.37-0.22-1.02-0.43-1.96-0.63
				c-1.05-0.22-1.9-0.48-2.52-0.78c-0.63-0.31-1.09-0.68-1.38-1.13c-0.29-0.45-0.43-1-0.43-1.66c0-0.73,0.2-1.37,0.6-1.94
				c0.4-0.57,0.97-1.01,1.69-1.33c0.73-0.32,1.56-0.48,2.52-0.48c0.85,0,1.67,0.13,2.46,0.37s1.41,0.58,1.88,1l-0.85,1.89
				c-1.1-0.8-2.26-1.21-3.47-1.21c-0.69,0-1.24,0.13-1.63,0.4c-0.4,0.27-0.6,0.63-0.6,1.1c0,0.27,0.08,0.5,0.23,0.67
				s0.41,0.33,0.77,0.47c0.36,0.14,0.86,0.28,1.52,0.42c1.54,0.34,2.65,0.78,3.32,1.31c0.67,0.53,1.01,1.27,1.01,2.21
				c0,1.13-0.44,2.03-1.31,2.68c-0.87,0.65-2.09,0.98-3.65,0.98C229.16,694.16,228.29,694.03,227.45,693.79z"/>
			<path class="st10" d="M237.02,694v-11.99h8.26v2.06h-5.68v2.8h5.34v2.06h-5.34v3.01h5.68V694H237.02z"/>
			<path class="st10" d="M256.17,694l-1.14-2.65h-5.58l-1.14,2.65h-2.67l5.51-11.99h2.13l5.51,11.99H256.17z M250.32,689.35h3.84
				l-1.92-4.49L250.32,689.35z"/>
			<path class="st10" d="M270.28,694h-2.89l-2.07-3.83c-0.17-0.29-0.37-0.51-0.61-0.64c-0.24-0.13-0.54-0.2-0.9-0.2h-1.31V694h-2.62
				v-11.99h5.51c1.4,0,2.47,0.31,3.19,0.93c0.72,0.62,1.08,1.51,1.08,2.68c0,0.91-0.25,1.67-0.76,2.28
				c-0.5,0.61-1.22,1.01-2.13,1.21c0.62,0.16,1.15,0.61,1.58,1.34L270.28,694z M266.64,686.94c0.34-0.27,0.51-0.68,0.51-1.25
				c0-0.58-0.17-1-0.51-1.26s-0.89-0.39-1.65-0.39h-2.53v3.3h2.53C265.75,687.34,266.3,687.21,266.64,686.94z"/>
			<path class="st10" d="M274.25,693.39c-0.9-0.51-1.59-1.23-2.07-2.16c-0.48-0.93-0.72-2.01-0.72-3.23s0.24-2.3,0.72-3.23
				c0.48-0.93,1.17-1.65,2.07-2.15c0.9-0.5,1.96-0.76,3.17-0.76c0.79,0,1.55,0.12,2.28,0.37c0.73,0.24,1.32,0.58,1.78,1.01
				l-0.85,1.89c-0.52-0.4-1.04-0.69-1.56-0.87c-0.52-0.18-1.05-0.27-1.61-0.27c-1.07,0-1.88,0.34-2.46,1.02
				c-0.57,0.68-0.86,1.68-0.86,2.99s0.29,2.31,0.86,3c0.57,0.69,1.39,1.03,2.46,1.03c0.56,0,1.09-0.09,1.61-0.27
				c0.52-0.18,1.03-0.47,1.56-0.87l0.85,1.89c-0.46,0.43-1.06,0.77-1.78,1.01c-0.73,0.24-1.48,0.37-2.28,0.37
				C276.2,694.16,275.15,693.9,274.25,693.39z"/>
			<path class="st10" d="M291.53,682.02h2.6V694h-2.6v-5.03H286V694h-2.6v-11.99h2.6v4.85h5.52V682.02z"/>
		</g>
	</g>
	<g>
		<path class="st1" d="M78.29,76.57c0.42,0.57,0.64,1.27,0.64,2.09c0,1.14-0.41,2.03-1.23,2.68c-0.82,0.65-1.94,0.97-3.37,0.97
			h-6.08V68.91h5.89c1.39,0,2.49,0.31,3.28,0.92s1.19,1.47,1.19,2.57c0,0.71-0.19,1.32-0.56,1.84s-0.89,0.9-1.55,1.14
			C77.27,75.61,77.87,76,78.29,76.57z M70.64,74.56h3.1c1.68,0,2.53-0.63,2.53-1.88c0-0.63-0.21-1.1-0.63-1.41s-1.05-0.46-1.9-0.46
			h-3.1V74.56z M76,79.93c0.41-0.32,0.61-0.81,0.61-1.48c0-0.67-0.21-1.17-0.62-1.5c-0.41-0.33-1.05-0.49-1.93-0.49h-3.42v3.95h3.42
			C74.95,80.41,75.6,80.25,76,79.93z"/>
		<path class="st1" d="M83.9,81.64c-0.96-0.56-1.69-1.36-2.21-2.39C81.16,78.21,80.9,77,80.9,75.6s0.26-2.61,0.77-3.64
			c0.51-1.03,1.25-1.83,2.21-2.38c0.96-0.56,2.1-0.84,3.4-0.84c1.3,0,2.43,0.28,3.39,0.84c0.96,0.56,1.69,1.35,2.2,2.38
			c0.51,1.03,0.77,2.25,0.77,3.64s-0.26,2.61-0.78,3.65c-0.52,1.04-1.26,1.84-2.21,2.39c-0.96,0.56-2.08,0.84-3.37,0.84
			C85.98,82.48,84.85,82.2,83.9,81.64z M90.17,79.25c0.69-0.85,1.04-2.06,1.04-3.65c0-1.58-0.35-2.8-1.04-3.64
			c-0.69-0.84-1.65-1.26-2.88-1.26c-1.24,0-2.21,0.42-2.9,1.26c-0.69,0.84-1.04,2.06-1.04,3.64c0,1.58,0.34,2.8,1.04,3.65
			c0.69,0.85,1.66,1.27,2.9,1.27C88.52,80.52,89.48,80.1,90.17,79.25z"/>
		<path class="st1" d="M98.79,81.64c-0.96-0.56-1.69-1.36-2.21-2.39C96.06,78.21,95.8,77,95.8,75.6s0.26-2.61,0.77-3.64
			c0.51-1.03,1.25-1.83,2.21-2.38c0.96-0.56,2.1-0.84,3.4-0.84c1.3,0,2.43,0.28,3.39,0.84c0.96,0.56,1.69,1.35,2.2,2.38
			c0.51,1.03,0.77,2.25,0.77,3.64s-0.26,2.61-0.78,3.65c-0.52,1.04-1.26,1.84-2.21,2.39c-0.96,0.56-2.08,0.84-3.37,0.84
			C100.88,82.48,99.75,82.2,98.79,81.64z M105.06,79.25c0.69-0.85,1.04-2.06,1.04-3.65c0-1.58-0.35-2.8-1.04-3.64
			c-0.69-0.84-1.65-1.26-2.88-1.26c-1.24,0-2.21,0.42-2.9,1.26c-0.69,0.84-1.04,2.06-1.04,3.64c0,1.58,0.34,2.8,1.04,3.65
			c0.69,0.85,1.66,1.27,2.9,1.27C103.41,80.52,104.37,80.1,105.06,79.25z"/>
		<path class="st1" d="M122.76,82.31h-2.98l-6.21-6.23v6.23h-2.45V68.91h2.45v5.98l5.97-5.98h2.93l-6.48,6.44L122.76,82.31z"/>
		<path class="st1" d="M138,68.91h2.3v13.39h-1.84l-7.18-9.35v9.35h-2.28V68.91h1.82l7.18,9.33V68.91z"/>
		<path class="st1" d="M145.85,81.64c-0.96-0.56-1.69-1.36-2.21-2.39c-0.52-1.04-0.78-2.25-0.78-3.65s0.26-2.61,0.77-3.64
			c0.51-1.03,1.25-1.83,2.21-2.38c0.96-0.56,2.1-0.84,3.4-0.84c1.3,0,2.43,0.28,3.39,0.84c0.96,0.56,1.69,1.35,2.2,2.38
			c0.51,1.03,0.77,2.25,0.77,3.64s-0.26,2.61-0.78,3.65c-0.52,1.04-1.26,1.84-2.21,2.39c-0.96,0.56-2.08,0.84-3.37,0.84
			C147.94,82.48,146.81,82.2,145.85,81.64z M152.12,79.25c0.69-0.85,1.04-2.06,1.04-3.65c0-1.58-0.35-2.8-1.04-3.64
			c-0.69-0.84-1.65-1.26-2.88-1.26c-1.24,0-2.21,0.42-2.9,1.26c-0.69,0.84-1.04,2.06-1.04,3.64c0,1.58,0.34,2.8,1.04,3.65
			c0.69,0.85,1.66,1.27,2.9,1.27C150.47,80.52,151.43,80.1,152.12,79.25z"/>
		<path class="st1" d="M174.69,68.91h2.34l-4.73,13.39h-1.99l-3.36-9.63l-3.38,9.63h-2l-4.71-13.39h2.47l3.33,9.97l3.5-9.97h1.73
			l3.4,10.03L174.69,68.91z"/>
	</g>
	<g>
		<path class="st1" d="M68.77,136.1c-0.79-1.11-1.19-2.73-1.19-4.85c0-2.1,0.4-3.7,1.19-4.81c0.79-1.1,1.94-1.66,3.44-1.66
			s2.65,0.55,3.44,1.66c0.79,1.11,1.19,2.71,1.19,4.81c0,2.11-0.4,3.73-1.19,4.84s-1.94,1.67-3.44,1.67S69.56,137.21,68.77,136.1z
			 M73.99,134.82c0.37-0.75,0.56-1.94,0.56-3.57c0-1.62-0.19-2.8-0.56-3.54c-0.37-0.74-0.97-1.11-1.78-1.11s-1.41,0.37-1.78,1.11
			c-0.37,0.74-0.56,1.92-0.56,3.54c0,1.63,0.19,2.82,0.56,3.57c0.37,0.75,0.97,1.13,1.78,1.13S73.62,135.57,73.99,134.82z"/>
		<path class="st1" d="M84.82,135.73h2.75v1.87h-7.83v-1.87h2.75v-8.17l-2.18,1.31l-0.92-1.69l3.76-2.27h1.66V135.73z"/>
		<path class="st1" d="M89.56,135.12h2.52v2.48h-2.52V135.12z"/>
		<path class="st19" d="M102.46,137.6v-10.78h-4.14v-1.91h10.6v1.91h-4.14v10.78H102.46z"/>
		<path class="st19" d="M115.19,128.82h2.21l-5.29,12.02h-2.27l1.6-3.58l-3.67-8.44h2.38l2.48,6.21L115.19,128.82z"/>
		<path class="st19" d="M125.66,129.16c0.59,0.38,1.06,0.93,1.39,1.63c0.33,0.7,0.49,1.51,0.49,2.42s-0.17,1.71-0.49,2.39
			c-0.33,0.68-0.79,1.21-1.38,1.58c-0.59,0.37-1.27,0.56-2.03,0.56c-0.62,0-1.18-0.13-1.67-0.4c-0.49-0.26-0.87-0.63-1.13-1.1v4.59
			h-2.25V128.8h2.21v1.33c0.26-0.49,0.65-0.87,1.14-1.14c0.5-0.27,1.06-0.4,1.7-0.4C124.39,128.59,125.06,128.78,125.66,129.16z
			 M124.69,135.27c0.4-0.49,0.59-1.17,0.59-2.06c0-0.91-0.2-1.62-0.59-2.13s-0.95-0.76-1.66-0.76c-0.72,0-1.27,0.25-1.66,0.74
			c-0.39,0.49-0.59,1.19-0.59,2.11c0,0.9,0.2,1.6,0.59,2.09c0.39,0.49,0.94,0.74,1.66,0.74C123.75,136,124.3,135.76,124.69,135.27z"
			/>
		<path class="st19" d="M137.2,133.61h-5.99c0.07,0.82,0.32,1.42,0.74,1.82c0.42,0.4,1.02,0.59,1.8,0.59c0.97,0,1.86-0.31,2.66-0.94
			l0.65,1.55c-0.41,0.34-0.92,0.61-1.54,0.81c-0.62,0.21-1.24,0.31-1.86,0.31c-1.44,0-2.58-0.41-3.41-1.22
			c-0.83-0.81-1.25-1.93-1.25-3.35c0-0.9,0.18-1.7,0.54-2.39c0.36-0.7,0.87-1.23,1.52-1.62c0.65-0.38,1.4-0.58,2.22-0.58
			c1.21,0,2.17,0.39,2.87,1.17c0.7,0.78,1.05,1.85,1.05,3.22V133.61z M131.88,130.75c-0.37,0.38-0.59,0.94-0.68,1.66h4.07
			c-0.02-0.73-0.2-1.29-0.54-1.67c-0.34-0.38-0.8-0.57-1.4-0.57S132.25,130.36,131.88,130.75z"/>
	</g>
	<g>
		<path class="st1" d="M68.77,266.93c-0.79-1.11-1.19-2.73-1.19-4.85c0-2.1,0.4-3.7,1.19-4.81c0.79-1.1,1.94-1.66,3.44-1.66
			s2.65,0.55,3.44,1.66c0.79,1.1,1.19,2.71,1.19,4.81c0,2.11-0.4,3.73-1.19,4.84c-0.79,1.12-1.94,1.67-3.44,1.67
			S69.56,268.04,68.77,266.93z M73.99,265.65c0.37-0.75,0.56-1.94,0.56-3.57c0-1.62-0.19-2.8-0.56-3.54
			c-0.37-0.74-0.97-1.11-1.78-1.11s-1.41,0.37-1.78,1.11c-0.37,0.74-0.56,1.92-0.56,3.54c0,1.63,0.19,2.82,0.56,3.57
			c0.37,0.75,0.97,1.13,1.78,1.13S73.62,266.4,73.99,265.65z"/>
		<path class="st1" d="M87.54,266.56v1.87h-8.53v-1.71l4.32-4.64c0.5-0.55,0.87-1.06,1.11-1.52c0.23-0.46,0.35-0.92,0.35-1.38
			c0-0.58-0.17-1.01-0.49-1.3c-0.33-0.29-0.81-0.44-1.45-0.44c-1.14,0-2.29,0.44-3.44,1.31l-0.77-1.69c0.5-0.44,1.15-0.8,1.94-1.07
			c0.79-0.27,1.57-0.4,2.37-0.4c1.27,0,2.28,0.31,3.02,0.94c0.74,0.62,1.12,1.46,1.12,2.52c0,0.73-0.16,1.42-0.47,2.06
			c-0.31,0.64-0.84,1.36-1.58,2.15l-3.11,3.31H87.54z"/>
		<path class="st1" d="M89.58,265.94h2.52v2.48h-2.52V265.94z"/>
		<path class="st19" d="M115.46,255.74h2.21l-4.48,12.69h-1.89l-3.19-9.13l-3.2,9.13h-1.89l-4.46-12.69h2.34l3.15,9.45l3.31-9.45
			H109l3.22,9.5L115.46,255.74z"/>
		<path class="st19" d="M126.84,260.31c0.52,0.6,0.77,1.51,0.77,2.72v5.4h-2.25v-5.27c0-0.68-0.13-1.18-0.39-1.49
			c-0.26-0.31-0.66-0.47-1.21-0.47c-0.65,0-1.17,0.2-1.56,0.61s-0.58,0.95-0.58,1.64v4.99h-2.25v-12.69h2.25v5.11
			c0.3-0.47,0.7-0.83,1.2-1.07c0.5-0.25,1.05-0.37,1.67-0.37C125.53,259.41,126.32,259.71,126.84,260.31z"/>
		<path class="st19" d="M137.71,264.43h-5.99c0.07,0.82,0.32,1.42,0.74,1.82c0.42,0.4,1.02,0.59,1.8,0.59
			c0.97,0,1.86-0.31,2.66-0.94l0.65,1.55c-0.41,0.34-0.92,0.61-1.54,0.81s-1.24,0.31-1.86,0.31c-1.44,0-2.58-0.41-3.41-1.22
			c-0.83-0.82-1.25-1.93-1.25-3.35c0-0.9,0.18-1.7,0.54-2.39c0.36-0.7,0.87-1.24,1.52-1.62c0.65-0.38,1.4-0.58,2.22-0.58
			c1.21,0,2.17,0.39,2.87,1.17c0.7,0.78,1.05,1.85,1.05,3.22V264.43z M132.39,261.57c-0.37,0.38-0.59,0.94-0.68,1.66h4.07
			c-0.02-0.73-0.2-1.29-0.54-1.67s-0.8-0.57-1.4-0.57S132.75,261.19,132.39,261.57z"/>
		<path class="st19" d="M145.43,261.28l-1.31,0.13c-1.49,0.16-2.23,0.91-2.23,2.27v4.75h-2.25v-8.8h2.14v1.55
			c0.46-1.06,1.4-1.63,2.83-1.73l0.68-0.05L145.43,261.28z"/>
		<path class="st19" d="M154.16,264.43h-5.99c0.07,0.82,0.32,1.42,0.74,1.82c0.42,0.4,1.02,0.59,1.8,0.59
			c0.97,0,1.86-0.31,2.66-0.94l0.65,1.55c-0.41,0.34-0.92,0.61-1.54,0.81s-1.24,0.31-1.86,0.31c-1.44,0-2.58-0.41-3.41-1.22
			c-0.83-0.82-1.25-1.93-1.25-3.35c0-0.9,0.18-1.7,0.54-2.39c0.36-0.7,0.87-1.24,1.52-1.62c0.65-0.38,1.4-0.58,2.22-0.58
			c1.21,0,2.17,0.39,2.87,1.17c0.7,0.78,1.05,1.85,1.05,3.22V264.43z M148.84,261.57c-0.37,0.38-0.59,0.94-0.68,1.66h4.07
			c-0.02-0.73-0.2-1.29-0.54-1.67s-0.8-0.57-1.4-0.57S149.21,261.19,148.84,261.57z"/>
	</g>
	<g>
		<path class="st1" d="M68.77,385.68c-0.79-1.11-1.19-2.73-1.19-4.85c0-2.1,0.4-3.7,1.19-4.81c0.79-1.1,1.94-1.66,3.44-1.66
			s2.65,0.55,3.44,1.66c0.79,1.1,1.19,2.71,1.19,4.81c0,2.11-0.4,3.73-1.19,4.84c-0.79,1.12-1.94,1.67-3.44,1.67
			S69.56,386.79,68.77,385.68z M73.99,384.41c0.37-0.75,0.56-1.94,0.56-3.57c0-1.62-0.19-2.8-0.56-3.54
			c-0.37-0.74-0.97-1.11-1.78-1.11s-1.41,0.37-1.78,1.11c-0.37,0.74-0.56,1.92-0.56,3.54c0,1.63,0.19,2.82,0.56,3.57
			c0.37,0.75,0.97,1.13,1.78,1.13S73.62,385.16,73.99,384.41z"/>
		<path class="st1" d="M86.78,381.76c0.4,0.53,0.6,1.2,0.6,1.99c0,1.1-0.41,1.98-1.21,2.62c-0.81,0.64-1.91,0.96-3.3,0.96
			c-0.85,0-1.67-0.13-2.46-0.4c-0.79-0.26-1.44-0.62-1.95-1.08l0.77-1.69c1.1,0.88,2.29,1.31,3.55,1.31c0.8,0,1.4-0.16,1.8-0.48
			c0.4-0.32,0.59-0.8,0.59-1.45c0-0.64-0.2-1.11-0.6-1.41c-0.4-0.31-1.02-0.46-1.86-0.46h-1.67v-1.84h1.37
			c1.64,0,2.47-0.62,2.47-1.85c0-0.58-0.18-1.02-0.53-1.33c-0.35-0.31-0.85-0.47-1.5-0.47c-0.56,0-1.14,0.11-1.72,0.33
			c-0.58,0.22-1.15,0.55-1.7,0.98l-0.77-1.69c0.5-0.46,1.15-0.82,1.94-1.08c0.79-0.26,1.59-0.4,2.4-0.4c1.25,0,2.24,0.3,2.99,0.91
			c0.74,0.61,1.12,1.43,1.12,2.46c-0.01,0.71-0.2,1.32-0.55,1.85c-0.35,0.52-0.84,0.9-1.47,1.13
			C85.8,380.86,86.37,381.23,86.78,381.76z"/>
		<path class="st1" d="M89.56,384.7h2.52v2.48h-2.52V384.7z"/>
		<path class="st19" d="M115.44,374.5h2.21l-4.48,12.69h-1.89l-3.19-9.13l-3.2,9.13H103l-4.46-12.69h2.34l3.15,9.45l3.31-9.45h1.64
			l3.22,9.5L115.44,374.5z"/>
		<path class="st19" d="M126.82,379.07c0.52,0.6,0.77,1.51,0.77,2.72v5.4h-2.25v-5.27c0-0.68-0.13-1.18-0.39-1.49
			c-0.26-0.31-0.66-0.47-1.21-0.47c-0.65,0-1.17,0.2-1.56,0.61s-0.58,0.95-0.58,1.64v4.99h-2.25V374.5h2.25v5.11
			c0.3-0.47,0.7-0.83,1.2-1.07c0.5-0.25,1.05-0.37,1.67-0.37C125.52,378.17,126.3,378.47,126.82,379.07z"/>
		<path class="st19" d="M137.69,383.19h-5.99c0.07,0.82,0.32,1.42,0.74,1.82c0.42,0.4,1.02,0.59,1.8,0.59
			c0.97,0,1.86-0.31,2.66-0.94l0.65,1.55c-0.41,0.34-0.92,0.61-1.54,0.81s-1.24,0.31-1.86,0.31c-1.44,0-2.58-0.41-3.41-1.22
			c-0.83-0.82-1.25-1.93-1.25-3.35c0-0.9,0.18-1.7,0.54-2.39c0.36-0.7,0.87-1.24,1.52-1.62c0.65-0.38,1.4-0.58,2.22-0.58
			c1.21,0,2.17,0.39,2.87,1.17c0.7,0.78,1.05,1.85,1.05,3.22V383.19z M132.37,380.33c-0.37,0.38-0.59,0.94-0.68,1.66h4.07
			c-0.02-0.73-0.2-1.29-0.54-1.67s-0.8-0.57-1.4-0.57S132.74,379.94,132.37,380.33z"/>
		<path class="st19" d="M147.08,379.07c0.52,0.6,0.77,1.51,0.77,2.72v5.4h-2.25v-5.27c0-0.68-0.13-1.18-0.39-1.49
			c-0.26-0.31-0.66-0.47-1.21-0.47c-0.65,0-1.17,0.2-1.56,0.61s-0.58,0.95-0.58,1.64v4.99h-2.25v-8.8h2.2v1.31
			c0.3-0.49,0.7-0.87,1.21-1.13c0.5-0.26,1.07-0.4,1.71-0.4C145.78,378.17,146.57,378.47,147.08,379.07z"/>
		<path class="st19" d="M152.16,382.7c0-0.66,0.12-1.22,0.36-1.67c0.24-0.46,0.59-0.95,1.04-1.49c0.35-0.42,0.61-0.77,0.77-1.06
			c0.17-0.29,0.25-0.61,0.25-0.97c0-0.41-0.14-0.73-0.43-0.96c-0.29-0.23-0.69-0.35-1.21-0.35s-1.06,0.11-1.63,0.34
			c-0.57,0.23-1.13,0.55-1.68,0.97l-0.76-1.69c0.49-0.44,1.13-0.8,1.91-1.06c0.78-0.26,1.56-0.4,2.34-0.4
			c0.73,0,1.38,0.12,1.94,0.37s1,0.59,1.32,1.04c0.32,0.45,0.48,0.96,0.48,1.54c0,0.62-0.15,1.17-0.45,1.64
			c-0.3,0.47-0.73,0.98-1.3,1.55c-0.49,0.53-0.86,0.96-1.11,1.3c-0.25,0.34-0.4,0.72-0.46,1.15l-0.07,0.49h-1.33V382.7z
			 M151.6,387.19v-2.48h2.52v2.48H151.6z"/>
	</g>
	<g>
		<path class="st1" d="M68.77,528.68c-0.79-1.11-1.19-2.73-1.19-4.85c0-2.1,0.4-3.7,1.19-4.81s1.94-1.66,3.44-1.66
			s2.65,0.55,3.44,1.66s1.19,2.71,1.19,4.81c0,2.11-0.4,3.72-1.19,4.84c-0.79,1.12-1.94,1.67-3.44,1.67S69.56,529.79,68.77,528.68z
			 M73.99,527.4c0.37-0.75,0.56-1.94,0.56-3.57c0-1.62-0.19-2.8-0.56-3.54c-0.37-0.74-0.97-1.11-1.78-1.11s-1.41,0.37-1.78,1.11
			c-0.37,0.74-0.56,1.92-0.56,3.54c0,1.63,0.19,2.82,0.56,3.57c0.37,0.75,0.97,1.13,1.78,1.13S73.62,528.15,73.99,527.4z"/>
		<path class="st1" d="M88.01,525.89v1.8h-1.78v2.48h-2.27v-2.48h-5.51v-1.71l5.9-8.5h1.87v8.41H88.01z M80.61,525.89h3.35v-4.84
			L80.61,525.89z"/>
		<path class="st1" d="M89.56,527.69h2.52v2.48h-2.52V527.69z"/>
		<path class="st19" d="M108.26,517.49h2.27v12.69h-2.27v-5.51h-6.5v5.51h-2.29v-12.69h2.29v5.31h6.5V517.49z"/>
		<path class="st19" d="M114.8,529.77c-0.68-0.37-1.2-0.91-1.57-1.6c-0.37-0.7-0.56-1.51-0.56-2.43c0-0.92,0.19-1.73,0.56-2.42
			c0.37-0.69,0.9-1.22,1.57-1.59c0.68-0.37,1.47-0.56,2.37-0.56s1.69,0.19,2.37,0.56c0.68,0.37,1.2,0.9,1.57,1.59
			c0.37,0.69,0.55,1.5,0.55,2.42c0,0.93-0.18,1.73-0.55,2.43c-0.37,0.7-0.89,1.23-1.57,1.6c-0.68,0.37-1.47,0.56-2.37,0.56
			S115.48,530.14,114.8,529.77z M118.83,527.86c0.38-0.48,0.58-1.19,0.58-2.13c0-0.92-0.19-1.63-0.58-2.11
			c-0.38-0.49-0.94-0.73-1.66-0.73c-0.72,0-1.28,0.24-1.67,0.73c-0.39,0.48-0.58,1.19-0.58,2.11c0,0.94,0.19,1.64,0.58,2.13
			c0.38,0.48,0.94,0.72,1.66,0.72C117.88,528.58,118.44,528.34,118.83,527.86z"/>
		<path class="st19" d="M135.33,521.38h2.2l-3.46,8.8h-1.96l-2.16-5.67l-2.11,5.67h-1.94l-3.47-8.8h2.3l2.25,6.12l2.25-6.12h1.62
			l2.25,6.16L135.33,521.38z"/>
		<path class="st19" d="M156.61,522.05c0.49,0.59,0.74,1.5,0.74,2.73v5.4h-2.25v-5.31c0-0.67-0.11-1.16-0.34-1.47
			s-0.59-0.46-1.1-0.46c-0.6,0-1.07,0.2-1.4,0.61s-0.5,0.98-0.5,1.71v4.91h-2.25v-5.31c0-0.67-0.11-1.16-0.33-1.47
			c-0.22-0.31-0.59-0.46-1.11-0.46c-0.59,0-1.05,0.2-1.39,0.61s-0.5,0.98-0.5,1.71v4.91h-2.25v-8.8h2.2v1.24
			c0.26-0.48,0.63-0.84,1.1-1.09c0.47-0.24,1-0.37,1.6-0.37c1.33,0,2.21,0.55,2.65,1.65c0.28-0.52,0.67-0.92,1.19-1.21
			c0.52-0.29,1.09-0.44,1.73-0.44C155.37,521.16,156.12,521.46,156.61,522.05z"/>
		<path class="st19" d="M166.26,522.06c0.6,0.6,0.9,1.53,0.9,2.77v5.35h-2.14v-1.35c-0.2,0.47-0.52,0.83-0.96,1.1
			s-0.94,0.39-1.52,0.39c-0.59,0-1.12-0.12-1.6-0.36s-0.86-0.57-1.13-0.99c-0.28-0.42-0.41-0.89-0.41-1.4c0-0.65,0.16-1.16,0.5-1.53
			c0.33-0.37,0.87-0.64,1.61-0.81c0.74-0.17,1.77-0.25,3.08-0.25h0.45v-0.41c0-0.6-0.13-1.03-0.39-1.29
			c-0.26-0.26-0.69-0.4-1.29-0.4c-0.47,0-0.96,0.08-1.47,0.24c-0.51,0.16-1.01,0.39-1.5,0.68l-0.63-1.55
			c0.49-0.31,1.09-0.57,1.78-0.77c0.7-0.2,1.36-0.3,1.98-0.3C164.74,521.16,165.66,521.46,166.26,522.06z M164.45,528.1
			c0.38-0.4,0.57-0.92,0.57-1.56v-0.38h-0.32c-0.8,0-1.43,0.04-1.87,0.11c-0.44,0.07-0.76,0.2-0.95,0.38
			c-0.19,0.18-0.29,0.43-0.29,0.74c0,0.38,0.13,0.7,0.4,0.95c0.26,0.25,0.6,0.37,1.01,0.37C163.58,528.7,164.07,528.5,164.45,528.1z
			"/>
		<path class="st19" d="M177,522.06c0.52,0.6,0.77,1.51,0.77,2.72v5.4h-2.25v-5.28c0-0.68-0.13-1.18-0.39-1.49
			c-0.26-0.31-0.66-0.47-1.21-0.47c-0.65,0-1.17,0.2-1.56,0.61s-0.58,0.96-0.58,1.64v4.99h-2.25v-8.8h2.2v1.31
			c0.3-0.49,0.7-0.87,1.21-1.13c0.5-0.26,1.07-0.39,1.71-0.39C175.7,521.16,176.48,521.46,177,522.06z"/>
		<path class="st19" d="M186.33,521.39h2.21l-5.29,12.03h-2.27l1.6-3.58l-3.67-8.44h2.38l2.48,6.21L186.33,521.39z"/>
		<path class="st19" d="M191.51,525.7c0-0.66,0.12-1.22,0.36-1.67c0.24-0.46,0.59-0.96,1.04-1.49c0.35-0.42,0.61-0.77,0.77-1.06
			c0.17-0.29,0.25-0.61,0.25-0.97c0-0.41-0.14-0.73-0.43-0.96c-0.29-0.23-0.69-0.35-1.21-0.35s-1.06,0.11-1.63,0.34
			s-1.13,0.55-1.68,0.97l-0.76-1.69c0.49-0.44,1.13-0.8,1.91-1.06c0.78-0.26,1.56-0.39,2.34-0.39c0.73,0,1.38,0.12,1.94,0.37
			s1,0.59,1.32,1.04c0.32,0.45,0.48,0.96,0.48,1.54c0,0.63-0.15,1.17-0.45,1.64c-0.3,0.47-0.73,0.98-1.3,1.55
			c-0.49,0.53-0.86,0.96-1.11,1.3c-0.25,0.34-0.4,0.72-0.46,1.15l-0.07,0.49h-1.33V525.7z M190.95,530.18v-2.48h2.52v2.48H190.95z"
			/>
	</g>
	<g>
		<path class="st19" d="M104.45,171.28h1.21v10.58h-1.21v-4.84h-6.33v4.84h-1.21v-10.58h1.21v4.68h6.33V171.28z"/>
		<path class="st19" d="M109.38,181.49c-0.52-0.31-0.93-0.75-1.21-1.33c-0.29-0.58-0.43-1.24-0.43-2c0-0.76,0.14-1.43,0.43-2
			c0.28-0.58,0.69-1.02,1.21-1.33c0.52-0.31,1.13-0.47,1.82-0.47c0.69,0,1.3,0.16,1.83,0.47c0.53,0.31,0.94,0.75,1.22,1.33
			s0.43,1.24,0.43,2c0,0.76-0.14,1.43-0.43,2s-0.69,1.02-1.22,1.33c-0.53,0.31-1.14,0.47-1.83,0.47
			C110.51,181.96,109.91,181.8,109.38,181.49z M112.86,180.24c0.38-0.47,0.58-1.17,0.58-2.08c0-0.89-0.2-1.58-0.58-2.06
			c-0.39-0.48-0.94-0.73-1.65-0.73s-1.26,0.24-1.65,0.73c-0.39,0.49-0.58,1.17-0.58,2.06c0,0.9,0.19,1.59,0.58,2.07
			c0.38,0.48,0.94,0.72,1.66,0.72C111.92,180.95,112.48,180.71,112.86,180.24z"/>
		<path class="st19" d="M120.43,180.94l-0.06,0.96c-0.23,0.04-0.48,0.06-0.75,0.06c-0.88,0-1.54-0.23-1.99-0.69
			c-0.44-0.46-0.67-1.1-0.67-1.92v-3.84h-1.42v-0.96h1.42v-2.22h1.22v2.22h2.07v0.96h-2.07v3.75c0,1.15,0.53,1.72,1.59,1.72
			C119.99,180.98,120.21,180.97,120.43,180.94z"/>
		<path class="st19" d="M127.85,178.39h-5.34c0.04,0.85,0.27,1.49,0.69,1.93c0.42,0.43,1.01,0.65,1.78,0.65
			c0.85,0,1.63-0.29,2.34-0.87l0.4,0.88c-0.32,0.3-0.73,0.54-1.23,0.71s-1.01,0.26-1.53,0.26c-1.14,0-2.04-0.33-2.69-1.01
			c-0.65-0.67-0.98-1.59-0.98-2.77c0-0.75,0.15-1.41,0.44-1.99s0.7-1.02,1.22-1.34c0.52-0.32,1.12-0.48,1.79-0.48
			c0.97,0,1.73,0.32,2.28,0.95s0.83,1.51,0.83,2.62V178.39z M123.23,175.91c-0.39,0.4-0.61,0.97-0.68,1.7h4.25
			c-0.02-0.74-0.21-1.31-0.56-1.7c-0.35-0.4-0.84-0.59-1.47-0.59C124.12,175.31,123.61,175.51,123.23,175.91z"/>
		<path class="st19" d="M129.71,181.85v-10.58h1.21v10.58H129.71z"/>
		<path class="st19" d="M132.82,181.01l0.41-0.9c0.39,0.31,0.79,0.53,1.19,0.67c0.41,0.13,0.86,0.2,1.37,0.2
			c0.54,0,0.95-0.09,1.24-0.28c0.29-0.18,0.43-0.45,0.43-0.8c0-0.29-0.1-0.52-0.29-0.69s-0.5-0.31-0.94-0.41l-1.23-0.29
			c-0.62-0.14-1.1-0.38-1.43-0.72c-0.33-0.34-0.49-0.76-0.49-1.26c0-0.65,0.25-1.18,0.76-1.58c0.51-0.4,1.19-0.6,2.04-0.6
			c0.51,0,1,0.08,1.46,0.25s0.85,0.4,1.16,0.71l-0.41,0.89c-0.67-0.57-1.4-0.86-2.21-0.86c-0.51,0-0.91,0.1-1.19,0.29
			c-0.29,0.19-0.43,0.47-0.43,0.82c0,0.29,0.09,0.52,0.26,0.7s0.46,0.31,0.85,0.4l1.25,0.3c0.68,0.16,1.18,0.4,1.51,0.73
			c0.33,0.33,0.5,0.75,0.5,1.27c0,0.64-0.26,1.15-0.77,1.53s-1.22,0.57-2.11,0.57C134.51,181.96,133.54,181.64,132.82,181.01z"/>
	</g>
	<g>
		<path class="st19" d="M105.99,214.66l-1.17-2.71H99.3l-1.17,2.71h-1.26l4.65-10.58h1.06l4.65,10.58H105.99z M99.74,210.92h4.65
			l-2.33-5.42L99.74,210.92z"/>
		<path class="st19" d="M114.08,207.65c0.49,0.32,0.87,0.77,1.14,1.34c0.27,0.58,0.41,1.24,0.41,2s-0.14,1.42-0.41,1.99
			c-0.27,0.57-0.65,1-1.13,1.31c-0.48,0.31-1.05,0.47-1.7,0.47c-0.57,0-1.07-0.13-1.49-0.38c-0.43-0.25-0.75-0.61-0.97-1.07v4.04
			h-1.21v-10h1.21v1.26c0.22-0.46,0.54-0.82,0.97-1.07c0.42-0.25,0.92-0.38,1.49-0.38C113.02,207.17,113.59,207.33,114.08,207.65z
			 M113.79,213.04c0.39-0.48,0.58-1.16,0.58-2.04s-0.19-1.57-0.58-2.06s-0.94-0.74-1.65-0.74c-0.71,0-1.26,0.24-1.64,0.72
			c-0.39,0.48-0.58,1.17-0.58,2.05c0,0.89,0.19,1.58,0.58,2.06c0.38,0.49,0.93,0.73,1.64,0.73
			C112.85,213.76,113.4,213.52,113.79,213.04z"/>
		<path class="st19" d="M122.56,207.88c0.46,0.47,0.68,1.2,0.68,2.17v4.61h-1.19v-1.25c-0.19,0.43-0.48,0.76-0.87,1
			c-0.39,0.23-0.84,0.35-1.35,0.35c-0.47,0-0.9-0.1-1.3-0.29c-0.4-0.19-0.71-0.46-0.94-0.79s-0.34-0.71-0.34-1.13
			c0-0.55,0.14-0.98,0.42-1.28c0.28-0.3,0.74-0.52,1.38-0.66c0.64-0.13,1.53-0.2,2.67-0.2h0.33v-0.5c0-0.61-0.13-1.05-0.38-1.33
			s-0.65-0.41-1.21-0.41c-0.84,0-1.68,0.26-2.5,0.78l-0.41-0.88c0.38-0.27,0.84-0.49,1.37-0.65c0.53-0.17,1.05-0.25,1.55-0.25
			C121.41,207.17,122.1,207.41,122.56,207.88z M121.48,213.19c0.39-0.4,0.58-0.93,0.58-1.57v-0.43h-0.27
			c-0.88,0-1.55,0.04-2.01,0.11c-0.46,0.08-0.79,0.2-0.98,0.38c-0.2,0.17-0.29,0.43-0.29,0.77c0,0.39,0.14,0.71,0.43,0.97
			s0.64,0.38,1.07,0.38C120.6,213.8,121.1,213.6,121.48,213.19z"/>
		<path class="st19" d="M129.68,208.22l-0.79,0.07c-0.75,0.07-1.29,0.31-1.63,0.71c-0.33,0.4-0.5,0.9-0.5,1.49v4.17h-1.21v-7.3h1.19
			v1.27c0.41-0.85,1.21-1.32,2.42-1.42l0.44-0.03L129.68,208.22z"/>
		<path class="st19" d="M135.36,213.74l-0.06,0.96c-0.23,0.04-0.48,0.06-0.75,0.06c-0.88,0-1.54-0.23-1.99-0.69
			c-0.44-0.46-0.67-1.1-0.67-1.92v-3.84h-1.42v-0.96h1.42v-2.22h1.22v2.22h2.07v0.96h-2.07v3.75c0,1.15,0.53,1.72,1.59,1.72
			C134.92,213.79,135.14,213.77,135.36,213.74z"/>
		<path class="st19" d="M147.23,210.07v4.59h-1.21v-4.53c0-0.67-0.12-1.16-0.35-1.47c-0.24-0.31-0.61-0.46-1.13-0.46
			c-0.61,0-1.09,0.21-1.44,0.62s-0.52,0.97-0.52,1.68v4.17h-1.21v-4.53c0-0.68-0.12-1.17-0.36-1.48c-0.24-0.3-0.62-0.46-1.14-0.46
			c-0.61,0-1.09,0.21-1.44,0.62c-0.35,0.41-0.53,0.97-0.53,1.68v4.17h-1.21v-7.3h1.2v1.15c0.22-0.43,0.52-0.76,0.92-0.99
			c0.39-0.23,0.84-0.35,1.35-0.35c1.13,0,1.88,0.48,2.24,1.44c0.21-0.45,0.53-0.8,0.96-1.06c0.43-0.25,0.92-0.38,1.47-0.38
			C146.42,207.17,147.23,208.14,147.23,210.07z"/>
		<path class="st19" d="M155.64,211.19h-5.34c0.04,0.85,0.27,1.49,0.69,1.93c0.42,0.43,1.01,0.65,1.78,0.65
			c0.85,0,1.63-0.29,2.34-0.87l0.4,0.88c-0.32,0.3-0.73,0.54-1.23,0.71s-1.01,0.26-1.53,0.26c-1.14,0-2.04-0.33-2.69-1.01
			c-0.65-0.67-0.98-1.59-0.98-2.77c0-0.75,0.15-1.41,0.44-1.99s0.7-1.02,1.22-1.34c0.52-0.32,1.12-0.48,1.79-0.48
			c0.97,0,1.73,0.32,2.28,0.95s0.83,1.51,0.83,2.62V211.19z M151.02,208.72c-0.39,0.4-0.61,0.97-0.68,1.7h4.25
			c-0.02-0.74-0.21-1.31-0.56-1.7c-0.35-0.4-0.84-0.59-1.47-0.59C151.91,208.12,151.4,208.32,151.02,208.72z"/>
		<path class="st19" d="M163.8,210.07v4.59h-1.21v-4.51c0-0.68-0.13-1.17-0.4-1.49c-0.27-0.31-0.69-0.46-1.27-0.46
			c-0.67,0-1.21,0.21-1.6,0.62s-0.6,0.96-0.6,1.67v4.18h-1.21v-7.3h1.2v1.2c0.24-0.45,0.57-0.79,1-1.03
			c0.43-0.23,0.92-0.35,1.47-0.35C162.93,207.17,163.8,208.14,163.8,210.07z"/>
		<path class="st19" d="M169.97,213.74l-0.06,0.96c-0.23,0.04-0.48,0.06-0.75,0.06c-0.88,0-1.54-0.23-1.99-0.69
			c-0.44-0.46-0.67-1.1-0.67-1.92v-3.84h-1.42v-0.96h1.42v-2.22h1.22v2.22h2.07v0.96h-2.07v3.75c0,1.15,0.53,1.72,1.59,1.72
			C169.53,213.79,169.75,213.77,169.97,213.74z"/>
	</g>
	<g>
		<path class="st19" d="M319.35,216.66H318l-1.8-3.39c-0.22-0.41-0.48-0.69-0.77-0.85s-0.7-0.23-1.21-0.23h-1.98v4.47h-1.21v-10.58
			h4.35c1.15,0,2.03,0.25,2.63,0.77c0.6,0.51,0.91,1.26,0.91,2.25c0,0.82-0.23,1.48-0.7,1.99s-1.13,0.82-1.99,0.95
			c0.27,0.08,0.51,0.21,0.71,0.41c0.2,0.19,0.39,0.45,0.56,0.76L319.35,216.66z M315.27,211.17c0.82,0,1.43-0.17,1.84-0.51
			c0.4-0.34,0.61-0.86,0.61-1.54c0-0.68-0.2-1.19-0.6-1.51c-0.4-0.33-1.02-0.5-1.85-0.5h-3.03v4.06H315.27z"/>
		<path class="st19" d="M327.33,213.19h-5.34c0.04,0.85,0.27,1.49,0.69,1.93c0.42,0.43,1.01,0.65,1.78,0.65
			c0.85,0,1.63-0.29,2.34-0.87l0.4,0.88c-0.32,0.3-0.73,0.54-1.23,0.71s-1.01,0.26-1.53,0.26c-1.14,0-2.04-0.33-2.69-1.01
			c-0.65-0.67-0.98-1.59-0.98-2.77c0-0.75,0.15-1.41,0.44-1.99s0.7-1.02,1.22-1.34c0.52-0.32,1.12-0.48,1.79-0.48
			c0.97,0,1.73,0.32,2.28,0.95s0.83,1.51,0.83,2.62V213.19z M322.71,210.72c-0.39,0.4-0.61,0.97-0.68,1.7h4.25
			c-0.02-0.74-0.21-1.31-0.56-1.7c-0.35-0.4-0.84-0.59-1.47-0.59C323.6,210.12,323.09,210.32,322.71,210.72z"/>
		<path class="st19" d="M328.74,215.82l0.41-0.9c0.39,0.31,0.79,0.53,1.19,0.67c0.41,0.13,0.86,0.2,1.37,0.2
			c0.54,0,0.95-0.09,1.24-0.28c0.29-0.18,0.43-0.45,0.43-0.8c0-0.29-0.1-0.52-0.29-0.69s-0.5-0.31-0.94-0.41l-1.23-0.29
			c-0.62-0.14-1.1-0.38-1.43-0.72c-0.33-0.34-0.49-0.76-0.49-1.26c0-0.65,0.25-1.18,0.76-1.58c0.51-0.4,1.19-0.6,2.04-0.6
			c0.51,0,1,0.08,1.46,0.25s0.85,0.4,1.16,0.71l-0.41,0.89c-0.67-0.57-1.4-0.86-2.21-0.86c-0.51,0-0.91,0.1-1.19,0.29
			c-0.29,0.19-0.43,0.47-0.43,0.82c0,0.29,0.09,0.52,0.26,0.7s0.46,0.31,0.85,0.4l1.25,0.3c0.68,0.16,1.18,0.4,1.51,0.73
			c0.33,0.33,0.5,0.75,0.5,1.27c0,0.64-0.26,1.15-0.77,1.53s-1.22,0.57-2.11,0.57C330.44,216.76,329.46,216.45,328.74,215.82z"/>
		<path class="st19" d="M337.68,216.3c-0.52-0.31-0.93-0.75-1.21-1.33c-0.29-0.58-0.43-1.24-0.43-2c0-0.76,0.14-1.43,0.43-2
			c0.28-0.58,0.69-1.02,1.21-1.33c0.52-0.31,1.13-0.47,1.82-0.47c0.69,0,1.3,0.16,1.83,0.47c0.53,0.31,0.94,0.75,1.22,1.33
			s0.43,1.24,0.43,2c0,0.76-0.14,1.43-0.43,2s-0.69,1.02-1.22,1.33c-0.53,0.31-1.14,0.47-1.83,0.47
			C338.81,216.76,338.2,216.61,337.68,216.3z M341.16,215.04c0.38-0.47,0.58-1.17,0.58-2.08c0-0.89-0.2-1.58-0.58-2.06
			c-0.39-0.48-0.94-0.73-1.65-0.73s-1.26,0.24-1.65,0.73c-0.39,0.49-0.58,1.17-0.58,2.06c0,0.9,0.19,1.59,0.58,2.07
			c0.38,0.48,0.94,0.72,1.66,0.72C340.22,215.76,340.77,215.52,341.16,215.04z"/>
		<path class="st19" d="M349.01,210.22l-0.79,0.07c-0.75,0.07-1.29,0.31-1.63,0.71c-0.33,0.4-0.5,0.9-0.5,1.49v4.17h-1.21v-7.3h1.19
			v1.27c0.41-0.85,1.21-1.32,2.42-1.42l0.44-0.03L349.01,210.22z"/>
		<path class="st19" d="M354.69,215.74l-0.06,0.96c-0.23,0.04-0.48,0.06-0.75,0.06c-0.88,0-1.54-0.23-1.99-0.69
			c-0.44-0.46-0.67-1.1-0.67-1.92v-3.84h-1.42v-0.96h1.42v-2.22h1.22v2.22h2.07v0.96h-2.07v3.75c0,1.15,0.53,1.72,1.59,1.72
			C354.25,215.79,354.47,215.77,354.69,215.74z"/>
	</g>
	<g>
		<path class="st19" d="M317.8,171.68h1.26l-4.62,10.57h-1.06l-4.62-10.57h1.29l3.87,9.03L317.8,171.68z"/>
		<path class="st19" d="M320.17,171.79h1.47v1.36h-1.47V171.79z M320.29,182.26v-7.3h1.21v7.3H320.29z"/>
		<path class="st19" d="M323.84,182.26v-10.57h1.21v10.57H323.84z"/>
		<path class="st19" d="M327.4,182.26v-10.57h1.21v10.57H327.4z"/>
		<path class="st19" d="M336,175.49c0.46,0.47,0.68,1.2,0.68,2.17v4.61h-1.19v-1.24c-0.19,0.43-0.48,0.76-0.87,1
			c-0.39,0.23-0.84,0.35-1.35,0.35c-0.47,0-0.9-0.1-1.3-0.29s-0.71-0.46-0.94-0.79s-0.34-0.71-0.34-1.13c0-0.55,0.14-0.98,0.42-1.28
			c0.28-0.3,0.74-0.52,1.38-0.66c0.64-0.13,1.53-0.2,2.67-0.2h0.33v-0.5c0-0.61-0.13-1.05-0.38-1.33s-0.65-0.41-1.21-0.41
			c-0.84,0-1.68,0.26-2.5,0.78l-0.41-0.88c0.38-0.27,0.84-0.49,1.37-0.65c0.53-0.17,1.05-0.25,1.55-0.25
			C334.85,174.77,335.54,175.01,336,175.49z M334.92,180.79c0.39-0.4,0.58-0.93,0.58-1.57v-0.44h-0.27c-0.88,0-1.55,0.04-2.01,0.11
			c-0.46,0.07-0.79,0.2-0.98,0.38c-0.2,0.17-0.29,0.43-0.29,0.77c0,0.39,0.14,0.71,0.43,0.97c0.29,0.25,0.64,0.38,1.07,0.38
			C334.04,181.4,334.54,181.2,334.92,180.79z"/>
		<path class="st19" d="M338.53,181.42l0.41-0.9c0.39,0.31,0.79,0.53,1.19,0.67c0.41,0.13,0.86,0.2,1.37,0.2
			c0.54,0,0.95-0.09,1.24-0.28c0.29-0.19,0.43-0.45,0.43-0.8c0-0.29-0.1-0.52-0.29-0.69s-0.5-0.31-0.94-0.41l-1.23-0.29
			c-0.62-0.14-1.1-0.38-1.43-0.72c-0.33-0.34-0.49-0.76-0.49-1.26c0-0.65,0.25-1.18,0.76-1.58c0.51-0.4,1.19-0.6,2.04-0.6
			c0.51,0,1,0.08,1.46,0.25c0.46,0.16,0.85,0.4,1.16,0.71l-0.41,0.89c-0.67-0.57-1.4-0.86-2.21-0.86c-0.51,0-0.91,0.1-1.19,0.29
			c-0.29,0.19-0.43,0.47-0.43,0.82c0,0.29,0.09,0.52,0.26,0.7c0.17,0.18,0.46,0.31,0.85,0.4l1.25,0.3c0.68,0.16,1.18,0.4,1.51,0.73
			s0.5,0.75,0.5,1.27c0,0.64-0.26,1.15-0.77,1.53c-0.52,0.38-1.22,0.57-2.11,0.57C340.22,182.36,339.25,182.05,338.53,181.42z"/>
	</g>
	<circle class="st1" cx="78.83" cy="176.75" r="5.47"/>
	<path class="st15" d="M293.44,177.27c0,3.31-2.68,6-6,6c-3.31,0-6-2.68-6-6c0-3.31,2.68-6,6-6
		C290.75,171.28,293.44,173.96,293.44,177.27z"/>
	<circle class="st15" cx="79.83" cy="209.2" r="5.47"/>
	<path class="st15" d="M294.44,211.67c0,3.31-2.68,6-6,6c-3.31,0-6-2.68-6-6c0-3.31,2.68-6,6-6
		C291.75,205.68,294.44,208.36,294.44,211.67z"/>
	<path class="st16" d="M424.47,327.74H80.02c-7.3,0-13.21-5.92-13.21-13.21v-9.76c0-7.3,5.92-13.21,13.21-13.21h344.45
		c7.3,0,13.21,5.92,13.21,13.21v9.76C437.68,321.83,431.77,327.74,424.47,327.74z"/>
	<path class="st16" d="M190.75,463.88H75.38c-7.3,0-13.21-5.92-13.21-13.21v-9.76c0-7.3,5.92-13.21,13.21-13.21h115.37
		c7.3,0,13.21,5.92,13.21,13.21v9.76C203.96,457.96,198.05,463.88,190.75,463.88z"/>
	<path class="st16" d="M416.76,463.88H301.39c-7.3,0-13.21-5.92-13.21-13.21v-9.76c0-7.3,5.92-13.21,13.21-13.21h115.37
		c7.3,0,13.21,5.92,13.21,13.21v9.76C429.98,457.96,424.06,463.88,416.76,463.88z"/>
	<polygon class="st17" points="402.38,307.79 415.62,307.79 409,316.26 	"/>
	<g>
		<path class="st19" d="M96.31,311.88l0.48-0.95c0.52,0.44,1.05,0.75,1.6,0.95c0.54,0.19,1.18,0.29,1.9,0.29
			c0.85,0,1.5-0.17,1.96-0.5s0.69-0.79,0.69-1.4c0-0.35-0.11-0.63-0.33-0.85s-0.51-0.4-0.87-0.53c-0.36-0.13-0.84-0.26-1.45-0.41
			c-0.82-0.19-1.49-0.39-2.02-0.6s-0.95-0.51-1.27-0.9c-0.33-0.39-0.49-0.9-0.49-1.53c0-0.6,0.16-1.13,0.47-1.6s0.77-0.83,1.35-1.08
			s1.26-0.38,2.03-0.38c0.73,0,1.41,0.12,2.05,0.35c0.63,0.23,1.17,0.56,1.61,0.99l-0.46,0.95c-0.5-0.43-1.01-0.74-1.52-0.94
			c-0.52-0.2-1.07-0.29-1.67-0.29c-0.82,0-1.46,0.17-1.93,0.52c-0.47,0.35-0.7,0.83-0.7,1.45c0,0.53,0.21,0.93,0.62,1.2
			c0.41,0.27,1.03,0.5,1.86,0.69c0.91,0.22,1.63,0.42,2.15,0.61c0.52,0.19,0.95,0.46,1.3,0.83c0.35,0.37,0.52,0.86,0.52,1.48
			c0,0.6-0.16,1.13-0.47,1.58c-0.31,0.45-0.77,0.8-1.36,1.04s-1.28,0.37-2.07,0.37C98.62,313.22,97.3,312.77,96.31,311.88z"/>
		<path class="st19" d="M112.18,309.63h-5.34c0.04,0.85,0.27,1.49,0.69,1.93c0.42,0.43,1.01,0.65,1.78,0.65
			c0.85,0,1.63-0.29,2.34-0.87l0.4,0.88c-0.32,0.3-0.73,0.54-1.23,0.71s-1.01,0.26-1.53,0.26c-1.14,0-2.04-0.33-2.69-1.01
			c-0.65-0.67-0.98-1.59-0.98-2.77c0-0.75,0.15-1.41,0.44-1.99s0.7-1.02,1.22-1.34c0.52-0.32,1.12-0.48,1.79-0.48
			c0.97,0,1.73,0.32,2.28,0.95s0.83,1.51,0.83,2.62V309.63z M107.55,307.16c-0.39,0.4-0.61,0.97-0.68,1.7h4.25
			c-0.02-0.74-0.21-1.31-0.56-1.7c-0.35-0.4-0.84-0.59-1.47-0.59C108.45,306.56,107.94,306.76,107.55,307.16z"/>
		<path class="st19" d="M114.04,313.1v-10.58h1.21v10.58H114.04z"/>
		<path class="st19" d="M123.71,309.63h-5.34c0.04,0.85,0.27,1.49,0.69,1.93c0.42,0.43,1.01,0.65,1.78,0.65
			c0.85,0,1.63-0.29,2.34-0.87l0.4,0.88c-0.32,0.3-0.73,0.54-1.23,0.71s-1.01,0.26-1.53,0.26c-1.14,0-2.04-0.33-2.69-1.01
			c-0.65-0.67-0.98-1.59-0.98-2.77c0-0.75,0.15-1.41,0.44-1.99s0.7-1.02,1.22-1.34c0.52-0.32,1.12-0.48,1.79-0.48
			c0.97,0,1.73,0.32,2.28,0.95s0.83,1.51,0.83,2.62V309.63z M119.09,307.16c-0.39,0.4-0.61,0.97-0.68,1.7h4.25
			c-0.02-0.74-0.21-1.31-0.56-1.7c-0.35-0.4-0.84-0.59-1.47-0.59C119.98,306.56,119.47,306.76,119.09,307.16z"/>
		<path class="st19" d="M126.79,312.74c-0.53-0.31-0.94-0.75-1.22-1.31c-0.29-0.56-0.43-1.23-0.43-1.99s0.15-1.43,0.44-2
			s0.71-1.02,1.25-1.34c0.53-0.32,1.16-0.48,1.88-0.48c0.49,0,0.97,0.09,1.44,0.26c0.47,0.17,0.85,0.41,1.14,0.7l-0.4,0.9
			c-0.69-0.56-1.39-0.84-2.1-0.84c-0.75,0-1.33,0.25-1.75,0.73c-0.42,0.49-0.63,1.18-0.63,2.07c0,0.88,0.21,1.56,0.63,2.04
			c0.42,0.48,1,0.72,1.75,0.72c0.71,0,1.41-0.28,2.1-0.84l0.4,0.9c-0.31,0.29-0.7,0.52-1.17,0.69s-0.96,0.26-1.46,0.26
			C127.94,313.2,127.32,313.05,126.79,312.74z"/>
		<path class="st19" d="M136.72,312.18l-0.06,0.96c-0.23,0.04-0.48,0.06-0.75,0.06c-0.88,0-1.54-0.23-1.99-0.69
			c-0.44-0.46-0.67-1.1-0.67-1.92v-3.84h-1.42v-0.96h1.42v-2.22h1.22v2.22h2.07v0.96h-2.07v3.75c0,1.15,0.53,1.72,1.59,1.72
			C136.28,312.23,136.5,312.21,136.72,312.18z"/>
		<path class="st19" d="M147.01,306.32c0.46,0.47,0.68,1.2,0.68,2.17v4.61h-1.19v-1.25c-0.19,0.43-0.48,0.76-0.87,1
			c-0.39,0.23-0.84,0.35-1.35,0.35c-0.47,0-0.9-0.1-1.3-0.29c-0.4-0.19-0.71-0.46-0.94-0.79s-0.34-0.71-0.34-1.13
			c0-0.55,0.14-0.98,0.42-1.28c0.28-0.3,0.74-0.52,1.38-0.66c0.64-0.13,1.53-0.2,2.67-0.2h0.33v-0.5c0-0.61-0.13-1.05-0.38-1.33
			s-0.65-0.41-1.21-0.41c-0.84,0-1.68,0.26-2.5,0.78l-0.41-0.88c0.38-0.27,0.84-0.49,1.37-0.65c0.53-0.17,1.05-0.25,1.55-0.25
			C145.87,305.61,146.56,305.85,147.01,306.32z M145.93,311.63c0.39-0.4,0.58-0.93,0.58-1.57v-0.43h-0.27
			c-0.88,0-1.55,0.04-2.01,0.11c-0.46,0.08-0.79,0.2-0.98,0.38c-0.2,0.17-0.29,0.43-0.29,0.77c0,0.39,0.14,0.71,0.43,0.97
			s0.64,0.38,1.07,0.38C145.06,312.24,145.55,312.04,145.93,311.63z"/>
		<path class="st19" d="M155.15,312.74c-0.53-0.31-0.94-0.75-1.22-1.31c-0.29-0.56-0.43-1.23-0.43-1.99s0.15-1.43,0.44-2
			s0.71-1.02,1.25-1.34c0.53-0.32,1.16-0.48,1.88-0.48c0.49,0,0.97,0.09,1.44,0.26c0.47,0.17,0.85,0.41,1.14,0.7l-0.4,0.9
			c-0.69-0.56-1.39-0.84-2.1-0.84c-0.75,0-1.33,0.25-1.75,0.73c-0.42,0.49-0.63,1.18-0.63,2.07c0,0.88,0.21,1.56,0.63,2.04
			c0.42,0.48,1,0.72,1.75,0.72c0.71,0,1.41-0.28,2.1-0.84l0.4,0.9c-0.31,0.29-0.7,0.52-1.17,0.69s-0.96,0.26-1.46,0.26
			C156.31,313.2,155.68,313.05,155.15,312.74z"/>
		<path class="st19" d="M162.41,312.74c-0.52-0.31-0.93-0.75-1.21-1.33c-0.29-0.58-0.43-1.24-0.43-2c0-0.76,0.14-1.43,0.43-2
			c0.28-0.58,0.69-1.02,1.21-1.33c0.52-0.31,1.13-0.47,1.82-0.47c0.69,0,1.3,0.16,1.83,0.47c0.53,0.31,0.94,0.75,1.22,1.33
			s0.43,1.24,0.43,2c0,0.76-0.14,1.43-0.43,2s-0.69,1.02-1.22,1.33c-0.53,0.31-1.14,0.47-1.83,0.47
			C163.54,313.2,162.93,313.05,162.41,312.74z M165.89,311.48c0.38-0.47,0.58-1.17,0.58-2.08c0-0.89-0.2-1.58-0.58-2.06
			c-0.39-0.48-0.94-0.73-1.65-0.73s-1.26,0.24-1.65,0.73c-0.39,0.49-0.58,1.17-0.58,2.06c0,0.9,0.19,1.59,0.58,2.07
			c0.38,0.48,0.94,0.72,1.66,0.72C164.95,312.2,165.5,311.96,165.89,311.48z"/>
		<path class="st19" d="M175.75,305.79v7.3h-1.19v-1.25c-0.23,0.44-0.55,0.78-0.97,1c-0.42,0.23-0.88,0.35-1.4,0.35
			c-0.87,0-1.53-0.24-1.97-0.73c-0.44-0.49-0.66-1.2-0.66-2.15v-4.53h1.21v4.5c0,0.65,0.13,1.13,0.39,1.43
			c0.26,0.3,0.67,0.46,1.23,0.46c0.64,0,1.15-0.21,1.54-0.62s0.58-0.96,0.58-1.64v-4.13H175.75z"/>
		<path class="st19" d="M184.39,308.51v4.59h-1.21v-4.51c0-0.68-0.13-1.17-0.4-1.49c-0.27-0.31-0.69-0.46-1.27-0.46
			c-0.67,0-1.21,0.21-1.6,0.62s-0.6,0.96-0.6,1.67v4.18h-1.21v-7.3h1.2v1.2c0.24-0.45,0.57-0.79,1-1.03
			c0.43-0.23,0.92-0.35,1.47-0.35C183.51,305.61,184.39,306.58,184.39,308.51z"/>
		<path class="st19" d="M190.55,312.18l-0.06,0.96c-0.23,0.04-0.48,0.06-0.75,0.06c-0.88,0-1.54-0.23-1.99-0.69
			c-0.44-0.46-0.67-1.1-0.67-1.92v-3.84h-1.42v-0.96h1.42v-2.22h1.22v2.22h2.07v0.96h-2.07v3.75c0,1.15,0.53,1.72,1.59,1.72
			C190.11,312.23,190.33,312.21,190.55,312.18z"/>
		<path class="st19" d="M196,306.66l-0.79,0.07c-0.75,0.07-1.29,0.31-1.63,0.71c-0.33,0.4-0.5,0.9-0.5,1.49v4.17h-1.21v-7.3h1.19
			v1.27c0.41-0.85,1.21-1.32,2.42-1.42l0.44-0.03L196,306.66z"/>
		<path class="st19" d="M202.91,305.81h1.22l-4.32,9.99h-1.25l1.23-2.79l-3.09-7.2h1.29l2.44,5.97L202.91,305.81z"/>
		<path class="st19" d="M210.62,312.74c-0.52-0.31-0.93-0.75-1.21-1.33c-0.29-0.58-0.43-1.24-0.43-2c0-0.76,0.14-1.43,0.43-2
			c0.28-0.58,0.69-1.02,1.21-1.33c0.52-0.31,1.13-0.47,1.82-0.47c0.69,0,1.3,0.16,1.83,0.47c0.53,0.31,0.94,0.75,1.22,1.33
			s0.43,1.24,0.43,2c0,0.76-0.14,1.43-0.43,2s-0.69,1.02-1.22,1.33c-0.53,0.31-1.14,0.47-1.83,0.47
			C211.75,313.2,211.14,313.05,210.62,312.74z M214.1,311.48c0.38-0.47,0.58-1.17,0.58-2.08c0-0.89-0.2-1.58-0.58-2.06
			c-0.39-0.48-0.94-0.73-1.65-0.73s-1.26,0.24-1.65,0.73c-0.39,0.49-0.58,1.17-0.58,2.06c0,0.9,0.19,1.59,0.58,2.07
			c0.38,0.48,0.94,0.72,1.66,0.72C213.16,312.2,213.71,311.96,214.1,311.48z"/>
		<path class="st19" d="M224.11,308.51v4.59h-1.21v-4.51c0-0.68-0.13-1.17-0.4-1.49c-0.27-0.31-0.69-0.46-1.27-0.46
			c-0.67,0-1.21,0.21-1.6,0.62s-0.6,0.96-0.6,1.67v4.18h-1.21v-7.3h1.2v1.2c0.24-0.45,0.57-0.79,1-1.03
			c0.43-0.23,0.92-0.35,1.47-0.35C223.23,305.61,224.11,306.58,224.11,308.51z"/>
		<path class="st19" d="M234.22,312.18l-0.06,0.96c-0.23,0.04-0.48,0.06-0.75,0.06c-0.88,0-1.54-0.23-1.99-0.69
			c-0.44-0.46-0.67-1.1-0.67-1.92v-3.84h-1.42v-0.96h1.42v-2.22h1.22v2.22h2.07v0.96h-2.07v3.75c0,1.15,0.53,1.72,1.59,1.72
			C233.78,312.23,234,312.21,234.22,312.18z"/>
		<path class="st19" d="M241.82,308.51v4.59h-1.21v-4.51c0-0.68-0.13-1.17-0.4-1.49c-0.27-0.31-0.69-0.46-1.27-0.46
			c-0.67,0-1.21,0.21-1.6,0.62s-0.6,0.96-0.6,1.67v4.18h-1.21v-10.58h1.21v4.44c0.24-0.44,0.57-0.78,1-1
			c0.42-0.23,0.91-0.35,1.46-0.35C240.95,305.61,241.82,306.58,241.82,308.51z"/>
		<path class="st19" d="M250.24,309.63h-5.34c0.04,0.85,0.27,1.49,0.69,1.93c0.42,0.43,1.01,0.65,1.78,0.65
			c0.85,0,1.63-0.29,2.34-0.87l0.4,0.88c-0.32,0.3-0.73,0.54-1.23,0.71s-1.01,0.26-1.53,0.26c-1.14,0-2.04-0.33-2.69-1.01
			c-0.65-0.67-0.98-1.59-0.98-2.77c0-0.75,0.15-1.41,0.44-1.99s0.7-1.02,1.22-1.34c0.52-0.32,1.12-0.48,1.79-0.48
			c0.97,0,1.73,0.32,2.28,0.95s0.83,1.51,0.83,2.62V309.63z M245.61,307.16c-0.39,0.4-0.61,0.97-0.68,1.7h4.25
			c-0.02-0.74-0.21-1.31-0.56-1.7c-0.35-0.4-0.84-0.59-1.47-0.59C246.51,306.56,245.99,306.76,245.61,307.16z"/>
		<path class="st19" d="M256.04,313.1v-10.58h1.21v10.58H256.04z"/>
		<path class="st19" d="M259.48,302.63h1.47v1.36h-1.47V302.63z M259.6,313.1v-7.3h1.21v7.3H259.6z"/>
		<path class="st19" d="M262.7,312.26l0.41-0.9c0.39,0.31,0.79,0.53,1.19,0.67c0.41,0.13,0.86,0.2,1.37,0.2
			c0.54,0,0.95-0.09,1.24-0.28c0.29-0.18,0.43-0.45,0.43-0.8c0-0.29-0.1-0.52-0.29-0.69s-0.5-0.31-0.94-0.41l-1.23-0.29
			c-0.62-0.14-1.1-0.38-1.43-0.72c-0.33-0.34-0.49-0.76-0.49-1.26c0-0.65,0.25-1.18,0.76-1.58c0.51-0.4,1.19-0.6,2.04-0.6
			c0.51,0,1,0.08,1.46,0.25s0.85,0.4,1.16,0.71l-0.41,0.89c-0.67-0.57-1.4-0.86-2.21-0.86c-0.51,0-0.91,0.1-1.19,0.29
			c-0.29,0.19-0.43,0.47-0.43,0.82c0,0.29,0.09,0.52,0.26,0.7s0.46,0.31,0.85,0.4l1.25,0.3c0.68,0.16,1.18,0.4,1.51,0.73
			c0.33,0.33,0.5,0.75,0.5,1.27c0,0.64-0.26,1.15-0.77,1.53s-1.22,0.57-2.11,0.57C264.4,313.2,263.42,312.89,262.7,312.26z"/>
		<path class="st19" d="M274.22,312.18l-0.06,0.96c-0.23,0.04-0.48,0.06-0.75,0.06c-0.88,0-1.54-0.23-1.99-0.69
			c-0.44-0.46-0.67-1.1-0.67-1.92v-3.84h-1.42v-0.96h1.42v-2.22h1.22v2.22h2.07v0.96h-2.07v3.75c0,1.15,0.53,1.72,1.59,1.72
			C273.78,312.23,274,312.21,274.22,312.18z"/>
	</g>
	<g>
		<path class="st19" d="M70.02,414.55c-0.74-0.44-1.31-1.06-1.7-1.88c-0.4-0.82-0.59-1.78-0.59-2.89s0.2-2.07,0.59-2.88
			c0.4-0.81,0.96-1.43,1.7-1.87c0.74-0.43,1.61-0.65,2.61-0.65c0.73,0,1.4,0.11,2.01,0.34c0.61,0.22,1.14,0.56,1.59,1l-0.46,0.95
			c-0.51-0.43-1.01-0.74-1.5-0.93c-0.49-0.19-1.03-0.29-1.62-0.29c-1.16,0-2.06,0.38-2.69,1.13c-0.64,0.75-0.95,1.82-0.95,3.2
			c0,1.39,0.32,2.46,0.95,3.22c0.63,0.75,1.53,1.13,2.69,1.13c0.59,0,1.13-0.09,1.62-0.29c0.49-0.19,0.99-0.5,1.5-0.93l0.46,0.95
			c-0.45,0.44-0.98,0.77-1.59,1c-0.61,0.23-1.28,0.34-2.01,0.34C71.63,415.2,70.76,414.98,70.02,414.55z"/>
		<path class="st19" d="M84.46,410.49v4.59h-1.21v-4.51c0-0.68-0.13-1.17-0.4-1.49c-0.27-0.31-0.69-0.46-1.27-0.46
			c-0.67,0-1.21,0.21-1.6,0.62s-0.6,0.96-0.6,1.67v4.18h-1.21V404.5h1.21v4.44c0.24-0.44,0.57-0.78,1-1
			c0.42-0.23,0.91-0.35,1.46-0.35C83.59,407.59,84.46,408.56,84.46,410.49z"/>
		<path class="st19" d="M92.88,411.61h-5.34c0.04,0.85,0.27,1.49,0.69,1.93c0.42,0.43,1.01,0.65,1.78,0.65
			c0.85,0,1.63-0.29,2.34-0.87l0.4,0.88c-0.32,0.3-0.73,0.54-1.23,0.71s-1.01,0.26-1.53,0.26c-1.14,0-2.04-0.33-2.69-1.01
			c-0.65-0.67-0.98-1.59-0.98-2.77c0-0.75,0.15-1.41,0.44-1.99s0.7-1.02,1.22-1.34c0.52-0.32,1.12-0.48,1.79-0.48
			c0.97,0,1.73,0.32,2.28,0.95s0.83,1.51,0.83,2.62V411.61z M88.25,409.14c-0.39,0.4-0.61,0.97-0.68,1.7h4.25
			c-0.02-0.74-0.21-1.31-0.56-1.7c-0.35-0.4-0.84-0.59-1.47-0.59C89.15,408.54,88.63,408.74,88.25,409.14z"/>
		<path class="st19" d="M95.95,414.72c-0.53-0.31-0.94-0.75-1.22-1.31c-0.29-0.56-0.43-1.23-0.43-1.99s0.15-1.43,0.44-2
			s0.71-1.02,1.25-1.34c0.53-0.32,1.16-0.48,1.88-0.48c0.49,0,0.97,0.09,1.44,0.26c0.47,0.17,0.85,0.41,1.14,0.7l-0.4,0.9
			c-0.69-0.56-1.39-0.84-2.1-0.84c-0.75,0-1.33,0.25-1.75,0.73c-0.42,0.49-0.63,1.18-0.63,2.07c0,0.88,0.21,1.56,0.63,2.04
			c0.42,0.48,1,0.72,1.75,0.72c0.71,0,1.41-0.28,2.1-0.84l0.4,0.9c-0.31,0.29-0.7,0.52-1.17,0.69s-0.96,0.26-1.46,0.26
			C97.11,415.19,96.48,415.03,95.95,414.72z"/>
		<path class="st19" d="M108.5,415.08h-1.57l-3.72-3.5v3.5H102V404.5h1.21v6.58l3.41-3.3h1.54l-3.63,3.5L108.5,415.08z"/>
		<path class="st19" d="M113.4,404.61h1.47v1.36h-1.47V404.61z M113.52,415.08v-7.3h1.21v7.3H113.52z"/>
		<path class="st19" d="M123.37,410.49v4.59h-1.21v-4.51c0-0.68-0.13-1.17-0.4-1.49c-0.27-0.31-0.69-0.46-1.27-0.46
			c-0.67,0-1.21,0.21-1.6,0.62s-0.6,0.96-0.6,1.67v4.18h-1.21v-7.3h1.2v1.2c0.24-0.45,0.57-0.79,1-1.03
			c0.43-0.23,0.92-0.35,1.47-0.35C122.5,407.59,123.37,408.56,123.37,410.49z"/>
	</g>
	<g>
		<path class="st19" d="M291.65,414.55c-0.74-0.44-1.31-1.06-1.7-1.88c-0.4-0.82-0.59-1.78-0.59-2.89s0.2-2.07,0.59-2.88
			c0.4-0.81,0.96-1.43,1.7-1.87c0.74-0.43,1.61-0.65,2.61-0.65c0.73,0,1.4,0.11,2.01,0.34c0.61,0.22,1.14,0.56,1.59,1l-0.46,0.95
			c-0.51-0.43-1.01-0.74-1.5-0.93c-0.49-0.19-1.03-0.29-1.62-0.29c-1.16,0-2.06,0.38-2.69,1.13c-0.64,0.75-0.95,1.82-0.95,3.2
			c0,1.39,0.32,2.46,0.95,3.22c0.63,0.75,1.53,1.13,2.69,1.13c0.59,0,1.13-0.09,1.62-0.29c0.49-0.19,0.99-0.5,1.5-0.93l0.46,0.95
			c-0.45,0.44-0.98,0.77-1.59,1c-0.61,0.23-1.28,0.34-2.01,0.34C293.26,415.2,292.39,414.98,291.65,414.55z"/>
		<path class="st19" d="M306.09,410.49v4.59h-1.21v-4.51c0-0.68-0.13-1.17-0.4-1.49c-0.27-0.31-0.69-0.46-1.27-0.46
			c-0.67,0-1.21,0.21-1.6,0.62s-0.6,0.96-0.6,1.67v4.18h-1.21V404.5h1.21v4.44c0.24-0.44,0.57-0.78,1-1
			c0.42-0.23,0.91-0.35,1.46-0.35C305.22,407.59,306.09,408.56,306.09,410.49z"/>
		<path class="st19" d="M314.51,411.61h-5.34c0.04,0.85,0.27,1.49,0.69,1.93c0.42,0.43,1.01,0.65,1.78,0.65
			c0.85,0,1.63-0.29,2.34-0.87l0.4,0.88c-0.32,0.3-0.73,0.54-1.23,0.71s-1.01,0.26-1.53,0.26c-1.14,0-2.04-0.33-2.69-1.01
			c-0.65-0.67-0.98-1.59-0.98-2.77c0-0.75,0.15-1.41,0.44-1.99s0.7-1.02,1.22-1.34c0.52-0.32,1.12-0.48,1.79-0.48
			c0.97,0,1.73,0.32,2.28,0.95s0.83,1.51,0.83,2.62V411.61z M309.88,409.14c-0.39,0.4-0.61,0.97-0.68,1.7h4.25
			c-0.02-0.74-0.21-1.31-0.56-1.7c-0.35-0.4-0.84-0.59-1.47-0.59C310.78,408.54,310.27,408.74,309.88,409.14z"/>
		<path class="st19" d="M317.58,414.72c-0.53-0.31-0.94-0.75-1.22-1.31c-0.29-0.56-0.43-1.23-0.43-1.99s0.15-1.43,0.44-2
			s0.71-1.02,1.25-1.34c0.53-0.32,1.16-0.48,1.88-0.48c0.49,0,0.97,0.09,1.44,0.26c0.47,0.17,0.85,0.41,1.14,0.7l-0.4,0.9
			c-0.69-0.56-1.39-0.84-2.1-0.84c-0.75,0-1.33,0.25-1.75,0.73c-0.42,0.49-0.63,1.18-0.63,2.07c0,0.88,0.21,1.56,0.63,2.04
			c0.42,0.48,1,0.72,1.75,0.72c0.71,0,1.41-0.28,2.1-0.84l0.4,0.9c-0.31,0.29-0.7,0.52-1.17,0.69s-0.96,0.26-1.46,0.26
			C318.74,415.19,318.11,415.03,317.58,414.72z"/>
		<path class="st19" d="M330.14,415.08h-1.57l-3.72-3.5v3.5h-1.21V404.5h1.21v6.58l3.41-3.3h1.54l-3.63,3.5L330.14,415.08z"/>
		<path class="st19" d="M336.36,414.72c-0.52-0.31-0.93-0.75-1.21-1.33c-0.29-0.58-0.43-1.24-0.43-2c0-0.76,0.14-1.43,0.43-2
			c0.28-0.58,0.69-1.02,1.21-1.33c0.52-0.31,1.13-0.47,1.82-0.47c0.69,0,1.3,0.16,1.83,0.47c0.53,0.31,0.94,0.75,1.22,1.33
			s0.43,1.24,0.43,2c0,0.76-0.14,1.43-0.43,2s-0.69,1.02-1.22,1.33c-0.53,0.31-1.14,0.47-1.83,0.47
			C337.49,415.19,336.88,415.03,336.36,414.72z M339.84,413.47c0.38-0.47,0.58-1.17,0.58-2.08c0-0.89-0.2-1.58-0.58-2.06
			c-0.39-0.48-0.94-0.73-1.65-0.73s-1.26,0.24-1.65,0.73c-0.39,0.49-0.58,1.17-0.58,2.06c0,0.9,0.19,1.59,0.58,2.07
			c0.38,0.48,0.94,0.72,1.66,0.72C338.9,414.18,339.45,413.94,339.84,413.47z"/>
		<path class="st19" d="M349.7,407.77v7.3h-1.19v-1.25c-0.23,0.44-0.55,0.78-0.97,1c-0.42,0.23-0.88,0.35-1.4,0.35
			c-0.87,0-1.53-0.24-1.97-0.73c-0.44-0.49-0.66-1.2-0.66-2.15v-4.53h1.21v4.5c0,0.65,0.13,1.13,0.39,1.43
			c0.26,0.3,0.67,0.46,1.23,0.46c0.64,0,1.15-0.21,1.54-0.62s0.58-0.96,0.58-1.64v-4.13H349.7z"/>
		<path class="st19" d="M355.91,414.16l-0.06,0.96c-0.23,0.04-0.48,0.06-0.75,0.06c-0.88,0-1.54-0.23-1.99-0.69
			c-0.44-0.46-0.67-1.1-0.67-1.92v-3.84h-1.42v-0.96h1.42v-2.22h1.22v2.22h2.07v0.96h-2.07v3.75c0,1.15,0.53,1.72,1.59,1.72
			C355.47,414.21,355.69,414.19,355.91,414.16z"/>
	</g>
	<path class="st16" d="M137.07,620.51H75.38c-7.3,0-13.21-5.92-13.21-13.21v-9.76c0-7.3,5.92-13.21,13.21-13.21h61.69
		c7.3,0,13.21,5.92,13.21,13.21v9.76C150.28,614.6,144.37,620.51,137.07,620.51z"/>
	<g>
		<path class="st19" d="M76.44,571.72h-1.35l-1.8-3.39c-0.22-0.41-0.48-0.69-0.77-0.85s-0.7-0.23-1.21-0.23h-1.98v4.47h-1.21v-10.58
			h4.35c1.15,0,2.03,0.25,2.63,0.77c0.6,0.51,0.91,1.26,0.91,2.25c0,0.82-0.23,1.48-0.7,1.99s-1.13,0.82-1.99,0.95
			c0.27,0.08,0.51,0.21,0.71,0.41c0.2,0.19,0.39,0.45,0.56,0.76L76.44,571.72z M72.36,566.23c0.82,0,1.43-0.17,1.84-0.51
			c0.4-0.34,0.61-0.86,0.61-1.54c0-0.68-0.2-1.19-0.6-1.51c-0.4-0.33-1.02-0.5-1.85-0.5h-3.03v4.06H72.36z"/>
		<path class="st19" d="M79.5,571.36c-0.52-0.31-0.93-0.75-1.21-1.33c-0.29-0.58-0.43-1.24-0.43-2c0-0.76,0.14-1.43,0.43-2
			c0.28-0.58,0.69-1.02,1.21-1.33c0.52-0.31,1.13-0.47,1.82-0.47c0.69,0,1.3,0.16,1.83,0.47c0.53,0.31,0.94,0.75,1.22,1.33
			s0.43,1.24,0.43,2c0,0.76-0.14,1.43-0.43,2s-0.69,1.02-1.22,1.33c-0.53,0.31-1.14,0.47-1.83,0.47
			C80.64,571.82,80.03,571.67,79.5,571.36z M82.98,570.1c0.38-0.47,0.58-1.17,0.58-2.08c0-0.89-0.2-1.58-0.58-2.06
			c-0.39-0.48-0.94-0.73-1.65-0.73s-1.26,0.24-1.65,0.73c-0.39,0.49-0.58,1.17-0.58,2.06c0,0.9,0.19,1.59,0.58,2.07
			c0.38,0.48,0.94,0.72,1.66,0.72C82.05,570.82,82.6,570.58,82.98,570.1z"/>
		<path class="st19" d="M87.9,571.36c-0.52-0.31-0.93-0.75-1.21-1.33c-0.29-0.58-0.43-1.24-0.43-2c0-0.76,0.14-1.43,0.43-2
			c0.28-0.58,0.69-1.02,1.21-1.33c0.52-0.31,1.13-0.47,1.82-0.47c0.69,0,1.3,0.16,1.83,0.47c0.53,0.31,0.94,0.75,1.22,1.33
			s0.43,1.24,0.43,2c0,0.76-0.14,1.43-0.43,2s-0.69,1.02-1.22,1.33c-0.53,0.31-1.14,0.47-1.83,0.47
			C89.04,571.82,88.43,571.67,87.9,571.36z M91.38,570.1c0.38-0.47,0.58-1.17,0.58-2.08c0-0.89-0.2-1.58-0.58-2.06
			c-0.39-0.48-0.94-0.73-1.65-0.73s-1.26,0.24-1.65,0.73c-0.39,0.49-0.58,1.17-0.58,2.06c0,0.9,0.19,1.59,0.58,2.07
			c0.38,0.48,0.94,0.72,1.66,0.72C90.45,570.82,91,570.58,91.38,570.1z"/>
		<path class="st19" d="M105.66,567.13v4.59h-1.21v-4.53c0-0.67-0.12-1.16-0.35-1.47c-0.24-0.31-0.61-0.46-1.13-0.46
			c-0.61,0-1.09,0.21-1.44,0.62s-0.52,0.97-0.52,1.68v4.17h-1.21v-4.53c0-0.68-0.12-1.17-0.36-1.48c-0.24-0.3-0.62-0.46-1.14-0.46
			c-0.61,0-1.09,0.21-1.44,0.62c-0.35,0.41-0.53,0.97-0.53,1.68v4.17H95.1v-7.3h1.2v1.15c0.22-0.43,0.52-0.76,0.92-0.99
			c0.39-0.23,0.84-0.35,1.35-0.35c1.13,0,1.88,0.48,2.24,1.44c0.21-0.45,0.53-0.8,0.96-1.06c0.43-0.25,0.92-0.38,1.47-0.38
			C104.85,564.23,105.66,565.2,105.66,567.13z"/>
		<path class="st19" d="M107.5,570.88l0.41-0.9c0.39,0.31,0.79,0.53,1.19,0.67c0.41,0.13,0.86,0.2,1.37,0.2
			c0.54,0,0.95-0.09,1.24-0.28c0.29-0.18,0.43-0.45,0.43-0.8c0-0.29-0.1-0.52-0.29-0.69s-0.5-0.31-0.94-0.41l-1.23-0.29
			c-0.62-0.14-1.1-0.38-1.43-0.72c-0.33-0.34-0.49-0.76-0.49-1.26c0-0.65,0.25-1.18,0.76-1.58c0.51-0.4,1.19-0.6,2.04-0.6
			c0.51,0,1,0.08,1.46,0.25s0.85,0.4,1.16,0.71l-0.41,0.89c-0.67-0.57-1.4-0.86-2.21-0.86c-0.51,0-0.91,0.1-1.19,0.29
			c-0.29,0.19-0.43,0.47-0.43,0.82c0,0.29,0.09,0.52,0.26,0.7s0.46,0.31,0.85,0.4l1.25,0.3c0.68,0.16,1.18,0.4,1.51,0.73
			c0.33,0.33,0.5,0.75,0.5,1.27c0,0.64-0.26,1.15-0.77,1.53s-1.22,0.57-2.11,0.57C109.19,571.82,108.22,571.51,107.5,570.88z"/>
	</g>
	<path class="st16" d="M281.74,620.51h-61.69c-7.3,0-13.21-5.92-13.21-13.21v-9.76c0-7.3,5.92-13.21,13.21-13.21h61.69
		c7.3,0,13.21,5.92,13.21,13.21v9.76C294.95,614.6,289.04,620.51,281.74,620.51z"/>
	<g>
		<path class="st19" d="M220.87,571.72L219.7,569h-5.52l-1.17,2.71h-1.26l4.65-10.58h1.06l4.65,10.58H220.87z M214.61,567.98h4.65
			l-2.33-5.42L214.61,567.98z"/>
		<path class="st19" d="M230.06,561.14v10.58h-1.21v-1.33c-0.22,0.46-0.54,0.82-0.97,1.07c-0.42,0.25-0.92,0.38-1.49,0.38
			c-0.64,0-1.21-0.16-1.7-0.48s-0.87-0.77-1.14-1.34c-0.27-0.57-0.41-1.24-0.41-2c0-0.75,0.14-1.41,0.41-1.98
			c0.27-0.57,0.65-1.01,1.14-1.32c0.49-0.31,1.06-0.47,1.7-0.47c0.57,0,1.07,0.13,1.49,0.38c0.43,0.25,0.75,0.61,0.97,1.07v-4.53
			H230.06z M228.27,570.09c0.38-0.48,0.58-1.17,0.58-2.06c0-0.89-0.19-1.57-0.58-2.05c-0.39-0.48-0.93-0.72-1.64-0.72
			s-1.26,0.24-1.66,0.72c-0.4,0.48-0.59,1.16-0.59,2.03c0,0.89,0.2,1.58,0.59,2.08c0.39,0.5,0.95,0.74,1.66,0.74
			S227.88,570.57,228.27,570.09z"/>
		<path class="st19" d="M238.53,564.41v7.3h-1.19v-1.25c-0.23,0.44-0.55,0.78-0.97,1c-0.42,0.23-0.88,0.35-1.4,0.35
			c-0.87,0-1.53-0.24-1.97-0.73c-0.44-0.49-0.66-1.2-0.66-2.15v-4.53h1.21v4.5c0,0.65,0.13,1.13,0.39,1.43
			c0.26,0.3,0.67,0.46,1.23,0.46c0.64,0,1.15-0.21,1.54-0.62s0.58-0.96,0.58-1.64v-4.13H238.53z"/>
		<path class="st19" d="M240.87,571.72v-10.58h1.21v10.58H240.87z"/>
		<path class="st19" d="M248.3,570.8l-0.06,0.96c-0.23,0.04-0.48,0.06-0.75,0.06c-0.88,0-1.54-0.23-1.99-0.69
			c-0.44-0.46-0.67-1.1-0.67-1.92v-3.84h-1.42v-0.96h1.42v-2.22h1.22v2.22h2.07v0.96h-2.07v3.75c0,1.15,0.53,1.72,1.59,1.72
			C247.86,570.85,248.08,570.83,248.3,570.8z"/>
		<path class="st19" d="M249.15,570.88l0.41-0.9c0.39,0.31,0.79,0.53,1.19,0.67c0.41,0.13,0.86,0.2,1.37,0.2
			c0.54,0,0.95-0.09,1.24-0.28c0.29-0.18,0.43-0.45,0.43-0.8c0-0.29-0.1-0.52-0.29-0.69s-0.5-0.31-0.94-0.41l-1.23-0.29
			c-0.62-0.14-1.1-0.38-1.43-0.72c-0.33-0.34-0.49-0.76-0.49-1.26c0-0.65,0.25-1.18,0.76-1.58c0.51-0.4,1.19-0.6,2.04-0.6
			c0.51,0,1,0.08,1.46,0.25s0.85,0.4,1.16,0.71l-0.41,0.89c-0.67-0.57-1.4-0.86-2.21-0.86c-0.51,0-0.91,0.1-1.19,0.29
			c-0.29,0.19-0.43,0.47-0.43,0.82c0,0.29,0.09,0.52,0.26,0.7s0.46,0.31,0.85,0.4l1.25,0.3c0.68,0.16,1.18,0.4,1.51,0.73
			c0.33,0.33,0.5,0.75,0.5,1.27c0,0.64-0.26,1.15-0.77,1.53s-1.22,0.57-2.11,0.57C250.85,571.82,249.87,571.51,249.15,570.88z"/>
	</g>
	<g>
		<path class="st19" d="M362.36,571.21h-1.59l-5.44-5.03v5.03h-1.23v-10.58h1.23v4.86l5.19-4.86h1.56l-5.52,5.15L362.36,571.21z"/>
		<path class="st19" d="M363.29,560.74h1.47v1.36h-1.47V560.74z M363.41,571.21v-7.3h1.21v7.3H363.41z"/>
		<path class="st19" d="M373.45,560.64v10.58h-1.21v-1.33c-0.22,0.46-0.54,0.82-0.97,1.07c-0.42,0.25-0.92,0.38-1.49,0.38
			c-0.64,0-1.21-0.16-1.7-0.48s-0.87-0.77-1.14-1.34c-0.27-0.57-0.41-1.24-0.41-2c0-0.75,0.14-1.41,0.41-1.98
			c0.27-0.57,0.65-1.01,1.14-1.32c0.49-0.31,1.06-0.47,1.7-0.47c0.57,0,1.07,0.13,1.49,0.38c0.43,0.25,0.75,0.61,0.97,1.07v-4.53
			H373.45z M371.65,569.58c0.38-0.48,0.58-1.17,0.58-2.06c0-0.89-0.19-1.57-0.58-2.05c-0.39-0.48-0.93-0.72-1.64-0.72
			s-1.26,0.24-1.66,0.72c-0.4,0.48-0.59,1.16-0.59,2.03c0,0.89,0.2,1.58,0.59,2.08c0.39,0.5,0.95,0.74,1.66,0.74
			S371.27,570.07,371.65,569.58z"/>
		<path class="st19" d="M375.32,570.37l0.41-0.9c0.39,0.31,0.79,0.53,1.19,0.67c0.41,0.13,0.86,0.2,1.37,0.2
			c0.54,0,0.95-0.09,1.24-0.28c0.29-0.18,0.43-0.45,0.43-0.8c0-0.29-0.1-0.52-0.29-0.69s-0.5-0.31-0.94-0.41l-1.23-0.29
			c-0.62-0.14-1.1-0.38-1.43-0.72c-0.33-0.34-0.49-0.76-0.49-1.26c0-0.65,0.25-1.18,0.76-1.58c0.51-0.4,1.19-0.6,2.04-0.6
			c0.51,0,1,0.08,1.46,0.25s0.85,0.4,1.16,0.71l-0.41,0.89c-0.67-0.57-1.4-0.86-2.21-0.86c-0.51,0-0.91,0.1-1.19,0.29
			c-0.29,0.19-0.43,0.47-0.43,0.82c0,0.29,0.09,0.52,0.26,0.7s0.46,0.31,0.85,0.4l1.25,0.3c0.68,0.16,1.18,0.4,1.51,0.73
			c0.33,0.33,0.5,0.75,0.5,1.27c0,0.64-0.26,1.15-0.77,1.53s-1.22,0.57-2.11,0.57C377.02,571.32,376.04,571,375.32,570.37z"/>
	</g>
	<line class="st18" x1="66.81" y1="97.02" x2="428.4" y2="97.02"/>
	<line class="st18" x1="66.81" y1="236.7" x2="428.4" y2="236.7"/>
	<line class="st18" x1="66.81" y1="640.48" x2="428.4" y2="640.48"/>
	<line class="st18" x1="67.17" y1="487.75" x2="428.77" y2="487.75"/>
	<line class="st18" x1="66.81" y1="351.12" x2="428.4" y2="351.12"/>
	<line class="st18" x1="162.67" y1="427.69" x2="162.67" y2="463.88"/>
	<line class="st18" x1="116.59" y1="584.07" x2="116.59" y2="620.26"/>
	<line class="st18" x1="395.95" y1="427.69" x2="395.95" y2="463.88"/>
	<g>
		<path class="st1" d="M189.77,440.64v11.69c0,0.88-0.71,1.59-1.59,1.59h-11.69c-0.88,0-1.59-0.71-1.59-1.59v-11.69
			c0-0.88,0.71-1.59,1.59-1.59h1.59v-1.73c0-0.22,0.18-0.4,0.4-0.4h0.27c0.22,0,0.4,0.18,0.4,0.4v1.73h6.38v-1.73
			c0-0.22,0.18-0.4,0.4-0.4h0.27c0.22,0,0.4,0.18,0.4,0.4v1.73h1.59C189.06,439.05,189.77,439.76,189.77,440.64z M175.96,440.64
			v1.59h12.75v-1.59c0-0.29-0.24-0.53-0.53-0.53h-11.69C176.2,440.11,175.96,440.35,175.96,440.64z M188.71,452.33v-9.03h-12.75
			v9.03c0,0.29,0.24,0.53,0.53,0.53h11.69C188.47,452.86,188.71,452.62,188.71,452.33z"/>
	</g>
	<g>
		<path class="st1" d="M420.76,440.64v11.69c0,0.88-0.71,1.59-1.59,1.59h-11.69c-0.88,0-1.59-0.71-1.59-1.59v-11.69
			c0-0.88,0.71-1.59,1.59-1.59h1.59v-1.73c0-0.22,0.18-0.4,0.4-0.4h0.27c0.22,0,0.4,0.18,0.4,0.4v1.73h6.38v-1.73
			c0-0.22,0.18-0.4,0.4-0.4h0.27c0.22,0,0.4,0.18,0.4,0.4v1.73h1.59C420.05,439.05,420.76,439.76,420.76,440.64z M406.95,440.64
			v1.59h12.75v-1.59c0-0.29-0.24-0.53-0.53-0.53h-11.69C407.19,440.11,406.95,440.35,406.95,440.64z M419.7,452.33v-9.03h-12.75
			v9.03c0,0.29,0.24,0.53,0.53,0.53h11.69C419.46,452.86,419.7,452.62,419.7,452.33z"/>
	</g>
	<polygon class="st17" points="126.44,599.42 139.68,599.42 133.06,607.89 	"/>
	<line class="st18" x1="262.66" y1="584.32" x2="262.66" y2="620.51"/>
	<polygon class="st17" points="272.51,599.67 285.75,599.67 279.13,608.14 	"/>
	<g>
		<g>
			<path class="st16" d="M423.05,620.51h-61.69c-7.3,0-13.21-5.92-13.21-13.21v-9.76c0-7.3,5.92-13.21,13.21-13.21h61.69
				c7.3,0,13.21,5.92,13.21,13.21v9.76C436.27,614.6,430.35,620.51,423.05,620.51z"/>
			<line class="st18" x1="404.07" y1="584.32" x2="404.07" y2="620.51"/>
		</g>
		<polygon class="st17" points="413.92,599.67 427.16,599.67 420.54,608.14 		"/>
	</g>
	<g>
		<path class="st19" d="M92.82,605.83v1.04h-6.81v-0.93l3.71-4.08c0.5-0.56,0.86-1.06,1.09-1.51c0.23-0.44,0.34-0.89,0.34-1.34
			c0-0.58-0.17-1.03-0.51-1.34c-0.34-0.31-0.82-0.46-1.44-0.46c-1.02,0-2.02,0.41-3,1.21l-0.46-0.94c0.42-0.4,0.95-0.72,1.58-0.95
			c0.64-0.23,1.27-0.35,1.91-0.35c0.97,0,1.74,0.25,2.3,0.75s0.85,1.18,0.85,2.03c0,0.61-0.14,1.2-0.41,1.76
			c-0.28,0.56-0.73,1.18-1.36,1.88l-3,3.25H92.82z"/>
	</g>
	<g>
		<path class="st19" d="M237.54,605.83v1.04h-6.81v-0.93l3.71-4.08c0.5-0.56,0.86-1.06,1.09-1.51c0.23-0.44,0.34-0.89,0.34-1.34
			c0-0.58-0.17-1.03-0.51-1.34c-0.34-0.31-0.82-0.46-1.44-0.46c-1.02,0-2.02,0.41-3,1.21l-0.46-0.94c0.42-0.4,0.95-0.72,1.58-0.95
			c0.64-0.23,1.27-0.35,1.91-0.35c0.97,0,1.74,0.25,2.3,0.75s0.85,1.18,0.85,2.03c0,0.61-0.14,1.2-0.41,1.76
			c-0.28,0.56-0.73,1.18-1.36,1.88l-3,3.25H237.54z"/>
	</g>
	<g>
		<path class="st19" d="M376.97,605.83h2.33v1.04h-5.88v-1.04h2.32v-8.01l-1.86,1.17l-0.57-0.95l2.77-1.75h0.88V605.83z"/>
	</g>
</g>
</svg>
