<?xml version="1.0" encoding="utf-8"?>
<!-- Generator: Adobe Illustrator 24.1.3, SVG Export Plug-In . SVG Version: 6.00 Build 0)  -->
<svg version="1.1" id="Capa_1" xmlns="http://www.w3.org/2000/svg" xmlns:xlink="http://www.w3.org/1999/xlink" x="0px" y="0px"
	 viewBox="0 0 16.33 14.1" style="enable-background:new 0 0 16.33 14.1;" xml:space="preserve">
<style type="text/css">
	.st0{opacity:0.32;fill:#D2D2D2;}
	.st1{fill:#5747E4;}
	.st2{clip-path:url(#SVGID_4_);}
	.st3{clip-path:url(#SVGID_10_);}
	.st4{fill:#51A5C1;}
	.st5{clip-path:url(#SVGID_16_);}
	.st6{clip-path:url(#SVGID_22_);}
	.st7{fill:#53A6C1;}
	.st8{fill:#808080;}
	.st9{fill:#6864E5;}
	.st10{fill:#FFFFFF;}
	.st11{fill:#FFFFFF;stroke:#DBDBDB;stroke-miterlimit:10;}
	.st12{opacity:0.78;}
	.st13{fill:#D2D2D2;}
	.st14{fill:#FF6680;}
	.st15{fill:none;stroke:#5747E4;stroke-miterlimit:10;}
	.st16{opacity:0.14;fill:#ACACAB;}
	.st17{fill:#ACACAB;}
	.st18{fill:none;stroke:#ACACAB;stroke-width:0.5;stroke-miterlimit:10;}
	.st19{fill:#6F6F6E;}
	.st20{clip-path:url(#SVGID_26_);}
	.st21{fill:none;stroke:#DBDBDB;stroke-width:3;stroke-miterlimit:10;}
	.st22{opacity:0.81;}
	.st23{fill:#DBDBDB;}
	.st24{opacity:0.39;fill:#D2D2D2;}
	.st25{fill:none;stroke:#ACACAB;stroke-miterlimit:10;}
	.st26{clip-path:url(#SVGID_28_);}
	.st27{clip-path:url(#SVGID_30_);fill:url(#SVGID_31_);}
	.st28{opacity:0.46;clip-path:url(#SVGID_30_);fill:#3F3CB2;}
	.st29{opacity:0.15;clip-path:url(#SVGID_30_);fill:#352D90;}
	.st30{fill:#352D90;}
	.st31{fill:#07C0D7;}
	.st32{opacity:0.46;clip-path:url(#SVGID_28_);fill:#3F3CB2;}
	.st33{fill:#5050C1;}
	.st34{fill:none;stroke:#07C0D7;stroke-miterlimit:10;}
	.st35{fill:#3F3CB2;}
	.st36{opacity:0.81;fill:#352D90;}
	.st37{fill:none;}
	.st38{clip-path:url(#SVGID_33_);}
	.st39{clip-path:url(#SVGID_35_);}
	.st40{clip-path:url(#SVGID_37_);fill:url(#SVGID_38_);}
	.st41{opacity:0.46;clip-path:url(#SVGID_37_);fill:#3F3CB2;}
	.st42{opacity:0.15;clip-path:url(#SVGID_37_);fill:#352D90;}
	.st43{opacity:0.46;clip-path:url(#SVGID_35_);fill:#3F3CB2;}
	.st44{clip-path:url(#SVGID_42_);}
	.st45{clip-path:url(#SVGID_48_);}
	.st46{clip-path:url(#SVGID_54_);}
	.st47{clip-path:url(#SVGID_60_);}
	.st48{clip-path:url(#SVGID_64_);}
	.st49{clip-path:url(#SVGID_68_);fill:#FFFFFF;}
	.st50{clip-path:url(#SVGID_68_);}
	.st51{clip-path:url(#SVGID_70_);fill:#FF668B;}
	.st52{clip-path:url(#SVGID_72_);}
	.st53{clip-path:url(#SVGID_76_);}
	.st54{clip-path:url(#SVGID_78_);fill:#FF668B;}
	.st55{clip-path:url(#SVGID_76_);fill:none;}
	.st56{clip-path:url(#SVGID_80_);}
	.st57{clip-path:url(#SVGID_82_);fill:#FF668B;}
	.st58{clip-path:url(#SVGID_80_);fill:none;}
	.st59{clip-path:url(#SVGID_84_);}
	.st60{clip-path:url(#SVGID_84_);fill:none;}
	.st61{clip-path:url(#SVGID_88_);}
	.st62{clip-path:url(#SVGID_88_);fill:none;}
	.st63{clip-path:url(#SVGID_92_);}
	.st64{clip-path:url(#SVGID_92_);fill:none;}
	.st65{clip-path:url(#SVGID_96_);}
	.st66{clip-path:url(#SVGID_96_);fill:none;}
	.st67{clip-path:url(#SVGID_100_);}
	.st68{clip-path:url(#SVGID_102_);fill:#FF668B;}
	.st69{clip-path:url(#SVGID_100_);fill:none;}
	.st70{fill:#979797;}
</style>
<g>
	<g>
		<g>
			<path class="st14" d="M8.17,2.52c0.03-0.05,0.04-0.08,0.06-0.12c0.65-1.28,1.68-2.08,3.09-2.34c2.04-0.37,4.01,0.76,4.75,2.7
				c0.24,0.62,0.3,1.27,0.25,1.93c-0.1,1.24-0.57,2.35-1.23,3.39c-0.68,1.07-1.53,2.01-2.46,2.87c-1.29,1.2-2.71,2.24-4.23,3.13
				c-0.15,0.09-0.3,0.09-0.45,0c-1.89-1.12-3.62-2.43-5.13-4.03C1.99,9.21,1.27,8.26,0.74,7.19C0.4,6.51,0.16,5.79,0.05,5.03
				c-0.16-1.19,0.05-2.3,0.78-3.28c0.68-0.92,1.59-1.49,2.72-1.68c1.96-0.34,3.78,0.71,4.57,2.38C8.13,2.46,8.14,2.48,8.17,2.52z"/>
		</g>
	</g>
</g>
</svg>
