<?xml version="1.0" encoding="utf-8"?>
<!-- Generator: Adobe Illustrator 24.2.1, SVG Export Plug-In . SVG Version: 6.00 Build 0)  -->
<svg version="1.1" id="Capa_1" xmlns="http://www.w3.org/2000/svg" xmlns:xlink="http://www.w3.org/1999/xlink" x="0px" y="0px"
	 viewBox="0 0 129.6 154.53" style="enable-background:new 0 0 129.6 154.53;" xml:space="preserve">
<style type="text/css">
	.st0{opacity:0.32;fill:#D2D2D2;}
	.st1{fill:#5747E4;}
	.st2{clip-path:url(#SVGID_4_);}
	.st3{clip-path:url(#SVGID_10_);}
	.st4{fill:#51A5C1;}
	.st5{clip-path:url(#SVGID_16_);}
	.st6{clip-path:url(#SVGID_22_);}
	.st7{fill:#53A6C1;}
	.st8{fill:#808080;}
	.st9{fill:#6864E5;}
	.st10{fill:#FFFFFF;}
	.st11{fill:#FFFFFF;stroke:#DBDBDB;stroke-miterlimit:10;}
	.st12{opacity:0.78;}
	.st13{fill:#D2D2D2;}
	.st14{fill:#FF6680;}
	.st15{fill:none;stroke:#5747E4;stroke-miterlimit:10;}
	.st16{opacity:0.14;fill:#ACACAB;}
	.st17{fill:#ACACAB;}
	.st18{fill:none;stroke:#ACACAB;stroke-width:0.5;stroke-miterlimit:10;}
	.st19{fill:#6F6F6E;}
	.st20{clip-path:url(#SVGID_26_);}
	.st21{fill:none;stroke:#DBDBDB;stroke-width:3;stroke-miterlimit:10;}
	.st22{opacity:0.81;}
	.st23{fill:#DBDBDB;}
	.st24{opacity:0.39;fill:#D2D2D2;}
	.st25{fill:none;stroke:#ACACAB;stroke-miterlimit:10;}
	.st26{clip-path:url(#SVGID_28_);}
	.st27{clip-path:url(#SVGID_30_);fill:url(#SVGID_31_);}
	.st28{opacity:0.46;clip-path:url(#SVGID_30_);fill:#3F3CB2;}
	.st29{opacity:0.15;clip-path:url(#SVGID_30_);fill:#352D90;}
	.st30{fill:#352D90;}
	.st31{fill:#07C0D7;}
	.st32{opacity:0.46;clip-path:url(#SVGID_28_);fill:#3F3CB2;}
	.st33{fill:#5050C1;}
	.st34{fill:none;stroke:#07C0D7;stroke-miterlimit:10;}
	.st35{fill:#3F3CB2;}
	.st36{opacity:0.81;fill:#352D90;}
	.st37{fill:none;}
	.st38{clip-path:url(#SVGID_33_);}
	.st39{clip-path:url(#SVGID_35_);}
	.st40{clip-path:url(#SVGID_37_);fill:url(#SVGID_38_);}
	.st41{opacity:0.46;clip-path:url(#SVGID_37_);fill:#3F3CB2;}
	.st42{opacity:0.15;clip-path:url(#SVGID_37_);fill:#352D90;}
	.st43{opacity:0.46;clip-path:url(#SVGID_35_);fill:#3F3CB2;}
	.st44{clip-path:url(#SVGID_42_);}
	.st45{clip-path:url(#SVGID_48_);}
	.st46{clip-path:url(#SVGID_54_);}
	.st47{clip-path:url(#SVGID_60_);}
	.st48{clip-path:url(#SVGID_64_);}
	.st49{clip-path:url(#SVGID_68_);fill:#FFFFFF;}
	.st50{clip-path:url(#SVGID_68_);}
	.st51{clip-path:url(#SVGID_70_);fill:#FF668B;}
	.st52{clip-path:url(#SVGID_72_);}
	.st53{clip-path:url(#SVGID_76_);}
	.st54{clip-path:url(#SVGID_78_);fill:#FF668B;}
	.st55{clip-path:url(#SVGID_76_);fill:none;}
	.st56{clip-path:url(#SVGID_80_);}
	.st57{clip-path:url(#SVGID_82_);fill:#FF668B;}
	.st58{clip-path:url(#SVGID_80_);fill:none;}
	.st59{clip-path:url(#SVGID_84_);}
	.st60{clip-path:url(#SVGID_84_);fill:none;}
	.st61{clip-path:url(#SVGID_88_);}
	.st62{clip-path:url(#SVGID_88_);fill:none;}
	.st63{clip-path:url(#SVGID_92_);}
	.st64{clip-path:url(#SVGID_92_);fill:none;}
	.st65{clip-path:url(#SVGID_96_);}
	.st66{clip-path:url(#SVGID_96_);fill:none;}
	.st67{fill:#E3CDC9;}
	.st68{fill:#8155FF;}
	.st69{fill:none;stroke:#FFFFFF;stroke-width:0.6238;stroke-miterlimit:10;}
	.st70{fill:none;stroke:#FFFFFF;stroke-width:1.0888;stroke-miterlimit:10;}
	.st71{fill:none;stroke:#FAFAFA;stroke-width:1.103;stroke-linecap:round;stroke-linejoin:round;stroke-miterlimit:10;}
	.st72{fill:#FDB9B9;}
	.st73{fill:#2B4183;}
	.st74{fill:#FFCB2D;}
	.st75{fill:none;stroke:#F0E0DF;stroke-width:2.2132;stroke-miterlimit:10;}
	.st76{fill:#F88AA0;}
	.st77{fill:none;stroke:#FFFFFF;stroke-width:2.0174;stroke-miterlimit:10;}
	.st78{fill:#FFA80A;}
	.st79{fill:#F67B91;}
	.st80{fill:#F6F6F6;}
	.st81{opacity:0.71;}
	.st82{clip-path:url(#SVGID_100_);fill:#FFFFFF;}
	.st83{fill:#8054FF;}
	.st84{fill:#7041FD;}
	.st85{fill:#FA849B;}
	.st86{fill:#181F42;}
	.st87{fill:none;stroke:#FFFFFF;stroke-width:1.5042;stroke-linecap:round;stroke-linejoin:round;stroke-miterlimit:10;}
	.st88{fill:#FFCD2E;}
	.st89{fill:#F2BB19;}
	.st90{fill:#E6728C;}
	.st91{fill:#312725;}
	.st92{fill:#F8879D;}
	.st93{fill:none;stroke:#312725;stroke-width:0.5974;stroke-linecap:round;stroke-linejoin:round;stroke-miterlimit:10;}
	.st94{fill:none;stroke:#281F27;stroke-width:0.7565;stroke-miterlimit:10;}
</style>
<g>
	<path class="st23" d="M74.54,46.27c2.64,9.75,1.31,18.69-4.99,26.79c3.81,2.06,7.14,4.65,9.99,8.37c0-2.16,0.19-3.97-0.04-5.72
		c-0.57-4.51,0.84-8.19,3.66-11.72c3.33-4.16,6.18-8.7,9.25-13.06c1.26-1.79,2.51-1.78,3.77,0.02c4.06,5.78,8.12,11.56,12.13,17.38
		c0.42,0.62,0.69,1.47,0.7,2.22c0.05,7.3,0.03,14.6,0.03,21.9c0,0.42,0,0.84,0,1.42c0.46,0,0.86,0,1.27,0c3.11,0,6.22-0.01,9.33,0
		c1.65,0,2.3,0.65,2.3,2.3c0.01,8.26,0,16.52,0,24.78c0,1.81-0.61,2.42-2.42,2.42c-13.44,0-26.89,0.01-40.33-0.02
		c-0.88,0-1.31,0.26-1.74,1.05c-2.81,5.14-7,8.2-13.03,8.16c-3.93-0.03-7.17-1.77-9.84-4.6c-0.26-0.28-0.51-0.57-0.82-0.91
		c-4.91,2.47-9.86,2.5-14.81,0c-0.28,0.31-0.54,0.59-0.8,0.87c-5.77,6.31-15.13,6.28-20.67-0.23c-4.66-5.48-5.45-11.74-3.03-18.46
		c0.13-0.36,0.28-0.71,0.42-1.07c0.01-0.03,0-0.07,0,0.06c-1.33-0.92-2.71-1.66-3.81-2.69c-2.55-2.39-3.66-5.38-3.37-8.92
		c0.62-7.59,3.39-14.15,9.19-19.22c1.86-1.63,3.99-2.96,6.09-4.49c0,0-0.07-0.16-0.18-0.3c-5.88-7.59-7.2-16.08-4.92-25.25
		c0.2-0.81,0.09-1.19-0.63-1.65c-4.55-2.89-6.73-8.12-5.7-13.46c0.97-5.01,5.21-9.18,10.21-10.06c5.38-0.95,10.56,1.3,13.37,5.88
		c0.46,0.76,0.84,0.9,1.71,0.67c6.32-1.71,12.67-1.7,19,0.01c0.8,0.22,1.17,0.12,1.63-0.63c3.07-5.04,9.1-7.31,14.69-5.63
		c5.59,1.69,9.43,6.93,9.18,12.78C81.13,40.13,78.76,43.76,74.54,46.27z M46.74,79.13c0.76-0.06,1.99-0.13,3.21-0.24
		c12.4-1.07,21.06-9.53,22.09-21.91c0.84-10.09-4.19-19.79-14.59-23.85c-4.74-1.85-9.67-2.27-14.71-1.79
		c-12.06,1.17-20.97,9.19-22.09,21.18c-0.76,8.17,1.6,15.28,7.98,20.72C33.7,77.57,39.78,79.02,46.74,79.13z M62.93,99.5
		c-0.16-1.31-0.26-2.57-0.46-3.8c-0.82-4.98-2.62-9.52-5.97-13.38c-0.44-0.51-0.82-0.73-1.57-0.55c-5.69,1.39-11.41,1.39-17.1,0.03
		c-0.84-0.2-1.26,0.04-1.75,0.61c-2.38,2.79-4.07,5.96-4.99,9.5c-0.64,2.46-1.02,4.99-1.52,7.54c5.75,1.14,9.46,4.4,11.61,9.4
		c2.13,4.98,1.93,10.01-0.23,14.92c2.93,1.91,8,1.89,10.68,0.03C46.72,112.86,53.27,101.08,62.93,99.5z M38.98,116.26
		c-0.07-3.55-0.98-6.55-3.06-9.13c-3.91-4.87-10.43-5.4-14.91-1.21c-5.7,5.32-5.53,15.36,0.35,20.47c3.59,3.12,8.48,3.39,12.31,0.59
		C37.36,124.27,38.81,120.43,38.98,116.26z M75.85,116.19c-0.05-2.73-0.61-5.09-1.84-7.28c-3.59-6.39-11.16-7.75-16.23-2.9
		c-5.47,5.23-5.41,14.92,0.13,20.08c3.98,3.71,9.63,3.75,13.64,0.07C74.53,123.43,75.74,119.92,75.85,116.19z M32.89,80.47
		c-2.13-1.38-4.21-2.66-6.21-4.06c-0.63-0.44-1.03-0.51-1.72-0.15C16.62,80.68,12.1,87.59,11.37,97c-0.26,3.26,1.61,6.27,4.66,7.45
		c0.69,0.27,1.14,0.21,1.68-0.39c1.99-2.24,4.48-3.73,7.42-4.34c0.76-0.16,0.98-0.44,1.03-1.17C26.68,91.86,28.68,85.71,32.89,80.47
		z M59.84,80.46c0.64,0.94,1.42,1.98,2.1,3.08c2.81,4.62,4.18,9.69,4.58,15.05c0.05,0.66,0.2,0.97,0.95,1.12
		c2.79,0.54,5.15,1.94,7.15,3.94c1.23,1.23,1.25,1.28,2.78,0.4c3.03-1.74,4.16-4.34,3.79-7.83c-0.98-9.24-5.63-15.88-13.85-20.09
		c-0.25-0.13-0.7-0.18-0.92-0.04C64.23,77.52,62.05,78.99,59.84,80.46z M118.21,97.63c-7.4,0-14.71,0-21.99,0c0,7.39,0,14.7,0,21.99
		c7.37,0,14.65,0,21.99,0C118.21,112.28,118.21,105,118.21,97.63z M105.27,93.83c0-7.42,0-14.73,0-22c-7.39,0-14.7,0-22.05,0
		c0,4.31,0.17,8.54-0.05,12.75c-0.17,3.24,0.92,6.16,1.5,9.25C91.54,93.83,98.37,93.83,105.27,93.83z M19.55,42.75
		c2.78-5.62,7.03-9.68,12.59-12.36c-1.43-3.11-5.35-5.15-8.95-4.72c-3.97,0.47-7.17,3.36-7.99,7.23
		C14.37,36.79,16.04,40.69,19.55,42.75z M60.46,30.39c5.64,2.7,9.85,6.78,12.61,12.32c3.07-1.53,5.04-5.46,4.55-8.92
		c-0.61-4.27-3.58-7.34-7.82-8.06C66.16,25.1,62.18,27.06,60.46,30.39z M92.36,119.63c0-7.4,0-14.71,0-22c-2.48,0-4.88,0-7.22,0
		c-0.21,1.24-0.4,2.39-0.6,3.61c0.8,0,1.53-0.02,2.26,0.01c1.22,0.05,1.94,0.73,1.95,1.95c0.03,3.61,0.03,7.22,0,10.83
		c-0.01,1.22-0.72,1.9-1.95,1.96c-0.46,0.02-0.92,0.01-1.38,0.01c-1.94,0-3.89,0-5.81,0c-0.13,1.3-0.24,2.44-0.36,3.63
		C83.62,119.63,87.95,119.63,92.36,119.63z M84.97,67.97c6.31,0,12.38,0,18.63,0c-3.13-4.47-6.17-8.82-9.31-13.3
		C91.14,59.16,88.1,63.5,84.97,67.97z M79.24,112.24c1.86,0,3.79,0,5.76,0c0-2.45,0-4.84,0-7.4c-1.05,0.1-2.16-0.08-2.94,0.35
		c-1.48,0.82-2.77,1.98-4.17,3.02C78.29,109.41,78.75,110.78,79.24,112.24z"/>
	<path class="st23" d="M44.48,70.02c0-2.17,0.02-3.93-0.03-5.69c-0.01-0.26-0.31-0.57-0.56-0.76c-0.98-0.74-2-1.43-2.99-2.16
		c-1.71-1.26-2.35-3.16-1.75-5.07c0.62-1.95,2.17-3.05,4.36-3.06c1.92-0.01,3.84-0.02,5.76,0c1.96,0.02,3.53,1.12,4.15,2.89
		c0.64,1.82,0.13,3.76-1.39,4.99c-1.01,0.82-2.14,1.5-3.15,2.32c-0.35,0.29-0.67,0.82-0.69,1.26c-0.08,1.49-0.03,2.99-0.03,4.49
		c0,0.11,0.04,0.22,0.06,0.33c4,0.39,8.86-3.59,9.1-7.61c0.09-1.44,1.09-2.32,2.09-2.2c1.15,0.14,1.79,1.1,1.62,2.6
		c-0.42,3.88-2.54,6.67-5.74,8.71c-5.79,3.68-13.98,3.29-19.34-0.98c-2.67-2.13-4.33-4.86-4.38-8.37c-0.02-1.12,0.69-1.88,1.69-1.96
		c1.03-0.08,1.91,0.66,1.97,1.82c0.14,3.09,1.82,5.18,4.39,6.56C41.08,68.91,42.71,69.35,44.48,70.02z M46.38,56.98
		c-0.92,0-1.84-0.04-2.76,0.02c-0.32,0.02-0.8,0.24-0.88,0.48c-0.08,0.26,0.13,0.76,0.37,0.95c0.89,0.72,1.84,1.38,2.8,2.01
		c0.19,0.13,0.61,0.13,0.81,0c0.99-0.65,1.97-1.34,2.9-2.07c0.21-0.17,0.37-0.64,0.29-0.88c-0.07-0.23-0.49-0.47-0.77-0.49
		C48.23,56.94,47.3,56.98,46.38,56.98z"/>
	<path class="st23" d="M35.28,49.61c0.99,0.01,1.83,0.87,1.82,1.86c-0.02,0.99-0.88,1.83-1.87,1.81c-1.01-0.01-1.81-0.85-1.8-1.86
		C33.44,50.41,34.27,49.6,35.28,49.61z"/>
	<path class="st23" d="M59.23,51.42c0.01,0.99-0.83,1.85-1.82,1.86c-1,0.01-1.84-0.8-1.85-1.81c-0.01-1.01,0.79-1.84,1.8-1.86
		C58.35,49.6,59.21,50.43,59.23,51.42z"/>
	<path class="st23" d="M107.17,115.99c-1.73,0-3.46,0.02-5.18-0.01c-1.83-0.03-2.63-1.31-1.81-2.96c1.73-3.51,3.45-7.02,5.28-10.48
		c0.3-0.58,1.08-1.09,1.73-1.25c0.88-0.21,1.45,0.5,1.83,1.27c1.72,3.47,3.47,6.93,5.18,10.4c0.85,1.74,0.08,2.99-1.84,3.01
		C110.62,116.01,108.89,115.99,107.17,115.99z M109.73,112.27c-0.86-1.72-1.64-3.27-2.53-5.05c-0.9,1.8-1.68,3.37-2.51,5.05
		C106.42,112.27,107.98,112.27,109.73,112.27z"/>
	<path class="st23" d="M94.35,90.17c-4.08,0.02-7.42-3.28-7.43-7.35c-0.02-4.07,3.29-7.4,7.37-7.4c4.03,0,7.34,3.27,7.37,7.29
		C101.7,86.79,98.4,90.15,94.35,90.17z M94.33,86.48c2.01-0.02,3.65-1.68,3.64-3.69c-0.01-2.05-1.72-3.72-3.78-3.67
		c-1.99,0.04-3.63,1.76-3.58,3.75C90.65,84.88,92.31,86.5,94.33,86.48z"/>
</g>
</svg>
