<svg xmlns="http://www.w3.org/2000/svg" xmlns:xlink="http://www.w3.org/1999/xlink" viewBox="0 0 150.2 39.36"><defs><style>.cls-1{fill:#5747ea;}.cls-2{clip-path:url(#clip-path);}.cls-3{clip-path:url(#clip-path-2);}.cls-4{fill:#51abc7;}.cls-5{clip-path:url(#clip-path-3);}.cls-6{clip-path:url(#clip-path-4);}.cls-7{fill:#53acc7;}</style><clipPath id="clip-path"><path id="SVGID" class="cls-1" d="M0,3.06A2.63,2.63,0,0,1,2.65.41h8.52a8.7,8.7,0,0,1,6.29,2.13,5.52,5.52,0,0,1,1.65,4.09V6.7A5.58,5.58,0,0,1,16,11.89c2.79,1.07,4.5,2.69,4.5,5.92v.07c0,4.4-3.57,6.6-9,6.6H2.65A2.63,2.63,0,0,1,0,21.83Zm10,7.08c2.34,0,3.81-.76,3.81-2.54V7.53c0-1.58-1.23-2.48-3.47-2.48H5.16v5.09Zm1.41,9.7c2.34,0,3.74-.83,3.74-2.62v-.07c0-1.61-1.2-2.61-3.91-2.61H5.16v5.3Z"/></clipPath><clipPath id="clip-path-2"><path id="SVGID-2" data-name="SVGID" class="cls-1" d="M23.21,12.51v-.07A12.44,12.44,0,0,1,36,0,12.33,12.33,0,0,1,48.78,12.38v.06A12.44,12.44,0,0,1,36,24.89,12.33,12.33,0,0,1,23.21,12.51Zm20,0v-.07A7.31,7.31,0,0,0,36,4.88a7.2,7.2,0,0,0-7.22,7.5v.06A7.32,7.32,0,0,0,36,20,7.2,7.2,0,0,0,43.25,12.51Z"/></clipPath><clipPath id="clip-path-3"><path id="SVGID-3" data-name="SVGID" class="cls-1" d="M105.55,21.83V3.06A2.62,2.62,0,0,1,108.19.41h13.34a2.38,2.38,0,0,1,2.37,2.37,2.34,2.34,0,0,1-2.37,2.34H110.81V10H120a2.39,2.39,0,0,1,2.38,2.38A2.35,2.35,0,0,1,120,14.71h-9.17v5.06H121.7a2.37,2.37,0,0,1,2.37,2.37,2.34,2.34,0,0,1-2.37,2.34H108.19A2.62,2.62,0,0,1,105.55,21.83Z"/></clipPath><clipPath id="clip-path-4"><path id="SVGID-4" data-name="SVGID" class="cls-1" d="M128,3.06A2.63,2.63,0,0,1,130.68.41h6.74c7.56,0,12.78,5.19,12.78,12v.06c0,6.78-5.22,12-12.78,12h-6.74A2.63,2.63,0,0,1,128,21.83Zm9.39,16.64a6.86,6.86,0,0,0,7.25-7.19v-.07a6.91,6.91,0,0,0-7.25-7.25h-4.1V19.7Z"/></clipPath></defs><title>Recurso 40</title><g id="Capa_2" data-name="Capa 2"><g id="Capa_1-2" data-name="Capa 1"><path id="SVGID-5" data-name="SVGID" class="cls-1" d="M0,3.06A2.63,2.63,0,0,1,2.65.41h8.52a8.7,8.7,0,0,1,6.29,2.13,5.52,5.52,0,0,1,1.65,4.09V6.7A5.58,5.58,0,0,1,16,11.89c2.79,1.07,4.5,2.69,4.5,5.92v.07c0,4.4-3.57,6.6-9,6.6H2.65A2.63,2.63,0,0,1,0,21.83Zm10,7.08c2.34,0,3.81-.76,3.81-2.54V7.53c0-1.58-1.23-2.48-3.47-2.48H5.16v5.09Zm1.41,9.7c2.34,0,3.74-.83,3.74-2.62v-.07c0-1.61-1.2-2.61-3.91-2.61H5.16v5.3Z"/><g class="cls-2"><rect class="cls-1" x="5.16" y="14.54" width="0.98" height="5.29"/><rect class="cls-1" x="6.14" y="14.54" width="1.02" height="5.29"/><rect class="cls-1" x="7.16" y="14.54" width="1.02" height="5.29"/><rect class="cls-1" x="8.18" y="14.54" width="1.02" height="5.29"/><rect class="cls-1" x="9.2" y="14.54" width="1.02" height="5.29"/><rect class="cls-1" x="10.23" y="14.54" width="1.02" height="5.29"/><rect class="cls-1" x="11.25" y="14.54" width="1.02" height="5.29"/><rect class="cls-1" x="12.27" y="14.54" width="1.02" height="5.29"/><rect class="cls-1" x="13.3" y="14.54" width="1.02" height="5.29"/><rect class="cls-1" x="14.32" y="14.54" width="0.88" height="5.29"/><rect class="cls-1" x="5.16" y="5.05" width="0.98" height="5.09"/><rect class="cls-1" x="6.14" y="5.05" width="1.02" height="5.09"/><rect class="cls-1" x="7.16" y="5.05" width="1.02" height="5.09"/><rect class="cls-1" x="8.18" y="5.05" width="1.02" height="5.09"/><rect class="cls-1" x="9.2" y="5.05" width="1.02" height="5.09"/><rect class="cls-1" x="10.23" y="5.05" width="1.02" height="5.09"/><rect class="cls-1" x="11.25" y="5.05" width="1.02" height="5.09"/><rect class="cls-1" x="12.27" y="5.05" width="1.02" height="5.09"/><rect class="cls-1" x="13.3" y="5.05" width="0.56" height="5.09"/><path class="cls-1" d="M0,.41v0Z"/><rect class="cls-1" y="0.41" width="1.02" height="24.06"/><rect class="cls-1" x="1.02" y="0.41" width="1.02" height="24.06"/><rect class="cls-1" x="2.05" y="0.41" width="1.02" height="24.06"/><rect class="cls-1" x="3.07" y="0.41" width="1.02" height="24.06"/><rect class="cls-1" x="4.09" y="0.41" width="1.02" height="24.06"/><rect class="cls-1" x="5.11" y="0.41" width="1.02" height="24.06"/><rect class="cls-1" x="6.14" y="0.41" width="1.02" height="24.06"/><rect class="cls-1" x="7.16" y="0.41" width="1.02" height="24.06"/><rect class="cls-1" x="8.18" y="0.41" width="1.02" height="24.06"/><rect class="cls-1" x="9.2" y="0.41" width="1.02" height="24.06"/><rect class="cls-1" x="10.23" y="0.41" width="1.02" height="24.06"/><rect class="cls-1" x="11.25" y="0.41" width="1.02" height="24.06"/><rect class="cls-1" x="12.27" y="0.41" width="1.02" height="24.06"/><rect class="cls-1" x="13.3" y="0.41" width="1.02" height="24.06"/><rect class="cls-1" x="14.32" y="0.41" width="1.02" height="24.06"/><rect class="cls-1" x="15.34" y="0.41" width="1.02" height="24.06"/><rect class="cls-1" x="16.36" y="0.41" width="1.02" height="24.06"/><rect class="cls-1" x="17.39" y="0.41" width="1.02" height="24.06"/><rect class="cls-1" x="18.41" y="0.41" width="1.02" height="24.06"/><rect class="cls-1" x="19.43" y="0.41" width="1.02" height="24.06"/><path class="cls-1" d="M20.45,24.48v0Z"/></g><path id="SVGID-6" data-name="SVGID" class="cls-1" d="M23.21,12.51v-.07A12.44,12.44,0,0,1,36,0,12.33,12.33,0,0,1,48.78,12.38v.06A12.44,12.44,0,0,1,36,24.89,12.33,12.33,0,0,1,23.21,12.51Zm20,0v-.07A7.31,7.31,0,0,0,36,4.88a7.2,7.2,0,0,0-7.22,7.5v.06A7.32,7.32,0,0,0,36,20,7.2,7.2,0,0,0,43.25,12.51Z"/><g class="cls-3"><rect class="cls-1" x="28.74" y="4.88" width="0.86" height="15.13"/><rect class="cls-1" x="29.6" y="4.88" width="1.28" height="15.13"/><rect class="cls-1" x="30.88" y="4.88" width="1.28" height="15.13"/><rect class="cls-1" x="32.16" y="4.88" width="1.28" height="15.13"/><rect class="cls-1" x="33.44" y="4.88" width="1.28" height="15.13"/><rect class="cls-1" x="34.72" y="4.88" width="1.28" height="15.13"/><rect class="cls-1" x="35.99" y="4.88" width="1.28" height="15.13"/><rect class="cls-1" x="37.27" y="4.88" width="1.28" height="15.13"/><rect class="cls-1" x="38.55" y="4.88" width="1.28" height="15.13"/><rect class="cls-1" x="39.83" y="4.88" width="1.28" height="15.13"/><rect class="cls-1" x="41.11" y="4.88" width="1.28" height="15.13"/><rect class="cls-1" x="42.39" y="4.88" width="0.86" height="15.13"/><path class="cls-1" d="M23.21,0V0Z"/><rect class="cls-1" x="23.21" width="1.28" height="24.89"/><rect class="cls-1" x="24.48" width="1.28" height="24.89"/><rect class="cls-1" x="25.76" width="1.28" height="24.89"/><rect class="cls-1" x="27.04" width="1.28" height="24.89"/><rect class="cls-1" x="28.32" width="1.28" height="24.89"/><rect class="cls-1" x="29.6" width="1.28" height="24.89"/><rect class="cls-1" x="30.88" width="1.28" height="24.89"/><rect class="cls-1" x="32.16" width="1.28" height="24.89"/><rect class="cls-1" x="33.44" width="1.28" height="24.89"/><rect class="cls-1" x="34.72" width="1.28" height="24.89"/><rect class="cls-1" x="35.99" width="1.28" height="24.89"/><rect class="cls-1" x="37.27" width="1.28" height="24.89"/><rect class="cls-1" x="38.55" width="1.28" height="24.89"/><rect class="cls-1" x="39.83" width="1.28" height="24.89"/><rect class="cls-1" x="41.11" width="1.28" height="24.89"/><rect class="cls-1" x="42.39" width="1.28" height="24.89"/><rect class="cls-1" x="43.67" width="1.28" height="24.89"/><rect class="cls-1" x="44.95" width="1.28" height="24.89"/><rect class="cls-1" x="46.23" width="1.28" height="24.89"/><rect class="cls-1" x="47.5" width="1.28" height="24.89"/><path class="cls-1" d="M48.78,24.89v0Z"/></g><path class="cls-4" d="M51.88,12.51v-.07A12.44,12.44,0,0,1,64.7,0c7.43,0,12.76,5.53,12.76,12.38v.06A12.45,12.45,0,0,1,64.63,24.89,12.33,12.33,0,0,1,51.88,12.51Zm20,0v-.07a7.31,7.31,0,0,0-7.29-7.56,7.2,7.2,0,0,0-7.22,7.5v.06A7.32,7.32,0,0,0,64.7,20,7.2,7.2,0,0,0,71.92,12.51Z"/><path class="cls-4" d="M81.62,2.85a2.65,2.65,0,0,1,5.29,0v8.08l9.76-9.69a3,3,0,0,1,2.24-1,2.38,2.38,0,0,1,2.44,2.44,2.66,2.66,0,0,1-1,2L93.61,11l7.4,9.28a2.8,2.8,0,0,1,.72,1.85,2.56,2.56,0,0,1-2.68,2.58,2.68,2.68,0,0,1-2.24-1.27l-6.87-9-3,2.82V22a2.65,2.65,0,0,1-5.29,0Z"/><path id="SVGID-7" data-name="SVGID" class="cls-1" d="M105.55,21.83V3.06A2.62,2.62,0,0,1,108.19.41h13.34a2.38,2.38,0,0,1,2.37,2.37,2.34,2.34,0,0,1-2.37,2.34H110.81V10H120a2.39,2.39,0,0,1,2.38,2.38A2.35,2.35,0,0,1,120,14.71h-9.17v5.06H121.7a2.37,2.37,0,0,1,2.37,2.37,2.34,2.34,0,0,1-2.37,2.34H108.19A2.62,2.62,0,0,1,105.55,21.83Z"/><g class="cls-5"><path class="cls-1" d="M105.55.41v0Z"/><rect class="cls-1" x="105.55" y="0.41" width="0.93" height="24.06"/><rect class="cls-1" x="106.47" y="0.41" width="0.93" height="24.06"/><rect class="cls-1" x="107.4" y="0.41" width="0.93" height="24.06"/><rect class="cls-1" x="108.32" y="0.41" width="0.93" height="24.06"/><rect class="cls-1" x="109.25" y="0.41" width="0.93" height="24.06"/><rect class="cls-1" x="110.18" y="0.41" width="0.93" height="24.06"/><rect class="cls-1" x="111.1" y="0.41" width="0.93" height="24.06"/><rect class="cls-1" x="112.03" y="0.41" width="0.93" height="24.06"/><rect class="cls-1" x="112.96" y="0.41" width="0.93" height="24.06"/><rect class="cls-1" x="113.88" y="0.41" width="0.93" height="24.06"/><rect class="cls-1" x="114.81" y="0.41" width="0.93" height="24.06"/><rect class="cls-1" x="115.74" y="0.41" width="0.93" height="24.06"/><rect class="cls-1" x="116.66" y="0.41" width="0.93" height="24.06"/><rect class="cls-1" x="117.59" y="0.41" width="0.93" height="24.06"/><rect class="cls-1" x="118.52" y="0.41" width="0.93" height="24.06"/><rect class="cls-1" x="119.44" y="0.41" width="0.93" height="24.06"/><rect class="cls-1" x="120.37" y="0.41" width="0.93" height="24.06"/><rect class="cls-1" x="121.3" y="0.41" width="0.93" height="24.06"/><rect class="cls-1" x="122.22" y="0.41" width="0.93" height="24.06"/><rect class="cls-1" x="123.15" y="0.41" width="0.93" height="24.06"/><path class="cls-1" d="M124.07,24.48v0Z"/></g><path id="SVGID-8" data-name="SVGID" class="cls-1" d="M128,3.06A2.63,2.63,0,0,1,130.68.41h6.74c7.56,0,12.78,5.19,12.78,12v.06c0,6.78-5.22,12-12.78,12h-6.74A2.63,2.63,0,0,1,128,21.83Zm9.39,16.64a6.86,6.86,0,0,0,7.25-7.19v-.07a6.91,6.91,0,0,0-7.25-7.25h-4.1V19.7Z"/><g class="cls-6"><rect class="cls-1" x="133.32" y="5.19" width="0.25" height="14.51"/><rect class="cls-1" x="133.57" y="5.19" width="1.11" height="14.51"/><rect class="cls-1" x="134.68" y="5.19" width="1.11" height="14.51"/><rect class="cls-1" x="135.79" y="5.19" width="1.11" height="14.51"/><rect class="cls-1" x="136.9" y="5.19" width="1.11" height="14.51"/><rect class="cls-1" x="138.01" y="5.19" width="1.11" height="14.51"/><rect class="cls-1" x="139.12" y="5.19" width="1.11" height="14.51"/><rect class="cls-1" x="140.23" y="5.19" width="1.11" height="14.51"/><rect class="cls-1" x="141.33" y="5.19" width="1.11" height="14.51"/><rect class="cls-1" x="142.44" y="5.19" width="1.11" height="14.51"/><rect class="cls-1" x="143.55" y="5.19" width="1.11" height="14.51"/><rect class="cls-1" x="144.66" y="5.19" width="0.01" height="14.51"/><path class="cls-1" d="M128,.41v0Z"/><rect class="cls-1" x="128.03" y="0.41" width="1.11" height="24.06"/><rect class="cls-1" x="129.14" y="0.41" width="1.11" height="24.06"/><rect class="cls-1" x="130.25" y="0.41" width="1.11" height="24.06"/><rect class="cls-1" x="131.36" y="0.41" width="1.11" height="24.06"/><rect class="cls-1" x="132.47" y="0.41" width="1.11" height="24.06"/><rect class="cls-1" x="133.57" y="0.41" width="1.11" height="24.06"/><rect class="cls-1" x="134.68" y="0.41" width="1.11" height="24.06"/><rect class="cls-1" x="135.79" y="0.41" width="1.11" height="24.06"/><rect class="cls-1" x="136.9" y="0.41" width="1.11" height="24.06"/><rect class="cls-1" x="138.01" y="0.41" width="1.11" height="24.06"/><rect class="cls-1" x="139.12" y="0.41" width="1.11" height="24.06"/><rect class="cls-1" x="140.23" y="0.41" width="1.11" height="24.06"/><rect class="cls-1" x="141.33" y="0.41" width="1.11" height="24.06"/><rect class="cls-1" x="142.44" y="0.41" width="1.11" height="24.06"/><rect class="cls-1" x="143.55" y="0.41" width="1.11" height="24.06"/><rect class="cls-1" x="144.66" y="0.41" width="1.11" height="24.06"/><rect class="cls-1" x="145.77" y="0.41" width="1.11" height="24.06"/><rect class="cls-1" x="146.88" y="0.41" width="1.11" height="24.06"/><rect class="cls-1" x="147.99" y="0.41" width="1.11" height="24.06"/><rect class="cls-1" x="149.1" y="0.41" width="1.11" height="24.06"/><path class="cls-1" d="M150.2,24.48v0Z"/></g><rect class="cls-7" x="0.51" y="32.16" width="28.23" height="7.2"/></g></g></svg>