<?xml version="1.0" encoding="utf-8"?>
<!-- Generator: Adobe Illustrator 24.2.1, SVG Export Plug-In . SVG Version: 6.00 Build 0)  -->
<svg version="1.1" id="Capa_1" xmlns="http://www.w3.org/2000/svg" xmlns:xlink="http://www.w3.org/1999/xlink" x="0px" y="0px"
	 viewBox="0 0 498.31 399.6" style="enable-background:new 0 0 498.31 399.6;" xml:space="preserve">
<style type="text/css">
	.st0{opacity:0.68;fill:#9199C1;}
	.st1{opacity:0.43;}
	.st2{fill:#C1B9D0;}
	.st3{fill:#383A80;}
	.st4{fill-rule:evenodd;clip-rule:evenodd;fill:#E0BAAA;}
	.st5{fill-rule:evenodd;clip-rule:evenodd;fill:#DFAD97;}
	.st6{fill-rule:evenodd;clip-rule:evenodd;fill:#8890BC;}
	.st7{fill-rule:evenodd;clip-rule:evenodd;fill:#5050BE;}
	.st8{fill-rule:evenodd;clip-rule:evenodd;fill:#DEA689;}
	.st9{fill-rule:evenodd;clip-rule:evenodd;fill:#C0B6CE;}
	.st10{clip-path:url(#SVGID_2_);}
	.st11{fill:#5050BE;}
	.st12{fill:#4F4EBD;}
	.st13{fill:#4D4DBC;}
	.st14{fill:#4C4BBA;}
	.st15{fill:#4B4AB9;}
	.st16{fill:#4A48B8;}
	.st17{fill:#4847B7;}
	.st18{fill:#4746B6;}
	.st19{fill:#4645B5;}
	.st20{fill:#4543B5;}
	.st21{fill:#4442B4;}
	.st22{fill:#4341B3;}
	.st23{fill:#4340B2;}
	.st24{fill:#423FB2;}
	.st25{fill:#413FB1;}
	.st26{fill:#413EB0;}
	.st27{fill:#403DB0;}
	.st28{fill:#403DAF;}
	.st29{fill:#3F3CAF;}
	.st30{clip-path:url(#SVGID_4_);}
	.st31{opacity:0.81;}
	.st32{fill-rule:evenodd;clip-rule:evenodd;fill:#352D8D;}
	.st33{clip-path:url(#SVGID_6_);}
	.st34{fill:#FFFFFF;}
	.st35{fill:#37474F;}
	.st36{fill:#FF6680;}
	.st37{fill:#5747E4;}
	.st38{fill:#D3D3D3;}
	.st39{fill:none;stroke:#ACACAB;stroke-miterlimit:10;}
	.st40{opacity:0.32;fill:#D2D2D2;}
	.st41{fill:#D2D2D2;}
	.st42{fill:#ACACAB;}
	.st43{opacity:0.39;fill:#D2D2D2;}
	.st44{fill:none;stroke:#DBDBDB;stroke-width:3;stroke-miterlimit:10;}
	.st45{fill:#DBDBDB;}
	.st46{fill:none;}
	.st47{fill:none;stroke:#3C3C3B;stroke-miterlimit:10;}
	.st48{clip-path:url(#SVGID_8_);}
	.st49{clip-path:url(#SVGID_10_);}
	.st50{clip-path:url(#SVGID_13_);}
	.st51{clip-path:url(#SVGID_17_);fill:url(#SVGID_19_);}
	.st52{opacity:0.81;clip-path:url(#SVGID_17_);fill:#393C80;}
	.st53{clip-path:url(#SVGID_17_);fill:#4A5486;}
	.st54{opacity:0.46;clip-path:url(#SVGID_17_);fill:#3F4980;}
	.st55{opacity:0.49;clip-path:url(#SVGID_17_);fill:#393C80;}
	.st56{fill:#393C80;}
	.st57{fill:#53A6C1;}
	.st58{opacity:0.46;clip-path:url(#SVGID_13_);fill:#3F4980;}
	.st59{opacity:0.58;clip-path:url(#SVGID_13_);}
	.st60{fill:#4A5486;}
	.st61{fill:none;stroke:#53A6C1;stroke-miterlimit:10;}
	.st62{clip-path:url(#SVGID_8_);fill:none;stroke:#4A5486;stroke-width:3;stroke-miterlimit:10;}
	.st63{opacity:0.81;clip-path:url(#SVGID_8_);}
	.st64{fill:#D4D3D2;}
	.st65{clip-path:url(#SVGID_23_);}
	.st66{clip-path:url(#SVGID_29_);}
	.st67{fill:#51A5C1;}
	.st68{clip-path:url(#SVGID_35_);}
	.st69{clip-path:url(#SVGID_38_);}
	.st70{fill:#828181;}
	.st71{clip-path:url(#SVGID_41_);}
	.st72{clip-path:url(#SVGID_43_);}
	.st73{clip-path:url(#SVGID_45_);fill:url(#SVGID_46_);}
	.st74{opacity:0.46;clip-path:url(#SVGID_45_);fill:#3F3CB2;}
	.st75{opacity:0.15;clip-path:url(#SVGID_45_);fill:#352D90;}
	.st76{fill:#352D90;}
	.st77{fill:#07C0D7;}
	.st78{opacity:0.46;clip-path:url(#SVGID_43_);fill:#3F3CB2;}
	.st79{fill:#5050C1;}
	.st80{fill:none;stroke:#07C0D7;stroke-miterlimit:10;}
	.st81{fill:#3F3CB2;}
	.st82{opacity:0.81;fill:#352D90;}
	.st83{fill:none;stroke:#5050C1;stroke-width:3;stroke-miterlimit:10;}
	.st84{clip-path:url(#SVGID_48_);fill:#5747E4;}
	.st85{clip-path:url(#SVGID_50_);fill:#6C69E2;}
	.st86{clip-path:url(#SVGID_52_);fill:#6C69E2;}
	.st87{clip-path:url(#SVGID_55_);fill:#5747E4;}
	.st88{fill:#5747E4;stroke:#5747E4;stroke-width:0.5;stroke-linecap:round;stroke-linejoin:round;stroke-miterlimit:10;}
	.st89{fill:none;stroke:#DBDBDB;stroke-width:0.5;stroke-miterlimit:10;}
	.st90{fill:#6864E5;}
	.st91{fill:url(#SVGID_57_);}
	.st92{fill:url(#SVGID_59_);}
	.st93{fill:url(#SVGID_61_);}
	.st94{opacity:0.33;}
	.st95{clip-path:url(#SVGID_65_);}
	.st96{clip-path:url(#SVGID_71_);}
	.st97{clip-path:url(#SVGID_77_);}
	.st98{clip-path:url(#SVGID_80_);}
	.st99{clip-path:url(#SVGID_83_);}
	.st100{clip-path:url(#SVGID_85_);}
	.st101{clip-path:url(#SVGID_87_);fill:url(#SVGID_88_);}
	.st102{opacity:0.46;clip-path:url(#SVGID_87_);fill:#3F3CB2;}
	.st103{opacity:0.15;clip-path:url(#SVGID_87_);fill:#352D90;}
	.st104{opacity:0.46;clip-path:url(#SVGID_85_);fill:#3F3CB2;}
	.st105{clip-path:url(#SVGID_90_);fill:#5747E4;}
	.st106{clip-path:url(#SVGID_92_);fill:#6C69E2;}
	.st107{clip-path:url(#SVGID_94_);fill:#6C69E2;}
	.st108{clip-path:url(#SVGID_96_);fill:#5747E4;}
	.st109{fill:#6F6F6E;}
	.st110{clip-path:url(#SVGID_98_);fill:#808080;}
	.st111{clip-path:url(#SVGID_100_);fill:#979797;}
	.st112{clip-path:url(#SVGID_104_);fill:#979797;}
	.st113{clip-path:url(#SVGID_108_);fill:#828181;}
	.st114{clip-path:url(#SVGID_112_);}
	.st115{clip-path:url(#SVGID_118_);}
	.st116{clip-path:url(#SVGID_124_);}
	.st117{clip-path:url(#SVGID_127_);}
	.st118{fill:#D7D9DE;}
	.st119{fill:#C0B6CE;}
	.st120{fill:#8890BC;}
	.st121{fill:#8282C2;}
	.st122{opacity:0.39;}
	.st123{clip-path:url(#SVGID_136_);}
	.st124{fill:#B1B1E8;}
	.st125{fill:#99A1C5;}
	.st126{fill:#352D8D;}
	.st127{fill:#DFAD97;}
	.st128{fill:#4764BB;}
	.st129{fill:#5172D9;}
	.st130{fill:#060412;}
	.st131{fill:none;stroke:#060412;stroke-width:0.9422;stroke-miterlimit:10;}
	.st132{fill:#171032;}
	.st133{fill:#211D49;}
	.st134{opacity:0.22;fill:none;stroke:#FFFFFF;stroke-width:0.25;stroke-miterlimit:10;}
	.st135{fill:#2E2C60;}
	.st136{fill:#1C163F;}
	.st137{fill:#271F50;}
	.st138{fill:#D7DDFF;}
	.st139{fill:none;stroke:#FFFFFF;stroke-width:0.3951;stroke-linecap:round;stroke-linejoin:round;stroke-miterlimit:10;}
	.st140{fill:none;stroke:#FFFFFF;stroke-width:0.4765;stroke-linecap:round;stroke-linejoin:round;stroke-miterlimit:10;}
	.st141{fill:none;stroke:#FFFFFF;stroke-width:0.4362;stroke-linecap:round;stroke-linejoin:round;stroke-miterlimit:10;}
	.st142{fill:#8091E8;}
	.st143{fill:#808080;}
	.st144{fill:none;stroke:#5C5CC4;stroke-miterlimit:10;}
	.st145{fill:#5C5CC4;}
	.st146{fill:none;stroke:#5747E4;stroke-miterlimit:10;}
	.st147{opacity:0.5;}
	.st148{fill:#9798A0;}
	.st149{opacity:0.3;fill:#C0B6CE;}
	.st150{opacity:0.5;fill:#FFFFFF;}
	.st151{clip-path:url(#SVGID_140_);}
	.st152{opacity:0.3;fill:#FFFFFF;}
	.st153{opacity:0.3;fill-rule:evenodd;clip-rule:evenodd;fill:#C0B6CE;}
	.st154{fill-rule:evenodd;clip-rule:evenodd;fill:#5747E4;}
	.st155{fill-rule:evenodd;clip-rule:evenodd;fill:#FFFFFF;}
	.st156{fill-rule:evenodd;clip-rule:evenodd;fill:#9ABED8;}
	.st157{fill:#D6DEE4;}
	.st158{fill:#DBD9DF;}
	.st159{fill:#E6E5EC;}
	.st160{fill:#90B0DF;}
	.st161{opacity:0.49;}
	.st162{clip-path:url(#SVGID_144_);}
	.st163{fill:#8C94BE;}
	.st164{fill:#8D95BF;}
	.st165{fill:#8E96BF;}
	.st166{fill:#8F97C0;}
	.st167{fill:#9098C0;}
	.st168{fill:#9199C1;}
	.st169{fill:#929AC1;}
	.st170{fill:#939BC2;}
	.st171{fill:#949CC3;}
	.st172{fill:#959DC3;}
	.st173{fill:#969EC4;}
	.st174{fill:#979FC4;}
	.st175{fill:#98A0C5;}
	.st176{fill:#9BA3C6;}
	.st177{fill:#9CA4C6;}
	.st178{fill:#9DA5C7;}
	.st179{clip-path:url(#SVGID_146_);}
	.st180{clip-path:url(#SVGID_148_);}
	.st181{clip-path:url(#SVGID_150_);}
	.st182{clip-path:url(#SVGID_152_);}
	.st183{clip-path:url(#SVGID_154_);}
	.st184{clip-path:url(#SVGID_156_);fill:#5747E4;}
	.st185{clip-path:url(#SVGID_158_);fill:#6C69E2;}
	.st186{clip-path:url(#SVGID_160_);fill:#5747E4;}
	.st187{clip-path:url(#SVGID_162_);fill:#6C69E2;}
	.st188{clip-path:url(#SVGID_164_);}
	.st189{clip-path:url(#SVGID_167_);}
	.st190{clip-path:url(#SVGID_173_);}
	.st191{clip-path:url(#SVGID_179_);}
	.st192{clip-path:url(#SVGID_185_);}
	.st193{clip-path:url(#SVGID_189_);}
	.st194{clip-path:url(#SVGID_192_);}
	.st195{clip-path:url(#SVGID_194_);}
	.st196{clip-path:url(#SVGID_196_);}
	.st197{clip-path:url(#SVGID_198_);}
	.st198{clip-path:url(#SVGID_200_);}
	.st199{clip-path:url(#SVGID_202_);}
	.st200{clip-path:url(#SVGID_204_);fill:url(#SVGID_205_);}
	.st201{opacity:0.46;clip-path:url(#SVGID_204_);fill:#3F3CB2;}
	.st202{opacity:0.15;clip-path:url(#SVGID_204_);fill:#352D90;}
	.st203{opacity:0.46;clip-path:url(#SVGID_202_);fill:#3F3CB2;}
	.st204{clip-path:url(#SVGID_207_);fill:#5747E4;}
	.st205{clip-path:url(#SVGID_209_);fill:#6C69E2;}
	.st206{clip-path:url(#SVGID_211_);fill:#5747E4;}
	.st207{clip-path:url(#SVGID_213_);fill:#6C69E2;}
	.st208{fill:none;stroke:#D2D2D2;stroke-miterlimit:10;}
	.st209{clip-path:url(#SVGID_215_);}
	.st210{fill:#4A48C9;}
	.st211{fill:#4847C8;}
	.st212{fill:#4746C7;}
	.st213{fill:#4645C6;}
	.st214{fill:#4543C6;}
	.st215{fill:#4442C5;}
	.st216{fill:#4341C4;}
	.st217{fill:#4340C3;}
	.st218{fill:#423FC3;}
	.st219{fill:#413FC2;}
	.st220{fill:#5050CF;}
	.st221{fill:#4F4ECE;}
	.st222{fill:#4D4DCD;}
	.st223{fill:#4C4BCB;}
	.st224{fill:#4B4ACA;}
	.st225{fill:#413EC1;}
	.st226{fill:#403DC1;}
	.st227{fill:#403DC0;}
	.st228{fill:#3F3CC0;}
	.st229{clip-path:url(#SVGID_217_);}
	.st230{fill:#07CEE5;}
	.st231{clip-path:url(#SVGID_219_);}
	.st232{clip-path:url(#SVGID_221_);}
	.st233{fill:#D2CAE1;}
	.st234{clip-path:url(#SVGID_223_);}
	.st235{fill:#9DA5CF;}
	.st236{fill:#9EA6D0;}
	.st237{fill:#9FA7D0;}
	.st238{fill:#A0A8D1;}
	.st239{fill:#A1A9D1;}
	.st240{fill:#A2AAD2;}
	.st241{fill:#A3ABD2;}
	.st242{fill:#A4ACD3;}
	.st243{fill:#A5ADD4;}
	.st244{fill:#A6AED4;}
	.st245{fill:#A7AFD5;}
	.st246{fill:#A8B0D5;}
	.st247{fill:#A9B1D6;}
	.st248{fill:#AAB2D6;}
	.st249{fill:#ACB4D7;}
	.st250{fill:#ADB5D7;}
	.st251{fill:#AEB6D8;}
	.st252{fill:#383A85;}
	.st253{fill-rule:evenodd;clip-rule:evenodd;fill:#F1CBBB;}
	.st254{fill-rule:evenodd;clip-rule:evenodd;fill:#F0BEA8;}
	.st255{fill-rule:evenodd;clip-rule:evenodd;fill:#99A1CD;}
	.st256{fill-rule:evenodd;clip-rule:evenodd;fill:#5050CF;}
	.st257{fill-rule:evenodd;clip-rule:evenodd;fill:#EFB79A;}
	.st258{fill-rule:evenodd;clip-rule:evenodd;fill:#D1C7DF;}
	.st259{clip-path:url(#SVGID_225_);}
	.st260{clip-path:url(#SVGID_227_);}
	.st261{clip-path:url(#SVGID_229_);}
	.st262{clip-path:url(#SVGID_231_);}
	.st263{fill-rule:evenodd;clip-rule:evenodd;fill:#352D9E;}
	.st264{clip-path:url(#SVGID_233_);}
	.st265{fill:#FF6683;}
	.st266{fill:#352D9E;}
	.st267{fill:#575756;}
	.st268{opacity:0.1;clip-path:url(#SVGID_235_);}
	.st269{fill:#ECECEC;}
	.st270{fill:#5747F5;}
	.st271{fill:#E4E4E4;}
	.st272{fill:#F5F5F5;}
	.st273{fill:#E0E0E0;}
	.st274{fill:#27DEBF;}
	.st275{fill:#AFA8BB;}
	.st276{fill:#263238;}
	.st277{opacity:0.2;fill:#8890BC;}
	.st278{opacity:0.2;fill:#4645B5;}
	.st279{fill:#C3998A;}
	.st280{fill:#262472;}
	.st281{opacity:0.2;}
	.st282{fill-rule:evenodd;clip-rule:evenodd;fill:#00000F;}
	.st283{fill:#FFFFFF;stroke:#DBDBDB;stroke-miterlimit:10;}
	.st284{opacity:0.35;fill:#DBDBDB;}
	.st285{opacity:0.78;}
	.st286{fill:#FFFFFF;stroke:#FFFFFF;stroke-width:0.2;stroke-miterlimit:10;}
	.st287{fill:url(#SVGID_236_);}
	.st288{fill:url(#SVGID_237_);}
	.st289{fill:url(#SVGID_238_);}
	.st290{fill:url(#SVGID_239_);}
	.st291{opacity:0.2;enable-background:new    ;}
	.st292{opacity:0.12;enable-background:new    ;}
	.st293{opacity:0.25;fill:#FFFFFF;enable-background:new    ;}
	.st294{clip-path:url(#SVGID_241_);}
	.st295{clip-path:url(#SVGID_244_);fill:#FFFFFF;}
	.st296{clip-path:url(#SVGID_246_);fill:#D8D8D8;}
	.st297{clip-path:url(#SVGID_248_);fill:#D8D8D8;}
	.st298{clip-path:url(#SVGID_250_);}
	.st299{clip-path:url(#SVGID_254_);}
	.st300{clip-path:url(#SVGID_257_);fill:url(#SVGID_258_);}
	.st301{opacity:0.46;clip-path:url(#SVGID_257_);fill:#3F3CB2;}
	.st302{opacity:0.15;clip-path:url(#SVGID_257_);fill:#352D90;}
	.st303{opacity:0.46;clip-path:url(#SVGID_254_);fill:#3F3CB2;}
	.st304{fill:#FFFFFF;stroke:#FFFFFF;stroke-width:0.25;stroke-miterlimit:10;}
	.st305{fill:#FFFFFF;stroke:#FFFFFF;stroke-width:0.25;stroke-linecap:round;stroke-linejoin:round;stroke-miterlimit:10;}
	.st306{clip-path:url(#SVGID_262_);fill:#FFFFFF;}
	.st307{clip-path:url(#SVGID_264_);fill:#F0F0F2;}
	.st308{clip-path:url(#SVGID_266_);fill:#F0F0F2;}
	.st309{clip-path:url(#SVGID_268_);fill:#FFFFFF;}
	.st310{opacity:0.39;clip-path:url(#SVGID_270_);fill:#D2D2D2;}
	.st311{opacity:0.32;clip-path:url(#SVGID_270_);fill:#D2D2D2;}
	.st312{clip-path:url(#SVGID_270_);}
	.st313{clip-path:url(#SVGID_270_);fill:none;stroke:#DBDBDB;stroke-width:3;stroke-miterlimit:10;}
	.st314{opacity:0.81;clip-path:url(#SVGID_270_);}
	.st315{clip-path:url(#SVGID_272_);}
	.st316{clip-path:url(#SVGID_274_);fill:url(#SVGID_275_);}
	.st317{opacity:0.46;clip-path:url(#SVGID_274_);fill:#3F3CB2;}
	.st318{opacity:0.15;clip-path:url(#SVGID_274_);fill:#352D90;}
	.st319{opacity:0.46;clip-path:url(#SVGID_272_);fill:#3F3CB2;}
	.st320{clip-path:url(#SVGID_279_);}
	.st321{clip-path:url(#SVGID_281_);fill:none;stroke:#DBDBDB;stroke-width:3;stroke-miterlimit:10;}
	.st322{opacity:0.81;clip-path:url(#SVGID_281_);}
	.st323{fill-rule:evenodd;clip-rule:evenodd;fill:#D7D9DE;}
	.st324{fill-rule:evenodd;clip-rule:evenodd;fill:#E7EAED;}
	.st325{fill-rule:evenodd;clip-rule:evenodd;fill:#FFEFF0;}
	.st326{fill-rule:evenodd;clip-rule:evenodd;fill:#C6C7C8;}
	.st327{fill-rule:evenodd;clip-rule:evenodd;fill:#E6E7E8;}
	.st328{fill-rule:evenodd;clip-rule:evenodd;fill:#C9C2C0;}
	.st329{fill-rule:evenodd;clip-rule:evenodd;fill:#E2DEDB;}
	.st330{fill-rule:evenodd;clip-rule:evenodd;fill:#B1B1E8;}
	.st331{fill-rule:evenodd;clip-rule:evenodd;fill:#9AA2C3;}
	.st332{fill-rule:evenodd;clip-rule:evenodd;fill:#D9D2E2;}
	.st333{fill-rule:evenodd;clip-rule:evenodd;fill:#0B1329;}
	.st334{fill-rule:evenodd;clip-rule:evenodd;fill:#EAA180;}
	.st335{fill-rule:evenodd;clip-rule:evenodd;fill:#78809D;}
	.st336{clip-path:url(#SVGID_283_);}
	.st337{opacity:0.32;clip-path:url(#SVGID_283_);fill:#D2D2D2;}
	.st338{clip-path:url(#SVGID_285_);}
	.st339{clip-path:url(#SVGID_287_);fill:url(#SVGID_288_);}
	.st340{opacity:0.46;clip-path:url(#SVGID_287_);fill:#3F3CB2;}
	.st341{opacity:0.15;clip-path:url(#SVGID_287_);fill:#352D90;}
	.st342{opacity:0.46;clip-path:url(#SVGID_285_);fill:#3F3CB2;}
	.st343{clip-path:url(#SVGID_283_);fill:none;stroke:#DBDBDB;stroke-width:3;stroke-miterlimit:10;}
	.st344{opacity:0.81;clip-path:url(#SVGID_283_);}
	.st345{clip-path:url(#SVGID_290_);}
	.st346{clip-path:url(#SVGID_292_);}
	.st347{clip-path:url(#SVGID_294_);fill:url(#SVGID_295_);}
	.st348{opacity:0.46;clip-path:url(#SVGID_294_);fill:#3F3CB2;}
	.st349{opacity:0.15;clip-path:url(#SVGID_294_);fill:#352D90;}
	.st350{opacity:0.46;clip-path:url(#SVGID_292_);fill:#3F3CB2;}
	.st351{fill:#412965;}
	.st352{fill:#EFE4DA;}
	.st353{fill:#E3D5C8;}
	.st354{fill:#BADBF0;}
	.st355{fill:#9A6A91;}
	.st356{fill:#B17644;}
	.st357{fill:#009245;}
	.st358{fill:#006837;}
	.st359{fill:#FFF1D2;}
	.st360{opacity:0.56;fill:#C1B9D0;}
	.st361{fill:none;stroke:#9A6A91;stroke-width:2.9512;stroke-miterlimit:10;}
	.st362{fill:#D6EFFD;}
	.st363{fill:none;stroke:#9A6A91;stroke-width:2.8383;stroke-miterlimit:10;}
</style>
<g>
	<g>
		<g>
			<g>
				<path class="st356" d="M311.13,337.44c0.14,0.49,0.28,0.94,0.43,1.37c0.11,0.31,0.4,0.51,0.73,0.51h6.21
					c0.44,0,0.8-0.38,0.76-0.82c-0.57-8.62-5.4-83.66-5.91-145.78c-0.24-29.16,0.47-55.48,3.02-70.76c0.06-0.36-0.14-0.7-0.48-0.84
					l-5.51-2.2c-0.49-0.2-1.04,0.15-1.06,0.68C308.69,134.77,301.64,304.93,311.13,337.44z"/>
				<path class="st356" d="M311.13,337.44l1.17,1.87c-7.39-40.55-3.85-99.95,1.06-146.6c-0.24-29.16,0.47-55.48,3.02-70.76
					c0.06-0.36-0.14-0.7-0.48-0.84l-5.51-2.2c-0.49-0.2-1.04,0.15-1.06,0.68C308.69,134.77,301.64,304.93,311.13,337.44z"/>
				<g>
					<path class="st357" d="M311.98,119.42c8.43,3.06,34.58,13.75,35.4,28.77c0.03,0.62-0.66,1.02-1.19,0.69l-6.54-4.14
						c-0.34-0.22-0.46-0.66-0.27-1.02l0.16-0.3c0.32-0.6-0.24-1.3-0.9-1.11l-2.42,0.71c-0.25,0.07-0.53,0.01-0.73-0.16l-4.91-4.33
						c-0.37-0.33-0.34-0.91,0.06-1.2l2.96-2.16l-5.19,1.54c-0.26,0.08-0.55,0.01-0.75-0.18l-6.07-5.75
						c-0.37-0.35-0.3-0.97,0.14-1.23l0,0c0.72-0.42,0.35-1.53-0.48-1.44l-3.23,0.38c-0.26,0.03-0.52-0.07-0.69-0.28l-6.21-7.57
						C310.62,120.03,311.24,119.15,311.98,119.42z"/>
					<path class="st357" d="M312.18,119.87c7.62-4.73,32.19-18.67,44.49-10.03c0.51,0.36,0.39,1.15-0.2,1.36l-7.29,2.58
						c-0.38,0.14-0.8-0.05-0.97-0.42l-0.14-0.31c-0.28-0.63-1.17-0.61-1.42,0.02l-0.94,2.34c-0.1,0.25-0.32,0.42-0.58,0.47
						l-6.44,1.18c-0.49,0.09-0.93-0.3-0.91-0.79l0.14-3.66l-2,5.03c-0.1,0.26-0.33,0.44-0.61,0.48l-8.28,1.22
						c-0.51,0.07-0.95-0.36-0.88-0.87l0,0c0.12-0.83-0.99-1.22-1.42-0.51l-1.7,2.77c-0.14,0.22-0.38,0.36-0.64,0.37l-9.79,0.2
						C311.83,121.32,311.52,120.29,312.18,119.87z"/>
					<path class="st358" d="M312.79,117.51c2.89-8.49,13.06-34.85,28.05-35.97c0.62-0.05,1.04,0.64,0.71,1.18l-4,6.62
						c-0.21,0.35-0.65,0.47-1.01,0.29l-0.3-0.15c-0.61-0.31-1.29,0.27-1.09,0.92l0.76,2.41c0.08,0.25,0.02,0.53-0.15,0.73l-4.24,5
						c-0.32,0.38-0.91,0.36-1.21-0.03l-2.21-2.92l1.64,5.16c0.08,0.26,0.02,0.55-0.16,0.75l-5.63,6.19
						c-0.35,0.38-0.96,0.32-1.23-0.12l0,0c-0.44-0.71-1.54-0.32-1.43,0.51l0.44,3.22c0.04,0.26-0.06,0.52-0.26,0.69l-7.44,6.36
						C313.43,118.85,312.54,118.25,312.79,117.51z"/>
					<path class="st357" d="M310.83,118.66c-1.51-8.84-5.17-36.85,7.46-45c0.52-0.34,1.22,0.07,1.19,0.69l-0.36,7.73
						c-0.02,0.4-0.35,0.73-0.75,0.74l-0.34,0.01c-0.68,0.02-1.01,0.85-0.52,1.33l1.81,1.75c0.19,0.18,0.27,0.45,0.22,0.71
						l-1.33,6.41c-0.1,0.48-0.62,0.75-1.07,0.55l-3.34-1.51l3.9,3.75c0.2,0.19,0.28,0.47,0.22,0.74l-1.99,8.12
						c-0.12,0.5-0.69,0.74-1.14,0.49l0,0c-0.72-0.42-1.51,0.45-1.01,1.13l1.92,2.62c0.16,0.21,0.19,0.49,0.1,0.73l-3.5,9.14
						C312.03,119.53,310.96,119.43,310.83,118.66z"/>
				</g>
				<g>
					<path class="st358" d="M311.8,119.42c-8.43,3.06-34.58,13.75-35.4,28.77c-0.03,0.62,0.66,1.02,1.19,0.69l6.54-4.14
						c0.34-0.22,0.46-0.66,0.27-1.02l-0.16-0.3c-0.32-0.6,0.24-1.3,0.9-1.11l2.42,0.71c0.25,0.07,0.53,0.01,0.73-0.16l4.91-4.33
						c0.37-0.33,0.34-0.91-0.06-1.2l-2.96-2.16l5.19,1.54c0.26,0.08,0.55,0.01,0.75-0.18l6.07-5.75c0.37-0.35,0.3-0.97-0.14-1.23h0
						c-0.72-0.42-0.35-1.53,0.48-1.44l3.23,0.38c0.26,0.03,0.52-0.07,0.69-0.28l6.21-7.57C313.15,120.03,312.54,119.15,311.8,119.42
						z"/>
					<path class="st357" d="M311.59,119.87c-7.62-4.73-32.19-18.67-44.49-10.03c-0.51,0.36-0.39,1.15,0.2,1.36l7.29,2.58
						c0.38,0.14,0.8-0.05,0.97-0.42l0.14-0.31c0.28-0.63,1.17-0.61,1.42,0.02l0.94,2.34c0.1,0.25,0.32,0.42,0.58,0.47l6.44,1.18
						c0.49,0.09,0.93-0.3,0.91-0.79l-0.14-3.66l2,5.03c0.1,0.26,0.33,0.44,0.61,0.48l8.28,1.22c0.51,0.07,0.95-0.36,0.88-0.87l0,0
						c-0.12-0.83,0.99-1.22,1.42-0.51l1.7,2.77c0.14,0.22,0.38,0.36,0.64,0.37l9.79,0.2C311.95,121.32,312.26,120.29,311.59,119.87z
						"/>
					<path class="st358" d="M310.99,117.51c-2.89-8.49-13.06-34.85-28.05-35.97c-0.62-0.05-1.04,0.64-0.71,1.18l4,6.62
						c0.21,0.35,0.65,0.47,1.01,0.29l0.3-0.15c0.61-0.31,1.29,0.27,1.09,0.92l-0.76,2.41c-0.08,0.25-0.02,0.53,0.15,0.73l4.24,5
						c0.32,0.38,0.91,0.36,1.21-0.03l2.21-2.92l-1.64,5.16c-0.08,0.26-0.02,0.55,0.16,0.75l5.63,6.19c0.35,0.38,0.96,0.32,1.23-0.12
						l0,0c0.44-0.71,1.54-0.32,1.43,0.51l-0.44,3.22c-0.04,0.26,0.06,0.52,0.26,0.69l7.44,6.36
						C310.35,118.85,311.24,118.25,310.99,117.51z"/>
				</g>
			</g>
			<g>
				<path class="st356" d="M368.43,337.83c0.11,0.39,0.22,0.75,0.34,1.09c0.09,0.25,0.32,0.4,0.58,0.4h4.93
					c0.35,0,0.64-0.3,0.61-0.65c-0.45-6.85-4.29-66.48-4.69-115.85c-0.19-23.18,0.37-44.09,2.4-56.23c0.04-0.28-0.11-0.55-0.38-0.67
					l-4.38-1.75c-0.39-0.16-0.82,0.12-0.84,0.54C366.49,176.76,360.89,311.99,368.43,337.83z"/>
				<path class="st356" d="M368.43,337.83l0.93,1.49c-5.88-32.23-3.06-79.43,0.85-116.5c-0.19-23.18,0.37-44.09,2.4-56.23
					c0.04-0.28-0.11-0.55-0.38-0.67l-4.38-1.75c-0.39-0.16-0.82,0.12-0.84,0.54C366.49,176.76,360.89,311.99,368.43,337.83z"/>
				<g>
					<path class="st352" d="M369.11,164.56c6.7,2.44,27.48,10.93,28.13,22.86c0.03,0.5-0.53,0.81-0.95,0.55l-5.2-3.29
						c-0.27-0.17-0.36-0.52-0.21-0.81l0.13-0.24c0.26-0.48-0.19-1.03-0.71-0.88l-1.93,0.56c-0.2,0.06-0.42,0.01-0.58-0.13l-3.9-3.44
						c-0.29-0.26-0.27-0.73,0.04-0.96l2.36-1.71l-4.12,1.22c-0.21,0.06-0.44,0.01-0.6-0.14l-4.83-4.57
						c-0.3-0.28-0.24-0.77,0.11-0.98l0,0c0.57-0.34,0.28-1.22-0.38-1.14l-2.56,0.3c-0.21,0.02-0.41-0.06-0.55-0.22l-4.94-6.01
						C368.03,165.05,368.52,164.35,369.11,164.56z"/>
					<path class="st352" d="M369.27,164.92c6.06-3.76,25.58-14.84,35.36-7.97c0.41,0.29,0.31,0.92-0.16,1.08l-5.8,2.05
						c-0.3,0.11-0.64-0.04-0.77-0.33l-0.11-0.25c-0.22-0.5-0.93-0.49-1.13,0.02l-0.75,1.86c-0.08,0.2-0.25,0.34-0.46,0.37
						l-5.12,0.94c-0.39,0.07-0.74-0.23-0.72-0.63l0.11-2.91l-1.59,3.99c-0.08,0.2-0.26,0.35-0.48,0.38l-6.58,0.97
						c-0.41,0.06-0.75-0.29-0.7-0.69l0,0c0.09-0.66-0.78-0.97-1.13-0.41l-1.35,2.2c-0.11,0.18-0.3,0.29-0.51,0.29l-7.78,0.16
						C368.99,166.07,368.74,165.25,369.27,164.92z"/>
					<path class="st352" d="M369.75,163.04c2.3-6.75,10.38-27.69,22.29-28.58c0.49-0.04,0.82,0.51,0.57,0.94l-3.18,5.26
						c-0.17,0.28-0.52,0.38-0.8,0.23l-0.24-0.12c-0.48-0.25-1.03,0.21-0.86,0.73l0.6,1.91c0.06,0.2,0.02,0.42-0.12,0.58l-3.37,3.97
						c-0.25,0.3-0.72,0.29-0.96-0.03l-1.76-2.32l1.3,4.1c0.07,0.21,0.02,0.44-0.13,0.6l-4.47,4.92c-0.28,0.3-0.77,0.26-0.98-0.09
						l0,0c-0.35-0.57-1.22-0.26-1.13,0.4l0.35,2.56c0.03,0.21-0.05,0.41-0.21,0.55l-5.91,5.06
						C370.26,164.11,369.55,163.63,369.75,163.04z"/>
					<path class="st352" d="M368.19,163.96c-1.2-7.03-4.11-29.29,5.93-35.76c0.42-0.27,0.97,0.06,0.94,0.55l-0.28,6.14
						c-0.01,0.32-0.27,0.58-0.6,0.59l-0.27,0.01c-0.54,0.02-0.8,0.68-0.41,1.06l1.44,1.39c0.15,0.15,0.22,0.36,0.17,0.57l-1.06,5.1
						c-0.08,0.38-0.5,0.6-0.85,0.43l-2.65-1.2l3.1,2.98c0.16,0.15,0.22,0.38,0.17,0.59l-1.58,6.46c-0.1,0.4-0.55,0.59-0.9,0.39l0,0
						c-0.58-0.33-1.2,0.36-0.8,0.9l1.53,2.08c0.12,0.17,0.15,0.39,0.08,0.58l-2.78,7.27C369.15,164.65,368.3,164.57,368.19,163.96z"
						/>
				</g>
				<g>
					<path class="st352" d="M368.97,164.56c-6.7,2.44-27.48,10.93-28.13,22.86c-0.03,0.5,0.53,0.81,0.95,0.55l5.2-3.29
						c0.27-0.17,0.36-0.52,0.21-0.81l-0.13-0.24c-0.26-0.48,0.19-1.03,0.71-0.88l1.92,0.56c0.2,0.06,0.42,0.01,0.58-0.13l3.9-3.44
						c0.29-0.26,0.27-0.73-0.05-0.96l-2.36-1.71l4.12,1.22c0.21,0.06,0.44,0.01,0.6-0.14l4.83-4.57c0.3-0.28,0.24-0.77-0.11-0.98
						l0,0c-0.57-0.34-0.28-1.22,0.38-1.14l2.56,0.3c0.21,0.02,0.41-0.06,0.55-0.22l4.94-6.01
						C370.04,165.05,369.55,164.35,368.97,164.56z"/>
					<path class="st352" d="M368.8,164.92c-6.06-3.76-25.58-14.84-35.36-7.97c-0.41,0.29-0.31,0.92,0.16,1.08l5.8,2.05
						c0.3,0.11,0.64-0.04,0.77-0.33l0.11-0.25c0.22-0.5,0.93-0.49,1.13,0.02l0.75,1.86c0.08,0.2,0.25,0.34,0.46,0.37l5.12,0.94
						c0.39,0.07,0.74-0.23,0.72-0.63l-0.11-2.91l1.59,3.99c0.08,0.2,0.26,0.35,0.48,0.38l6.58,0.97c0.41,0.06,0.75-0.29,0.7-0.69
						l0,0c-0.09-0.66,0.78-0.97,1.13-0.41l1.35,2.2c0.11,0.18,0.3,0.29,0.51,0.29l7.78,0.16
						C369.09,166.07,369.33,165.25,368.8,164.92z"/>
					<path class="st352" d="M368.32,163.04c-2.3-6.75-10.38-27.69-22.29-28.58c-0.49-0.04-0.82,0.51-0.57,0.94l3.18,5.26
						c0.17,0.28,0.52,0.38,0.8,0.23l0.24-0.12c0.48-0.25,1.03,0.21,0.86,0.73l-0.6,1.91c-0.06,0.2-0.02,0.42,0.12,0.58l3.37,3.97
						c0.25,0.3,0.72,0.29,0.96-0.03l1.76-2.32l-1.3,4.1c-0.07,0.21-0.02,0.44,0.13,0.6l4.47,4.92c0.28,0.3,0.77,0.26,0.98-0.09l0,0
						c0.35-0.57,1.22-0.26,1.13,0.4l-0.35,2.56c-0.03,0.21,0.05,0.41,0.21,0.55l5.91,5.06
						C367.81,164.11,368.52,163.63,368.32,163.04z"/>
				</g>
			</g>
		</g>
		<g>
			<g>
				<path class="st355" d="M416.91,337.44c0.14,0.49,0.28,0.94,0.43,1.37c0.11,0.31,0.4,0.51,0.73,0.51h6.21
					c0.44,0,0.8-0.38,0.76-0.82c-0.57-8.62-5.4-83.66-5.91-145.78c-0.24-29.16,0.47-55.48,3.02-70.76c0.06-0.36-0.14-0.7-0.48-0.84
					l-5.51-2.2c-0.49-0.2-1.04,0.15-1.06,0.68C414.47,134.77,407.42,304.93,416.91,337.44z"/>
				<path class="st351" d="M416.91,337.44l1.17,1.87c-7.39-40.55-3.85-99.95,1.06-146.6c-0.24-29.16,0.47-55.48,3.02-70.76
					c0.06-0.36-0.14-0.7-0.48-0.84l-5.51-2.2c-0.49-0.2-1.04,0.15-1.06,0.68C414.47,134.77,407.42,304.93,416.91,337.44z"/>
				<g>
					<path class="st352" d="M417.76,119.42c8.43,3.06,34.58,13.75,35.4,28.77c0.03,0.62-0.66,1.02-1.19,0.69l-6.54-4.14
						c-0.34-0.22-0.46-0.66-0.27-1.02l0.16-0.3c0.32-0.6-0.24-1.3-0.9-1.11l-2.42,0.71c-0.25,0.07-0.53,0.01-0.73-0.16l-4.91-4.33
						c-0.37-0.33-0.34-0.91,0.06-1.2l2.96-2.16l-5.19,1.54c-0.26,0.08-0.55,0.01-0.75-0.18l-6.07-5.75
						c-0.37-0.35-0.3-0.97,0.14-1.23l0,0c0.72-0.42,0.35-1.53-0.48-1.44l-3.23,0.38c-0.26,0.03-0.52-0.07-0.69-0.28l-6.21-7.57
						C416.41,120.03,417.02,119.15,417.76,119.42z"/>
					<path class="st352" d="M417.97,119.87c7.62-4.73,32.19-18.67,44.49-10.03c0.51,0.36,0.39,1.15-0.2,1.36l-7.29,2.58
						c-0.38,0.14-0.8-0.05-0.97-0.42l-0.14-0.31c-0.28-0.63-1.17-0.61-1.42,0.02l-0.94,2.34c-0.1,0.25-0.32,0.42-0.58,0.47
						l-6.44,1.18c-0.49,0.09-0.93-0.3-0.91-0.79l0.14-3.66l-2,5.03c-0.1,0.26-0.33,0.44-0.61,0.48l-8.28,1.22
						c-0.51,0.07-0.95-0.36-0.88-0.87l0,0c0.12-0.83-0.99-1.22-1.42-0.51l-1.7,2.77c-0.14,0.22-0.38,0.36-0.64,0.37l-9.79,0.2
						C417.61,121.32,417.3,120.29,417.97,119.87z"/>
					<path class="st352" d="M418.57,117.51c2.89-8.49,13.06-34.85,28.05-35.97c0.62-0.05,1.04,0.64,0.71,1.18l-4,6.62
						c-0.21,0.35-0.65,0.47-1.01,0.29l-0.3-0.15c-0.61-0.31-1.29,0.27-1.09,0.92l0.76,2.41c0.08,0.25,0.02,0.53-0.15,0.73l-4.24,5
						c-0.32,0.38-0.91,0.36-1.21-0.03l-2.21-2.92l1.64,5.16c0.08,0.26,0.02,0.55-0.16,0.75l-5.63,6.19
						c-0.35,0.38-0.96,0.32-1.23-0.12l0,0c-0.44-0.71-1.54-0.32-1.43,0.51l0.44,3.22c0.04,0.26-0.06,0.52-0.26,0.69l-7.44,6.36
						C419.21,118.85,418.32,118.25,418.57,117.51z"/>
					<path class="st352" d="M416.61,118.66c-1.51-8.84-5.17-36.85,7.46-45c0.52-0.34,1.22,0.07,1.19,0.69l-0.36,7.73
						c-0.02,0.4-0.35,0.73-0.75,0.74l-0.34,0.01c-0.68,0.02-1.01,0.85-0.52,1.33l1.81,1.75c0.19,0.18,0.27,0.45,0.22,0.71L424,93.04
						c-0.1,0.48-0.62,0.75-1.07,0.55l-3.34-1.51l3.9,3.75c0.2,0.19,0.28,0.47,0.22,0.74l-1.99,8.12c-0.12,0.5-0.69,0.74-1.14,0.49
						l0,0c-0.72-0.42-1.51,0.45-1.01,1.13l1.92,2.62c0.16,0.21,0.19,0.49,0.1,0.73l-3.5,9.14
						C417.81,119.53,416.74,119.43,416.61,118.66z"/>
				</g>
				<g>
					<path class="st352" d="M417.58,119.42c-8.43,3.06-34.58,13.75-35.4,28.77c-0.03,0.62,0.66,1.02,1.19,0.69l6.54-4.14
						c0.34-0.22,0.46-0.66,0.27-1.02l-0.16-0.3c-0.32-0.6,0.24-1.3,0.9-1.11l2.42,0.71c0.25,0.07,0.53,0.01,0.73-0.16l4.91-4.33
						c0.37-0.33,0.34-0.91-0.06-1.2l-2.96-2.16l5.19,1.54c0.26,0.08,0.55,0.01,0.75-0.18l6.07-5.75c0.37-0.35,0.3-0.97-0.14-1.23h0
						c-0.72-0.42-0.35-1.53,0.48-1.44l3.23,0.38c0.26,0.03,0.52-0.07,0.69-0.28l6.21-7.57
						C418.94,120.03,418.32,119.15,417.58,119.42z"/>
					<path class="st352" d="M417.38,119.87c-7.62-4.73-32.19-18.67-44.49-10.03c-0.51,0.36-0.39,1.15,0.2,1.36l7.29,2.58
						c0.38,0.14,0.8-0.05,0.97-0.42l0.14-0.31c0.28-0.63,1.17-0.61,1.42,0.02l0.94,2.34c0.1,0.25,0.32,0.42,0.58,0.47l6.44,1.18
						c0.49,0.09,0.93-0.3,0.91-0.79l-0.14-3.66l2,5.03c0.1,0.26,0.33,0.44,0.61,0.48l8.28,1.22c0.51,0.07,0.95-0.36,0.88-0.87l0,0
						c-0.12-0.83,0.99-1.22,1.42-0.51l1.7,2.77c0.14,0.22,0.38,0.36,0.64,0.37l9.79,0.2C417.73,121.32,418.05,120.29,417.38,119.87z
						"/>
					<path class="st352" d="M416.77,117.51c-2.89-8.49-13.06-34.85-28.05-35.97c-0.62-0.05-1.04,0.64-0.71,1.18l4,6.62
						c0.21,0.35,0.65,0.47,1.01,0.29l0.3-0.15c0.61-0.31,1.29,0.27,1.09,0.92l-0.76,2.41c-0.08,0.25-0.02,0.53,0.15,0.73l4.24,5
						c0.32,0.38,0.91,0.36,1.21-0.03l2.21-2.92l-1.64,5.16c-0.08,0.26-0.02,0.55,0.16,0.75l5.63,6.19c0.35,0.38,0.96,0.32,1.23-0.12
						l0,0c0.44-0.71,1.54-0.32,1.43,0.51l-0.44,3.22c-0.04,0.26,0.06,0.52,0.26,0.69l7.44,6.36
						C416.13,118.85,417.03,118.25,416.77,117.51z"/>
				</g>
			</g>
			<g>
				<path class="st351" d="M459.96,338.03c0.1,0.34,0.19,0.65,0.3,0.94c0.08,0.21,0.28,0.35,0.5,0.35h4.26
					c0.3,0,0.55-0.26,0.52-0.56c-0.39-5.91-3.7-57.4-4.05-100.02c-0.16-20.01,0.32-38.07,2.07-48.55c0.04-0.25-0.1-0.48-0.33-0.58
					l-3.78-1.51c-0.34-0.14-0.71,0.1-0.72,0.47C458.29,198.98,453.45,315.72,459.96,338.03z"/>
				<path class="st351" d="M459.96,338.03l0.8,1.29c-5.07-27.82-2.64-68.58,0.73-100.58c-0.16-20.01,0.32-38.07,2.07-48.55
					c0.04-0.25-0.1-0.48-0.33-0.58l-3.78-1.51c-0.34-0.14-0.71,0.1-0.72,0.47C458.29,198.98,453.45,315.72,459.96,338.03z"/>
				<g>
					<path class="st352" d="M460.54,188.44c5.79,2.1,23.72,9.44,24.29,19.74c0.02,0.43-0.46,0.7-0.82,0.47l-4.49-2.84
						c-0.23-0.15-0.32-0.45-0.18-0.7l0.11-0.2c0.22-0.41-0.17-0.89-0.62-0.76l-1.66,0.49c-0.17,0.05-0.36,0.01-0.5-0.11l-3.37-2.97
						c-0.25-0.22-0.24-0.63,0.04-0.83l2.03-1.48l-3.56,1.05c-0.18,0.05-0.38,0.01-0.52-0.12l-4.17-3.95
						c-0.26-0.24-0.21-0.66,0.1-0.84l0,0c0.5-0.29,0.24-1.05-0.33-0.98l-2.21,0.26c-0.18,0.02-0.36-0.05-0.47-0.19l-4.26-5.19
						C459.62,188.86,460.04,188.26,460.54,188.44z"/>
					<path class="st352" d="M460.69,188.76c5.23-3.25,22.09-12.81,30.53-6.88c0.35,0.25,0.27,0.79-0.13,0.93l-5,1.77
						c-0.26,0.09-0.55-0.03-0.66-0.29l-0.09-0.21c-0.19-0.43-0.8-0.42-0.98,0.02l-0.65,1.61c-0.07,0.17-0.22,0.29-0.4,0.32
						l-4.42,0.81c-0.33,0.06-0.64-0.2-0.63-0.54l0.09-2.51l-1.37,3.45c-0.07,0.18-0.23,0.3-0.42,0.33l-5.68,0.84
						c-0.35,0.05-0.65-0.25-0.6-0.6l0,0c0.08-0.57-0.68-0.84-0.98-0.35l-1.17,1.9c-0.09,0.15-0.26,0.25-0.44,0.25l-6.71,0.14
						C460.44,189.75,460.23,189.04,460.69,188.76z"/>
					<path class="st352" d="M461.1,187.13c1.99-5.83,8.96-23.91,19.24-24.68c0.43-0.03,0.71,0.44,0.49,0.81l-2.75,4.54
						c-0.14,0.24-0.45,0.32-0.69,0.2l-0.21-0.11c-0.42-0.21-0.89,0.18-0.75,0.63l0.52,1.65c0.05,0.17,0.02,0.36-0.1,0.5l-2.91,3.43
						c-0.22,0.26-0.62,0.25-0.83-0.02l-1.52-2l1.13,3.54c0.06,0.18,0.01,0.38-0.11,0.52l-3.86,4.25c-0.24,0.26-0.66,0.22-0.84-0.08
						l0,0c-0.3-0.49-1.06-0.22-0.98,0.35l0.3,2.21c0.02,0.18-0.04,0.36-0.18,0.47l-5.1,4.36
						C461.54,188.06,460.93,187.64,461.1,187.13z"/>
					<path class="st352" d="M459.75,187.92c-1.04-6.07-3.55-25.28,5.12-30.87c0.36-0.23,0.83,0.05,0.82,0.48l-0.24,5.3
						c-0.01,0.28-0.24,0.5-0.51,0.51l-0.23,0.01c-0.47,0.01-0.69,0.58-0.35,0.91l1.24,1.2c0.13,0.13,0.19,0.31,0.15,0.49l-0.91,4.4
						c-0.07,0.33-0.43,0.52-0.74,0.38l-2.29-1.03l2.68,2.57c0.14,0.13,0.19,0.32,0.15,0.51l-1.37,5.57
						c-0.08,0.34-0.47,0.51-0.78,0.33l0,0c-0.5-0.29-1.03,0.31-0.69,0.77l1.32,1.8c0.11,0.15,0.13,0.34,0.07,0.5l-2.4,6.27
						C460.58,188.52,459.85,188.46,459.75,187.92z"/>
				</g>
				<g>
					<path class="st352" d="M460.42,188.44c-5.79,2.1-23.72,9.44-24.29,19.74c-0.02,0.43,0.46,0.7,0.82,0.47l4.49-2.84
						c0.23-0.15,0.32-0.45,0.18-0.7l-0.11-0.2c-0.22-0.41,0.17-0.89,0.62-0.76l1.66,0.49c0.17,0.05,0.36,0.01,0.5-0.11l3.37-2.97
						c0.25-0.22,0.24-0.63-0.04-0.83l-2.03-1.48l3.56,1.05c0.18,0.05,0.38,0.01,0.52-0.12l4.17-3.95c0.26-0.24,0.21-0.66-0.1-0.84
						l0,0c-0.5-0.29-0.24-1.05,0.33-0.98l2.21,0.26c0.18,0.02,0.36-0.05,0.47-0.19l4.26-5.19
						C461.35,188.86,460.93,188.26,460.42,188.44z"/>
					<path class="st352" d="M460.28,188.76c-5.23-3.25-22.09-12.81-30.53-6.88c-0.35,0.25-0.27,0.79,0.13,0.93l5,1.77
						c0.26,0.09,0.55-0.03,0.66-0.29l0.09-0.21c0.19-0.43,0.8-0.42,0.98,0.02l0.65,1.61c0.07,0.17,0.22,0.29,0.4,0.32l4.42,0.81
						c0.33,0.06,0.64-0.2,0.63-0.54l-0.09-2.51l1.37,3.45c0.07,0.18,0.23,0.3,0.42,0.33l5.68,0.84c0.35,0.05,0.65-0.25,0.6-0.6l0,0
						c-0.08-0.57,0.68-0.84,0.98-0.35l1.17,1.9c0.09,0.15,0.26,0.25,0.44,0.25l6.71,0.14C460.53,189.75,460.74,189.04,460.28,188.76
						z"/>
					<path class="st352" d="M459.87,187.13c-1.99-5.83-8.96-23.91-19.24-24.68c-0.43-0.03-0.71,0.44-0.49,0.81l2.75,4.54
						c0.14,0.24,0.45,0.32,0.69,0.2l0.21-0.11c0.42-0.21,0.89,0.18,0.75,0.63l-0.52,1.65c-0.05,0.17-0.02,0.36,0.1,0.5l2.91,3.43
						c0.22,0.26,0.62,0.25,0.83-0.02l1.52-2l-1.13,3.54c-0.06,0.18-0.01,0.38,0.11,0.52l3.86,4.25c0.24,0.26,0.66,0.22,0.84-0.08
						l0,0c0.3-0.49,1.06-0.22,0.98,0.35l-0.3,2.21c-0.02,0.18,0.04,0.36,0.18,0.47l5.1,4.36
						C459.43,188.06,460.04,187.64,459.87,187.13z"/>
				</g>
			</g>
		</g>
	</g>
	<g>
		<rect x="130.23" y="77.59" class="st352" width="254.41" height="259.47"/>
		<polygon class="st352" points="384.65,77.59 130.23,77.59 130.23,337.06 		"/>
		<rect x="122.66" y="70.02" class="st351" width="273.35" height="7.58"/>
		<g>
			<g>
				<g>
					<rect x="138.29" y="82.48" class="st354" width="31.83" height="36.02"/>
					<g>
						<polygon class="st354" points="138.29,82.48 138.29,102.4 155.88,82.48 						"/>
						<polygon class="st354" points="162.22,82.48 138.29,109.57 138.29,111.72 164.11,82.48 						"/>
						<polygon class="st354" points="166.06,82.48 138.29,113.93 138.29,118.51 170.11,82.48 						"/>
					</g>
				</g>
			</g>
			<g>
				<g>
					<rect x="179.86" y="82.48" class="st354" width="31.83" height="36.02"/>
					<g>
						<polygon class="st354" points="179.86,82.48 179.86,102.4 197.45,82.48 						"/>
						<polygon class="st354" points="203.79,82.48 179.86,109.57 179.86,111.72 205.69,82.48 						"/>
						<polygon class="st354" points="207.63,82.48 179.86,113.93 179.86,118.51 211.68,82.48 						"/>
					</g>
				</g>
			</g>
			<g>
				<g>
					<rect x="221.43" y="82.48" class="st354" width="31.83" height="36.02"/>
					<g>
						<polygon class="st354" points="221.43,82.48 221.43,102.4 239.02,82.48 						"/>
						<polygon class="st354" points="245.36,82.48 221.43,109.57 221.43,111.72 247.26,82.48 						"/>
						<polygon class="st354" points="249.21,82.48 221.43,113.93 221.43,118.51 253.25,82.48 						"/>
					</g>
				</g>
			</g>
			<g>
				<g>
					<rect x="263" y="82.48" class="st354" width="31.83" height="36.02"/>
					<g>
						<polygon class="st354" points="263,82.48 263,102.4 280.6,82.48 						"/>
						<polygon class="st354" points="286.93,82.48 263,109.57 263,111.72 288.83,82.48 						"/>
						<polygon class="st354" points="290.78,82.48 263,113.93 263,118.51 294.82,82.48 						"/>
					</g>
				</g>
			</g>
			<g>
				<g>
					<rect x="304.57" y="82.48" class="st354" width="31.83" height="36.02"/>
					<g>
						<polygon class="st354" points="304.57,82.48 304.57,102.4 322.17,82.48 						"/>
						<polygon class="st354" points="328.5,82.48 304.57,109.57 304.57,111.72 330.4,82.48 						"/>
						<polygon class="st354" points="332.35,82.48 304.57,113.93 304.57,118.51 336.4,82.48 						"/>
					</g>
				</g>
			</g>
			<g>
				<g>
					<rect x="346.14" y="82.48" class="st354" width="31.83" height="36.02"/>
					<g>
						<polygon class="st354" points="346.14,82.48 346.14,102.4 363.74,82.48 						"/>
						<polygon class="st354" points="370.07,82.48 346.14,109.57 346.14,111.72 371.97,82.48 						"/>
						<polygon class="st354" points="373.92,82.48 346.14,113.93 346.14,118.51 377.97,82.48 						"/>
					</g>
				</g>
			</g>
		</g>
		<rect x="122.66" y="121.15" class="st351" width="281.56" height="5.68"/>
		<rect x="178.24" y="128.88" class="st352" width="164.11" height="208.17"/>
		<polygon class="st353" points="342.35,128.88 178.24,128.88 178.24,337.06 		"/>
		<g>
			<rect x="225.65" y="136.3" class="st351" width="68.63" height="6.31"/>
			<rect x="225.65" y="142.61" class="st359" width="3.97" height="194.44"/>
			<rect x="290.31" y="142.61" class="st359" width="3.97" height="194.44"/>
		</g>
		<g>
			<g>
				<g>
					<g>
						<rect x="303.25" y="144.01" class="st354" width="28.96" height="53.39"/>
						<polygon class="st354" points="303.25,144.01 303.25,166.9 318.58,144.01 						"/>
						<polygon class="st354" points="324.1,144.01 303.25,175.14 303.25,177.61 325.76,144.01 						"/>
						<polygon class="st354" points="327.45,144.01 303.25,180.14 303.25,185.41 330.98,144.01 						"/>
					</g>
				</g>
				<g>
					<g>
						<rect x="303.25" y="203.95" class="st354" width="28.96" height="53.39"/>
						<polygon class="st354" points="303.25,203.95 303.25,226.84 318.58,203.95 						"/>
						<polygon class="st354" points="324.1,203.95 303.25,235.08 303.25,237.55 325.76,203.95 						"/>
						<polygon class="st354" points="327.45,203.95 303.25,240.08 303.25,245.35 330.98,203.95 						"/>
					</g>
				</g>
			</g>
			<g>
				<g>
					<g>
						<rect x="245.69" y="144.01" class="st354" width="28.96" height="53.39"/>
						<polygon class="st354" points="245.69,144.01 245.69,166.9 261.02,144.01 						"/>
						<polygon class="st354" points="266.54,144.01 245.69,175.14 245.69,177.61 268.19,144.01 						"/>
						<polygon class="st354" points="269.89,144.01 245.69,180.14 245.69,185.41 273.42,144.01 						"/>
					</g>
				</g>
				<g>
					<g>
						<rect x="245.69" y="203.95" class="st354" width="28.96" height="53.39"/>
						<polygon class="st354" points="245.69,203.95 245.69,226.84 261.02,203.95 						"/>
						<polygon class="st354" points="266.54,203.95 245.69,235.08 245.69,237.55 268.19,203.95 						"/>
						<polygon class="st354" points="269.89,203.95 245.69,240.08 245.69,245.35 273.42,203.95 						"/>
					</g>
				</g>
			</g>
			<g>
				<g>
					<g>
						<rect x="188.12" y="144.01" class="st354" width="28.96" height="53.39"/>
						<polygon class="st354" points="188.12,144.01 188.12,166.9 203.45,144.01 						"/>
						<polygon class="st354" points="208.97,144.01 188.12,175.14 188.12,177.61 210.62,144.01 						"/>
						<polygon class="st354" points="212.32,144.01 188.12,180.14 188.12,185.41 215.85,144.01 						"/>
					</g>
				</g>
				<g>
					<g>
						<rect x="188.12" y="203.95" class="st354" width="28.96" height="53.39"/>
						<polygon class="st354" points="188.12,203.95 188.12,226.84 203.45,203.95 						"/>
						<polygon class="st354" points="208.97,203.95 188.12,235.08 188.12,237.55 210.62,203.95 						"/>
						<polygon class="st354" points="212.32,203.95 188.12,240.08 188.12,245.35 215.85,203.95 						"/>
					</g>
				</g>
			</g>
		</g>
		<path class="st2" d="M342.36,260.14c-0.31-1-0.91-1.87-1.7-2.55c-1.32-1.14-3.14-1.73-4.86-1.4c0.04-3.35-3.3-6.33-6.62-5.9
			c-2.09,0.27-3.84,1.84-4.63,3.77c-0.61,1.49-2.15,2.33-3.74,2.04c-0.07-0.01-0.14-0.02-0.2-0.03c-1.12-0.17-2.02-0.99-2.48-2.03
			c-0.93-2.14-3.14-3.76-5.5-3.74c-2.33,0.01-4.5,1.61-5.43,3.72c-0.54,1.24-1.72,2.07-3.07,2.07h-0.1c-1.36,0-2.54-0.84-3.08-2.08
			c-0.92-2.13-3.11-3.75-5.46-3.76c-0.87,0-1.72,0.22-2.49,0.6c-0.96-0.46-2.03-0.68-3.09-0.54c-2.09,0.27-3.84,1.84-4.63,3.77
			c-0.22,0.53-0.56,0.97-0.97,1.32c-0.45-0.38-0.82-0.87-1.06-1.43c-0.81-1.87-2.53-3.38-4.56-3.65c-1.05-0.14-2.1,0.06-3.05,0.51
			c-0.72-0.32-1.49-0.51-2.28-0.51c-2.33,0.01-4.5,1.61-5.43,3.72c-0.54,1.24-1.72,2.07-3.07,2.07h-0.1c-1.36,0-2.54-0.84-3.08-2.08
			c-0.92-2.13-3.11-3.75-5.46-3.76c-2.38-0.01-4.61,1.63-5.53,3.79c-0.46,1.07-1.41,1.85-2.56,2.01c-0.14,0.02-0.27,0.04-0.41,0.07
			c-0.2,0.04-0.39,0.06-0.58,0.06c-0.19-0.03-0.38-0.05-0.57-0.05c-0.43-0.08-0.83-0.25-1.19-0.49c-0.3-3.01-3.25-5.55-6.28-5.35
			c-3.04-0.21-6.01,2.35-6.29,5.37c-0.36,0.22-0.75,0.38-1.17,0.46c-0.13,0.01-0.25,0.02-0.37,0.04c-0.28,0.02-0.56,0.02-0.85-0.04
			c-0.07-0.01-0.14-0.02-0.2-0.03c-1.12-0.17-2.02-0.99-2.48-2.03c-0.93-2.14-3.14-3.76-5.5-3.74c-2.33,0.01-4.5,1.61-5.43,3.72
			c-0.54,1.24-1.72,2.07-3.07,2.07h-0.1c-1.36,0-2.54-0.84-3.08-2.08c-0.92-2.13-3.11-3.75-5.46-3.76
			c-2.38-0.01-4.61,1.63-5.53,3.79c-0.45,1.07-1.41,1.85-2.56,2.01c-0.14,0.02-0.27,0.04-0.41,0.07c-1.59,0.31-3.1-0.68-3.75-2.17
			c-0.81-1.87-2.53-3.38-4.56-3.65c-3.31-0.44-6.66,2.52-6.63,5.86c-6.59-0.94-10.82,9.53-1.26,11.41c0.89,0.17,1.79,0.22,2.7,0.22
			c16.66-0.01,33.32-0.03,49.98-0.04c0.38,0.02,0.76,0.04,1.14,0.04c12.8-0.01,25.6-0.02,38.4-0.03c0.29,0.01,0.59,0.03,0.88,0.03
			c20.35-0.02,40.71-0.03,61.06-0.05c1.56,0,3.17-0.01,4.61-0.63C341.72,265.98,343.18,262.81,342.36,260.14z"/>
		<g>
			<g>
				<g>
					<rect x="348.19" y="131.21" class="st354" width="28.96" height="56.9"/>
					<polygon class="st354" points="348.19,131.21 348.19,155.6 363.52,131.21 					"/>
					<polygon class="st354" points="369.04,131.21 348.19,164.38 348.19,167.01 370.69,131.21 					"/>
					<polygon class="st354" points="372.39,131.21 348.19,169.72 348.19,175.33 375.92,131.21 					"/>
				</g>
			</g>
			<g>
				<g>
					<rect x="348.19" y="197.52" class="st354" width="28.96" height="56.9"/>
					<polygon class="st354" points="348.19,197.52 348.19,221.91 363.52,197.52 					"/>
					<polygon class="st354" points="369.04,197.52 348.19,230.69 348.19,233.32 370.69,197.52 					"/>
					<polygon class="st354" points="372.39,197.52 348.19,236.02 348.19,241.64 375.92,197.52 					"/>
				</g>
			</g>
			<g>
				<g>
					<rect x="348.19" y="263.82" class="st354" width="28.96" height="56.9"/>
					<polygon class="st354" points="348.19,263.82 348.19,288.22 363.52,263.82 					"/>
					<polygon class="st354" points="369.04,263.82 348.19,297 348.19,299.63 370.69,263.82 					"/>
					<polygon class="st354" points="372.39,263.82 348.19,302.33 348.19,307.94 375.92,263.82 					"/>
				</g>
			</g>
		</g>
		<g>
			<g>
				<g>
					<rect x="140.57" y="131.21" class="st354" width="28.96" height="56.9"/>
					<polygon class="st354" points="140.57,131.21 140.57,155.6 155.9,131.21 					"/>
					<polygon class="st354" points="161.42,131.21 140.57,164.38 140.57,167.01 163.07,131.21 					"/>
					<polygon class="st354" points="164.77,131.21 140.57,169.72 140.57,175.33 168.29,131.21 					"/>
				</g>
			</g>
			<g>
				<g>
					<rect x="140.57" y="197.52" class="st354" width="28.96" height="56.9"/>
					<polygon class="st354" points="140.57,197.52 140.57,221.91 155.9,197.52 					"/>
					<polygon class="st354" points="161.42,197.52 140.57,230.69 140.57,233.32 163.07,197.52 					"/>
					<polygon class="st354" points="164.77,197.52 140.57,236.02 140.57,241.64 168.29,197.52 					"/>
				</g>
			</g>
			<g>
				<g>
					<rect x="140.57" y="263.82" class="st354" width="28.96" height="56.9"/>
					<polygon class="st354" points="140.57,263.82 140.57,288.22 155.9,263.82 					"/>
					<polygon class="st354" points="161.42,263.82 140.57,297 140.57,299.63 163.07,263.82 					"/>
					<polygon class="st354" points="164.77,263.82 140.57,302.33 140.57,307.94 168.29,263.82 					"/>
				</g>
			</g>
		</g>
		<path class="st355" d="M175.32,303.36c-0.78-0.68-1.86-1.03-2.88-0.83c0.03-1.99-1.96-3.75-3.93-3.5
			c-1.24,0.16-2.28,1.09-2.75,2.24c-0.36,0.88-1.28,1.38-2.22,1.21c-0.04-0.01-0.08-0.01-0.12-0.02c-0.67-0.1-1.2-0.59-1.47-1.21
			c-0.55-1.27-1.87-2.23-3.27-2.22c-1.38,0.01-2.67,0.95-3.22,2.21c-0.32,0.73-1.02,1.23-1.82,1.23l-0.06,0
			c-0.8,0-1.51-0.5-1.83-1.24c-0.55-1.27-1.85-2.23-3.24-2.23c-1.41-0.01-2.73,0.97-3.28,2.25c-0.27,0.63-0.84,1.1-1.52,1.19
			c-0.08,0.01-0.16,0.03-0.24,0.04c-0.94,0.18-1.84-0.4-2.22-1.28c-0.48-1.11-1.5-2.01-2.71-2.17c-1.97-0.26-3.95,1.49-3.93,3.48
			c-3.91-0.56-6.42,5.66-0.75,6.77c0.53,0.1,1.07,0.13,1.6,0.13c12.08-0.01,24.15-0.02,36.23-0.03c0.93,0,1.88-0.01,2.73-0.38
			c1.52-0.66,2.39-2.54,1.9-4.13C176.14,304.29,175.78,303.77,175.32,303.36z"/>
		<path class="st355" d="M386.18,303.36c-0.78-0.68-1.86-1.03-2.88-0.83c0.03-1.99-1.96-3.75-3.93-3.5
			c-1.24,0.16-2.28,1.09-2.75,2.24c-0.36,0.88-1.28,1.38-2.22,1.21c-0.04-0.01-0.08-0.01-0.12-0.02c-0.67-0.1-1.2-0.59-1.47-1.21
			c-0.55-1.27-1.87-2.23-3.27-2.22c-1.38,0.01-2.67,0.95-3.22,2.21c-0.32,0.73-1.02,1.23-1.82,1.23l-0.06,0
			c-0.8,0-1.51-0.5-1.83-1.24c-0.55-1.27-1.85-2.23-3.24-2.23c-1.41-0.01-2.73,0.97-3.28,2.25c-0.27,0.63-0.84,1.1-1.52,1.19
			c-0.08,0.01-0.16,0.03-0.24,0.04c-0.94,0.18-1.84-0.4-2.22-1.28c-0.48-1.11-1.5-2.01-2.71-2.17c-1.97-0.26-3.95,1.49-3.93,3.48
			c-3.91-0.56-6.42,5.66-0.75,6.77c0.53,0.1,1.07,0.13,1.6,0.13c12.08-0.01,24.15-0.02,36.23-0.03c0.93,0,1.88-0.01,2.73-0.38
			c1.52-0.66,2.39-2.54,1.9-4.13C387.01,304.29,386.65,303.77,386.18,303.36z"/>
		<polygon class="st355" points="384.65,308.33 384.65,341.95 130.23,341.95 130.23,308.33 175.52,308.33 175.52,263.82 
			342.9,263.82 342.9,308.33 		"/>
		<polygon class="st355" points="130.23,341.95 130.23,308.33 175.52,308.33 175.52,263.82 342.9,263.82 		"/>
		<g>
			<g>
				<rect x="264.94" y="303.17" class="st351" width="29.67" height="39.37"/>
				<rect x="279.29" y="303.17" class="st355" width="0.97" height="39.37"/>
			</g>
			<g>
				<rect x="218.85" y="303.17" class="st351" width="29.67" height="39.37"/>
				<rect x="233.2" y="303.17" class="st355" width="0.97" height="39.37"/>
			</g>
			<g>
				<g>
					<rect x="249.47" y="290.8" class="st354" width="14.47" height="16.38"/>
					<g>
						<polygon class="st354" points="249.47,290.8 249.47,299.85 257.47,290.8 						"/>
						<polygon class="st354" points="260.36,290.8 249.47,303.11 249.47,304.09 261.22,290.8 						"/>
						<polygon class="st354" points="262.1,290.8 249.47,305.09 249.47,307.18 263.94,290.8 						"/>
					</g>
				</g>
			</g>
			<g>
				<g>
					<rect x="219.18" y="290.8" class="st354" width="29.02" height="16.38"/>
					<g>
						<polygon class="st354" points="219.18,290.8 219.18,299.85 227.95,290.8 						"/>
						<polygon class="st354" points="231.1,290.8 219.18,303.11 219.18,304.09 232.05,290.8 						"/>
						<polygon class="st354" points="233.02,290.8 219.18,305.09 219.18,307.18 235.04,290.8 						"/>
					</g>
				</g>
			</g>
			<g>
				<g>
					<rect x="265.27" y="290.8" class="st354" width="29.02" height="16.38"/>
					<g>
						<polygon class="st354" points="265.27,290.8 265.27,299.85 274.03,290.8 						"/>
						<polygon class="st354" points="277.19,290.8 265.27,303.11 265.27,304.09 278.14,290.8 						"/>
						<polygon class="st354" points="279.11,290.8 265.27,305.09 265.27,307.18 281.12,290.8 						"/>
					</g>
				</g>
			</g>
			<g>
				<g>
					<rect x="249.47" y="308.03" class="st354" width="14.47" height="16.38"/>
					<g>
						<polygon class="st354" points="249.47,308.03 249.47,317.09 257.47,308.03 						"/>
						<polygon class="st354" points="260.36,308.03 249.47,320.35 249.47,321.33 261.22,308.03 						"/>
						<polygon class="st354" points="262.1,308.03 249.47,322.33 249.47,324.41 263.94,308.03 						"/>
					</g>
				</g>
			</g>
			<g>
				<g>
					<rect x="249.47" y="325.27" class="st354" width="14.47" height="16.38"/>
					<g>
						<polygon class="st354" points="249.47,325.27 249.47,334.32 257.47,325.27 						"/>
						<polygon class="st354" points="260.36,325.27 249.47,337.58 249.47,338.56 261.22,325.27 						"/>
						<polygon class="st354" points="262.1,325.27 249.47,339.56 249.47,341.65 263.94,325.27 						"/>
					</g>
				</g>
			</g>
			<g>
				<g>
					<rect x="295.26" y="290.8" class="st354" width="14.47" height="16.38"/>
					<g>
						<polygon class="st354" points="295.26,290.8 295.26,299.85 303.26,290.8 						"/>
						<polygon class="st354" points="306.14,290.8 295.26,303.11 295.26,304.09 307,290.8 						"/>
						<polygon class="st354" points="307.89,290.8 295.26,305.09 295.26,307.18 309.73,290.8 						"/>
					</g>
				</g>
			</g>
			<g>
				<g>
					<rect x="295.26" y="308.03" class="st354" width="14.47" height="16.38"/>
					<g>
						<polygon class="st354" points="295.26,308.03 295.26,317.09 303.26,308.03 						"/>
						<polygon class="st354" points="306.14,308.03 295.26,320.35 295.26,321.33 307,308.03 						"/>
						<polygon class="st354" points="307.89,308.03 295.26,322.33 295.26,324.41 309.73,308.03 						"/>
					</g>
				</g>
			</g>
			<g>
				<g>
					<rect x="295.26" y="325.27" class="st354" width="14.47" height="16.38"/>
					<g>
						<polygon class="st354" points="295.26,325.27 295.26,334.32 303.26,325.27 						"/>
						<polygon class="st354" points="306.14,325.27 295.26,337.58 295.26,338.56 307,325.27 						"/>
						<polygon class="st354" points="307.89,325.27 295.26,339.56 295.26,341.65 309.73,325.27 						"/>
					</g>
				</g>
			</g>
			<g>
				<g>
					<rect x="203.54" y="290.8" class="st354" width="14.47" height="16.38"/>
					<g>
						<polygon class="st354" points="203.54,290.8 203.54,299.85 211.55,290.8 						"/>
						<polygon class="st354" points="214.43,290.8 203.54,303.11 203.54,304.09 215.29,290.8 						"/>
						<polygon class="st354" points="216.17,290.8 203.54,305.09 203.54,307.18 218.02,290.8 						"/>
					</g>
				</g>
			</g>
			<g>
				<g>
					<rect x="203.54" y="308.03" class="st354" width="14.47" height="16.38"/>
					<g>
						<polygon class="st354" points="203.54,308.03 203.54,317.09 211.55,308.03 						"/>
						<polygon class="st354" points="214.43,308.03 203.54,320.35 203.54,321.33 215.29,308.03 						"/>
						<polygon class="st354" points="216.17,308.03 203.54,322.33 203.54,324.41 218.02,308.03 						"/>
					</g>
				</g>
			</g>
			<g>
				<g>
					<rect x="203.54" y="325.27" class="st354" width="14.47" height="16.38"/>
					<g>
						<polygon class="st354" points="203.54,325.27 203.54,334.32 211.55,325.27 						"/>
						<polygon class="st354" points="214.43,325.27 203.54,337.58 203.54,338.56 215.29,325.27 						"/>
						<polygon class="st354" points="216.17,325.27 203.54,339.56 203.54,341.65 218.02,325.27 						"/>
					</g>
				</g>
			</g>
		</g>
		<g>
			<path class="st351" d="M353.39,353.68H157.54l0,0c0-6.43,5.21-11.63,11.63-11.63h172.58
				C348.18,342.05,353.39,347.26,353.39,353.68L353.39,353.68z"/>
			<g>
				<path class="st2" d="M330.37,296.14h-0.59c-0.92,0-1.67,0.75-1.67,1.67v44.26h3.93v-44.26
					C332.04,296.89,331.29,296.14,330.37,296.14z"/>
				<g>
					<g>
						<path class="st2" d="M336.07,306.26L336.07,306.26c-0.31,0-0.56-0.21-0.56-0.48v-2.98c0-0.26,0.25-0.48,0.56-0.48l0,0
							c0.31,0,0.56,0.21,0.56,0.48v2.98C336.63,306.05,336.38,306.26,336.07,306.26z"/>
						<path class="st2" d="M336.89,315.8L336.89,315.8c-0.28,0-0.5-0.19-0.5-0.43v-2.67c0-0.24,0.22-0.43,0.5-0.43l0,0
							c0.28,0,0.5,0.19,0.5,0.43v2.67C337.39,315.61,337.17,315.8,336.89,315.8z"/>
						<path class="st2" d="M335.2,333.58L335.2,333.58c-0.28,0-0.5-0.19-0.5-0.43v-2.67c0-0.24,0.22-0.43,0.5-0.43l0,0
							c0.28,0,0.5,0.19,0.5,0.43v2.67C335.7,333.39,335.47,333.58,335.2,333.58z"/>
						<path class="st2" d="M335.2,324L335.2,324c-0.23,0-0.42-0.16-0.42-0.36v-2.25c0-0.2,0.19-0.36,0.42-0.36l0,0
							c0.23,0,0.42,0.16,0.42,0.36v2.25C335.62,323.84,335.43,324,335.2,324z"/>
					</g>
					<g>
						<path class="st2" d="M333.67,326.09L333.67,326.09c0.31,0,0.56,0.21,0.56,0.48v2.98c0,0.26-0.25,0.48-0.56,0.48l0,0
							c-0.31,0-0.56-0.21-0.56-0.48v-2.98C333.11,326.31,333.36,326.09,333.67,326.09z"/>
						<path class="st2" d="M332.85,316.55L332.85,316.55c0.28,0,0.5,0.19,0.5,0.43v2.67c0,0.24-0.22,0.43-0.5,0.43l0,0
							c-0.28,0-0.5-0.19-0.5-0.43v-2.67C332.35,316.74,332.57,316.55,332.85,316.55z"/>
						<path class="st2" d="M334.54,298.77L334.54,298.77c0.28,0,0.5,0.19,0.5,0.43v2.67c0,0.24-0.22,0.43-0.5,0.43l0,0
							c-0.28,0-0.5-0.19-0.5-0.43v-2.67C334.04,298.96,334.27,298.77,334.54,298.77z"/>
						<path class="st2" d="M334.54,308.36L334.54,308.36c0.23,0,0.42,0.16,0.42,0.36v2.25c0,0.2-0.19,0.36-0.42,0.36l0,0
							c-0.23,0-0.42-0.16-0.42-0.36v-2.25C334.12,308.52,334.31,308.36,334.54,308.36z"/>
					</g>
				</g>
				<g>
					<g>
						<path class="st2" d="M323.79,307.86L323.79,307.86c0.31,0,0.56-0.21,0.56-0.48v-2.98c0-0.26-0.25-0.48-0.56-0.48l0,0
							c-0.31,0-0.56,0.21-0.56,0.48v2.98C323.23,307.65,323.48,307.86,323.79,307.86z"/>
						<path class="st2" d="M322.97,317.4L322.97,317.4c0.28,0,0.5-0.19,0.5-0.43v-2.67c0-0.24-0.22-0.43-0.5-0.43l0,0
							c-0.28,0-0.5,0.19-0.5,0.43v2.67C322.47,317.21,322.69,317.4,322.97,317.4z"/>
						<path class="st2" d="M324.67,335.18L324.67,335.18c0.28,0,0.5-0.19,0.5-0.43v-2.67c0-0.24-0.22-0.43-0.5-0.43l0,0
							c-0.28,0-0.5,0.19-0.5,0.43v2.67C324.16,334.99,324.39,335.18,324.67,335.18z"/>
						<path class="st2" d="M324.67,325.6L324.67,325.6c0.23,0,0.42-0.16,0.42-0.36v-2.25c0-0.2-0.19-0.36-0.42-0.36l0,0
							c-0.23,0-0.42,0.16-0.42,0.36v2.25C324.24,325.44,324.43,325.6,324.67,325.6z"/>
					</g>
					<g>
						<path class="st2" d="M326.19,327.69L326.19,327.69c-0.31,0-0.56,0.21-0.56,0.48v2.98c0,0.26,0.25,0.48,0.56,0.48l0,0
							c0.31,0,0.56-0.21,0.56-0.48v-2.98C326.75,327.91,326.5,327.69,326.19,327.69z"/>
						<path class="st2" d="M327.01,318.15L327.01,318.15c-0.28,0-0.5,0.19-0.5,0.43v2.67c0,0.24,0.22,0.43,0.5,0.43l0,0
							c0.28,0,0.5-0.19,0.5-0.43v-2.67C327.51,318.35,327.29,318.15,327.01,318.15z"/>
						<path class="st2" d="M325.32,300.37L325.32,300.37c-0.28,0-0.5,0.19-0.5,0.43v2.67c0,0.24,0.22,0.43,0.5,0.43l0,0
							c0.28,0,0.5-0.19,0.5-0.43v-2.67C325.82,300.56,325.59,300.37,325.32,300.37z"/>
						<path class="st2" d="M325.32,309.96L325.32,309.96c-0.23,0-0.42,0.16-0.42,0.36v2.25c0,0.2,0.19,0.36,0.42,0.36l0,0
							c0.23,0,0.42-0.16,0.42-0.36v-2.25C325.74,310.12,325.55,309.96,325.32,309.96z"/>
					</g>
				</g>
				<path class="st2" d="M330.72,342.18h-1.23v-42.84c0-0.29,0.23-0.52,0.52-0.52h0.19c0.29,0,0.52,0.23,0.52,0.52V342.18z"/>
				<path class="st2" d="M327.42,296.57L327.42,296.57c-0.55,0-1,0.38-1,0.85v5.33c0,0.47,0.45,0.85,1,0.85l0,0
					c0.55,0,1-0.38,1-0.85v-5.33C328.43,296.95,327.98,296.57,327.42,296.57z"/>
				<path class="st2" d="M328.77,294.74L328.77,294.74c-0.55,0-1,0.38-1,0.85v5.33c0,0.47,0.45,0.85,1,0.85l0,0
					c0.55,0,1-0.38,1-0.85v-5.33C329.77,295.12,329.32,294.74,328.77,294.74z"/>
				<path class="st2" d="M332.04,294.74L332.04,294.74c-0.55,0-1,0.38-1,0.85v5.33c0,0.47,0.45,0.85,1,0.85l0,0
					c0.55,0,1-0.38,1-0.85v-5.33C333.04,295.12,332.59,294.74,332.04,294.74z"/>
				<path class="st2" d="M330.49,293.49L330.49,293.49c-0.55,0-1,0.38-1,0.85v5.33c0,0.47,0.45,0.85,1,0.85l0,0
					c0.55,0,1-0.38,1-0.85v-5.33C331.49,293.87,331.04,293.49,330.49,293.49z"/>
				<path class="st2" d="M332.63,299.13L332.63,299.13c-0.55,0-1,0.38-1,0.85v5.33c0,0.47,0.45,0.85,1,0.85l0,0
					c0.55,0,1-0.38,1-0.85v-5.33C333.64,299.51,333.19,299.13,332.63,299.13z"/>
			</g>
			<g>
				<path class="st2" d="M255.61,281.38L255.61,281.38c-1.09,0-1.97,0.88-1.97,1.97v58.7h3.93v-58.7
					C257.57,282.26,256.69,281.38,255.61,281.38z"/>
				<g>
					<g>
						<path class="st2" d="M261.61,294.74L261.61,294.74c-0.31,0-0.56-0.28-0.56-0.63v-3.94c0-0.35,0.25-0.63,0.56-0.63l0,0
							c0.31,0,0.56,0.28,0.56,0.63v3.94C262.17,294.46,261.92,294.74,261.61,294.74z"/>
						<path class="st2" d="M262.43,307.34L262.43,307.34c-0.28,0-0.5-0.25-0.5-0.56v-3.52c0-0.31,0.22-0.56,0.5-0.56l0,0
							c0.28,0,0.5,0.25,0.5,0.56v3.52C262.93,307.09,262.7,307.34,262.43,307.34z"/>
						<path class="st2" d="M260.73,330.83L260.73,330.83c-0.28,0-0.5-0.25-0.5-0.56v-3.52c0-0.31,0.22-0.56,0.5-0.56l0,0
							c0.28,0,0.5,0.25,0.5,0.56v3.52C261.23,330.57,261.01,330.83,260.73,330.83z"/>
						<path class="st2" d="M260.73,318.16L260.73,318.16c-0.23,0-0.42-0.21-0.42-0.48v-2.98c0-0.26,0.19-0.48,0.42-0.48l0,0
							c0.23,0,0.42,0.21,0.42,0.48v2.98C261.15,317.95,260.96,318.16,260.73,318.16z"/>
					</g>
					<g>
						<path class="st2" d="M259.2,320.93L259.2,320.93c0.31,0,0.56,0.28,0.56,0.63v3.94c0,0.35-0.25,0.63-0.56,0.63l0,0
							c-0.31,0-0.56-0.28-0.56-0.63v-3.94C258.64,321.22,258.89,320.93,259.2,320.93z"/>
						<path class="st2" d="M258.38,308.34L258.38,308.34c0.28,0,0.5,0.25,0.5,0.56v3.52c0,0.31-0.22,0.56-0.5,0.56l0,0
							c-0.28,0-0.5-0.25-0.5-0.56v-3.52C257.88,308.59,258.11,308.34,258.38,308.34z"/>
						<path class="st2" d="M260.08,284.85L260.08,284.85c0.28,0,0.5,0.25,0.5,0.56v3.52c0,0.31-0.22,0.56-0.5,0.56l0,0
							c-0.28,0-0.5-0.25-0.5-0.56v-3.52C259.58,285.1,259.8,284.85,260.08,284.85z"/>
						<path class="st2" d="M260.08,297.51L260.08,297.51c0.23,0,0.42,0.21,0.42,0.48v2.98c0,0.26-0.19,0.48-0.42,0.48l0,0
							c-0.23,0-0.42-0.21-0.42-0.48v-2.98C259.66,297.72,259.85,297.51,260.08,297.51z"/>
					</g>
				</g>
				<g>
					<g>
						<path class="st2" d="M249.32,296.85L249.32,296.85c0.31,0,0.56-0.28,0.56-0.63v-3.94c0-0.35-0.25-0.63-0.56-0.63l0,0
							c-0.31,0-0.56,0.28-0.56,0.63v3.94C248.76,296.57,249.01,296.85,249.32,296.85z"/>
						<path class="st2" d="M248.5,309.45L248.5,309.45c0.28,0,0.5-0.25,0.5-0.56v-3.52c0-0.31-0.22-0.56-0.5-0.56l0,0
							c-0.28,0-0.5,0.25-0.5,0.56v3.52C248,309.2,248.23,309.45,248.5,309.45z"/>
						<path class="st2" d="M250.2,332.94L250.2,332.94c0.28,0,0.5-0.25,0.5-0.56v-3.52c0-0.31-0.22-0.56-0.5-0.56l0,0
							c-0.28,0-0.5,0.25-0.5,0.56v3.52C249.7,332.69,249.92,332.94,250.2,332.94z"/>
						<path class="st2" d="M250.2,320.28L250.2,320.28c0.23,0,0.42-0.21,0.42-0.48v-2.98c0-0.26-0.19-0.48-0.42-0.48l0,0
							c-0.23,0-0.42,0.21-0.42,0.48v2.98C249.78,320.07,249.97,320.28,250.2,320.28z"/>
					</g>
					<g>
						<path class="st2" d="M251.73,323.05L251.73,323.05c-0.31,0-0.56,0.28-0.56,0.63v3.94c0,0.35,0.25,0.63,0.56,0.63l0,0
							c0.31,0,0.56-0.28,0.56-0.63v-3.94C252.29,323.33,252.04,323.05,251.73,323.05z"/>
						<path class="st2" d="M252.55,310.45L252.55,310.45c-0.28,0-0.5,0.25-0.5,0.56v3.52c0,0.31,0.22,0.56,0.5,0.56l0,0
							c0.28,0,0.5-0.25,0.5-0.56v-3.52C253.05,310.7,252.83,310.45,252.55,310.45z"/>
						<path class="st2" d="M250.85,286.96L250.85,286.96c-0.28,0-0.5,0.25-0.5,0.56v3.52c0,0.31,0.22,0.56,0.5,0.56l0,0
							c0.28,0,0.5-0.25,0.5-0.56v-3.52C251.35,287.21,251.13,286.96,250.85,286.96z"/>
						<path class="st2" d="M250.85,299.62L250.85,299.62c-0.23,0-0.42,0.21-0.42,0.48v2.98c0,0.26,0.19,0.48,0.42,0.48l0,0
							c0.23,0,0.42-0.21,0.42-0.48v-2.98C251.27,299.83,251.09,299.62,250.85,299.62z"/>
					</g>
				</g>
				<path class="st2" d="M256.26,342.18h-1.23v-56.66c0-0.34,0.28-0.62,0.62-0.62l0,0c0.34,0,0.62,0.28,0.62,0.62V342.18z"/>
				<path class="st2" d="M252.96,281.94L252.96,281.94c-0.55,0-1,0.5-1,1.12v7.04c0,0.62,0.45,1.12,1,1.12l0,0c0.55,0,1-0.5,1-1.12
					v-7.04C253.96,282.44,253.51,281.94,252.96,281.94z"/>
				<path class="st2" d="M254.3,279.53L254.3,279.53c-0.55,0-1,0.5-1,1.12v7.04c0,0.62,0.45,1.12,1,1.12l0,0c0.55,0,1-0.5,1-1.12
					v-7.04C255.3,280.03,254.86,279.53,254.3,279.53z"/>
				<path class="st2" d="M257.57,279.53L257.57,279.53c-0.55,0-1,0.5-1,1.12v7.04c0,0.62,0.45,1.12,1,1.12l0,0c0.55,0,1-0.5,1-1.12
					v-7.04C258.57,280.03,258.13,279.53,257.57,279.53z"/>
				<path class="st2" d="M256.02,277.88L256.02,277.88c-0.55,0-1,0.5-1,1.12v7.04c0,0.62,0.45,1.12,1,1.12l0,0c0.55,0,1-0.5,1-1.12
					V279C257.03,278.38,256.58,277.88,256.02,277.88z"/>
				<path class="st2" d="M258.17,285.32L258.17,285.32c-0.55,0-1,0.5-1,1.12v7.04c0,0.62,0.45,1.12,1,1.12l0,0c0.55,0,1-0.5,1-1.12
					v-7.04C259.17,285.83,258.72,285.32,258.17,285.32z"/>
			</g>
			<g>
				<path class="st2" d="M181.91,308.22h-1.05c-0.8,0-1.44,0.65-1.44,1.44v32.45h3.93v-32.45
					C183.35,308.86,182.71,308.22,181.91,308.22z"/>
				<g>
					<g>
						<path class="st2" d="M187.39,315.68L187.39,315.68c-0.31,0-0.56-0.16-0.56-0.35v-2.2c0-0.19,0.25-0.35,0.56-0.35l0,0
							c0.31,0,0.56,0.16,0.56,0.35v2.2C187.95,315.52,187.7,315.68,187.39,315.68z"/>
						<path class="st2" d="M188.21,322.72L188.21,322.72c-0.28,0-0.5-0.14-0.5-0.31v-1.97c0-0.17,0.22-0.31,0.5-0.31l0,0
							c0.28,0,0.5,0.14,0.5,0.31v1.97C188.71,322.58,188.49,322.72,188.21,322.72z"/>
						<path class="st2" d="M186.51,335.84L186.51,335.84c-0.28,0-0.5-0.14-0.5-0.31v-1.97c0-0.17,0.22-0.31,0.5-0.31l0,0
							c0.28,0,0.5,0.14,0.5,0.31v1.97C187.01,335.7,186.79,335.84,186.51,335.84z"/>
						<path class="st2" d="M186.51,328.77L186.51,328.77c-0.23,0-0.42-0.12-0.42-0.27v-1.66c0-0.15,0.19-0.27,0.42-0.27l0,0
							c0.23,0,0.42,0.12,0.42,0.27v1.66C186.94,328.65,186.75,328.77,186.51,328.77z"/>
					</g>
					<g>
						<path class="st2" d="M184.98,330.31L184.98,330.31c0.31,0,0.56,0.16,0.56,0.35v2.2c0,0.19-0.25,0.35-0.56,0.35l0,0
							c-0.31,0-0.56-0.16-0.56-0.35v-2.2C184.42,330.47,184.68,330.31,184.98,330.31z"/>
						<path class="st2" d="M184.16,323.27L184.16,323.27c0.28,0,0.5,0.14,0.5,0.31v1.97c0,0.17-0.22,0.31-0.5,0.31l0,0
							c-0.28,0-0.5-0.14-0.5-0.31v-1.97C183.66,323.42,183.89,323.27,184.16,323.27z"/>
						<path class="st2" d="M185.86,310.15L185.86,310.15c0.28,0,0.5,0.14,0.5,0.31v1.97c0,0.17-0.22,0.31-0.5,0.31l0,0
							c-0.28,0-0.5-0.14-0.5-0.31v-1.97C185.36,310.29,185.58,310.15,185.86,310.15z"/>
						<path class="st2" d="M185.86,317.23L185.86,317.23c0.23,0,0.42,0.12,0.42,0.27v1.66c0,0.15-0.19,0.27-0.42,0.27l0,0
							c-0.23,0-0.42-0.12-0.42-0.27v-1.66C185.44,317.34,185.63,317.23,185.86,317.23z"/>
					</g>
				</g>
				<g>
					<g>
						<path class="st2" d="M175.11,316.86L175.11,316.86c0.31,0,0.56-0.16,0.56-0.35v-2.2c0-0.19-0.25-0.35-0.56-0.35l0,0
							c-0.31,0-0.56,0.16-0.56,0.35v2.2C174.55,316.7,174.8,316.86,175.11,316.86z"/>
						<path class="st2" d="M174.29,323.9L174.29,323.9c0.28,0,0.5-0.14,0.5-0.31v-1.97c0-0.17-0.22-0.31-0.5-0.31l0,0
							c-0.28,0-0.5,0.14-0.5,0.31v1.97C173.78,323.76,174.01,323.9,174.29,323.9z"/>
						<path class="st2" d="M175.98,337.02L175.98,337.02c0.28,0,0.5-0.14,0.5-0.31v-1.97c0-0.17-0.22-0.31-0.5-0.31l0,0
							c-0.28,0-0.5,0.14-0.5,0.31v1.97C175.48,336.88,175.71,337.02,175.98,337.02z"/>
						<path class="st2" d="M175.98,329.95L175.98,329.95c0.23,0,0.42-0.12,0.42-0.27v-1.66c0-0.15-0.19-0.27-0.42-0.27l0,0
							c-0.23,0-0.42,0.12-0.42,0.27v1.66C175.56,329.83,175.75,329.95,175.98,329.95z"/>
					</g>
					<g>
						<path class="st2" d="M177.51,331.49L177.51,331.49c-0.31,0-0.56,0.16-0.56,0.35v2.2c0,0.19,0.25,0.35,0.56,0.35l0,0
							c0.31,0,0.56-0.16,0.56-0.35v-2.2C178.07,331.65,177.82,331.49,177.51,331.49z"/>
						<path class="st2" d="M178.33,324.46L178.33,324.46c-0.28,0-0.5,0.14-0.5,0.31v1.97c0,0.17,0.22,0.31,0.5,0.31l0,0
							c0.28,0,0.5-0.14,0.5-0.31v-1.97C178.83,324.6,178.61,324.46,178.33,324.46z"/>
						<path class="st2" d="M176.63,311.33L176.63,311.33c-0.28,0-0.5,0.14-0.5,0.31v1.97c0,0.17,0.22,0.31,0.5,0.31l0,0
							c0.28,0,0.5-0.14,0.5-0.31v-1.97C177.13,311.47,176.91,311.33,176.63,311.33z"/>
						<path class="st2" d="M176.63,318.41L176.63,318.41c-0.23,0-0.42,0.12-0.42,0.27v1.66c0,0.15,0.19,0.27,0.42,0.27l0,0
							c0.23,0,0.42-0.12,0.42-0.27v-1.66C177.06,318.53,176.87,318.41,176.63,318.41z"/>
					</g>
				</g>
				<path class="st2" d="M182.04,342.18h-1.23v-31.54c0-0.25,0.2-0.45,0.45-0.45h0.33c0.25,0,0.45,0.2,0.45,0.45V342.18z"/>
				<path class="st2" d="M178.74,308.53L178.74,308.53c-0.55,0-1,0.28-1,0.63v3.93c0,0.35,0.45,0.63,1,0.63l0,0
					c0.55,0,1-0.28,1-0.63v-3.93C179.74,308.81,179.29,308.53,178.74,308.53z"/>
				<path class="st2" d="M180.08,307.18L180.08,307.18c-0.55,0-1,0.28-1,0.63v3.93c0,0.35,0.45,0.63,1,0.63l0,0
					c0.55,0,1-0.28,1-0.63v-3.93C181.09,307.46,180.64,307.18,180.08,307.18z"/>
				<path class="st2" d="M183.35,307.18L183.35,307.18c-0.55,0-1,0.28-1,0.63v3.93c0,0.35,0.45,0.63,1,0.63l0,0
					c0.55,0,1-0.28,1-0.63v-3.93C184.36,307.46,183.91,307.18,183.35,307.18z"/>
				<path class="st2" d="M181.81,306.26L181.81,306.26c-0.55,0-1,0.28-1,0.63v3.93c0,0.35,0.45,0.63,1,0.63l0,0
					c0.55,0,1-0.28,1-0.63v-3.93C182.81,306.54,182.36,306.26,181.81,306.26z"/>
				<path class="st2" d="M183.95,310.42L183.95,310.42c-0.55,0-1,0.28-1,0.63v3.94c0,0.35,0.45,0.63,1,0.63l0,0
					c0.55,0,1-0.28,1-0.63v-3.94C184.95,310.7,184.5,310.42,183.95,310.42z"/>
			</g>
		</g>
		<g>
			<rect x="228.95" y="70.02" class="st352" width="61.62" height="66.09"/>
			<g>
				<g>
					<g>
						<polygon class="st2" points="239.29,127.83 240.04,129.36 241.73,129.6 240.51,130.79 240.8,132.47 239.29,131.68 
							237.78,132.47 238.07,130.79 236.85,129.6 238.54,129.36 						"/>
						<polygon class="st2" points="239.29,127.83 239.89,129.05 239.02,131.82 237.78,132.47 238.07,130.79 236.85,129.6 
							238.54,129.36 						"/>
					</g>
					<g>
						<polygon class="st2" points="249.78,127.83 250.53,129.36 252.22,129.6 251,130.79 251.29,132.47 249.78,131.68 
							248.27,132.47 248.56,130.79 247.34,129.6 249.02,129.36 						"/>
						<polygon class="st2" points="249.78,127.83 250.38,129.05 249.51,131.82 248.27,132.47 248.56,130.79 247.34,129.6 
							249.02,129.36 						"/>
					</g>
					<g>
						<polygon class="st2" points="260.27,127.83 261.02,129.36 262.71,129.6 261.49,130.79 261.77,132.47 260.27,131.68 
							258.76,132.47 259.05,130.79 257.83,129.6 259.51,129.36 						"/>
						<polygon class="st2" points="260.27,127.83 260.87,129.05 260,131.82 258.76,132.47 259.05,130.79 257.83,129.6 
							259.51,129.36 						"/>
					</g>
					<g>
						<polygon class="st2" points="270.76,127.83 271.51,129.36 273.2,129.6 271.98,130.79 272.26,132.47 270.76,131.68 
							269.25,132.47 269.54,130.79 268.32,129.6 270,129.36 						"/>
						<polygon class="st2" points="270.76,127.83 271.36,129.05 270.49,131.82 269.25,132.47 269.54,130.79 268.32,129.6 
							270,129.36 						"/>
					</g>
					<g>
						<polygon class="st2" points="281.24,127.83 282,129.36 283.68,129.6 282.46,130.79 282.75,132.47 281.24,131.68 
							279.74,132.47 280.02,130.79 278.8,129.6 280.49,129.36 						"/>
						<polygon class="st2" points="281.24,127.83 281.85,129.05 280.98,131.82 279.73,132.47 280.03,130.79 278.8,129.6 
							280.49,129.36 						"/>
					</g>
				</g>
				<g>
					<g>
						<path class="st2" d="M245.65,80.8v27.02c0,0.73-0.58,1.31-1.31,1.31h-0.15c-0.73,0-1.31-0.58-1.31-1.31V80.8
							c0-0.72,0.58-1.31,1.31-1.31h0.15C245.06,79.49,245.65,80.08,245.65,80.8z"/>
						<path class="st2" d="M251.09,84.09v27.01c0,0.73-0.59,1.32-1.31,1.32h-0.15c-0.73,0-1.31-0.59-1.31-1.32V84.09
							c0-0.73,0.58-1.31,1.31-1.31h0.15C250.5,82.78,251.09,83.36,251.09,84.09z"/>
						<path class="st2" d="M257.13,79.47v27.02c0,0.72-0.59,1.31-1.32,1.31h-0.14c-0.73,0-1.31-0.59-1.31-1.31V79.47
							c0-0.73,0.58-1.31,1.31-1.31h0.14C256.53,78.16,257.13,78.75,257.13,79.47z"/>
						<path class="st2" d="M262.71,84.73v27.02c0,0.73-0.58,1.31-1.31,1.31h-0.15c-0.73,0-1.31-0.58-1.31-1.31V84.73
							c0-0.72,0.58-1.31,1.31-1.31h0.15C262.13,83.42,262.71,84.01,262.71,84.73z"/>
						<path class="st2" d="M268.26,78.92v27.01c0,0.73-0.59,1.32-1.32,1.32h-0.14c-0.73,0-1.32-0.59-1.32-1.32V78.92
							c0-0.73,0.59-1.31,1.32-1.31h0.14C267.67,77.61,268.26,78.19,268.26,78.92z"/>
						<path class="st2" d="M272.81,84.09v27.01c0,0.73-0.59,1.32-1.31,1.32h-0.15c-0.73,0-1.31-0.59-1.31-1.32V84.09
							c0-0.73,0.58-1.31,1.31-1.31h0.15C272.22,82.78,272.81,83.36,272.81,84.09z"/>
						<path class="st2" d="M277.66,78.92v27.01c0,0.73-0.59,1.32-1.32,1.32h-0.14c-0.73,0-1.32-0.59-1.32-1.32V78.92
							c0-0.73,0.59-1.31,1.32-1.31h0.14C277.07,77.61,277.66,78.19,277.66,78.92z"/>
					</g>
					<g>
						<path class="st2" d="M245.65,80.8v20.21c-0.99,0.27-1.92,0.54-2.77,0.77V80.8c0-0.72,0.58-1.31,1.31-1.31h0.15
							C245.06,79.49,245.65,80.08,245.65,80.8z"/>
						<path class="st2" d="M251.09,84.09v15.39c-0.95,0.26-1.87,0.53-2.77,0.77V84.09c0-0.73,0.58-1.31,1.31-1.31h0.15
							C250.5,82.78,251.09,83.36,251.09,84.09z"/>
						<path class="st2" d="M257.13,79.47v18.32c-0.94,0.26-1.87,0.52-2.77,0.77V79.47c0-0.73,0.58-1.31,1.31-1.31h0.14
							C256.53,78.16,257.13,78.75,257.13,79.47z"/>
						<path class="st2" d="M262.71,84.73v11.51c-0.92,0.25-1.85,0.52-2.77,0.76V84.73c0-0.72,0.58-1.31,1.31-1.31h0.15
							C262.13,83.42,262.71,84.01,262.71,84.73z"/>
						<path class="st2" d="M268.26,78.92v15.78c-0.92,0.26-1.85,0.52-2.78,0.77V78.92c0-0.73,0.59-1.31,1.32-1.31h0.14
							C267.67,77.61,268.26,78.19,268.26,78.92z"/>
						<path class="st2" d="M272.81,84.09v9.35c-0.91,0.24-1.84,0.5-2.77,0.76V84.09c0-0.73,0.58-1.31,1.31-1.31h0.15
							C272.22,82.78,272.81,83.36,272.81,84.09z"/>
						<path class="st2" d="M277.66,78.92v13.18c-0.9,0.24-1.83,0.5-2.78,0.76V78.92c0-0.73,0.59-1.31,1.32-1.31h0.14
							C277.07,77.61,277.66,78.19,277.66,78.92z"/>
					</g>
				</g>
			</g>
		</g>
	</g>
	<g>
		<path class="st351" d="M477.84,331.55c-1.29-1.12-3.06-1.69-4.74-1.37c0.04-3.27-3.22-6.18-6.46-5.76
			c-2.04,0.26-3.75,1.79-4.52,3.68c-0.6,1.45-2.1,2.28-3.65,1.99c-0.07-0.01-0.13-0.02-0.2-0.03c-1.09-0.17-1.98-0.97-2.42-1.98
			c-0.91-2.09-3.07-3.67-5.37-3.65c-2.27,0.01-4.39,1.57-5.3,3.63c-0.53,1.21-1.68,2.02-3,2.02h-0.1c-1.32,0-2.48-0.82-3-2.03
			c-0.9-2.08-3.04-3.66-5.33-3.67c-2.32-0.01-4.5,1.59-5.4,3.7c-0.44,1.04-1.38,1.8-2.5,1.96c-0.13,0.02-0.27,0.04-0.4,0.07
			c-1.55,0.3-3.03-0.66-3.66-2.11c-0.79-1.83-2.46-3.3-4.45-3.56c-3.23-0.43-6.5,2.46-6.47,5.72c-6.43-0.92-10.56,9.31-1.23,11.14
			c0.87,0.17,1.75,0.22,2.63,0.22c19.87-0.02,39.73-0.03,59.6-0.05c1.52,0,3.1-0.01,4.5-0.62c2.5-1.08,3.93-4.18,3.13-6.79
			C479.21,333.07,478.61,332.21,477.84,331.55z"/>
	</g>
	<g>
		<g>
			<g>
				<path class="st355" d="M51.87,342.22c0.14,0.49,0.28,0.94,0.43,1.37c0.11,0.31,0.4,0.51,0.73,0.51h6.21
					c0.44,0,0.8-0.38,0.76-0.82c-0.57-8.62-5.4-83.66-5.91-145.78c-0.24-29.16,0.47-55.48,3.02-70.76c0.06-0.36-0.14-0.7-0.48-0.84
					l-5.51-2.2c-0.49-0.2-1.04,0.15-1.06,0.68C49.43,139.55,42.38,309.7,51.87,342.22z"/>
				<path class="st351" d="M51.87,342.22l1.17,1.87c-7.39-40.55-3.85-99.95,1.06-146.6c-0.24-29.16,0.47-55.48,3.02-70.76
					c0.06-0.36-0.14-0.7-0.48-0.84l-5.51-2.2c-0.49-0.2-1.04,0.15-1.06,0.68C49.43,139.55,42.38,309.7,51.87,342.22z"/>
				<g>
					<path class="st352" d="M52.72,124.19c8.43,3.06,34.58,13.75,35.4,28.77c0.03,0.62-0.66,1.02-1.19,0.69l-6.54-4.14
						c-0.34-0.22-0.46-0.66-0.27-1.02l0.16-0.3c0.32-0.6-0.24-1.3-0.9-1.11l-2.42,0.71c-0.25,0.07-0.53,0.01-0.73-0.16l-4.91-4.33
						c-0.37-0.33-0.34-0.91,0.06-1.2l2.96-2.16l-5.19,1.54c-0.26,0.08-0.55,0.01-0.75-0.18l-6.07-5.75
						c-0.37-0.35-0.3-0.97,0.14-1.23l0,0c0.72-0.42,0.35-1.53-0.48-1.44l-3.23,0.38c-0.26,0.03-0.52-0.07-0.69-0.28l-6.21-7.57
						C51.37,124.8,51.98,123.92,52.72,124.19z"/>
					<path class="st352" d="M52.93,124.65c7.62-4.73,32.19-18.67,44.49-10.03c0.51,0.36,0.39,1.15-0.2,1.36l-7.29,2.58
						c-0.38,0.14-0.8-0.05-0.97-0.42l-0.14-0.31c-0.28-0.63-1.17-0.61-1.42,0.02l-0.94,2.34c-0.1,0.25-0.32,0.42-0.58,0.47
						l-6.44,1.18c-0.49,0.09-0.93-0.3-0.91-0.79l0.14-3.66l-2,5.03c-0.1,0.26-0.33,0.44-0.61,0.48l-8.28,1.22
						c-0.51,0.07-0.95-0.36-0.88-0.87l0,0c0.12-0.83-0.99-1.22-1.42-0.51l-1.7,2.77c-0.14,0.22-0.38,0.36-0.64,0.37l-9.79,0.2
						C52.57,126.09,52.26,125.06,52.93,124.65z"/>
					<path class="st352" d="M53.53,122.28c2.89-8.49,13.06-34.85,28.05-35.97c0.62-0.05,1.04,0.64,0.71,1.18l-4,6.62
						c-0.21,0.35-0.65,0.47-1.01,0.29l-0.3-0.15c-0.61-0.31-1.29,0.27-1.09,0.92l0.76,2.41c0.08,0.25,0.02,0.53-0.15,0.73l-4.24,5
						c-0.32,0.38-0.91,0.36-1.21-0.03l-2.21-2.92l1.64,5.16c0.08,0.26,0.02,0.55-0.16,0.75l-5.63,6.19
						c-0.35,0.38-0.96,0.32-1.23-0.12l0,0c-0.44-0.71-1.54-0.32-1.43,0.51l0.44,3.22c0.04,0.26-0.06,0.52-0.26,0.69l-7.44,6.36
						C54.17,123.63,53.28,123.03,53.53,122.28z"/>
					<path class="st352" d="M51.57,123.43c-1.51-8.84-5.17-36.85,7.46-45c0.52-0.34,1.22,0.07,1.19,0.69l-0.36,7.73
						c-0.02,0.4-0.35,0.73-0.75,0.74l-0.34,0.01c-0.68,0.02-1.01,0.85-0.52,1.33l1.81,1.75c0.19,0.18,0.27,0.45,0.22,0.71
						l-1.33,6.41c-0.1,0.48-0.62,0.75-1.07,0.55l-3.34-1.51l3.9,3.75c0.2,0.19,0.28,0.47,0.22,0.74l-1.99,8.12
						c-0.12,0.5-0.69,0.74-1.14,0.49l0,0c-0.72-0.42-1.51,0.45-1.01,1.13l1.92,2.62c0.16,0.21,0.19,0.49,0.1,0.73l-3.5,9.14
						C52.77,124.31,51.7,124.21,51.57,123.43z"/>
				</g>
				<g>
					<path class="st352" d="M52.54,124.19c-8.43,3.06-34.58,13.75-35.4,28.77c-0.03,0.62,0.66,1.02,1.19,0.69l6.54-4.14
						c0.34-0.22,0.46-0.66,0.27-1.02l-0.16-0.3c-0.32-0.6,0.24-1.3,0.9-1.11l2.42,0.71c0.25,0.07,0.53,0.01,0.73-0.16l4.91-4.33
						c0.37-0.33,0.34-0.91-0.06-1.2l-2.96-2.16l5.19,1.54c0.26,0.08,0.55,0.01,0.75-0.18l6.07-5.75c0.37-0.35,0.3-0.97-0.14-1.23h0
						c-0.72-0.42-0.35-1.53,0.48-1.44l3.23,0.38c0.26,0.03,0.52-0.07,0.69-0.28l6.21-7.57C53.9,124.8,53.28,123.92,52.54,124.19z"/>
					<path class="st352" d="M52.34,124.65c-7.62-4.73-32.19-18.67-44.49-10.03c-0.51,0.36-0.39,1.15,0.2,1.36l7.29,2.58
						c0.38,0.14,0.8-0.05,0.97-0.42l0.14-0.31c0.28-0.63,1.17-0.61,1.42,0.02l0.94,2.34c0.1,0.25,0.32,0.42,0.58,0.47l6.44,1.18
						c0.49,0.09,0.93-0.3,0.91-0.79l-0.14-3.66l2,5.03c0.1,0.26,0.33,0.44,0.61,0.48l8.28,1.22c0.51,0.07,0.95-0.36,0.88-0.87l0,0
						c-0.12-0.83,0.99-1.22,1.42-0.51l1.7,2.77c0.14,0.22,0.38,0.36,0.64,0.37l9.79,0.2C52.69,126.09,53,125.06,52.34,124.65z"/>
					<path class="st352" d="M51.73,122.28c-2.89-8.49-13.06-34.85-28.05-35.97c-0.62-0.05-1.04,0.64-0.71,1.18l4,6.62
						c0.21,0.35,0.65,0.47,1.01,0.29l0.3-0.15c0.61-0.31,1.29,0.27,1.09,0.92l-0.76,2.41c-0.08,0.25-0.02,0.53,0.15,0.73l4.24,5
						c0.32,0.38,0.91,0.36,1.21-0.03l2.21-2.92l-1.64,5.16c-0.08,0.26-0.02,0.55,0.16,0.75l5.63,6.19c0.35,0.38,0.96,0.32,1.23-0.12
						l0,0c0.44-0.71,1.54-0.32,1.43,0.51l-0.44,3.22c-0.04,0.26,0.06,0.52,0.26,0.69l7.44,6.36
						C51.09,123.63,51.99,123.03,51.73,122.28z"/>
				</g>
			</g>
			<g>
				<path class="st351" d="M94.92,342.81c0.1,0.34,0.19,0.65,0.3,0.94c0.08,0.21,0.28,0.35,0.5,0.35h4.26c0.3,0,0.55-0.26,0.52-0.56
					c-0.39-5.91-3.7-57.4-4.05-100.02c-0.16-20.01,0.32-38.07,2.07-48.55c0.04-0.25-0.1-0.48-0.33-0.58l-3.78-1.51
					c-0.34-0.14-0.71,0.1-0.72,0.47C93.25,203.75,88.41,320.5,94.92,342.81z"/>
				<path class="st351" d="M94.92,342.81l0.8,1.29c-5.07-27.82-2.64-68.58,0.73-100.58c-0.16-20.01,0.32-38.07,2.07-48.55
					c0.04-0.25-0.1-0.48-0.33-0.58l-3.78-1.51c-0.34-0.14-0.71,0.1-0.72,0.47C93.25,203.75,88.41,320.5,94.92,342.81z"/>
				<g>
					<path class="st352" d="M95.5,193.22c5.79,2.1,23.72,9.44,24.29,19.74c0.02,0.43-0.46,0.7-0.82,0.47l-4.49-2.84
						c-0.23-0.15-0.32-0.45-0.18-0.7l0.11-0.2c0.22-0.41-0.17-0.89-0.62-0.76l-1.66,0.49c-0.17,0.05-0.36,0.01-0.5-0.11l-3.37-2.97
						c-0.25-0.22-0.24-0.63,0.04-0.83l2.03-1.48l-3.56,1.05c-0.18,0.05-0.38,0.01-0.52-0.12l-4.17-3.95
						c-0.26-0.24-0.21-0.66,0.1-0.84l0,0c0.5-0.29,0.24-1.05-0.33-0.98l-2.21,0.26c-0.18,0.02-0.36-0.05-0.47-0.19l-4.26-5.19
						C94.57,193.64,95,193.03,95.5,193.22z"/>
					<path class="st352" d="M95.64,193.53c5.23-3.25,22.09-12.81,30.53-6.88c0.35,0.25,0.27,0.79-0.13,0.93l-5,1.77
						c-0.26,0.09-0.55-0.03-0.66-0.29l-0.09-0.21c-0.19-0.43-0.8-0.42-0.98,0.02l-0.65,1.61c-0.07,0.17-0.22,0.29-0.4,0.32
						l-4.42,0.81c-0.33,0.06-0.64-0.2-0.63-0.54l0.09-2.51l-1.37,3.45c-0.07,0.18-0.23,0.3-0.42,0.33l-5.68,0.84
						c-0.35,0.05-0.65-0.25-0.6-0.6l0,0c0.08-0.57-0.68-0.84-0.98-0.35l-1.17,1.9c-0.09,0.15-0.26,0.25-0.44,0.25l-6.71,0.14
						C95.4,194.52,95.19,193.82,95.64,193.53z"/>
					<path class="st352" d="M96.06,191.91c1.99-5.83,8.96-23.91,19.24-24.68c0.43-0.03,0.71,0.44,0.49,0.81l-2.75,4.54
						c-0.14,0.24-0.45,0.32-0.69,0.2l-0.21-0.11c-0.42-0.21-0.89,0.18-0.75,0.63l0.52,1.65c0.05,0.17,0.02,0.36-0.1,0.5l-2.91,3.43
						c-0.22,0.26-0.62,0.25-0.83-0.02l-1.52-2l1.13,3.54c0.06,0.18,0.01,0.38-0.11,0.52l-3.86,4.25c-0.24,0.26-0.66,0.22-0.84-0.08
						l0,0c-0.3-0.49-1.06-0.22-0.98,0.35l0.3,2.21c0.02,0.18-0.04,0.36-0.18,0.47l-5.1,4.36C96.5,192.83,95.88,192.42,96.06,191.91z
						"/>
					<path class="st352" d="M94.71,192.7c-1.04-6.07-3.55-25.28,5.12-30.87c0.36-0.23,0.83,0.05,0.82,0.48l-0.24,5.3
						c-0.01,0.28-0.24,0.5-0.51,0.51l-0.23,0.01c-0.47,0.01-0.69,0.58-0.35,0.91l1.24,1.2c0.13,0.13,0.19,0.31,0.15,0.49l-0.91,4.4
						c-0.07,0.33-0.43,0.51-0.74,0.38l-2.29-1.03l2.68,2.57c0.14,0.13,0.19,0.32,0.15,0.51l-1.37,5.57
						c-0.08,0.34-0.47,0.51-0.78,0.33l0,0c-0.5-0.29-1.03,0.31-0.69,0.77l1.32,1.8c0.11,0.15,0.13,0.34,0.07,0.5l-2.4,6.27
						C95.54,193.3,94.8,193.23,94.71,192.7z"/>
				</g>
				<g>
					<path class="st352" d="M95.38,193.22c-5.79,2.1-23.72,9.44-24.29,19.74c-0.02,0.43,0.46,0.7,0.82,0.47l4.49-2.84
						c0.23-0.15,0.32-0.45,0.18-0.7l-0.11-0.2c-0.22-0.41,0.17-0.89,0.62-0.76l1.66,0.49c0.17,0.05,0.36,0.01,0.5-0.11l3.37-2.97
						c0.25-0.22,0.24-0.63-0.04-0.83l-2.03-1.48l3.56,1.05c0.18,0.05,0.38,0.01,0.52-0.12l4.17-3.95c0.26-0.24,0.21-0.66-0.1-0.84
						l0,0c-0.5-0.29-0.24-1.05,0.33-0.98l2.21,0.26c0.18,0.02,0.36-0.05,0.47-0.19l4.26-5.19
						C96.31,193.64,95.89,193.03,95.38,193.22z"/>
					<path class="st352" d="M95.24,193.53c-5.23-3.25-22.09-12.81-30.53-6.88c-0.35,0.25-0.27,0.79,0.13,0.93l5,1.77
						c0.26,0.09,0.55-0.03,0.66-0.29l0.09-0.21c0.19-0.43,0.8-0.42,0.98,0.02l0.65,1.61c0.07,0.17,0.22,0.29,0.4,0.32l4.42,0.81
						c0.33,0.06,0.64-0.2,0.63-0.54l-0.09-2.51l1.37,3.45c0.07,0.18,0.23,0.3,0.42,0.33l5.68,0.84c0.35,0.05,0.65-0.25,0.6-0.6l0,0
						c-0.08-0.57,0.68-0.84,0.98-0.35l1.17,1.9c0.09,0.15,0.26,0.25,0.44,0.25l6.71,0.14C95.48,194.52,95.7,193.82,95.24,193.53z"/>
					<path class="st352" d="M94.82,191.91c-1.99-5.83-8.96-23.91-19.24-24.68c-0.43-0.03-0.71,0.44-0.49,0.81l2.75,4.54
						c0.14,0.24,0.45,0.32,0.69,0.2l0.21-0.11c0.42-0.21,0.89,0.18,0.75,0.63l-0.52,1.65c-0.05,0.17-0.02,0.36,0.1,0.5l2.91,3.43
						c0.22,0.26,0.62,0.25,0.83-0.02l1.52-2l-1.13,3.54c-0.06,0.18-0.01,0.38,0.11,0.52l3.86,4.25c0.24,0.26,0.66,0.22,0.84-0.08
						l0,0c0.3-0.49,1.06-0.22,0.98,0.35l-0.3,2.21c-0.02,0.18,0.04,0.36,0.18,0.47l5.1,4.36C94.39,192.83,95,192.42,94.82,191.91z"
						/>
				</g>
			</g>
		</g>
	</g>
	<g>
		<path class="st351" d="M112.8,336.32c-1.29-1.12-3.06-1.69-4.74-1.37c0.04-3.27-3.22-6.18-6.46-5.76
			c-2.04,0.26-3.75,1.79-4.52,3.68c-0.6,1.45-2.1,2.28-3.65,1.99c-0.07-0.01-0.13-0.02-0.2-0.03c-1.09-0.17-1.98-0.97-2.42-1.98
			c-0.91-2.09-3.07-3.67-5.37-3.65c-2.27,0.01-4.39,1.57-5.3,3.63c-0.53,1.21-1.68,2.02-3,2.02h-0.1c-1.32,0-2.48-0.82-3-2.03
			c-0.9-2.08-3.04-3.66-5.33-3.67c-2.32-0.01-4.5,1.59-5.4,3.7c-0.44,1.04-1.38,1.8-2.5,1.96c-0.13,0.02-0.27,0.04-0.4,0.07
			c-1.55,0.3-3.03-0.66-3.66-2.11c-0.79-1.83-2.46-3.3-4.45-3.56c-3.23-0.43-6.5,2.46-6.47,5.72c-6.43-0.92-10.56,9.31-1.23,11.14
			c0.87,0.17,1.75,0.22,2.63,0.22c19.87-0.02,39.73-0.03,59.6-0.05c1.52,0,3.1-0.01,4.5-0.62c2.5-1.08,3.93-4.18,3.13-6.79
			C114.16,337.84,113.57,336.99,112.8,336.32z"/>
	</g>
</g>
</svg>
