<?xml version="1.0" encoding="utf-8"?>
<!-- Generator: Adobe Illustrator 24.1.2, SVG Export Plug-In . SVG Version: 6.00 Build 0)  -->
<svg version="1.1" id="Capa_1" xmlns="http://www.w3.org/2000/svg" xmlns:xlink="http://www.w3.org/1999/xlink" x="0px" y="0px"
	 viewBox="0 0 519.46 552.72" style="enable-background:new 0 0 519.46 552.72;" xml:space="preserve">
<style type="text/css">
	.st0{opacity:0.68;fill:#9199C1;}
	.st1{opacity:0.43;}
	.st2{fill:#C1B9D0;}
	.st3{fill:#383A80;}
	.st4{fill-rule:evenodd;clip-rule:evenodd;fill:#E0BAAA;}
	.st5{fill-rule:evenodd;clip-rule:evenodd;fill:#DFAD97;}
	.st6{fill-rule:evenodd;clip-rule:evenodd;fill:#8890BC;}
	.st7{fill-rule:evenodd;clip-rule:evenodd;fill:#5050BE;}
	.st8{fill-rule:evenodd;clip-rule:evenodd;fill:#DEA689;}
	.st9{fill-rule:evenodd;clip-rule:evenodd;fill:#C0B6CE;}
	.st10{clip-path:url(#SVGID_2_);}
	.st11{fill:#5050BE;}
	.st12{fill:#4F4EBD;}
	.st13{fill:#4D4DBC;}
	.st14{fill:#4C4BBA;}
	.st15{fill:#4B4AB9;}
	.st16{fill:#4A48B8;}
	.st17{fill:#4847B7;}
	.st18{fill:#4746B6;}
	.st19{fill:#4645B5;}
	.st20{fill:#4543B5;}
	.st21{fill:#4442B4;}
	.st22{fill:#4341B3;}
	.st23{fill:#4340B2;}
	.st24{fill:#423FB2;}
	.st25{fill:#413FB1;}
	.st26{fill:#413EB0;}
	.st27{fill:#403DB0;}
	.st28{fill:#403DAF;}
	.st29{fill:#3F3CAF;}
	.st30{clip-path:url(#SVGID_4_);}
	.st31{opacity:0.81;}
	.st32{fill-rule:evenodd;clip-rule:evenodd;fill:#352D8D;}
	.st33{clip-path:url(#SVGID_6_);}
	.st34{fill:#FFFFFF;}
	.st35{fill:#37474F;}
	.st36{fill:#FF6680;}
	.st37{fill:#5747E4;}
	.st38{fill:#D3D3D3;}
	.st39{fill:none;stroke:#ACACAB;stroke-miterlimit:10;}
	.st40{opacity:0.32;fill:#D2D2D2;}
	.st41{fill:#D2D2D2;}
	.st42{fill:#ACACAB;}
	.st43{opacity:0.39;fill:#D2D2D2;}
	.st44{fill:none;stroke:#DBDBDB;stroke-width:3;stroke-miterlimit:10;}
	.st45{fill:#DBDBDB;}
	.st46{fill:none;}
	.st47{fill:none;stroke:#3C3C3B;stroke-miterlimit:10;}
	.st48{clip-path:url(#SVGID_8_);}
	.st49{clip-path:url(#SVGID_10_);}
	.st50{clip-path:url(#SVGID_13_);}
	.st51{clip-path:url(#SVGID_17_);fill:url(#SVGID_19_);}
	.st52{opacity:0.81;clip-path:url(#SVGID_17_);fill:#393C80;}
	.st53{clip-path:url(#SVGID_17_);fill:#4A5486;}
	.st54{opacity:0.46;clip-path:url(#SVGID_17_);fill:#3F4980;}
	.st55{opacity:0.49;clip-path:url(#SVGID_17_);fill:#393C80;}
	.st56{fill:#393C80;}
	.st57{fill:#53A6C1;}
	.st58{opacity:0.46;clip-path:url(#SVGID_13_);fill:#3F4980;}
	.st59{opacity:0.58;clip-path:url(#SVGID_13_);}
	.st60{fill:#4A5486;}
	.st61{fill:none;stroke:#53A6C1;stroke-miterlimit:10;}
	.st62{clip-path:url(#SVGID_8_);fill:none;stroke:#4A5486;stroke-width:3;stroke-miterlimit:10;}
	.st63{opacity:0.81;clip-path:url(#SVGID_8_);}
	.st64{fill:#D4D3D2;}
	.st65{clip-path:url(#SVGID_23_);}
	.st66{clip-path:url(#SVGID_29_);}
	.st67{fill:#51A5C1;}
	.st68{clip-path:url(#SVGID_35_);}
	.st69{clip-path:url(#SVGID_38_);}
	.st70{fill:#828181;}
	.st71{clip-path:url(#SVGID_41_);}
	.st72{clip-path:url(#SVGID_43_);}
	.st73{clip-path:url(#SVGID_45_);fill:url(#SVGID_46_);}
	.st74{opacity:0.46;clip-path:url(#SVGID_45_);fill:#3F3CB2;}
	.st75{opacity:0.15;clip-path:url(#SVGID_45_);fill:#352D90;}
	.st76{fill:#352D90;}
	.st77{fill:#07C0D7;}
	.st78{opacity:0.46;clip-path:url(#SVGID_43_);fill:#3F3CB2;}
	.st79{fill:#5050C1;}
	.st80{fill:none;stroke:#07C0D7;stroke-miterlimit:10;}
	.st81{fill:#3F3CB2;}
	.st82{opacity:0.81;fill:#352D90;}
	.st83{fill:none;stroke:#5050C1;stroke-width:3;stroke-miterlimit:10;}
	.st84{clip-path:url(#SVGID_48_);fill:#5747E4;}
	.st85{clip-path:url(#SVGID_50_);fill:#6C69E2;}
	.st86{clip-path:url(#SVGID_52_);fill:#6C69E2;}
	.st87{clip-path:url(#SVGID_55_);fill:#5747E4;}
	.st88{fill:#5747E4;stroke:#5747E4;stroke-width:0.5;stroke-linecap:round;stroke-linejoin:round;stroke-miterlimit:10;}
	.st89{fill:none;stroke:#DBDBDB;stroke-width:0.5;stroke-miterlimit:10;}
	.st90{fill:#6864E5;}
	.st91{fill:url(#SVGID_57_);}
	.st92{fill:url(#SVGID_59_);}
	.st93{fill:url(#SVGID_61_);}
	.st94{opacity:0.33;}
	.st95{clip-path:url(#SVGID_65_);}
	.st96{clip-path:url(#SVGID_71_);}
	.st97{clip-path:url(#SVGID_77_);}
	.st98{clip-path:url(#SVGID_80_);}
	.st99{clip-path:url(#SVGID_83_);}
	.st100{clip-path:url(#SVGID_85_);}
	.st101{clip-path:url(#SVGID_87_);fill:url(#SVGID_88_);}
	.st102{opacity:0.46;clip-path:url(#SVGID_87_);fill:#3F3CB2;}
	.st103{opacity:0.15;clip-path:url(#SVGID_87_);fill:#352D90;}
	.st104{opacity:0.46;clip-path:url(#SVGID_85_);fill:#3F3CB2;}
	.st105{clip-path:url(#SVGID_90_);fill:#5747E4;}
	.st106{clip-path:url(#SVGID_92_);fill:#6C69E2;}
	.st107{clip-path:url(#SVGID_94_);fill:#6C69E2;}
	.st108{clip-path:url(#SVGID_96_);fill:#5747E4;}
	.st109{fill:#6F6F6E;}
	.st110{clip-path:url(#SVGID_98_);fill:#808080;}
	.st111{clip-path:url(#SVGID_100_);fill:#979797;}
	.st112{clip-path:url(#SVGID_104_);fill:#979797;}
	.st113{clip-path:url(#SVGID_108_);fill:#828181;}
	.st114{clip-path:url(#SVGID_112_);}
	.st115{clip-path:url(#SVGID_118_);}
	.st116{clip-path:url(#SVGID_124_);}
	.st117{clip-path:url(#SVGID_127_);}
	.st118{fill:#D7D9DE;}
	.st119{fill:#C0B6CE;}
	.st120{fill:#8890BC;}
	.st121{fill:#8282C2;}
	.st122{opacity:0.39;}
	.st123{clip-path:url(#SVGID_136_);}
	.st124{fill:#B1B1E8;}
	.st125{fill:#99A1C5;}
	.st126{fill:#352D8D;}
	.st127{fill:#DFAD97;}
	.st128{fill:#4764BB;}
	.st129{fill:#5172D9;}
	.st130{fill:#060412;}
	.st131{fill:none;stroke:#060412;stroke-width:0.9422;stroke-miterlimit:10;}
	.st132{fill:#171032;}
	.st133{fill:#211D49;}
	.st134{opacity:0.22;fill:none;stroke:#FFFFFF;stroke-width:0.25;stroke-miterlimit:10;}
	.st135{fill:#2E2C60;}
	.st136{fill:#1C163F;}
	.st137{fill:#271F50;}
	.st138{fill:#D7DDFF;}
	.st139{fill:none;stroke:#FFFFFF;stroke-width:0.3951;stroke-linecap:round;stroke-linejoin:round;stroke-miterlimit:10;}
	.st140{fill:none;stroke:#FFFFFF;stroke-width:0.4765;stroke-linecap:round;stroke-linejoin:round;stroke-miterlimit:10;}
	.st141{fill:none;stroke:#FFFFFF;stroke-width:0.4362;stroke-linecap:round;stroke-linejoin:round;stroke-miterlimit:10;}
	.st142{fill:#8091E8;}
	.st143{fill:#808080;}
	.st144{fill:none;stroke:#5C5CC4;stroke-miterlimit:10;}
	.st145{fill:#5C5CC4;}
	.st146{fill:none;stroke:#5747E4;stroke-miterlimit:10;}
	.st147{opacity:0.5;}
	.st148{fill:#9798A0;}
	.st149{opacity:0.3;fill:#C0B6CE;}
	.st150{opacity:0.5;fill:#FFFFFF;}
	.st151{clip-path:url(#SVGID_140_);}
	.st152{opacity:0.3;fill:#FFFFFF;}
	.st153{opacity:0.3;fill-rule:evenodd;clip-rule:evenodd;fill:#C0B6CE;}
	.st154{fill-rule:evenodd;clip-rule:evenodd;fill:#5747E4;}
	.st155{fill-rule:evenodd;clip-rule:evenodd;fill:#FFFFFF;}
	.st156{fill-rule:evenodd;clip-rule:evenodd;fill:#9ABED8;}
	.st157{fill:#D6DEE4;}
	.st158{fill:#DBD9DF;}
	.st159{fill:#E6E5EC;}
	.st160{fill:#90B0DF;}
	.st161{opacity:0.49;}
	.st162{clip-path:url(#SVGID_144_);}
	.st163{fill:#8C94BE;}
	.st164{fill:#8D95BF;}
	.st165{fill:#8E96BF;}
	.st166{fill:#8F97C0;}
	.st167{fill:#9098C0;}
	.st168{fill:#9199C1;}
	.st169{fill:#929AC1;}
	.st170{fill:#939BC2;}
	.st171{fill:#949CC3;}
	.st172{fill:#959DC3;}
	.st173{fill:#969EC4;}
	.st174{fill:#979FC4;}
	.st175{fill:#98A0C5;}
	.st176{fill:#9BA3C6;}
	.st177{fill:#9CA4C6;}
	.st178{fill:#9DA5C7;}
	.st179{clip-path:url(#SVGID_146_);}
	.st180{clip-path:url(#SVGID_148_);}
	.st181{clip-path:url(#SVGID_150_);}
	.st182{clip-path:url(#SVGID_152_);}
	.st183{clip-path:url(#SVGID_154_);}
	.st184{clip-path:url(#SVGID_156_);fill:#5747E4;}
	.st185{clip-path:url(#SVGID_158_);fill:#6C69E2;}
	.st186{clip-path:url(#SVGID_160_);fill:#5747E4;}
	.st187{clip-path:url(#SVGID_162_);fill:#6C69E2;}
	.st188{clip-path:url(#SVGID_164_);}
	.st189{clip-path:url(#SVGID_167_);}
	.st190{clip-path:url(#SVGID_173_);}
	.st191{clip-path:url(#SVGID_179_);}
	.st192{clip-path:url(#SVGID_185_);}
	.st193{clip-path:url(#SVGID_189_);}
	.st194{clip-path:url(#SVGID_192_);}
	.st195{clip-path:url(#SVGID_194_);}
	.st196{clip-path:url(#SVGID_196_);}
	.st197{clip-path:url(#SVGID_198_);}
	.st198{clip-path:url(#SVGID_200_);}
	.st199{clip-path:url(#SVGID_202_);}
	.st200{clip-path:url(#SVGID_204_);fill:url(#SVGID_205_);}
	.st201{opacity:0.46;clip-path:url(#SVGID_204_);fill:#3F3CB2;}
	.st202{opacity:0.15;clip-path:url(#SVGID_204_);fill:#352D90;}
	.st203{opacity:0.46;clip-path:url(#SVGID_202_);fill:#3F3CB2;}
	.st204{clip-path:url(#SVGID_207_);fill:#5747E4;}
	.st205{clip-path:url(#SVGID_209_);fill:#6C69E2;}
	.st206{clip-path:url(#SVGID_211_);fill:#5747E4;}
	.st207{clip-path:url(#SVGID_213_);fill:#6C69E2;}
	.st208{fill:none;stroke:#D2D2D2;stroke-miterlimit:10;}
	.st209{clip-path:url(#SVGID_215_);}
	.st210{fill:#4A48C9;}
	.st211{fill:#4847C8;}
	.st212{fill:#4746C7;}
	.st213{fill:#4645C6;}
	.st214{fill:#4543C6;}
	.st215{fill:#4442C5;}
	.st216{fill:#4341C4;}
	.st217{fill:#4340C3;}
	.st218{fill:#423FC3;}
	.st219{fill:#413FC2;}
	.st220{fill:#5050CF;}
	.st221{fill:#4F4ECE;}
	.st222{fill:#4D4DCD;}
	.st223{fill:#4C4BCB;}
	.st224{fill:#4B4ACA;}
	.st225{fill:#413EC1;}
	.st226{fill:#403DC1;}
	.st227{fill:#403DC0;}
	.st228{fill:#3F3CC0;}
	.st229{clip-path:url(#SVGID_217_);}
	.st230{fill:#07CEE5;}
	.st231{clip-path:url(#SVGID_219_);}
	.st232{clip-path:url(#SVGID_221_);}
	.st233{fill:#D2CAE1;}
	.st234{clip-path:url(#SVGID_223_);}
	.st235{fill:#9DA5CF;}
	.st236{fill:#9EA6D0;}
	.st237{fill:#9FA7D0;}
	.st238{fill:#A0A8D1;}
	.st239{fill:#A1A9D1;}
	.st240{fill:#A2AAD2;}
	.st241{fill:#A3ABD2;}
	.st242{fill:#A4ACD3;}
	.st243{fill:#A5ADD4;}
	.st244{fill:#A6AED4;}
	.st245{fill:#A7AFD5;}
	.st246{fill:#A8B0D5;}
	.st247{fill:#A9B1D6;}
	.st248{fill:#AAB2D6;}
	.st249{fill:#ACB4D7;}
	.st250{fill:#ADB5D7;}
	.st251{fill:#AEB6D8;}
	.st252{fill:#383A85;}
	.st253{fill-rule:evenodd;clip-rule:evenodd;fill:#F1CBBB;}
	.st254{fill-rule:evenodd;clip-rule:evenodd;fill:#F0BEA8;}
	.st255{fill-rule:evenodd;clip-rule:evenodd;fill:#99A1CD;}
	.st256{fill-rule:evenodd;clip-rule:evenodd;fill:#5050CF;}
	.st257{fill-rule:evenodd;clip-rule:evenodd;fill:#EFB79A;}
	.st258{fill-rule:evenodd;clip-rule:evenodd;fill:#D1C7DF;}
	.st259{clip-path:url(#SVGID_225_);}
	.st260{clip-path:url(#SVGID_227_);}
	.st261{clip-path:url(#SVGID_229_);}
	.st262{clip-path:url(#SVGID_231_);}
	.st263{fill-rule:evenodd;clip-rule:evenodd;fill:#352D9E;}
	.st264{clip-path:url(#SVGID_233_);}
	.st265{fill:#FF6683;}
	.st266{fill:#352D9E;}
	.st267{fill:#575756;}
	.st268{opacity:0.1;clip-path:url(#SVGID_235_);}
	.st269{fill:#ECECEC;}
	.st270{fill:#5747F5;}
	.st271{fill:#E4E4E4;}
	.st272{fill:#F5F5F5;}
	.st273{fill:#E0E0E0;}
	.st274{fill:#27DEBF;}
	.st275{fill:#AFA8BB;}
	.st276{fill:#263238;}
	.st277{opacity:0.2;fill:#8890BC;}
	.st278{opacity:0.2;fill:#4645B5;}
	.st279{fill:#C3998A;}
	.st280{fill:#262472;}
	.st281{opacity:0.2;}
	.st282{fill:#979797;}
	.st283{fill-rule:evenodd;clip-rule:evenodd;fill:#00000F;}
	.st284{fill:#FFFFFF;stroke:#DBDBDB;stroke-miterlimit:10;}
	.st285{opacity:0.35;fill:#DBDBDB;}
	.st286{opacity:0.78;}
	.st287{fill:#FFFFFF;stroke:#FFFFFF;stroke-width:0.2;stroke-miterlimit:10;}
	.st288{fill:url(#SVGID_236_);}
	.st289{fill:url(#SVGID_237_);}
	.st290{fill:url(#SVGID_238_);}
	.st291{fill:url(#SVGID_239_);}
	.st292{opacity:0.2;enable-background:new    ;}
	.st293{opacity:0.12;enable-background:new    ;}
	.st294{opacity:0.25;fill:#FFFFFF;enable-background:new    ;}
	.st295{clip-path:url(#SVGID_241_);}
	.st296{clip-path:url(#SVGID_244_);fill:#FFFFFF;}
	.st297{clip-path:url(#SVGID_246_);fill:#D8D8D8;}
	.st298{clip-path:url(#SVGID_248_);fill:#D8D8D8;}
	.st299{clip-path:url(#SVGID_250_);}
	.st300{clip-path:url(#SVGID_254_);}
	.st301{clip-path:url(#SVGID_257_);fill:url(#SVGID_258_);}
	.st302{opacity:0.46;clip-path:url(#SVGID_257_);fill:#3F3CB2;}
	.st303{opacity:0.15;clip-path:url(#SVGID_257_);fill:#352D90;}
	.st304{opacity:0.46;clip-path:url(#SVGID_254_);fill:#3F3CB2;}
	.st305{fill:#FFFFFF;stroke:#FFFFFF;stroke-width:0.25;stroke-miterlimit:10;}
	.st306{fill:#FFFFFF;stroke:#FFFFFF;stroke-width:0.25;stroke-linecap:round;stroke-linejoin:round;stroke-miterlimit:10;}
	.st307{clip-path:url(#SVGID_262_);fill:#FFFFFF;}
	.st308{clip-path:url(#SVGID_264_);fill:#F0F0F2;}
	.st309{clip-path:url(#SVGID_266_);fill:#F0F0F2;}
	.st310{clip-path:url(#SVGID_268_);fill:#FFFFFF;}
	.st311{opacity:0.39;clip-path:url(#SVGID_270_);fill:#D2D2D2;}
	.st312{opacity:0.32;clip-path:url(#SVGID_270_);fill:#D2D2D2;}
	.st313{clip-path:url(#SVGID_270_);}
	.st314{clip-path:url(#SVGID_270_);fill:none;stroke:#DBDBDB;stroke-width:3;stroke-miterlimit:10;}
	.st315{opacity:0.81;clip-path:url(#SVGID_270_);}
	.st316{clip-path:url(#SVGID_272_);}
	.st317{clip-path:url(#SVGID_274_);fill:url(#SVGID_275_);}
	.st318{opacity:0.46;clip-path:url(#SVGID_274_);fill:#3F3CB2;}
	.st319{opacity:0.15;clip-path:url(#SVGID_274_);fill:#352D90;}
	.st320{opacity:0.46;clip-path:url(#SVGID_272_);fill:#3F3CB2;}
	.st321{clip-path:url(#SVGID_279_);}
	.st322{clip-path:url(#SVGID_281_);fill:none;stroke:#DBDBDB;stroke-width:3;stroke-miterlimit:10;}
	.st323{opacity:0.81;clip-path:url(#SVGID_281_);}
	.st324{fill-rule:evenodd;clip-rule:evenodd;fill:#D7D9DE;}
	.st325{fill-rule:evenodd;clip-rule:evenodd;fill:#E7EAED;}
	.st326{fill-rule:evenodd;clip-rule:evenodd;fill:#FFEFF0;}
	.st327{fill-rule:evenodd;clip-rule:evenodd;fill:#C6C7C8;}
	.st328{fill-rule:evenodd;clip-rule:evenodd;fill:#E6E7E8;}
	.st329{fill-rule:evenodd;clip-rule:evenodd;fill:#C9C2C0;}
	.st330{fill-rule:evenodd;clip-rule:evenodd;fill:#E2DEDB;}
	.st331{fill-rule:evenodd;clip-rule:evenodd;fill:#B1B1E8;}
	.st332{fill-rule:evenodd;clip-rule:evenodd;fill:#9AA2C3;}
	.st333{fill-rule:evenodd;clip-rule:evenodd;fill:#D9D2E2;}
	.st334{fill-rule:evenodd;clip-rule:evenodd;fill:#0B1329;}
	.st335{fill-rule:evenodd;clip-rule:evenodd;fill:#EAA180;}
	.st336{fill-rule:evenodd;clip-rule:evenodd;fill:#78809D;}
	.st337{clip-path:url(#SVGID_283_);}
	.st338{opacity:0.32;clip-path:url(#SVGID_283_);fill:#D2D2D2;}
	.st339{clip-path:url(#SVGID_285_);}
	.st340{clip-path:url(#SVGID_287_);fill:url(#SVGID_288_);}
	.st341{opacity:0.46;clip-path:url(#SVGID_287_);fill:#3F3CB2;}
	.st342{opacity:0.15;clip-path:url(#SVGID_287_);fill:#352D90;}
	.st343{opacity:0.46;clip-path:url(#SVGID_285_);fill:#3F3CB2;}
	.st344{clip-path:url(#SVGID_283_);fill:none;stroke:#DBDBDB;stroke-width:3;stroke-miterlimit:10;}
	.st345{opacity:0.81;clip-path:url(#SVGID_283_);}
	.st346{clip-path:url(#SVGID_290_);}
	.st347{clip-path:url(#SVGID_292_);}
	.st348{clip-path:url(#SVGID_294_);fill:url(#SVGID_295_);}
	.st349{opacity:0.46;clip-path:url(#SVGID_294_);fill:#3F3CB2;}
	.st350{opacity:0.15;clip-path:url(#SVGID_294_);fill:#352D90;}
	.st351{opacity:0.46;clip-path:url(#SVGID_292_);fill:#3F3CB2;}
</style>
<path id="Floor_10_" class="st272" d="M105.56,491.71c89.57,46.79,234.78,46.79,324.34,0c89.57-46.79,89.57-122.65,0-169.44
	c-89.57-46.79-234.78-46.79-324.35,0C16,369.05,16,444.92,105.56,491.71z"/>
<ellipse id="Shadow_2_" class="st273" cx="276.55" cy="348.71" rx="68.79" ry="39.72"/>
<path id="Shadow_3_" class="st273" d="M430.07,455.03c-13.48,7.79-35.35,7.79-48.83,0c-13.48-7.79-13.48-20.41,0-28.19
	c13.48-7.79,35.35-7.79,48.83,0C443.55,434.62,443.55,447.24,430.07,455.03z"/>
<ellipse id="Shadow_1_" class="st273" cx="188.41" cy="378.99" rx="68.79" ry="39.72"/>
<g id="XMLID_16159_">
	<path id="XMLID_16158_" class="st274" d="M165.6,186.43c-2.67,0-5.08,2.41-5.08,9.34c0,6.94-0.55,12.5,3.71,12.5L165.6,186.43z"/>
	<path id="XMLID_16045_" class="st19" d="M165.6,186.43c-2.67,0-5.08,2.41-5.08,9.34c0,6.94-0.55,12.5,3.71,12.5L165.6,186.43z"/>
	<path id="XMLID_16109_" class="st19" d="M172.69,237.84l22.7-1.56c4.67-0.82,8.45-5.27,8.45-9.94v-40.52c0-4.67-2.8-7.11-8.45-6.96
		l-22.7,1.56c-4.67,0.82-8.45,5.27-8.45,9.94v40.52C164.23,235.54,168.02,238.66,172.69,237.84z"/>
</g>
<path id="XMLID_19174_" class="st127" d="M223.74,221.19c2.41,5.73,9.98,14.4,11.84,16.52c1.38,1.57,4.7,4.6,5.77,6.4
	c1.65,2.76,9.39,9.33,7.2,11.64c-3.94,4.14-9.43-0.05-11.53-1.71c-2.88-2.27-6.21-5.52-8.79-8.12c-5.1-5.11-10.02-11.49-13.01-15.78
	c-1.64-2.35-10.7-24.78-10.93-30.25c-0.09-2.08-0.41-15.29,2.27-16.23c5.35,0.37,7.61,2.57,8.66,5.39c1.04,2.8,1.58,6.31,2.34,9.19
	C219.17,204.38,222.88,219.15,223.74,221.19z"/>
<g id="XMLID_16377_">
	<g>
		<path id="XMLID_24_" class="st126" d="M147.57,347.41c-1.66-0.86-2.72,1.26-4.23,2.95c-1.06,1.19-2.71,3.07-2.95,4.42
			c-0.36,2,1.45,5.16,3.45,6.9c2,1.74,4.32,2.98,5.05,6.8c0.73,3.81,2.21,6.08,6.16,7.78c4.33,1.87,10.13,1.27,12.1,0
			c2.33-1.51,0.2-3.16-3.06-7.83c-4.26-6.1-7.58-10.46-7.58-16.15L147.57,347.41z"/>
		<path id="XMLID_23_" class="st127" d="M150.98,342.42l-3.5,5.13c-1.52,2.22-1.04,5.32,1.18,6.83c0.04,0.02,0.07,0.05,0.11,0.07
			c2.13,1.38,4.99,0.83,6.7-1.04l5.46-5.96L150.98,342.42z"/>
	</g>
</g>
<g id="XMLID_16376_">
	<g>
		
			<rect id="XMLID_22_" x="204.7" y="367.86" transform="matrix(0.9751 -0.2217 0.2217 0.9751 -77.7798 55.6789)" class="st127" width="8.88" height="12.93"/>
		<path id="XMLID_21_" class="st126" d="M213.93,375.37l-0.28-1.24c0.91,0.17,4.8,6.63,8.65,9.43c4.22,3.07,7.89,4.89,9.77,6.27
			c2.52,1.85-1.13,5.64-7.34,5.98c-3.08,0.17-8.7-0.77-10.43-2.41c-1.73-1.64-2.98-4.36-4.35-5.54c-1.37-1.18-4.15-2.21-5.09-3.73
			c-0.52-0.83-0.6-2.89-0.54-4.66c0.05-1.62,0.11-3.4,0.66-3.38c0.04,0.19,0.21,0.94,0.21,0.94c0.79,0.55,3.26,1.26,5.27,1.16
			C211.93,378.13,214.65,377.8,213.93,375.37z"/>
	</g>
</g>
<g id="XMLID_16375_">
	<path id="XMLID_17794_" class="st119" d="M213.91,241.89c0.22,6.54,1.37,33.53-3.4,46.04c-4.47,11.71-8.51,17.98-9.93,20.41
		c-1.42,2.43-42.38,42.3-42.38,42.3s-6.95-0.51-8.05-7.25c0,0,16.78-28.53,20.41-34.38c3.63-5.85,16.5-14.82,16.5-14.82l-1.17-58
		L213.91,241.89z"/>
	<path id="XMLID_17792_" class="st274" d="M199.48,261.85c0,0,3.37-2.83,7.92-9.12c6.62-9.14,5.6-17.27,5.6-17.27h-2.71l-35.81,0.73
		c-3.55,5.82-4.32,14.64-3.12,23.24c2.49,17.84,17.27,51.87,17.27,51.87c-0.21,2.44-1.24,12.7,1.09,21.79
		c3.67,14.34,13.68,38.62,13.68,38.62s6.27,0.89,9.38-2.73c0,0-5.54-49.28-7.03-61.91C204.11,293.41,199.48,261.85,199.48,261.85z"
		/>
	<path id="XMLID_1_" class="st120" d="M199.48,261.85c0,0,3.37-2.83,7.92-9.12c6.62-9.14,5.6-17.27,5.6-17.27h-2.71l-35.81,0.73
		c-3.55,5.82-4.32,14.64-3.12,23.24c2.49,17.84,17.27,51.87,17.27,51.87c-0.21,2.44-1.24,12.7,1.09,21.79
		c3.67,14.34,13.68,38.62,13.68,38.62s6.27,0.89,9.38-2.73c0,0-5.54-49.28-7.03-61.91C204.11,293.41,199.48,261.85,199.48,261.85z"
		/>
	<path id="XMLID_17789_" class="st275" d="M204.63,298.71c0,0-4.17-32.8-5.16-36.86c0,0,7.36-2.8,9.62-5.37c0,0-1.61,3.59-6.88,6.79
		L204.63,298.71z"/>
	<path id="XMLID_15778_" class="st275" d="M186.94,312.1c-1.15,4.28-1.04,11.34-1.04,11.34l2.33-2.03c-0.06-1.7,0.38-10.1,0.38-10.1
		c-1.79-2.44-5.72-14.03-5.72-14.03L186.94,312.1z"/>
</g>
<g id="XMLID_16374_">
	<g id="XMLID_17785_">
		<path id="XMLID_17786_" class="st135" d="M211.9,215.35c0.56,5.19,2.01,26.54,2.01,26.54c-17.13,9.14-38.38,3.09-41.63-0.68
			c2.95-9.7,7.2-13.79,9.62-16.37l-5.55-15.49c0,0-0.66-1.58-0.65-1.6c0.37-0.63,8.12-9.36,0.76-23.23l10-0.91l14.64-0.42
			c3.19,0.18,5.46,0.49,5.46,0.49c2.04,1.91,5.27,7.17,7.35,12.51C215.26,199.63,216.71,205.13,211.9,215.35z"/>
	</g>
	<g id="XMLID_17766_">
		<polygon id="XMLID_17769_" class="st276" points="178.58,215.59 188.22,227.96 181.9,224.83 		"/>
	</g>
</g>
<path id="XMLID_16048_" class="st127" d="M158.6,255.87c0.38,3.72,0.81,8.74,1.55,11.59c2.57,9.91,5.86,12.88,10.25,13.17
	c7,0.47,7.05-2.15,3.9-6.66c-2.32-3.33-3.12-6.44-3.12-6.44c1.38,1.03,2.48,1.83,3.36,2.17c1.74,0.68,2.86-0.25,3.15-0.86
	c0.23-0.47-0.98-0.94-2.33-2.58c-1.71-2.09-2.59-3.75-4.94-5.48c-0.88-0.65-1.15-1.83-1.42-2.89c-0.36-1.41-0.6-23.88,0.67-28.53
	l6.02-21.61c4.9-3.36,8.21-19.69,0.76-23.23c-9.44,1.03-10.18,9.62-17.8,37.85C157.31,227.36,157.82,248.18,158.6,255.87z"/>
<g id="XMLID_16371_">
	<path id="XMLID_16160_" class="st120" d="M180.53,184.14c0,0,2.37,1.29,2.87,8.17c0.64,8.82-3.57,19.38-8.13,23.28v7.77
		c0,0,8.84-7.35,11.81-16.58c2.98-9.23,3.21-18.25-0.63-23.17C186.45,183.6,183.11,182.76,180.53,184.14z"/>
	<path id="XMLID_16353_" class="st277" d="M180.53,184.14c0,0,2.37,1.29,2.87,8.17c0.64,8.82-3.57,19.38-8.13,23.28v7.77
		c0,0,8.84-7.35,11.81-16.58c2.98-9.23,3.21-18.25-0.63-23.17C186.45,183.6,183.11,182.76,180.53,184.14z"/>
</g>
<g id="XMLID_16370_">
	<path id="XMLID_16363_" class="st19" d="M201.04,183.14c0,0,8.21,3.01,11.42,9.71c0,0,0.3-5.33-3.82-8.33
		C204.52,181.52,201.04,183.14,201.04,183.14z"/>
	<path id="XMLID_16365_" class="st278" d="M201.04,183.14c0,0,8.21,3.01,11.42,9.71c0,0,0.3-5.33-3.82-8.33
		C204.52,181.52,201.04,183.14,201.04,183.14z"/>
</g>
<g id="XMLID_16373_">
	<path id="XMLID_17802_" class="st120" d="M216.71,181.52h-18.16c-13.25,0-24-10.74-24-24l0,0c0-11.64,9.44-21.08,21.08-21.08l0,0
		c11.64,0,21.08,9.44,21.08,21.08V181.52z"/>
	<g id="XMLID_17783_">
		<path id="XMLID_17784_" class="st127" d="M209.18,145.63c2.23,1.32,4.98,6.92,4.71,18.65c-0.23,9.95-3.45,12.41-5.07,13.12
			c-1.62,0.71-4.74,0.28-7.78-0.23v5.97c0,0,4.2,4.87,3.93,7.61c-0.26,2.74-6.06,3.38-9.99,0.71c-3.93-2.67-7.23-7.89-7.23-7.89
			l0.07-13.73c0,0-1.79,1.74-4.82-0.91c-2.5-2.19-3.34-5.87-1.39-7.85c1.95-1.98,5.55-1.44,6.93,1.38c0,0,4.84,0.18,11.29-3.36
			C206.28,155.55,208.76,149.48,209.18,145.63z"/>
	</g>
	<g id="XMLID_17773_">
		<polygon id="XMLID_17774_" class="st279" points="206.58,161.19 206.75,167.69 210.18,166.63 		"/>
	</g>
</g>
<g id="XMLID_16407_">
	<path id="XMLID_16047_" class="st135" d="M252.21,160.16c-3.18,0-6.03,2.86-6.03,11.1c0,8.24-0.65,14.85,4.41,14.85L252.21,160.16z
		"/>
	<path id="XMLID_16046_" class="st135" d="M260.63,221.24l26.97-3.87c5.55-0.98,10.04-6.27,10.04-11.81v-48.15
		c0-5.55-4.5-9.25-10.04-8.27l-26.97,3.87c-5.55,0.98-10.04,6.27-10.04,11.81v48.15C250.59,218.51,255.08,222.22,260.63,221.24z"/>
</g>
<g id="XMLID_16424_">
	<g id="XMLID_16416_">
		<path id="XMLID_19139_" class="st126" d="M237.33,326.98c-1.66-0.86-2.72,1.26-4.23,2.95c-1.06,1.19-2.71,3.07-2.95,4.42
			c-0.36,2,1.45,5.16,3.45,6.9c2,1.74,4.32,2.98,5.05,6.8c0.73,3.81,2.21,6.08,6.16,7.78c4.33,1.87,10.13,1.27,12.1,0
			c2.33-1.51,0.2-3.16-3.06-7.83c-4.26-6.1-7.58-10.46-7.58-16.15L237.33,326.98z"/>
		<path id="XMLID_19138_" class="st127" d="M240.74,321.99l-3.5,5.13c-1.52,2.22-1.04,5.32,1.18,6.83c0.04,0.02,0.07,0.05,0.11,0.07
			c2.13,1.38,4.99,0.83,6.7-1.04l5.46-5.96L240.74,321.99z"/>
	</g>
	<g id="XMLID_16414_">
		
			<rect id="XMLID_19136_" x="294.46" y="347.43" transform="matrix(-0.9751 0.2217 -0.2217 -0.9751 668.8052 632.7195)" class="st127" width="8.88" height="12.93"/>
		<path id="XMLID_19133_" class="st126" d="M303.69,354.94l-0.28-1.24c0.91,0.17,4.8,6.63,8.65,9.43c4.22,3.07,7.89,4.89,9.77,6.27
			c2.52,1.85-1.13,5.64-7.34,5.98c-3.08,0.17-8.7-0.77-10.43-2.41c-1.73-1.64-2.98-4.36-4.35-5.54c-1.37-1.18-4.15-2.21-5.09-3.73
			c-0.52-0.83-0.6-2.89-0.54-4.66c0.05-1.62,0.11-3.4,0.66-3.38c0.04,0.19,0.21,0.94,0.21,0.94c0.79,0.55,3.26,1.26,5.27,1.16
			C301.69,357.71,304.41,357.37,303.69,354.94z"/>
	</g>
	<g id="XMLID_16413_">
		<path id="XMLID_19137_" class="st126" d="M307.65,217.11c0.22,6.54-2.61,37.88-7.38,50.39c-4.47,11.71-8.51,17.98-9.93,20.41
			c-1.42,2.43-42.38,42.3-42.38,42.3s-8.05,0.73-8.05-7.25c0,0,16.93-27.56,20.56-33.41c3.63-5.85,14.33-17.66,14.33-17.66
			l1.94-55.28L307.65,217.11z"/>
		<path id="XMLID_19134_" class="st19" d="M290.32,242.26c0,0,3.37-2.83,7.92-9.12c6.62-9.14,6.61-16.94,6.61-16.94l-3.72-0.32
			l-39.25,2.59c0,6.66-0.44,12.74,0.31,21.38c1.55,17.73,13.71,51.58,13.71,51.58c-0.21,2.44,1.24,12.14,3.56,21.23
			c3.67,14.34,13.68,38.62,13.68,38.62s6.27,0.89,9.38-2.73c0,0-5.54-49.28-7.03-61.91C293.87,272.98,290.32,242.26,290.32,242.26z"
			/>
		<path id="XMLID_19132_" class="st280" d="M294.39,278.28c0,0-3.09-31.96-4.07-36.02c0,0,7.36-2.8,9.62-5.37
			c0,0-1.61,3.59-6.88,6.79L294.39,278.28z"/>
		<path id="XMLID_15772_" class="st280" d="M270.87,276.35l5.02,15.09c0,0,0.37,5.97,1.18,10.17l-2.17,2.15
			c0,0-1.15-6.93-0.48-11.96L270.87,276.35z"/>
	</g>
</g>
<path id="XMLID_17757_" class="st127" d="M304.68,204.59c-7.56-18.8-7.89-35.27-9.44-40.19L312,183.84c0,0,2.17,11.88,4.89,20.12
	c2.39,7.23,5.57,16.23,8.9,21.7c0.59,0.97,1.54,1.66,2.62,2c2.91,0.89,4.34,2.22,6.75,3.68c1.88,1.14,3.24,1.19,3.17,1.73
	c-0.08,0.7-0.86,2-2.8,1.93c-0.98-0.03-2.34-0.43-4.05-0.97c0,0,1.86,2.78,5.29,5.25c4.64,3.35,5.5,5.94-1.54,7.89
	c-4.41,1.22-8.67-0.56-14.61-9.41c-1.71-2.55-4.4-6.58-6.04-10.11C310.31,218.47,306.97,210.28,304.68,204.59z"/>
<g id="XMLID_16409_">
	<path id="XMLID_19173_" class="st274" d="M292.63,153.12c7,0.07,13.88,1.64,16.25,9.09c2.31,7.27,5.3,28.37,5.3,28.37
		s-2.95,3.9-12.75,3.26L292.63,153.12z"/>
	<path id="XMLID_16044_" class="st119" d="M292.63,153.12c7,0.07,13.88,1.64,16.25,9.09c2.31,7.27,5.3,28.37,5.3,28.37
		s-2.95,3.9-12.75,3.26L292.63,153.12z"/>
</g>
<path id="XMLID_15781_" class="st120" d="M307.78,169.72c0-7.25-4.03-15.95-15.14-16.6l-14.37,0.42c-3.55,0.85-7.5,1.6-11.21,2.82
	l-2.71,30.71l-2.79,34.46c6.52,7.1,32.21,8.29,46.46-2.11C308.01,219.42,307.78,176.96,307.78,169.72z"/>
<path id="XMLID_18672_" class="st19" d="M269.34,155.67c0,0,4,2.54,4.45,12.51c0.68,15.05-9.78,22.98-9.78,22.98l-0.63,7.87
	c0,0,14.13-5.87,17.13-24.84c1.97-12.46-3.22-20.43-3.22-20.43C274.96,152.53,269.21,154.82,269.34,155.67z"/>
<path id="XMLID_18674_" class="st19" d="M306.16,161.98c0,0-4.62-7.48-13.25-8.86c0,0,3.73-1.03,6.69,0.59
	C299.6,153.71,305.02,155.83,306.16,161.98z"/>
<g id="XMLID_19149_">
	<g id="XMLID_19157_">
		<path id="XMLID_17715_" class="st11" d="M270.51,128.33l3.08,12.17c0.66,2.61,3.01,4.43,5.7,4.43h3.61v-16.98L270.51,128.33z"/>
		
			<ellipse id="XMLID_19163_" transform="matrix(0.2285 -0.9735 0.9735 0.2285 107.2251 383.035)" class="st11" cx="295.28" cy="123.87" rx="13.04" ry="13.04"/>
		<path id="XMLID_19162_" class="st11" d="M275.14,116.46c0,0-2.3-0.4-4.1,1.44c-1.76,1.8-1.4,5.14,0,12.8l5.44,0.63L275.14,116.46z
			"/>
		<path id="XMLID_19161_" class="st127" d="M277.69,131.33c-0.81,0.48-1.96-1.07-2.96-2.11c-1-1.04-4.25-2.47-5.87,0.95
			c-1.65,3.49,0.93,8.08,3.42,9.11c3.48,1.44,5.02-1.59,5.02-1.59l0.97,15.86c0,0,2.89,7.07,10.72,8.13
			c7.83,1.06,6.22-5.39,3.65-8.56l-0.01-4.85c0,0,4.01,0.67,5.95,0.31c2.86-0.53,4.26-3.19,5.61-6.58
			c2.01-5.06,3.24-12.22,1.51-21.31c-2.3-12.04-15.63-12.3-23.27-7.49C274.78,118.02,277.69,131.33,277.69,131.33z"/>
		<path id="XMLID_19160_" class="st11" d="M277.69,132.69c-0.41,0.01-1.95-2.56-2.96-3.47c-1.39-1.27,0.4-12.76,0.4-12.76
			c0.71-9.41,14.6-10.13,18.43-10.41c8.8-0.63,14.78,4.24,12.39,10.37c-1.59,2.79-4.84,3.55-7.89,3.92
			c-5.17,0.63-13.99-2.15-15.09-2.3c-1.5-0.21-1.82,1.25-2.63,5.22C279.65,126.75,279.06,132.66,277.69,132.69z"/>
	</g>
	<g id="XMLID_19150_">
		<path id="XMLID_19156_" class="st276" d="M292.85,131.06c0,0.83-0.65,1.51-1.45,1.51c-0.8,0-1.45-0.68-1.45-1.51
			c0-0.83,0.65-1.51,1.45-1.51C292.2,129.55,292.85,130.23,292.85,131.06z"/>
		<path id="XMLID_19155_" class="st276" d="M291.31,125.58l-3.11,1.72c-0.46-0.89-0.13-2,0.72-2.47
			C289.79,124.35,290.85,124.69,291.31,125.58z"/>
		<path id="XMLID_19154_" class="st34" d="M291.96,140.77l3.32,1.24c-0.33,0.95-1.34,1.44-2.25,1.1
			C292.11,142.77,291.64,141.72,291.96,140.77z"/>
		<path id="XMLID_19153_" class="st276" d="M305.05,126.79l-2.83-2.18c0.58-0.81,1.68-0.98,2.46-0.38
			C305.46,124.83,305.63,125.98,305.05,126.79z"/>
		<path id="XMLID_19152_" class="st276" d="M304.18,130.22c0,0.83-0.65,1.51-1.45,1.5c-0.8,0-1.45-0.68-1.45-1.51
			c0-0.83,0.65-1.51,1.45-1.51C303.53,128.71,304.18,129.39,304.18,130.22z"/>
		<polygon id="XMLID_19151_" class="st279" points="298.09,130.47 296.72,139.11 301.51,138.55 		"/>
	</g>
</g>
<g id="XMLID_18994_">
	<path id="XMLID_19202_" class="st127" d="M262.38,188.16c0,0-6.74,16.08-10.18,26.9c-2.2,6.92-5.25,15.81-4.84,21.9
		c0.07,1.1,0.56,2.11,1.35,2.89c2.07,2.03,2.7,3.79,4.09,6.07c1.09,1.8,2.22,2.44,1.93,2.87c-0.38,0.54-1.61,1.31-3.23,0.39
		c-0.82-0.46-1.8-1.39-3.01-2.6c0,0,0.35,3.17,2.18,6.77c2.45,4.89-0.99,6.42-4.78,6.02c-4.35-0.46-6.61-3.98-7.74-14.08
		c-0.33-2.91-0.28-8.09,0.15-11.77c1.26-11.05,1.99-19.43,3.34-25.12c3.33-13.96,7.54-28.32,11.55-37.9
		c2-4.77,6.23-10.23,10.43-10.79C271.48,174.12,262.38,188.16,262.38,188.16z"/>
	<path id="XMLID_15771_" class="st274" d="M267.06,156.36c-5.01,1.65-9.58,4.18-12.18,9.06c-5.1,9.58-10.27,28.85-10.27,28.85
		c2.6,3.05,11.31,5.74,15.66,4.42l4.08-11.62l3.99-7.91C268.34,179.16,276.14,162.1,267.06,156.36z"/>
	<path id="XMLID_443_" class="st119" d="M267.06,156.36c-5.01,1.65-9.58,4.18-12.18,9.06c-5.1,9.58-10.27,28.85-10.27,28.85
		c2.6,3.05,11.31,5.74,15.66,4.42l4.08-11.62l3.99-7.91C268.34,179.16,276.14,162.1,267.06,156.36z"/>
	<path id="XMLID_19129_" class="st127" d="M248.49,246.59c-1.8-0.47-3.57-1.56-4.28,0.28c-0.71,1.85-0.11,5.55,1.51,7.23
		c1.61,1.68,6.12,2.89,7.2,1.95C253.99,255.11,251.72,247.43,248.49,246.59z"/>
</g>
<g id="XMLID_18512_">
	<g id="XMLID_18515_">
		<g id="XMLID_18641_">
			<path id="XMLID_18642_" class="st126" d="M439.49,299.29l-16.1-9.25l0,0c-7.68-5.14-18.35-4.92-30.15,1.89
				c-23.4,13.51-42.37,47.82-42.37,76.62v6.56c0,28.81,38.73,60.11,38.73,60.11l15.84,8.96c0,0-9.51-10.85-8.43-13.07
				c10.37-21.29,38.61-81.41,38.61-104.92v-6.56c0-5.26-0.64-9.96-1.81-14.06l1.82,1.05L439.49,299.29z M393.24,365.33
				c-11.7,6.76-21.19,1.28-21.19-12.23c6.3-0.99,22.14-28.03,21.19-36.7c11.7-6.76,21.19-1.28,21.19,12.23
				C414.43,342.15,404.94,358.58,393.24,365.33z"/>
		</g>
		<g id="XMLID_17186_" class="st281">
			<path id="XMLID_17199_" d="M439.49,299.29l-16.1-9.25l0,0c-7.68-5.14-18.35-4.92-30.15,1.89c-23.4,13.51-42.37,47.82-42.37,76.62
				v6.56c0,28.81,38.73,60.11,38.73,60.11l15.84,8.96c0,0-9.51-10.85-8.43-13.07c10.37-21.29,38.61-81.41,38.61-104.92v-6.56
				c0-5.26-0.64-9.96-1.81-14.06l1.82,1.05L439.49,299.29z M393.24,365.33c-11.7,6.76-21.19,1.28-21.19-12.23
				c6.3-0.99,22.14-28.03,21.19-36.7c11.7-6.76,21.19-1.28,21.19,12.23C414.43,342.15,404.94,358.58,393.24,365.33z"/>
		</g>
		<g id="XMLID_18516_">
			<path id="XMLID_17185_" class="st19" d="M452.56,329.42c0-28.81-18.97-41.2-42.37-27.69c-23.4,13.51-42.37,47.82-42.37,76.62
				v6.56c0,22.18,25.13,47.92,36.68,58.58c2.82,2.6,7.33,1.77,9.01-1.68c9.98-20.43,39.06-81.97,39.06-105.83V329.42z
				 M410.19,375.12c-11.7,6.76-21.19,1.28-21.19-12.23c0-13.51,9.49-29.94,21.19-36.7c11.7-6.76,21.19-1.28,21.19,12.23
				C431.38,351.93,421.89,368.36,410.19,375.12z"/>
		</g>
	</g>
</g>
<g id="XMLID_17371_">
	<g id="XMLID_17198_">
		<g>
			<path class="st70" d="M84.87,165.92c-0.23,0-0.46-0.1-0.62-0.29c-0.29-0.34-0.25-0.86,0.1-1.15c0.85-0.72,1.72-1.41,2.59-2.05
				c0.36-0.27,0.87-0.19,1.14,0.17c0.27,0.36,0.19,0.87-0.17,1.14c-0.84,0.63-1.69,1.3-2.51,1.99
				C85.24,165.86,85.05,165.92,84.87,165.92z"/>
		</g>
		<g>
			<path class="st70" d="M117.99,258.78c-1.07,0-2.17-0.03-3.26-0.08c-0.45-0.02-0.8-0.4-0.78-0.85c0.02-0.45,0.41-0.8,0.85-0.78
				c2.22,0.1,4.46,0.1,6.6-0.01c0.45-0.02,0.83,0.32,0.86,0.77c0.02,0.45-0.32,0.83-0.77,0.86
				C120.35,258.75,119.17,258.78,117.99,258.78z M109.23,258.23c-0.03,0-0.07,0-0.1-0.01c-2.23-0.28-4.47-0.66-6.66-1.14
				c-0.44-0.1-0.72-0.53-0.62-0.97c0.1-0.44,0.53-0.71,0.97-0.62c2.14,0.47,4.33,0.84,6.51,1.11c0.45,0.05,0.76,0.46,0.71,0.91
				C109.98,257.93,109.63,258.23,109.23,258.23z M126.99,258.14c-0.4,0-0.74-0.29-0.8-0.69c-0.07-0.44,0.24-0.86,0.68-0.92
				c2.28-0.34,4.43-0.82,6.4-1.41c0.43-0.13,0.88,0.11,1.02,0.54c0.13,0.43-0.11,0.88-0.54,1.01c-2.04,0.62-4.28,1.11-6.64,1.46
				C127.07,258.13,127.03,258.14,126.99,258.14z M97.26,255.68c-0.08,0-0.17-0.01-0.25-0.04c-2.17-0.7-4.29-1.55-6.3-2.53
				c-0.4-0.2-0.57-0.68-0.37-1.09c0.2-0.4,0.68-0.57,1.09-0.37c1.94,0.95,3.99,1.77,6.08,2.45c0.43,0.14,0.66,0.6,0.53,1.02
				C97.93,255.46,97.61,255.68,97.26,255.68z M86.23,250.45c-0.15,0-0.31-0.04-0.44-0.13c-1.89-1.23-3.71-2.62-5.4-4.13
				c-0.34-0.3-0.36-0.81-0.07-1.15c0.3-0.33,0.81-0.36,1.15-0.07c1.63,1.45,3.38,2.79,5.2,3.98c0.38,0.25,0.48,0.75,0.24,1.13
				C86.76,250.32,86.5,250.45,86.23,250.45z M77.02,242.44c-0.23,0-0.45-0.09-0.61-0.28c-1.47-1.68-2.85-3.51-4.09-5.41
				c-0.25-0.38-0.14-0.88,0.24-1.13c0.37-0.25,0.88-0.14,1.13,0.24c1.2,1.84,2.53,3.6,3.96,5.23c0.3,0.34,0.26,0.85-0.08,1.15
				C77.4,242.37,77.21,242.44,77.02,242.44z M70.23,232.29c-0.3,0-0.58-0.16-0.73-0.45c-1-1.99-1.89-4.09-2.65-6.24
				c-0.15-0.42,0.07-0.89,0.5-1.04c0.43-0.15,0.89,0.07,1.04,0.5c0.73,2.08,1.6,4.12,2.57,6.05c0.2,0.4,0.04,0.89-0.36,1.09
				C70.47,232.26,70.35,232.29,70.23,232.29z M66.03,220.81c-0.37,0-0.7-0.25-0.79-0.62c-0.53-2.18-0.94-4.42-1.21-6.67
				c-0.05-0.45,0.26-0.85,0.71-0.91c0.45-0.05,0.85,0.26,0.91,0.71c0.26,2.18,0.66,4.36,1.17,6.48c0.11,0.44-0.16,0.88-0.6,0.98
				C66.16,220.8,66.1,220.81,66.03,220.81z M64.44,208.68c-0.44,0-0.8-0.35-0.81-0.8c-0.01-0.36-0.01-0.71-0.01-1.06
				c0-1.91,0.11-3.83,0.32-5.71c0.05-0.45,0.46-0.77,0.9-0.72c0.45,0.05,0.77,0.45,0.72,0.9c-0.21,1.82-0.31,3.68-0.31,5.53
				c0,0.34,0,0.69,0.01,1.03c0.01,0.45-0.35,0.82-0.8,0.83C64.45,208.68,64.45,208.68,64.44,208.68z M65.68,196.53
				c-0.06,0-0.12-0.01-0.18-0.02c-0.44-0.1-0.71-0.54-0.61-0.97c0.5-2.18,1.15-4.37,1.94-6.5c0.16-0.42,0.62-0.64,1.05-0.48
				c0.42,0.16,0.64,0.62,0.48,1.05c-0.77,2.06-1.4,4.18-1.88,6.3C66.39,196.27,66.05,196.53,65.68,196.53z M69.79,185.02
				c-0.12,0-0.24-0.03-0.36-0.08c-0.4-0.2-0.57-0.69-0.37-1.09c0.99-2,2.12-3.98,3.36-5.88c0.24-0.38,0.75-0.48,1.13-0.24
				c0.38,0.24,0.48,0.75,0.24,1.13c-1.21,1.85-2.3,3.78-3.26,5.72C70.38,184.85,70.09,185.02,69.79,185.02z M76.36,174.7
				c-0.18,0-0.36-0.06-0.5-0.18c-0.35-0.28-0.41-0.79-0.13-1.14c1.39-1.76,2.9-3.47,4.48-5.07c0.32-0.32,0.83-0.32,1.15-0.01
				c0.32,0.32,0.32,0.83,0.01,1.15c-1.54,1.56-3.01,3.22-4.37,4.94C76.83,174.59,76.6,174.7,76.36,174.7z"/>
		</g>
		<g>
			<path class="st70" d="M138.74,254.62c-0.3,0-0.58-0.16-0.72-0.44c-0.21-0.4-0.05-0.89,0.35-1.1c0.97-0.5,1.87-1.04,2.68-1.62
				c0.37-0.26,0.87-0.18,1.14,0.19c0.26,0.37,0.18,0.87-0.19,1.14c-0.87,0.62-1.84,1.21-2.88,1.75
				C139,254.59,138.87,254.62,138.74,254.62z"/>
		</g>
	</g>
	<g id="XMLID_16849_">
		<path id="XMLID_17188_" class="st274" d="M118.98,140.16l-26.12-12.34l1.15-0.61l24.89,4.95l2.49-1.32
			c0.46-0.24,1.2-0.21,1.65,0.07c0.45,0.28,0.44,0.71-0.02,0.95l-1.53,0.81l8.58,1.79L118.98,140.16z"/>
		<path id="XMLID_16863_" class="st19" d="M118.98,140.16l-26.12-12.34l1.15-0.61l24.89,4.95l2.49-1.32
			c0.46-0.24,1.2-0.21,1.65,0.07c0.45,0.28,0.44,0.71-0.02,0.95l-1.53,0.81l8.58,1.79L118.98,140.16z"/>
		<path id="XMLID_17373_" class="st121" d="M126.28,133.64c11.77-6.17,21.3-9.67,24.17-7.86c2.87,1.81-4.02,6.97-15.73,13.18
			l-10.37,5.01c-10.38,4.66-21.05,8.68-21.05,8.68l0.48,7.18l-1.03,0.55l-4.66-5.17c0,0-2.6,1.24-4.06,0.33
			c-1.45-0.92,0.93-2.3,0.93-2.3l-8.53-3.13l1.03-0.55l12.36,0.91c0,0,7.89-5.77,16.86-11.32L126.28,133.64z"/>
		<g id="XMLID_16857_">
			<path id="XMLID_17370_" class="st274" d="M139.11,142.01l-2.49,1.32l6.36,14.73l-1.15,0.61l-17.46-14.69l10.37-5.01l1.23,2.84
				l1.53-0.81c0.46-0.24,1.2-0.21,1.65,0.07C139.58,141.35,139.57,141.77,139.11,142.01z"/>
			<path id="XMLID_17355_" class="st19" d="M139.11,142.01l-2.49,1.32l6.36,14.73l-1.15,0.61l-19.73-16.56l11.44-5.83l2.42,5.53
				l1.53-0.81c0.46-0.24,1.2-0.21,1.65,0.07C139.58,141.35,139.57,141.77,139.11,142.01z"/>
		</g>
	</g>
</g>
<g id="XMLID_17170_">
	<g id="XMLID_17193_">
		<path id="XMLID_16693_" class="st121" d="M398.28,222.65c-11.43,6.76-20.76,10.73-23.72,9.08c-2.96-1.65,3.65-7.14,15.02-13.93
			l10.09-5.53c10.12-5.18,20.57-9.73,20.57-9.73l-0.86-7.12l1.01-0.6l4.93,4.9c0,0,2.54-1.37,4.03-0.54
			c1.5,0.84-0.81,2.34-0.81,2.34l8.68,2.68l-1.01,0.6l-12.39-0.26c0,0-7.57,6.15-16.25,12.14L398.28,222.65z"/>
		<g id="XMLID_16695_">
			<path id="XMLID_16812_" class="st274" d="M385.04,214.99l2.42-1.44l-7.12-14.32l1.12-0.66l18.2,13.71l-10.09,5.53l-1.37-2.76
				l-1.49,0.88c-0.45,0.27-1.19,0.27-1.65,0.02C384.6,215.68,384.59,215.25,385.04,214.99z"/>
			<path id="XMLID_16684_" class="st19" d="M385.04,214.99l2.42-1.44l-7.12-14.32l1.12-0.66l18.2,13.71l-10.09,5.53l-1.37-2.76
				l-1.49,0.88c-0.45,0.27-1.19,0.27-1.65,0.02C384.6,215.68,384.59,215.25,385.04,214.99z"/>
			<path id="XMLID_16848_" class="st274" d="M405.24,215.78l26.73,10.92l-1.12,0.66l-25.11-3.63l-2.42,1.44
				c-0.45,0.27-1.19,0.27-1.65,0.02c-0.46-0.26-0.47-0.68-0.03-0.95l1.49-0.88l-8.66-1.34L405.24,215.78z"/>
			<path id="XMLID_16846_" class="st19" d="M405.24,215.78l26.73,10.92l-1.12,0.66l-25.11-3.63l-2.42,1.44
				c-0.45,0.27-1.19,0.27-1.65,0.02c-0.46-0.26-0.47-0.68-0.03-0.95l1.49-0.88l-8.66-1.34L405.24,215.78z"/>
		</g>
	</g>
	<g id="XMLID_17187_">
		<g id="XMLID_17192_">
			<path class="st282" d="M435.42,192.03c-0.19,0-0.39-0.07-0.54-0.21c-0.33-0.3-0.37-0.81-0.07-1.14c1.41-1.58,2.67-3.3,3.74-5.1
				c0.23-0.39,0.73-0.51,1.11-0.29c0.39,0.23,0.51,0.73,0.29,1.11c-1.12,1.89-2.45,3.69-3.93,5.35
				C435.87,191.94,435.65,192.03,435.42,192.03z M441.63,181.95c-0.1,0-0.2-0.02-0.3-0.06c-0.42-0.16-0.63-0.63-0.46-1.05
				c0.76-1.95,1.34-4,1.72-6.08c0.08-0.44,0.51-0.73,0.95-0.65c0.44,0.08,0.74,0.5,0.66,0.94c-0.4,2.18-1.01,4.33-1.81,6.38
				C442.26,181.76,441.96,181.95,441.63,181.95z M443.94,170.35c-0.01,0-0.01,0-0.02,0c-0.45-0.01-0.8-0.38-0.79-0.83
				c0.01-0.28,0.01-0.56,0.01-0.83c0-1.81-0.14-3.66-0.43-5.49c-0.07-0.44,0.24-0.86,0.68-0.93c0.45-0.07,0.86,0.23,0.93,0.68
				c0.3,1.91,0.45,3.84,0.45,5.73c0,0.29,0,0.58-0.01,0.88C444.75,170,444.38,170.35,443.94,170.35z M442.31,158.62
				c-0.35,0-0.67-0.23-0.78-0.58c-0.61-2-1.39-3.99-2.33-5.91c-0.2-0.4-0.03-0.89,0.38-1.08c0.4-0.2,0.89-0.03,1.09,0.38
				c0.97,2,1.79,4.07,2.42,6.15c0.13,0.43-0.11,0.88-0.54,1.01C442.47,158.61,442.39,158.62,442.31,158.62z M437.27,147.88
				c-0.27,0-0.53-0.13-0.68-0.37c-1.14-1.76-2.43-3.47-3.83-5.1c-0.29-0.34-0.25-0.85,0.09-1.14c0.34-0.29,0.85-0.25,1.15,0.09
				c1.45,1.68,2.79,3.46,3.97,5.27c0.24,0.38,0.14,0.88-0.24,1.12C437.58,147.84,437.42,147.88,437.27,147.88z M429.63,138.8
				c-0.2,0-0.4-0.07-0.56-0.22c-1.52-1.43-3.17-2.81-4.91-4.11c-0.36-0.27-0.43-0.78-0.16-1.13c0.27-0.36,0.78-0.43,1.14-0.16
				c1.79,1.33,3.49,2.75,5.05,4.23c0.33,0.31,0.34,0.82,0.03,1.15C430.06,138.71,429.84,138.8,429.63,138.8z M420.16,131.58
				c-0.15,0-0.29-0.04-0.43-0.12c-0.75-0.46-1.51-0.91-2.29-1.36c-1.09-0.61-2.21-1.21-3.32-1.78c-0.4-0.2-0.56-0.69-0.35-1.09
				c0.2-0.4,0.69-0.56,1.1-0.35c1.14,0.58,2.28,1.19,3.38,1.82c0.8,0.45,1.59,0.92,2.35,1.39c0.38,0.24,0.5,0.74,0.26,1.12
				C420.7,131.45,420.43,131.58,420.16,131.58z M322.9,131.03c-0.28,0-0.56-0.15-0.71-0.41c-0.22-0.39-0.09-0.88,0.3-1.11
				c1.89-1.09,3.84-2.12,5.8-3.07c0.41-0.2,0.89-0.03,1.09,0.37c0.2,0.4,0.03,0.89-0.37,1.08c-1.93,0.94-3.84,1.95-5.7,3.02
				C323.18,131,323.04,131.03,322.9,131.03z M409.59,126.09c-0.11,0-0.22-0.02-0.33-0.07c-1.96-0.86-3.98-1.66-5.99-2.38
				c-0.42-0.15-0.64-0.62-0.49-1.04c0.15-0.42,0.61-0.64,1.04-0.49c2.05,0.73,4.1,1.55,6.1,2.42c0.41,0.18,0.6,0.66,0.42,1.07
				C410.2,125.91,409.9,126.09,409.59,126.09z M333.59,125.76c-0.32,0-0.62-0.19-0.75-0.5c-0.17-0.41,0.02-0.89,0.44-1.06
				c2-0.84,4.07-1.62,6.13-2.32c0.43-0.15,0.89,0.08,1.03,0.5c0.15,0.42-0.08,0.88-0.51,1.03c-2.03,0.69-4.06,1.46-6.03,2.29
				C333.8,125.74,333.69,125.76,333.59,125.76z M398.39,122.02c-0.08,0-0.15-0.01-0.23-0.03c-2.05-0.6-4.15-1.14-6.25-1.6
				c-0.44-0.1-0.72-0.53-0.62-0.97c0.1-0.44,0.53-0.71,0.97-0.62c2.13,0.47,4.27,1.01,6.36,1.62c0.43,0.13,0.68,0.58,0.55,1.01
				C399.07,121.79,398.74,122.02,398.39,122.02z M344.85,121.85c-0.36,0-0.68-0.23-0.78-0.59c-0.12-0.43,0.13-0.88,0.56-1
				c2.09-0.59,4.24-1.11,6.37-1.56c0.43-0.09,0.87,0.19,0.96,0.63c0.09,0.44-0.19,0.87-0.63,0.96c-2.1,0.44-4.21,0.96-6.27,1.53
				C344.99,121.84,344.92,121.85,344.85,121.85z M386.76,119.41c-0.04,0-0.09,0-0.13-0.01c-2.11-0.34-4.27-0.61-6.4-0.8
				c-0.45-0.04-0.78-0.44-0.74-0.88c0.04-0.45,0.44-0.77,0.88-0.73c2.17,0.2,4.36,0.47,6.51,0.82c0.44,0.07,0.74,0.49,0.67,0.93
				C387.5,119.12,387.15,119.41,386.76,119.41z M356.5,119.33c-0.4,0-0.74-0.29-0.8-0.69c-0.07-0.44,0.24-0.86,0.68-0.92
				c2.16-0.33,4.35-0.59,6.52-0.78c0.45-0.03,0.84,0.29,0.88,0.74c0.04,0.45-0.29,0.84-0.74,0.88c-2.13,0.18-4.29,0.44-6.41,0.77
				C356.59,119.33,356.54,119.33,356.5,119.33z M374.89,118.25c-0.01,0-0.02,0-0.03,0c-2.15-0.08-4.3-0.08-6.45-0.01
				c-0.46,0.03-0.83-0.34-0.84-0.79c-0.01-0.45,0.34-0.82,0.79-0.84c2.18-0.07,4.37-0.06,6.56,0.01c0.45,0.02,0.8,0.39,0.79,0.84
				C375.68,117.91,375.32,118.25,374.89,118.25z"/>
		</g>
	</g>
</g>
<path class="st283" d="M200.33,160.92L200.33,160.92c0.65-0.1,1.26,0.34,1.36,0.99l0.25,1.53c0.1,0.65-0.34,1.26-0.99,1.37l0,0
	c-0.65,0.1-1.26-0.34-1.37-0.99l-0.25-1.53C199.24,161.64,199.68,161.02,200.33,160.92z"/>
<path class="st283" d="M209.86,157.04L209.86,157.04c0.65-0.1,1.26,0.34,1.36,0.99l0.25,1.53c0.1,0.65-0.34,1.26-0.99,1.37l0,0
	c-0.65,0.1-1.26-0.34-1.37-0.99l-0.25-1.53C208.77,157.76,209.22,157.14,209.86,157.04z"/>
<g>
	<g>
		<path class="st34" d="M204.34,170.95l6.76-0.62C209.91,170.32,212.17,177.67,204.34,170.95z"/>
	</g>
</g>
<g>
	<g>
		<path class="st37" d="M197.38,42.8h62.46c6.9,0,12.49,5.83,12.49,13.02v37.15c0,7.19-5.59,13.02-12.49,13.02h-6.35
			c-2.17,4.58-3,10.68,4.28,14.87c0,0-19.1-5-22.58-14.87h-37.82c-6.9,0-12.49-5.83-12.49-13.02V55.82
			C184.89,48.63,190.48,42.8,197.38,42.8z"/>
	</g>
</g>
<g>
	<g>
		<g>
			<circle class="st34" cx="229.67" cy="74.36" r="24.71"/>
		</g>
	</g>
</g>
<g>
	<g>
		<g>
			<path class="st36" d="M229.67,70.33c0.04-0.08,0.06-0.13,0.09-0.18c1.01-1.97,2.59-3.22,4.77-3.61c3.16-0.58,6.19,1.17,7.34,4.17
				c0.37,0.96,0.47,1.96,0.39,2.99c-0.16,1.92-0.89,3.64-1.91,5.24c-1.05,1.66-2.36,3.11-3.8,4.44c-2,1.85-4.19,3.46-6.53,4.84
				c-0.24,0.14-0.46,0.14-0.7,0c-2.91-1.73-5.6-3.76-7.93-6.23c-1.27-1.34-2.37-2.79-3.2-4.45c-0.53-1.06-0.9-2.17-1.06-3.34
				c-0.25-1.84,0.08-3.56,1.2-5.08c1.05-1.42,2.46-2.3,4.2-2.6c3.03-0.52,5.84,1.09,7.07,3.67
				C229.62,70.23,229.64,70.26,229.67,70.33z"/>
		</g>
	</g>
</g>
</svg>
