<?xml version="1.0" encoding="utf-8"?>
<!-- Generator: Adobe Illustrator 24.2.1, SVG Export Plug-In . SVG Version: 6.00 Build 0)  -->
<svg version="1.1" id="Capa_1" xmlns="http://www.w3.org/2000/svg" xmlns:xlink="http://www.w3.org/1999/xlink" x="0px" y="0px"
	 viewBox="0 0 542 415.45" style="enable-background:new 0 0 542 415.45;" xml:space="preserve">
<style type="text/css">
	.st0{opacity:0.68;fill:#9199C1;}
	.st1{opacity:0.43;}
	.st2{fill:#C1B9D0;}
	.st3{fill:#383A80;}
	.st4{fill-rule:evenodd;clip-rule:evenodd;fill:#E0BAAA;}
	.st5{fill-rule:evenodd;clip-rule:evenodd;fill:#DFAD97;}
	.st6{fill-rule:evenodd;clip-rule:evenodd;fill:#8890BC;}
	.st7{fill-rule:evenodd;clip-rule:evenodd;fill:#5050BE;}
	.st8{fill-rule:evenodd;clip-rule:evenodd;fill:#DEA689;}
	.st9{fill-rule:evenodd;clip-rule:evenodd;fill:#C0B6CE;}
	.st10{clip-path:url(#SVGID_2_);}
	.st11{fill:#5050BE;}
	.st12{fill:#4F4EBD;}
	.st13{fill:#4D4DBC;}
	.st14{fill:#4C4BBA;}
	.st15{fill:#4B4AB9;}
	.st16{fill:#4A48B8;}
	.st17{fill:#4847B7;}
	.st18{fill:#4746B6;}
	.st19{fill:#4645B5;}
	.st20{fill:#4543B5;}
	.st21{fill:#4442B4;}
	.st22{fill:#4341B3;}
	.st23{fill:#4340B2;}
	.st24{fill:#423FB2;}
	.st25{fill:#413FB1;}
	.st26{fill:#413EB0;}
	.st27{fill:#403DB0;}
	.st28{fill:#403DAF;}
	.st29{fill:#3F3CAF;}
	.st30{clip-path:url(#SVGID_4_);}
	.st31{opacity:0.81;}
	.st32{fill-rule:evenodd;clip-rule:evenodd;fill:#352D8D;}
	.st33{clip-path:url(#SVGID_6_);}
	.st34{fill:#FFFFFF;}
	.st35{fill:#37474F;}
	.st36{fill:#FF6680;}
	.st37{fill:#5747E4;}
	.st38{fill:#D3D3D3;}
	.st39{fill:none;stroke:#ACACAB;stroke-miterlimit:10;}
	.st40{opacity:0.32;fill:#D2D2D2;}
	.st41{fill:#D2D2D2;}
	.st42{fill:#ACACAB;}
	.st43{opacity:0.39;fill:#D2D2D2;}
	.st44{fill:none;stroke:#DBDBDB;stroke-width:3;stroke-miterlimit:10;}
	.st45{fill:#DBDBDB;}
	.st46{fill:none;}
	.st47{fill:none;stroke:#3C3C3B;stroke-miterlimit:10;}
	.st48{clip-path:url(#SVGID_8_);}
	.st49{clip-path:url(#SVGID_10_);}
	.st50{clip-path:url(#SVGID_13_);}
	.st51{clip-path:url(#SVGID_17_);fill:url(#SVGID_19_);}
	.st52{opacity:0.81;clip-path:url(#SVGID_17_);fill:#393C80;}
	.st53{clip-path:url(#SVGID_17_);fill:#4A5486;}
	.st54{opacity:0.46;clip-path:url(#SVGID_17_);fill:#3F4980;}
	.st55{opacity:0.49;clip-path:url(#SVGID_17_);fill:#393C80;}
	.st56{fill:#393C80;}
	.st57{fill:#53A6C1;}
	.st58{opacity:0.46;clip-path:url(#SVGID_13_);fill:#3F4980;}
	.st59{opacity:0.58;clip-path:url(#SVGID_13_);}
	.st60{fill:#4A5486;}
	.st61{fill:none;stroke:#53A6C1;stroke-miterlimit:10;}
	.st62{clip-path:url(#SVGID_8_);fill:none;stroke:#4A5486;stroke-width:3;stroke-miterlimit:10;}
	.st63{opacity:0.81;clip-path:url(#SVGID_8_);}
	.st64{fill:#D4D3D2;}
	.st65{clip-path:url(#SVGID_23_);}
	.st66{clip-path:url(#SVGID_29_);}
	.st67{fill:#51A5C1;}
	.st68{clip-path:url(#SVGID_35_);}
	.st69{clip-path:url(#SVGID_38_);}
	.st70{fill:#828181;}
	.st71{clip-path:url(#SVGID_41_);}
	.st72{clip-path:url(#SVGID_43_);}
	.st73{clip-path:url(#SVGID_45_);fill:url(#SVGID_46_);}
	.st74{opacity:0.46;clip-path:url(#SVGID_45_);fill:#3F3CB2;}
	.st75{opacity:0.15;clip-path:url(#SVGID_45_);fill:#352D90;}
	.st76{fill:#352D90;}
	.st77{fill:#07C0D7;}
	.st78{opacity:0.46;clip-path:url(#SVGID_43_);fill:#3F3CB2;}
	.st79{fill:#5050C1;}
	.st80{fill:none;stroke:#07C0D7;stroke-miterlimit:10;}
	.st81{fill:#3F3CB2;}
	.st82{opacity:0.81;fill:#352D90;}
	.st83{fill:none;stroke:#5050C1;stroke-width:3;stroke-miterlimit:10;}
	.st84{clip-path:url(#SVGID_48_);fill:#5747E4;}
	.st85{clip-path:url(#SVGID_50_);fill:#6C69E2;}
	.st86{clip-path:url(#SVGID_52_);fill:#6C69E2;}
	.st87{clip-path:url(#SVGID_55_);fill:#5747E4;}
	.st88{fill:#5747E4;stroke:#5747E4;stroke-width:0.5;stroke-linecap:round;stroke-linejoin:round;stroke-miterlimit:10;}
	.st89{fill:none;stroke:#DBDBDB;stroke-width:0.5;stroke-miterlimit:10;}
	.st90{fill:#6864E5;}
	.st91{fill:url(#SVGID_57_);}
	.st92{fill:url(#SVGID_59_);}
	.st93{fill:url(#SVGID_61_);}
	.st94{opacity:0.33;}
	.st95{clip-path:url(#SVGID_65_);}
	.st96{clip-path:url(#SVGID_71_);}
	.st97{clip-path:url(#SVGID_77_);}
	.st98{clip-path:url(#SVGID_80_);}
	.st99{clip-path:url(#SVGID_83_);}
	.st100{clip-path:url(#SVGID_85_);}
	.st101{clip-path:url(#SVGID_87_);fill:url(#SVGID_88_);}
	.st102{opacity:0.46;clip-path:url(#SVGID_87_);fill:#3F3CB2;}
	.st103{opacity:0.15;clip-path:url(#SVGID_87_);fill:#352D90;}
	.st104{opacity:0.46;clip-path:url(#SVGID_85_);fill:#3F3CB2;}
	.st105{clip-path:url(#SVGID_90_);fill:#5747E4;}
	.st106{clip-path:url(#SVGID_92_);fill:#6C69E2;}
	.st107{clip-path:url(#SVGID_94_);fill:#6C69E2;}
	.st108{clip-path:url(#SVGID_96_);fill:#5747E4;}
	.st109{fill:#6F6F6E;}
	.st110{clip-path:url(#SVGID_98_);fill:#808080;}
	.st111{clip-path:url(#SVGID_100_);fill:#979797;}
	.st112{clip-path:url(#SVGID_104_);fill:#979797;}
	.st113{clip-path:url(#SVGID_108_);fill:#828181;}
	.st114{clip-path:url(#SVGID_112_);}
	.st115{clip-path:url(#SVGID_118_);}
	.st116{clip-path:url(#SVGID_124_);}
	.st117{clip-path:url(#SVGID_127_);}
	.st118{fill:#D7D9DE;}
	.st119{fill:#C0B6CE;}
	.st120{fill:#8890BC;}
	.st121{fill:#8282C2;}
	.st122{opacity:0.39;}
	.st123{clip-path:url(#SVGID_136_);}
	.st124{fill:#B1B1E8;}
	.st125{fill:#99A1C5;}
	.st126{fill:#352D8D;}
	.st127{fill:#DFAD97;}
	.st128{fill:#4764BB;}
	.st129{fill:#5172D9;}
	.st130{fill:#060412;}
	.st131{fill:none;stroke:#060412;stroke-width:0.9422;stroke-miterlimit:10;}
	.st132{fill:#171032;}
	.st133{fill:#211D49;}
	.st134{opacity:0.22;fill:none;stroke:#FFFFFF;stroke-width:0.25;stroke-miterlimit:10;}
	.st135{fill:#2E2C60;}
	.st136{fill:#1C163F;}
	.st137{fill:#271F50;}
	.st138{fill:#D7DDFF;}
	.st139{fill:none;stroke:#FFFFFF;stroke-width:0.3951;stroke-linecap:round;stroke-linejoin:round;stroke-miterlimit:10;}
	.st140{fill:none;stroke:#FFFFFF;stroke-width:0.4765;stroke-linecap:round;stroke-linejoin:round;stroke-miterlimit:10;}
	.st141{fill:none;stroke:#FFFFFF;stroke-width:0.4362;stroke-linecap:round;stroke-linejoin:round;stroke-miterlimit:10;}
	.st142{fill:#8091E8;}
	.st143{fill:#808080;}
	.st144{fill:none;stroke:#5C5CC4;stroke-miterlimit:10;}
	.st145{fill:#5C5CC4;}
	.st146{fill:none;stroke:#5747E4;stroke-miterlimit:10;}
	.st147{opacity:0.5;}
	.st148{fill:#9798A0;}
	.st149{opacity:0.3;fill:#C0B6CE;}
	.st150{opacity:0.5;fill:#FFFFFF;}
	.st151{clip-path:url(#SVGID_140_);}
	.st152{opacity:0.3;fill:#FFFFFF;}
	.st153{opacity:0.3;fill-rule:evenodd;clip-rule:evenodd;fill:#C0B6CE;}
	.st154{fill-rule:evenodd;clip-rule:evenodd;fill:#5747E4;}
	.st155{fill-rule:evenodd;clip-rule:evenodd;fill:#FFFFFF;}
	.st156{fill-rule:evenodd;clip-rule:evenodd;fill:#9ABED8;}
	.st157{fill:#D6DEE4;}
	.st158{fill:#DBD9DF;}
	.st159{fill:#E6E5EC;}
	.st160{fill:#90B0DF;}
	.st161{opacity:0.49;}
	.st162{clip-path:url(#SVGID_144_);}
	.st163{fill:#8C94BE;}
	.st164{fill:#8D95BF;}
	.st165{fill:#8E96BF;}
	.st166{fill:#8F97C0;}
	.st167{fill:#9098C0;}
	.st168{fill:#9199C1;}
	.st169{fill:#929AC1;}
	.st170{fill:#939BC2;}
	.st171{fill:#949CC3;}
	.st172{fill:#959DC3;}
	.st173{fill:#969EC4;}
	.st174{fill:#979FC4;}
	.st175{fill:#98A0C5;}
	.st176{fill:#9BA3C6;}
	.st177{fill:#9CA4C6;}
	.st178{fill:#9DA5C7;}
	.st179{clip-path:url(#SVGID_146_);}
	.st180{clip-path:url(#SVGID_148_);}
	.st181{clip-path:url(#SVGID_150_);}
	.st182{clip-path:url(#SVGID_152_);}
	.st183{clip-path:url(#SVGID_154_);}
	.st184{clip-path:url(#SVGID_156_);fill:#5747E4;}
	.st185{clip-path:url(#SVGID_158_);fill:#6C69E2;}
	.st186{clip-path:url(#SVGID_160_);fill:#5747E4;}
	.st187{clip-path:url(#SVGID_162_);fill:#6C69E2;}
	.st188{clip-path:url(#SVGID_164_);}
	.st189{clip-path:url(#SVGID_167_);}
	.st190{clip-path:url(#SVGID_173_);}
	.st191{clip-path:url(#SVGID_179_);}
	.st192{clip-path:url(#SVGID_185_);}
	.st193{clip-path:url(#SVGID_189_);}
	.st194{clip-path:url(#SVGID_192_);}
	.st195{clip-path:url(#SVGID_194_);}
	.st196{clip-path:url(#SVGID_196_);}
	.st197{clip-path:url(#SVGID_198_);}
	.st198{clip-path:url(#SVGID_200_);}
	.st199{clip-path:url(#SVGID_202_);}
	.st200{clip-path:url(#SVGID_204_);fill:url(#SVGID_205_);}
	.st201{opacity:0.46;clip-path:url(#SVGID_204_);fill:#3F3CB2;}
	.st202{opacity:0.15;clip-path:url(#SVGID_204_);fill:#352D90;}
	.st203{opacity:0.46;clip-path:url(#SVGID_202_);fill:#3F3CB2;}
	.st204{clip-path:url(#SVGID_207_);fill:#5747E4;}
	.st205{clip-path:url(#SVGID_209_);fill:#6C69E2;}
	.st206{clip-path:url(#SVGID_211_);fill:#5747E4;}
	.st207{clip-path:url(#SVGID_213_);fill:#6C69E2;}
	.st208{fill:none;stroke:#D2D2D2;stroke-miterlimit:10;}
	.st209{clip-path:url(#SVGID_215_);}
	.st210{fill:#4A48C9;}
	.st211{fill:#4847C8;}
	.st212{fill:#4746C7;}
	.st213{fill:#4645C6;}
	.st214{fill:#4543C6;}
	.st215{fill:#4442C5;}
	.st216{fill:#4341C4;}
	.st217{fill:#4340C3;}
	.st218{fill:#423FC3;}
	.st219{fill:#413FC2;}
	.st220{fill:#5050CF;}
	.st221{fill:#4F4ECE;}
	.st222{fill:#4D4DCD;}
	.st223{fill:#4C4BCB;}
	.st224{fill:#4B4ACA;}
	.st225{fill:#413EC1;}
	.st226{fill:#403DC1;}
	.st227{fill:#403DC0;}
	.st228{fill:#3F3CC0;}
	.st229{clip-path:url(#SVGID_217_);}
	.st230{fill:#07CEE5;}
	.st231{clip-path:url(#SVGID_219_);}
	.st232{clip-path:url(#SVGID_221_);}
	.st233{fill:#D2CAE1;}
	.st234{clip-path:url(#SVGID_223_);}
	.st235{fill:#9DA5CF;}
	.st236{fill:#9EA6D0;}
	.st237{fill:#9FA7D0;}
	.st238{fill:#A0A8D1;}
	.st239{fill:#A1A9D1;}
	.st240{fill:#A2AAD2;}
	.st241{fill:#A3ABD2;}
	.st242{fill:#A4ACD3;}
	.st243{fill:#A5ADD4;}
	.st244{fill:#A6AED4;}
	.st245{fill:#A7AFD5;}
	.st246{fill:#A8B0D5;}
	.st247{fill:#A9B1D6;}
	.st248{fill:#AAB2D6;}
	.st249{fill:#ACB4D7;}
	.st250{fill:#ADB5D7;}
	.st251{fill:#AEB6D8;}
	.st252{fill:#383A85;}
	.st253{fill-rule:evenodd;clip-rule:evenodd;fill:#F1CBBB;}
	.st254{fill-rule:evenodd;clip-rule:evenodd;fill:#F0BEA8;}
	.st255{fill-rule:evenodd;clip-rule:evenodd;fill:#99A1CD;}
	.st256{fill-rule:evenodd;clip-rule:evenodd;fill:#5050CF;}
	.st257{fill-rule:evenodd;clip-rule:evenodd;fill:#EFB79A;}
	.st258{fill-rule:evenodd;clip-rule:evenodd;fill:#D1C7DF;}
	.st259{clip-path:url(#SVGID_225_);}
	.st260{clip-path:url(#SVGID_227_);}
	.st261{clip-path:url(#SVGID_229_);}
	.st262{clip-path:url(#SVGID_231_);}
	.st263{fill-rule:evenodd;clip-rule:evenodd;fill:#352D9E;}
	.st264{clip-path:url(#SVGID_233_);}
	.st265{fill:#FF6683;}
	.st266{fill:#352D9E;}
	.st267{fill:#575756;}
	.st268{opacity:0.1;clip-path:url(#SVGID_235_);}
	.st269{fill:#ECECEC;}
	.st270{fill:#5747F5;}
	.st271{fill:#E4E4E4;}
	.st272{fill:#F5F5F5;}
	.st273{fill:#E0E0E0;}
	.st274{fill:#27DEBF;}
	.st275{fill:#AFA8BB;}
	.st276{fill:#263238;}
	.st277{opacity:0.2;fill:#8890BC;}
	.st278{opacity:0.2;fill:#4645B5;}
	.st279{fill:#C3998A;}
	.st280{fill:#262472;}
	.st281{opacity:0.2;}
	.st282{fill-rule:evenodd;clip-rule:evenodd;fill:#00000F;}
	.st283{fill:#FFFFFF;stroke:#DBDBDB;stroke-miterlimit:10;}
	.st284{opacity:0.35;fill:#DBDBDB;}
	.st285{opacity:0.78;}
	.st286{fill:#FFFFFF;stroke:#FFFFFF;stroke-width:0.2;stroke-miterlimit:10;}
	.st287{fill:url(#SVGID_236_);}
	.st288{fill:url(#SVGID_237_);}
	.st289{fill:url(#SVGID_238_);}
	.st290{fill:url(#SVGID_239_);}
	.st291{opacity:0.2;enable-background:new    ;}
	.st292{opacity:0.12;enable-background:new    ;}
	.st293{opacity:0.25;fill:#FFFFFF;enable-background:new    ;}
	.st294{clip-path:url(#SVGID_241_);}
	.st295{clip-path:url(#SVGID_244_);fill:#FFFFFF;}
	.st296{clip-path:url(#SVGID_246_);fill:#D8D8D8;}
	.st297{clip-path:url(#SVGID_248_);fill:#D8D8D8;}
	.st298{clip-path:url(#SVGID_250_);}
	.st299{clip-path:url(#SVGID_254_);}
	.st300{clip-path:url(#SVGID_257_);fill:url(#SVGID_258_);}
	.st301{opacity:0.46;clip-path:url(#SVGID_257_);fill:#3F3CB2;}
	.st302{opacity:0.15;clip-path:url(#SVGID_257_);fill:#352D90;}
	.st303{opacity:0.46;clip-path:url(#SVGID_254_);fill:#3F3CB2;}
	.st304{fill:#FFFFFF;stroke:#FFFFFF;stroke-width:0.25;stroke-miterlimit:10;}
	.st305{fill:#FFFFFF;stroke:#FFFFFF;stroke-width:0.25;stroke-linecap:round;stroke-linejoin:round;stroke-miterlimit:10;}
	.st306{clip-path:url(#SVGID_262_);fill:#FFFFFF;}
	.st307{clip-path:url(#SVGID_264_);fill:#F0F0F2;}
	.st308{clip-path:url(#SVGID_266_);fill:#F0F0F2;}
	.st309{clip-path:url(#SVGID_268_);fill:#FFFFFF;}
	.st310{opacity:0.39;clip-path:url(#SVGID_270_);fill:#D2D2D2;}
	.st311{opacity:0.32;clip-path:url(#SVGID_270_);fill:#D2D2D2;}
	.st312{clip-path:url(#SVGID_270_);}
	.st313{clip-path:url(#SVGID_270_);fill:none;stroke:#DBDBDB;stroke-width:3;stroke-miterlimit:10;}
	.st314{opacity:0.81;clip-path:url(#SVGID_270_);}
	.st315{clip-path:url(#SVGID_272_);}
	.st316{clip-path:url(#SVGID_274_);fill:url(#SVGID_275_);}
	.st317{opacity:0.46;clip-path:url(#SVGID_274_);fill:#3F3CB2;}
	.st318{opacity:0.15;clip-path:url(#SVGID_274_);fill:#352D90;}
	.st319{opacity:0.46;clip-path:url(#SVGID_272_);fill:#3F3CB2;}
	.st320{clip-path:url(#SVGID_279_);}
	.st321{clip-path:url(#SVGID_281_);fill:none;stroke:#DBDBDB;stroke-width:3;stroke-miterlimit:10;}
	.st322{opacity:0.81;clip-path:url(#SVGID_281_);}
	.st323{fill-rule:evenodd;clip-rule:evenodd;fill:#D7D9DE;}
	.st324{fill-rule:evenodd;clip-rule:evenodd;fill:#E7EAED;}
	.st325{fill-rule:evenodd;clip-rule:evenodd;fill:#FFEFF0;}
	.st326{fill-rule:evenodd;clip-rule:evenodd;fill:#C6C7C8;}
	.st327{fill-rule:evenodd;clip-rule:evenodd;fill:#E6E7E8;}
	.st328{fill-rule:evenodd;clip-rule:evenodd;fill:#C9C2C0;}
	.st329{fill-rule:evenodd;clip-rule:evenodd;fill:#E2DEDB;}
	.st330{fill-rule:evenodd;clip-rule:evenodd;fill:#B1B1E8;}
	.st331{fill-rule:evenodd;clip-rule:evenodd;fill:#9AA2C3;}
	.st332{fill-rule:evenodd;clip-rule:evenodd;fill:#D9D2E2;}
	.st333{fill-rule:evenodd;clip-rule:evenodd;fill:#0B1329;}
	.st334{fill-rule:evenodd;clip-rule:evenodd;fill:#EAA180;}
	.st335{fill-rule:evenodd;clip-rule:evenodd;fill:#78809D;}
	.st336{clip-path:url(#SVGID_283_);}
	.st337{opacity:0.18;clip-path:url(#SVGID_283_);fill:#D2D2D2;}
	.st338{clip-path:url(#SVGID_285_);}
	.st339{clip-path:url(#SVGID_287_);fill:url(#SVGID_288_);}
	.st340{opacity:0.46;clip-path:url(#SVGID_287_);fill:#3F3CB2;}
	.st341{opacity:0.15;clip-path:url(#SVGID_287_);fill:#352D90;}
	.st342{opacity:0.46;clip-path:url(#SVGID_285_);fill:#3F3CB2;}
	.st343{opacity:0.32;clip-path:url(#SVGID_283_);fill:#D2D2D2;}
	.st344{clip-path:url(#SVGID_283_);fill:none;stroke:#DBDBDB;stroke-width:3;stroke-miterlimit:10;}
	.st345{opacity:0.81;clip-path:url(#SVGID_283_);}
	.st346{clip-path:url(#SVGID_290_);}
	.st347{clip-path:url(#SVGID_292_);}
	.st348{clip-path:url(#SVGID_294_);fill:url(#SVGID_295_);}
	.st349{opacity:0.46;clip-path:url(#SVGID_294_);fill:#3F3CB2;}
	.st350{opacity:0.15;clip-path:url(#SVGID_294_);fill:#352D90;}
	.st351{opacity:0.46;clip-path:url(#SVGID_292_);fill:#3F3CB2;}
	.st352{fill:#412965;}
	.st353{fill:#EFE4DA;}
	.st354{fill:#E3D5C8;}
	.st355{fill:#BADBF0;}
	.st356{fill:#9A6A91;}
	.st357{fill:#B17644;}
	.st358{fill:#009245;}
	.st359{fill:#006837;}
	.st360{fill:#FFF1D2;}
	.st361{opacity:0.56;fill:#C1B9D0;}
	.st362{fill:none;stroke:#9A6A91;stroke-width:2.9512;stroke-miterlimit:10;}
	.st363{fill:#D6EFFD;}
	.st364{fill:none;stroke:#9A6A91;stroke-width:2.8383;stroke-miterlimit:10;}
</style>
<g>
</g>
<g>
	<path class="st118" d="M389.34,170.87c-19.84-6.28-32.64-14.96-40.87-23.94c-1.64-3.95-3.15-8.12-4.5-12.55
		c-18.14-59.28-61.31-99.04-115.59-98.59c-54.27,0.45-80.6,34.96-95.6,101.2c-10.62,46.89-39.92,59.36-56.13,62.65l87.76,122.48
		c0.43,3.37,3.9,5.71,7.77,5.23l34.94-4.4v7.97c23.87,13.19,50.74,18.82,92.66,14.27c43.98-4.78-0.89,27.77,43.2,14.05l72.48-9.14
		c2-4.26,3.75-8.58,5.23-13c31.67-16.03,52.88-41.1,57.09-72.36C484.12,217.67,453.18,191.09,389.34,170.87z"/>
	<path class="st118" d="M149.05,137.83c21.54-6.83,12.58-6.56,21.52-16.3c1.78-4.29,3.42-8.81,4.89-13.63
		C195.17,43.51,242.06,0.32,301.01,0.81c58.95,0.49,87.55,37.97,103.84,109.92c11.53,50.93-24.44,96.66-6.83,100.23l26.67,73.36
		c-0.46,3.66-4.24,6.21-8.44,5.68l-37.96-4.78v8.66c-25.93,14.33-28.91,81.27-74.45,76.33c-47.78-5.19-69.17-36.7-117.05-51.6
		l-43.45-33.45c-2.17-4.63-16.48,4.51-18.09-0.29c-34.4-17.41-57.44-44.65-62.01-78.6C56.37,155.15,79.71,159.8,149.05,137.83z"/>
	<g>
		<path class="st119" d="M230.75,154.03l33.37,10.36l25.64-15.26c0.51-0.3,0.42-1.07-0.15-1.25l0,0c-3.11-0.96-6.39-1.23-9.61-0.78
			L230.75,154.03z"/>
		<path class="st120" d="M282.88,146.9l-24.04,14.31l-24.67-7.66l45.85-6.44C280.96,146.97,281.92,146.91,282.88,146.9z"/>
		<path class="st120" d="M343.23,176.41l0.42,0.13c3.14,0.98,6.54,0.69,9.47-0.8l30.96-15.68c1.26-0.64,2.72-0.76,4.07-0.34
			l2.15,0.67c0.41,0.13,0.62,0.58,0.45,0.97l-11.19,26.32l-1.63,3.79l-35.92-11.15L343.23,176.41z"/>
		<path class="st121" d="M310.93,193.14l-137.31-42.63c-7.87-2.44-15.45-5.77-22.58-9.91l-18.06-10.49
			c-0.26-0.15-0.51-0.34-0.72-0.54l0,0c-2.31-2.22-1.02-6.12,2.15-6.52l20.22-2.58c4.02-0.51,8.1-0.16,11.97,1.05l210.67,65.4
			c0.48,0.15,0.91,0.45,1.21,0.86l0,0c0.99,1.32,0.39,3.22-1.18,3.73l-3.65,1.19C353.3,199.33,331.38,199.49,310.93,193.14z"/>
		<path class="st34" d="M319.92,188.11l-152.25-47.27c-8.73-2.71-17.13-6.4-25.03-10.99l-10.22-5.94c0.53-0.46,1.21-0.78,2-0.88
			l20.22-2.58c4.02-0.51,8.1-0.16,11.97,1.05l210.67,65.4c0.48,0.15,0.91,0.45,1.21,0.86c0.65,0.87,0.6,1.99,0.04,2.8
			C359.17,194.83,338.97,194.03,319.92,188.11z"/>
		<path class="st119" d="M160.76,126.8l-16.24-5.04l10.12-1.33l7.38,2.29c1.13,0.35,1.76,1.55,1.41,2.67l0,0
			C163.08,126.52,161.89,127.14,160.76,126.8z"/>
		<g>
			<path class="st119" d="M183.49,135.49l-1.29-0.4c-0.47-0.15-0.74-0.65-0.59-1.12l0.4-1.29c0.15-0.47,0.65-0.74,1.12-0.59
				l1.29,0.4c0.47,0.15,0.74,0.65,0.59,1.12l-0.4,1.29C184.46,135.38,183.96,135.64,183.49,135.49z"/>
			<path class="st119" d="M192.39,138.26l-1.29-0.4c-0.47-0.15-0.74-0.65-0.59-1.12l0.4-1.29c0.15-0.47,0.65-0.74,1.12-0.59
				l1.29,0.4c0.47,0.15,0.74,0.65,0.59,1.12l-0.4,1.29C193.36,138.14,192.86,138.4,192.39,138.26z"/>
			<path class="st119" d="M201.29,141.02l-1.29-0.4c-0.47-0.15-0.74-0.65-0.59-1.12l0.4-1.29c0.15-0.47,0.65-0.74,1.12-0.59
				l1.29,0.4c0.47,0.15,0.74,0.65,0.59,1.12l-0.4,1.29C202.27,140.9,201.76,141.17,201.29,141.02z"/>
			<path class="st119" d="M210.2,143.79l-1.29-0.4c-0.47-0.15-0.74-0.65-0.59-1.12l0.4-1.29c0.15-0.47,0.65-0.74,1.12-0.59l1.29,0.4
				c0.47,0.15,0.74,0.65,0.59,1.12l-0.4,1.29C211.17,143.67,210.67,143.93,210.2,143.79z"/>
			<path class="st119" d="M219.1,146.55l-1.29-0.4c-0.47-0.15-0.74-0.65-0.59-1.12l0.4-1.29c0.15-0.47,0.65-0.74,1.12-0.59l1.29,0.4
				c0.47,0.15,0.74,0.65,0.59,1.12l-0.4,1.29C220.07,146.43,219.57,146.7,219.1,146.55z"/>
			<path class="st119" d="M228,149.31l-1.29-0.4c-0.47-0.15-0.74-0.65-0.59-1.12l0.4-1.29c0.15-0.47,0.65-0.74,1.12-0.59l1.29,0.4
				c0.47,0.15,0.74,0.65,0.59,1.12l-0.4,1.29C228.98,149.2,228.48,149.46,228,149.31z"/>
			<path class="st119" d="M236.91,152.08l-1.29-0.4c-0.47-0.15-0.74-0.65-0.59-1.12l0.4-1.29c0.15-0.47,0.65-0.74,1.12-0.59
				l1.29,0.4c0.47,0.15,0.74,0.65,0.59,1.12l-0.4,1.29C237.88,151.96,237.38,152.23,236.91,152.08z"/>
			<path class="st119" d="M245.81,154.84l-1.29-0.4c-0.47-0.15-0.74-0.65-0.59-1.12l0.4-1.29c0.15-0.47,0.65-0.74,1.12-0.59
				l1.29,0.4c0.47,0.15,0.74,0.65,0.59,1.12l-0.4,1.29C246.79,154.73,246.28,154.99,245.81,154.84z"/>
			<path class="st119" d="M254.72,157.61l-1.29-0.4c-0.47-0.15-0.74-0.65-0.59-1.12l0.4-1.29c0.15-0.47,0.65-0.74,1.12-0.59
				l1.29,0.4c0.47,0.15,0.74,0.65,0.59,1.12l-0.4,1.29C255.69,157.49,255.19,157.75,254.72,157.61z"/>
			<path class="st119" d="M263.62,160.37l-1.29-0.4c-0.47-0.15-0.74-0.65-0.59-1.12l0.4-1.29c0.15-0.47,0.65-0.74,1.12-0.59
				l1.29,0.4c0.47,0.15,0.74,0.65,0.59,1.12l-0.4,1.29C264.59,160.25,264.09,160.52,263.62,160.37z"/>
			<path class="st119" d="M272.52,163.14l-1.29-0.4c-0.47-0.15-0.74-0.65-0.59-1.12l0.4-1.29c0.15-0.47,0.65-0.74,1.12-0.59
				l1.29,0.4c0.47,0.15,0.74,0.65,0.59,1.12l-0.4,1.29C273.5,163.02,273,163.28,272.52,163.14z"/>
			<path class="st119" d="M281.43,165.9l-1.29-0.4c-0.47-0.15-0.74-0.65-0.59-1.12l0.4-1.29c0.15-0.47,0.65-0.74,1.12-0.59l1.29,0.4
				c0.47,0.15,0.74,0.65,0.59,1.12l-0.4,1.29C282.4,165.78,281.9,166.05,281.43,165.9z"/>
			<path class="st119" d="M290.33,168.66l-1.29-0.4c-0.47-0.15-0.74-0.65-0.59-1.12l0.4-1.29c0.15-0.47,0.65-0.74,1.12-0.59
				l1.29,0.4c0.47,0.15,0.74,0.65,0.59,1.12l-0.4,1.29C291.3,168.55,290.8,168.81,290.33,168.66z"/>
		</g>
		<path class="st119" d="M215.49,155.91l52.43,16.06l18.93,37.35c0.52,1.13-0.54,2.33-1.72,1.97l-1.25-0.39
			c-3.43-1.07-6.59-2.88-9.23-5.3L215.49,155.91z"/>
		<path class="st120" d="M276.24,206.32c0.11,0.24,0.14,0.48,0.13,0.71c-0.6-0.45-1.18-0.93-1.73-1.43l-59.15-49.69l43.03,13.14
			L276.24,206.32z"/>
		<polygon class="st120" points="360.69,184.57 378.77,190.19 385.89,205.63 382.54,204.59 		"/>
	</g>
	<g>
		<path class="st34" d="M369.4,140.42c-1.04-1.92-3.89-3.31-7.26-3.31c-0.93,0-1.83,0.11-2.66,0.31c-0.41-1.17-1.47-2.18-2.93-2.87
			c-0.9-4.34-6.7-7.7-13.75-7.7c-5.31,0-9.92,1.91-12.26,4.71c-1.29-0.48-2.78-0.75-4.38-0.75c-4.85,0-8.78,2.51-8.78,5.61
			c0,0.25,0.03,0.49,0.08,0.72c-0.26-0.02-0.52-0.03-0.79-0.03c-3.37,0-6.22,1.38-7.26,3.31H369.4z"/>
		<path class="st34" d="M473.92,171.56c-1.04-1.93-3.89-3.31-7.26-3.31c-0.93,0-1.83,0.11-2.66,0.31c-0.41-1.17-1.47-2.18-2.93-2.87
			c-0.9-4.34-6.7-7.7-13.75-7.7c-5.31,0-9.92,1.91-12.26,4.71c-1.29-0.48-2.78-0.75-4.38-0.75c-4.85,0-8.78,2.51-8.78,5.61
			c0,0.25,0.03,0.49,0.08,0.72c-0.26-0.02-0.52-0.03-0.79-0.03c-3.37,0-6.22,1.38-7.26,3.31H473.92z"/>
		<path class="st34" d="M229.16,191.01c-1.04-1.92-3.89-3.31-7.26-3.31c-0.93,0-1.83,0.11-2.66,0.31c-0.41-1.17-1.47-2.18-2.93-2.87
			c-0.9-4.34-6.7-7.7-13.75-7.7c-5.31,0-9.92,1.91-12.26,4.71c-1.29-0.48-2.78-0.75-4.38-0.75c-4.85,0-8.78,2.51-8.78,5.61
			c0,0.25,0.03,0.49,0.08,0.72c-0.26-0.02-0.52-0.03-0.79-0.03c-3.37,0-6.22,1.38-7.26,3.31H229.16z"/>
		<path class="st34" d="M208.63,124.23c1.06-1.95,3.95-3.36,7.37-3.36c0.95,0,1.85,0.11,2.69,0.31c0.42-1.19,1.5-2.21,2.98-2.91
			c0.91-4.41,6.8-7.81,13.95-7.81c5.39,0,10.07,1.94,12.44,4.78c1.31-0.48,2.82-0.76,4.44-0.76c4.92,0,8.91,2.55,8.91,5.69
			c0,0.25-0.03,0.49-0.08,0.73c0.26-0.02,0.53-0.03,0.8-0.03c3.42,0,6.31,1.41,7.37,3.36H208.63z"/>
		<path class="st34" d="M215.87,71.47c-0.83-1.54-3.11-2.64-5.8-2.64c-0.75,0-1.46,0.09-2.12,0.25c-0.33-0.93-1.18-1.74-2.34-2.29
			c-0.72-3.47-5.35-6.15-10.98-6.15c-4.24,0-7.92,1.52-9.79,3.76c-1.03-0.38-2.22-0.6-3.5-0.6c-3.87,0-7.01,2-7.01,4.48
			c0,0.2,0.03,0.39,0.06,0.58c-0.21-0.01-0.42-0.02-0.63-0.02c-2.69,0-4.97,1.11-5.8,2.64H215.87z"/>
		<path class="st34" d="M291.61,64.44c-0.37-0.68-1.38-1.17-2.57-1.17c-0.33,0-0.65,0.04-0.94,0.11c-0.15-0.41-0.52-0.77-1.04-1.02
			c-0.32-1.54-2.37-2.73-4.87-2.73c-1.88,0-3.51,0.68-4.34,1.67c-0.46-0.17-0.98-0.27-1.55-0.27c-1.72,0-3.11,0.89-3.11,1.99
			c0,0.09,0.01,0.17,0.03,0.26c-0.09-0.01-0.19-0.01-0.28-0.01c-1.19,0-2.2,0.49-2.57,1.17H291.61z"/>
		<path class="st34" d="M94.02,168.88c0.94-1.75,3.54-3.01,6.59-3.01c0.85,0,1.66,0.1,2.41,0.28c0.37-1.06,1.34-1.98,2.66-2.61
			c0.82-3.94,6.09-6.99,12.48-6.99c4.82,0,9.01,1.73,11.13,4.28c1.17-0.43,2.53-0.68,3.98-0.68c4.4,0,7.97,2.28,7.97,5.09
			c0,0.22-0.03,0.44-0.07,0.66c0.24-0.02,0.48-0.02,0.72-0.02c3.06,0,5.65,1.26,6.59,3.01H94.02z"/>
	</g>
	<g class="st122">
		<polygon class="st34" points="437.98,291.08 453.72,291.08 249.29,-23.49 233.55,-23.49 		"/>
		<polygon class="st34" points="220.93,348.35 234.59,348.35 57.17,60.64 43.51,60.64 		"/>
		<polygon class="st34" points="247.93,348.35 307.13,348.35 102.7,33.77 43.51,33.77 		"/>
		<polygon class="st34" points="462.67,267.75 521.86,267.75 317.44,-46.83 258.25,-46.83 		"/>
	</g>
	<g>
		
			<rect x="376.23" y="-8.25" transform="matrix(-1 -1.224647e-16 1.224647e-16 -1 759.686 338.8665)" class="st34" width="7.23" height="355.36"/>
		
			<rect x="153.79" y="-3.37" transform="matrix(-1 -1.224647e-16 1.224647e-16 -1 317.3207 343.7424)" class="st34" width="9.74" height="350.48"/>
		
			<rect x="312" y="-81.91" transform="matrix(-1.836970e-16 1 -1 -1.836970e-16 417.8868 -214.9731)" class="st34" width="8.85" height="366.73"/>
	</g>
	<g>
		<defs>
			<path id="SVGID_135_" d="M441.52,386.11c-7.63-20.03-8.82-35.92-6.85-48.31c2.14-3.85,4.53-7.73,7.24-11.67
				c36.23-52.59,40.68-112.87,5.57-156.38c-35.1-43.51-79.81-42.67-142.86-12.38c-44.64,21.45-73.46,5.78-86.48-5.2L84.48,288.7
				c-2.45,2.5-2.11,6.81,0.75,9.61l25.92,25.38l-6.43,5.1c4.64,27.7,17.29,52.99,47.8,83.91c32.01,32.44,68.03,29.76,107.32,56.56
				l53.77,52.64c4.72-1.11,9.32-2.47,13.84-4.1c33.2,15.3,67.02,16.36,94.94-0.25C464.42,492.56,466.06,450.57,441.52,386.11z"/>
		</defs>
		<clipPath id="SVGID_2_">
			<use xlink:href="#SVGID_135_"  style="overflow:visible;"/>
		</clipPath>
		<g class="st10">
			
				<rect x="53.24" y="288.62" transform="matrix(-1 -1.224647e-16 1.224647e-16 -1 520.4212 651.4499)" class="st124" width="413.94" height="74.22"/>
			
				<rect x="53.24" y="261.23" transform="matrix(-1 -1.224647e-16 1.224647e-16 -1 520.4212 538.5115)" class="st124" width="413.94" height="16.05"/>
		</g>
	</g>
	<g>
		<g>
			<g>
				<ellipse class="st125" cx="294.97" cy="388.81" rx="90.88" ry="8.86"/>
				<g>
					<path class="st126" d="M332.19,264.43l-32.27,8.15c0,0,8.34,36.18,11.58,49.44c3.32,13.58,1.48,57.24,1.48,57.24h9.23
						l4.99-57.42L332.19,264.43z"/>
					<path class="st127" d="M325.16,205.64c0,0,3.3,11.36,8.61,30.62c0,0,6.85,2.49,25.38,3.8l-0.58,6.16c0,0-20.44,3.7-31.71-0.95
						C315.6,240.62,306.15,199.4,325.16,205.64z"/>
					<g>
						<polygon class="st126" points="343.04,245.35 352.7,256.54 368.32,236.21 362,224.03 						"/>
						<polygon class="st19" points="341.34,250.04 357.74,228.05 368.32,236.21 352.7,256.54 						"/>
					</g>
					<path class="st127" d="M365.6,240.73c-0.07-0.34-0.5-0.46-0.79-0.28c-0.57,0.36-1.23,1.2-2.83,1.25
						c-1.59,0.05-3.67-1.06-4.35-0.34c0,0-3.43,4.38,0.05,8.71C357.68,250.06,368.2,252.81,365.6,240.73z"/>
					<path class="st128" d="M318.66,238.49c0,0,8.21-1.21,14.94-7.01c0,0-2.38-12.81-5.69-20.53c-3.31-7.72-8.54-14.49-17.04-9.46
						C302.36,206.52,304.84,218.05,318.66,238.49z"/>
					<path class="st129" d="M291.25,233.33c0,0,7.01,4.44,15.89,4.44c0,0,6.56-11.26,9.09-19.27c2.54-8.01,2.99-16.55-6.73-18.29
						C299.79,198.47,294.13,208.82,291.25,233.33z"/>
					<path class="st19" d="M327.74,267.91c0,0-19.94-6.74-32.31,4.41c0,0,2.27,10.47,9.09,22.99
						c11.53,21.18,17.43,28.04,17.43,28.04s-12.57,11.19-36.79,39.14c0,0,1.51,5.72,6.39,7.55c0,0,35.49-33.48,46.2-42.4
						c3.5-2.92,2.79-5.12,1.41-11.57C336.84,305.12,329.11,272.9,327.74,267.91z"/>
					<path class="st127" d="M310.76,184.93l-0.43,8.75c0,0,6.87,5.66,12.53,5.4l2.61-11.67l-16.02-10.89L310.76,184.93z"/>
					<path class="st127" d="M314.07,183.4c0,0,3.65,6.82,10.32,8.9l1.09-4.89L314.07,183.4z"/>
					<g>
						<path class="st130" d="M299.99,304.05l-16.29-12.37c-0.92-0.69-1.09-2-0.4-2.91l0,0c0.69-0.92,2-1.09,2.91-0.4l16.29,12.37
							c0.91,0.69,1.09,2,0.4,2.91l0,0C302.21,304.57,300.91,304.75,299.99,304.05z"/>
						<line class="st131" x1="286.44" y1="293.07" x2="250.62" y2="340.24"/>
						<line class="st131" x1="297.91" y1="301.81" x2="262.09" y2="348.97"/>
					</g>
					<path class="st132" d="M296.48,207.18c0,0-17.44,0.88-20.24,10.71c-2.8,9.84-2.42,48.51-2.42,48.51s3.68,8.79,15.47,9.92
						c0,0,6.15,1.42,5.79-11.48C294.73,251.94,296.48,207.18,296.48,207.18z"/>
					<path class="st133" d="M286.66,209.09c0,0-1.75,1.53-2.68,3.54c-3.42,7.36-2.37,27.19-3.82,28.78
						c-1.21,1.33-3.27,1.58-5.3,2.13c-0.87,0.24-1.87-0.31-1.84-1.16C273.8,225.42,272.49,211.31,286.66,209.09z"/>
					<path class="st133" d="M273.98,245.93c0,0,4.69-1.08,5.51,0.04c1.16,1.6,0.71,19.8-0.59,20.3c-1.3,0.5-5.87,0.1-6.13-0.29
						C271.79,264.55,271.19,246.52,273.98,245.93z"/>
					<path class="st127" d="M332.97,162.98c0,0,2.32,11.3,1.35,19.19c-0.43,3.49-1.5,6.32-3.71,7.2
						c-7.18,2.87-17.68-4.44-20.25-11.89C308.18,171.14,308.41,156.06,332.97,162.98z"/>
					<path class="st11" d="M325.86,166.67c0,0,1.95,4.99-1.9,6.17c-3.14,0.96-4.05,3.27-4.05,3.27s-0.64-5.02-4.06-5.21
						c-3.72-0.2-3.51,5.11-0.25,7.72c0,0,0,6.3-4.84,6.3c0,0-10.9-12.51-6.14-20.06c-0.7-2.29,2.55-8.44,10.91-9.23
						c8.36-0.78,10.76,1.17,17.11-0.8C338.71,152.96,342.71,167.52,325.86,166.67z"/>
					<polyline class="st134" points="312.08,265.97 333.6,321.85 287.97,365.65 					"/>
					<g>
						<path class="st130" d="M251.58,388.79c0,2.89-2.34,5.23-5.23,5.23c-2.89,0-5.23-2.34-5.23-5.23c0-2.89,2.34-5.23,5.23-5.23
							C249.25,383.56,251.58,385.9,251.58,388.79z"/>
						<path class="st130" d="M232.12,379.55c0,2.89-2.34,5.23-5.23,5.23c-2.89,0-5.23-2.34-5.23-5.23c0-2.89,2.34-5.23,5.23-5.23
							C229.78,374.33,232.12,376.67,232.12,379.55z"/>
						<path class="st130" d="M274.49,339.23c0,0,1.61,23.34-6.75,36.23c-8.36,12.89-20.55,10.8-20.55,10.8l2.51-3.95
							c0,0,8.81,3.6,14.03-10.16c5.23-13.76,4.18-28.04,4.18-28.04L274.49,339.23z"/>
						<path class="st132" d="M264.82,332.64c0,0,5.23,0.5,9.37,5.47c3.19,3.83-20.74,40.85-26.13,49.07
							c-0.64,0.98-1.83,1.44-2.97,1.13c-3.85-1.03-12.75-3.79-19.22-8.67C225.88,379.64,250.6,336.27,264.82,332.64z"/>
						<path class="st133" d="M266.68,333.05c0,0-19.65-11.83-30.21-2c-7,6.51-20.5,24.87-25.73,32.1c-1.27,1.75-1.07,4.16,0.48,5.67
							c3.37,3.3,10.44,8.53,15.43,11.25c0.74,0.4,1.66,0.17,2.12-0.53C233.04,373.06,253.48,342.64,266.68,333.05z"/>
						<path class="st135" d="M223.15,347.84c-0.77-0.6-1.92-0.28-2.52,0.5c-2.5,3.28-8.74,11.49-9.67,13.04
							c-1.81,3.04,5.59,9.46,14.64,14.23c2.83,1.49,6.28-4.98,9.92-9.95c2.41-3.28,4.49-6.16,4.21-7.23
							c-0.3-1.14-5.01-2.61-9.32-5.28C227.6,351.4,225.21,349.45,223.15,347.84z"/>
						<path class="st135" d="M266.68,333.05c0,0-8.88-6.3-21.48-6.49c-10.7-0.17-22.45,18.36-22.45,18.36
							c-1.52,1.95,16.81,13.06,18.86,10.53c8.1-9.98,16.02-17.55,20.06-21.21C261.94,334,264.11,332.25,266.68,333.05z"/>
						<path class="st136" d="M233.37,377.67l10.95-16.51c0.4-0.6,1.17-0.81,1.82-0.51l10.71,5.08c0.68,0.32,0.92,1.17,0.5,1.8
							l-10.61,16.08c-0.61,0.93-1.8,1.29-2.82,0.86l-9.71-4.05C233.13,379.97,232.72,378.65,233.37,377.67z"/>
					</g>
					<g>
						<g>
							<g>
								<path class="st119" d="M307.89,194.79c0,0-10.71,1.94-12.45,17.96c-1.74,16.02,0,61.38,0,61.38s10.04,3.89,21.42-1.65
									c7.32-3.57,12.01-3.76,13.99-4.22c0.8-0.18,1.36-0.88,1.37-1.7c0.02-1.75,0.05-5.11,0.04-10.18
									c-0.03-14.16-1.56-38.24-7.66-54.78C324.59,201.6,314.24,195.29,307.89,194.79z"/>
							</g>
						</g>
					</g>
					<path class="st120" d="M315.11,224.07c-8.94-0.45-15.56,3.14-20.45,8.64c-0.1,18.91,0.77,41.43,0.77,41.43
						s5.97,2.29,13.92,0.82c-5.69-8.69-5.73-16.67-0.82-26.44C312.46,240.68,315.11,224.07,315.11,224.07z"/>
					<g>
						<path class="st132" d="M295.43,212.75c0,0,8.5-13.83,14.72-11.5c7.64,2.87,9.19,17.65-2.26,33.12l-6.1,6.46l-1.57,5.75
							c0,0,15.55-13.72,19.2-27.04c3.66-13.32-1.15-18.62-7.84-20.9c-8.23-2.81-12.17,2.2-17.19,9.14L295.43,212.75z"/>
						<g>
							<path class="st127" d="M294.04,227.03c0,0-2.61,11.32-3.48,25.6c-0.73,12.02-0.85,26.8-0.87,31.2c0,0.76-0.29,1.48-0.83,2.01
								c-1.43,1.41-4.16,4.86-3.71,10.42c0.16,1.95,1.01,4.64,5.86,6.19c0.67,0.21,2.42,0.95,2.42-2.45c0-3.4,1.37-5.68,2.77-6.81
								c1.39-1.13,2.81,1.85,2.81,4.29c0,2.44,1.63,0.89,1.96-0.84s0.07-6.37-3.59-11.2c0,0-0.07-0.85,0.39-6.66
								c0.46-5.81,1.43-25.49,3.52-30.52c2.09-5.03,8.1-19.38,8.1-19.38L294.04,227.03z"/>
							<path class="st120" d="M291.25,234.45c0,0,7.01,3.32,15.89,3.32c0,0,6.56-11.26,9.09-19.27c2.54-8.01,2.99-16.55-6.73-18.29
								C299.79,198.47,294.13,209.94,291.25,234.45z"/>
						</g>
					</g>
					<g>
						<g>
							<g>
								<path class="st126" d="M313.16,378.31c0,0-2.56,3.74-1.31,9.14c0.19,0.8,0.87,1.35,1.64,1.35h27.73
									c0.57,0,1.03-0.54,0.95-1.15c-0.19-1.58-1.49-4.31-8.07-5.13c-1.8-0.22-3.54-0.9-4.97-2.02c-2.37-1.86-5.98-4.4-7.24-3.69
									C321.89,376.81,317.92,379.22,313.16,378.31z"/>
							</g>
						</g>
					</g>
					<path class="st137" d="M310.43,191.76c-0.99,0.04-2.54,3.03-2.54,3.03s2.94,2.26,10.08,4.88c3.31,1.21,4.96,2.92,5.72,3.99
						c0.23,0.32,0.73,0.2,0.79-0.19c0.21-1.59,0.3-4.37-1.25-5.99C323.23,197.47,313.4,194.79,310.43,191.76z"/>
					<g>
						<path class="st126" d="M285.31,362.57c0,0-4.49,0.57-7.7,5.1c-0.48,0.67-0.43,1.55,0.08,2.12l18.44,20.72
							c0.38,0.43,1.08,0.41,1.49-0.05c1.05-1.19,2.23-3.98-1.53-9.44c-1.03-1.5-1.68-3.24-1.79-5.05c-0.19-3.01-0.69-7.39-2.05-7.86
							C292.24,368.11,287.8,366.73,285.31,362.57z"/>
					</g>
					<polygon class="st130" points="296.76,296.37 301.12,299.69 300.76,301.63 295.67,299.08 					"/>
				</g>
			</g>
			<g>
				<path class="st136" d="M177.56,336.41c0,1.25-6.83,2.27-15.26,2.27c-8.43,0-15.26-1.02-15.26-2.27c0-1.25,6.83-2.27,15.26-2.27
					C170.73,334.14,177.56,335.16,177.56,336.41z"/>
				<path class="st138" d="M190.96,388.04c0,1.82-12.83,3.3-28.66,3.3c-15.83,0-28.66-1.48-28.66-3.3c0-1.82,12.83-3.3,28.66-3.3
					C178.13,384.74,190.96,386.22,190.96,388.04z"/>
				<g>
					<g>
						<path class="st119" d="M166.01,340.39c0,0-3.16-9.52,0.88-13.83c4.04-4.31-2.42-11.57,7.15-15.68
							c9.57-4.11,9.24-13.7,17.57-13.74c8.33-0.04,14.88-3.92,17.6-0.24c2.72,3.68-9.91,5.47-9.94,11.71
							c-0.03,6.24-1.26,6.84-4.67,10.74c-1.91,2.18-1.02,7.01-5.27,11.68C185.99,334.69,177.22,333.45,166.01,340.39z"/>
						<path class="st139" d="M166.01,340.39c0,0,3.99-9.56,13.17-14.62c9.19-5.06,5.94-25.67,30.02-28.87"/>
					</g>
					<g>
						<path class="st120" d="M167.9,344.92c0,0-1.68-13.62,1.4-24.57c3.08-10.95-1.96-14.45-10.59-17.28
							c-8.63-2.83-3.21-11.85-5.78-20.26c-2.57-8.41-9.03,4.66-11.18-6.8c-2.15-11.45-5.42-17.36-8.02-16.87
							c-2.61,0.49-3.48,3.02-5.35,16.12c-1.87,13.09-10.96,12.13-3.07,22.51c7.89,10.38,9.9,7.44,5.52,16.45
							C121.45,333.47,154.96,327.78,167.9,344.92z"/>
						<path class="st140" d="M167.9,344.92c0,0-4.29-22.91-16.68-34.22c-12.38-11.31-20.59-23.41-17.5-51.55"/>
					</g>
					<g>
						<path class="st119" d="M163.58,343.05c0,0-13.44-35.63-22.7-33.38c-9.26,2.25-10.18,2.73-18.62-4.02
							c-8.43-6.75-14.57,0.62-8.12,6.02c6.45,5.4,6.68,5.89,0.53,11.84c-6.15,5.95,8.52,12.61,21.43,10.6
							C149.02,332.11,161.56,340.11,163.58,343.05z"/>
						<path class="st141" d="M163.58,343.05c0,0-6.3-13.24-23.28-16.67c-16.98-3.43-9.04-14.63-28.83-19.81"/>
					</g>
				</g>
				<path class="st126" d="M162.3,338.68c-7.06,0-12.98-0.71-14.72-1.68c1.73,2.24,7.28,12.22,10.56,50.61
					c0,0.56,1.86,1.01,4.16,1.01c2.3,0,4.16-0.45,4.16-1.01c3.29-38.39,8.83-48.37,10.56-50.61
					C175.28,337.97,169.36,338.68,162.3,338.68z"/>
			</g>
		</g>
		<g>
			<g>
				<g>
					<path class="st34" d="M328.2,182.44l6.36-0.15C333.42,182.19,336.05,189.53,328.2,182.44z"/>
				</g>
			</g>
			<g>
				<g>
					<path class="st35" d="M331.01,175.68c0.14,1.44-0.3,2.65-1,2.73c-0.69,0.07-1.38-1.03-1.52-2.46c-0.15-1.43,0.3-2.65,1-2.72
						C330.18,173.14,330.86,174.24,331.01,175.68z"/>
				</g>
			</g>
		</g>
	</g>
</g>
<path class="st43" d="M-519.46,663.79c42.7,32.74,93.64,46.21,142.86,42.21c38.35-3.12,72.86,24.34,78.73,62.36
	c7.05,45.64,25.85,90.09,56.92,128.65c21.75,26.99,47.6,48.72,75.95,65.02c33.07,19.01,45.96,60.7,29.79,95.24
	c-2.35,5.01-4.41,10.23-6.17,15.65c-20.74,63.85,10.27,134.51,71.33,162.42c70.77,32.35,153.02-2.04,180.43-73.57
	c14.67-38.28,10.54-79.13-7.86-112.4c-18.98-34.33-9.75-76.97,22.51-99.29c9.95-6.88,19.57-14.52,28.79-22.92
	c103.92-94.65,117.77-255.41,31.82-366.63c-71.62-92.68-190.62-126.01-295.57-93.46c-37.14,11.52-76.48-8.45-90.89-44.56
	c-14.41-36.14-39.16-68.64-73.4-92.66c-93.81-65.81-223.26-42.98-288.89,51.02C-626.06,471.04-606.74,596.87-519.46,663.79z"/>
</svg>
