<?xml version="1.0" encoding="utf-8"?>
<!-- Generator: Adobe Illustrator 24.1.2, SVG Export Plug-In . SVG Version: 6.00 Build 0)  -->
<svg version="1.1" id="Capa_1" xmlns="http://www.w3.org/2000/svg" xmlns:xlink="http://www.w3.org/1999/xlink" x="0px" y="0px"
	 viewBox="0 0 542 477.29" style="enable-background:new 0 0 542 477.29;" xml:space="preserve">
<style type="text/css">
	.st0{opacity:0.68;fill:#9199C1;}
	.st1{opacity:0.43;}
	.st2{fill:#C1B9D0;}
	.st3{fill:#383A80;}
	.st4{fill-rule:evenodd;clip-rule:evenodd;fill:#E0BAAA;}
	.st5{fill-rule:evenodd;clip-rule:evenodd;fill:#DFAD97;}
	.st6{fill-rule:evenodd;clip-rule:evenodd;fill:#8890BC;}
	.st7{fill-rule:evenodd;clip-rule:evenodd;fill:#5050BE;}
	.st8{fill-rule:evenodd;clip-rule:evenodd;fill:#DEA689;}
	.st9{fill-rule:evenodd;clip-rule:evenodd;fill:#C0B6CE;}
	.st10{clip-path:url(#SVGID_77_);}
	.st11{fill:#5050BE;}
	.st12{fill:#4F4EBD;}
	.st13{fill:#4D4DBC;}
	.st14{fill:#4C4BBA;}
	.st15{fill:#4B4AB9;}
	.st16{fill:#4A48B8;}
	.st17{fill:#4847B7;}
	.st18{fill:#4746B6;}
	.st19{fill:#4645B5;}
	.st20{fill:#4543B5;}
	.st21{fill:#4442B4;}
	.st22{fill:#4341B3;}
	.st23{fill:#4340B2;}
	.st24{fill:#423FB2;}
	.st25{fill:#413FB1;}
	.st26{fill:#413EB0;}
	.st27{fill:#403DB0;}
	.st28{fill:#403DAF;}
	.st29{fill:#3F3CAF;}
	.st30{clip-path:url(#SVGID_79_);}
	.st31{opacity:0.81;}
	.st32{fill-rule:evenodd;clip-rule:evenodd;fill:#352D8D;}
	.st33{clip-path:url(#SVGID_81_);}
	.st34{fill:#FFFFFF;}
	.st35{fill:#37474F;}
	.st36{fill:#FF6680;}
	.st37{fill:#5747E4;}
	.st38{fill:#D3D3D3;}
	.st39{fill:none;stroke:#ACACAB;stroke-miterlimit:10;}
	.st40{opacity:0.32;fill:#D2D2D2;}
	.st41{fill:#D2D2D2;}
	.st42{fill:#ACACAB;}
	.st43{opacity:0.39;fill:#D2D2D2;}
	.st44{fill:none;stroke:#DBDBDB;stroke-width:3;stroke-miterlimit:10;}
	.st45{fill:#DBDBDB;}
	.st46{fill:none;}
	.st47{fill:none;stroke:#3C3C3B;stroke-miterlimit:10;}
	.st48{clip-path:url(#SVGID_83_);}
	.st49{clip-path:url(#SVGID_85_);}
	.st50{clip-path:url(#SVGID_87_);}
	.st51{clip-path:url(#SVGID_89_);fill:url(#SVGID_90_);}
	.st52{opacity:0.81;clip-path:url(#SVGID_89_);fill:#393C80;}
	.st53{clip-path:url(#SVGID_89_);fill:#4A5486;}
	.st54{opacity:0.46;clip-path:url(#SVGID_89_);fill:#3F4980;}
	.st55{opacity:0.49;clip-path:url(#SVGID_89_);fill:#393C80;}
	.st56{fill:#393C80;}
	.st57{fill:#53A6C1;}
	.st58{opacity:0.46;clip-path:url(#SVGID_87_);fill:#3F4980;}
	.st59{opacity:0.58;clip-path:url(#SVGID_87_);}
	.st60{fill:#4A5486;}
	.st61{fill:none;stroke:#53A6C1;stroke-miterlimit:10;}
	.st62{clip-path:url(#SVGID_83_);fill:none;stroke:#4A5486;stroke-width:3;stroke-miterlimit:10;}
	.st63{opacity:0.81;clip-path:url(#SVGID_83_);}
	.st64{fill:#D4D3D2;}
	.st65{clip-path:url(#SVGID_92_);}
	.st66{clip-path:url(#SVGID_95_);}
	.st67{fill:#51A5C1;}
	.st68{clip-path:url(#SVGID_98_);}
	.st69{clip-path:url(#SVGID_102_);}
	.st70{fill:#828181;}
	.st71{clip-path:url(#SVGID_108_);}
	.st72{clip-path:url(#SVGID_112_);}
	.st73{clip-path:url(#SVGID_116_);fill:url(#SVGID_118_);}
	.st74{opacity:0.46;clip-path:url(#SVGID_116_);fill:#3F3CB2;}
	.st75{opacity:0.15;clip-path:url(#SVGID_116_);fill:#352D90;}
	.st76{fill:#352D90;}
	.st77{fill:#07C0D7;}
	.st78{opacity:0.46;clip-path:url(#SVGID_112_);fill:#3F3CB2;}
	.st79{fill:#5050C1;}
	.st80{fill:none;stroke:#07C0D7;stroke-miterlimit:10;}
	.st81{fill:#3F3CB2;}
	.st82{opacity:0.81;fill:#352D90;}
	.st83{fill:none;stroke:#5050C1;stroke-width:3;stroke-miterlimit:10;}
	.st84{clip-path:url(#SVGID_122_);fill:#5747E4;}
	.st85{clip-path:url(#SVGID_125_);fill:#6C69E2;}
	.st86{clip-path:url(#SVGID_127_);fill:#6C69E2;}
	.st87{clip-path:url(#SVGID_129_);fill:#5747E4;}
	.st88{fill:#5747E4;stroke:#5747E4;stroke-width:0.5;stroke-linecap:round;stroke-linejoin:round;stroke-miterlimit:10;}
	.st89{fill:none;stroke:#DBDBDB;stroke-width:0.5;stroke-miterlimit:10;}
	.st90{fill:#6864E5;}
	.st91{fill:url(#SVGID_130_);}
	.st92{fill:url(#SVGID_131_);}
	.st93{fill:url(#SVGID_132_);}
	.st94{opacity:0.33;}
	.st95{clip-path:url(#SVGID_134_);}
	.st96{clip-path:url(#SVGID_137_);}
	.st97{clip-path:url(#SVGID_140_);}
	.st98{clip-path:url(#SVGID_143_);}
	.st99{clip-path:url(#SVGID_146_);}
	.st100{clip-path:url(#SVGID_148_);}
	.st101{clip-path:url(#SVGID_150_);fill:url(#SVGID_151_);}
	.st102{opacity:0.46;clip-path:url(#SVGID_150_);fill:#3F3CB2;}
	.st103{opacity:0.15;clip-path:url(#SVGID_150_);fill:#352D90;}
	.st104{opacity:0.46;clip-path:url(#SVGID_148_);fill:#3F3CB2;}
	.st105{clip-path:url(#SVGID_153_);fill:#5747E4;}
	.st106{clip-path:url(#SVGID_155_);fill:#6C69E2;}
	.st107{clip-path:url(#SVGID_157_);fill:#6C69E2;}
	.st108{clip-path:url(#SVGID_159_);fill:#5747E4;}
	.st109{fill:#6F6F6E;}
	.st110{clip-path:url(#SVGID_161_);fill:#808080;}
	.st111{clip-path:url(#SVGID_163_);fill:#979797;}
	.st112{clip-path:url(#SVGID_165_);fill:#979797;}
	.st113{clip-path:url(#SVGID_167_);fill:#828181;}
	.st114{clip-path:url(#SVGID_171_);}
	.st115{clip-path:url(#SVGID_177_);}
	.st116{clip-path:url(#SVGID_183_);}
	.st117{clip-path:url(#SVGID_189_);}
	.st118{fill:#99A1C5;}
	.st119{fill:#352D8D;}
	.st120{fill:#DFAD97;}
	.st121{fill:#4764BB;}
	.st122{fill:#5172D9;}
	.st123{fill:#060412;}
	.st124{fill:none;stroke:#060412;stroke-width:0.9422;stroke-miterlimit:10;}
	.st125{fill:#171032;}
	.st126{fill:#211D49;}
	.st127{opacity:0.22;fill:none;stroke:#FFFFFF;stroke-width:0.25;stroke-miterlimit:10;}
	.st128{fill:#2E2C60;}
	.st129{fill:#1C163F;}
	.st130{fill:#C0B6CE;}
	.st131{fill:#8890BC;}
	.st132{fill:#271F50;}
	.st133{fill:#D7D9DE;}
	.st134{fill:#8282C2;}
	.st135{opacity:0.39;}
	.st136{clip-path:url(#SVGID_199_);}
	.st137{fill:#B1B1E8;}
	.st138{fill:#D7DDFF;}
	.st139{fill:none;stroke:#FFFFFF;stroke-width:0.3951;stroke-linecap:round;stroke-linejoin:round;stroke-miterlimit:10;}
	.st140{fill:none;stroke:#FFFFFF;stroke-width:0.4765;stroke-linecap:round;stroke-linejoin:round;stroke-miterlimit:10;}
	.st141{fill:none;stroke:#FFFFFF;stroke-width:0.4362;stroke-linecap:round;stroke-linejoin:round;stroke-miterlimit:10;}
	.st142{clip-path:url(#SVGID_201_);}
	.st143{fill:#8091E8;}
	.st144{fill:#808080;}
	.st145{fill:none;stroke:#5C5CC4;stroke-miterlimit:10;}
	.st146{fill:#5C5CC4;}
	.st147{fill:none;stroke:#5747E4;stroke-miterlimit:10;}
	.st148{opacity:0.5;}
	.st149{fill:#9798A0;}
	.st150{opacity:0.3;fill:#C0B6CE;}
	.st151{opacity:0.5;fill:#FFFFFF;}
	.st152{clip-path:url(#SVGID_205_);}
	.st153{opacity:0.3;fill:#FFFFFF;}
	.st154{opacity:0.3;fill-rule:evenodd;clip-rule:evenodd;fill:#C0B6CE;}
	.st155{fill-rule:evenodd;clip-rule:evenodd;fill:#5747E4;}
	.st156{fill-rule:evenodd;clip-rule:evenodd;fill:#FFFFFF;}
	.st157{fill-rule:evenodd;clip-rule:evenodd;fill:#9ABED8;}
	.st158{fill:#D6DEE4;}
	.st159{fill:#DBD9DF;}
	.st160{fill:#E6E5EC;}
	.st161{fill:#90B0DF;}
	.st162{opacity:0.49;}
	.st163{clip-path:url(#SVGID_209_);}
	.st164{fill:#8C94BE;}
	.st165{fill:#8D95BF;}
	.st166{fill:#8E96BF;}
	.st167{fill:#8F97C0;}
	.st168{fill:#9098C0;}
	.st169{fill:#9199C1;}
	.st170{fill:#929AC1;}
	.st171{fill:#939BC2;}
	.st172{fill:#949CC3;}
	.st173{fill:#959DC3;}
	.st174{fill:#969EC4;}
	.st175{fill:#979FC4;}
	.st176{fill:#98A0C5;}
	.st177{fill:#9BA3C6;}
	.st178{fill:#9CA4C6;}
	.st179{fill:#9DA5C7;}
	.st180{clip-path:url(#SVGID_211_);}
	.st181{clip-path:url(#SVGID_213_);}
	.st182{clip-path:url(#SVGID_215_);}
	.st183{clip-path:url(#SVGID_217_);}
	.st184{clip-path:url(#SVGID_219_);}
	.st185{clip-path:url(#SVGID_221_);fill:#5747E4;}
	.st186{clip-path:url(#SVGID_223_);fill:#6C69E2;}
	.st187{clip-path:url(#SVGID_225_);fill:#5747E4;}
	.st188{clip-path:url(#SVGID_227_);fill:#6C69E2;}
	.st189{clip-path:url(#SVGID_229_);}
	.st190{clip-path:url(#SVGID_232_);}
	.st191{clip-path:url(#SVGID_235_);}
	.st192{clip-path:url(#SVGID_238_);}
	.st193{clip-path:url(#SVGID_241_);}
	.st194{clip-path:url(#SVGID_243_);}
	.st195{clip-path:url(#SVGID_245_);}
	.st196{clip-path:url(#SVGID_247_);}
	.st197{clip-path:url(#SVGID_249_);}
	.st198{clip-path:url(#SVGID_252_);}
	.st199{clip-path:url(#SVGID_256_);}
	.st200{clip-path:url(#SVGID_258_);}
	.st201{clip-path:url(#SVGID_260_);fill:url(#SVGID_261_);}
	.st202{opacity:0.46;clip-path:url(#SVGID_260_);fill:#3F3CB2;}
	.st203{opacity:0.15;clip-path:url(#SVGID_260_);fill:#352D90;}
	.st204{opacity:0.46;clip-path:url(#SVGID_258_);fill:#3F3CB2;}
	.st205{clip-path:url(#SVGID_263_);fill:#5747E4;}
	.st206{clip-path:url(#SVGID_265_);fill:#6C69E2;}
	.st207{clip-path:url(#SVGID_267_);fill:#5747E4;}
	.st208{clip-path:url(#SVGID_269_);fill:#6C69E2;}
	.st209{fill:none;stroke:#D2D2D2;stroke-miterlimit:10;}
	.st210{clip-path:url(#SVGID_271_);}
	.st211{fill:#4A48C9;}
	.st212{fill:#4847C8;}
	.st213{fill:#4746C7;}
	.st214{fill:#4645C6;}
	.st215{fill:#4543C6;}
	.st216{fill:#4442C5;}
	.st217{fill:#4341C4;}
	.st218{fill:#4340C3;}
	.st219{fill:#423FC3;}
	.st220{fill:#413FC2;}
	.st221{fill:#5050CF;}
	.st222{fill:#4F4ECE;}
	.st223{fill:#4D4DCD;}
	.st224{fill:#4C4BCB;}
	.st225{fill:#4B4ACA;}
	.st226{fill:#413EC1;}
	.st227{fill:#403DC1;}
	.st228{fill:#403DC0;}
	.st229{fill:#3F3CC0;}
	.st230{clip-path:url(#SVGID_273_);}
	.st231{fill:#07CEE5;}
	.st232{clip-path:url(#SVGID_275_);}
	.st233{clip-path:url(#SVGID_277_);}
	.st234{fill:#D2CAE1;}
	.st235{clip-path:url(#SVGID_279_);}
	.st236{fill:#9DA5CF;}
	.st237{fill:#9EA6D0;}
	.st238{fill:#9FA7D0;}
	.st239{fill:#A0A8D1;}
	.st240{fill:#A1A9D1;}
	.st241{fill:#A2AAD2;}
	.st242{fill:#A3ABD2;}
	.st243{fill:#A4ACD3;}
	.st244{fill:#A5ADD4;}
	.st245{fill:#A6AED4;}
	.st246{fill:#A7AFD5;}
	.st247{fill:#A8B0D5;}
	.st248{fill:#A9B1D6;}
	.st249{fill:#AAB2D6;}
	.st250{fill:#ACB4D7;}
	.st251{fill:#ADB5D7;}
	.st252{fill:#AEB6D8;}
	.st253{fill:#383A85;}
	.st254{fill-rule:evenodd;clip-rule:evenodd;fill:#F1CBBB;}
	.st255{fill-rule:evenodd;clip-rule:evenodd;fill:#F0BEA8;}
	.st256{fill-rule:evenodd;clip-rule:evenodd;fill:#99A1CD;}
	.st257{fill-rule:evenodd;clip-rule:evenodd;fill:#5050CF;}
	.st258{fill-rule:evenodd;clip-rule:evenodd;fill:#EFB79A;}
	.st259{fill-rule:evenodd;clip-rule:evenodd;fill:#D1C7DF;}
	.st260{clip-path:url(#SVGID_281_);}
	.st261{clip-path:url(#SVGID_283_);}
	.st262{clip-path:url(#SVGID_285_);}
	.st263{clip-path:url(#SVGID_287_);}
	.st264{fill-rule:evenodd;clip-rule:evenodd;fill:#352D9E;}
	.st265{clip-path:url(#SVGID_289_);}
	.st266{fill:#FF6683;}
	.st267{fill:#352D9E;}
	.st268{fill:#575756;}
	.st269{opacity:0.1;clip-path:url(#SVGID_291_);}
	.st270{fill:#ECECEC;}
	.st271{fill:#5747F5;}
	.st272{fill:#E4E4E4;}
	.st273{fill:#F5F5F5;}
	.st274{fill:#E0E0E0;}
	.st275{fill:#27DEBF;}
	.st276{fill:#AFA8BB;}
	.st277{fill:#263238;}
	.st278{opacity:0.2;fill:#8890BC;}
	.st279{opacity:0.2;fill:#4645B5;}
	.st280{fill:#C3998A;}
	.st281{fill:#262472;}
	.st282{opacity:0.2;}
	.st283{fill:#979797;}
	.st284{fill-rule:evenodd;clip-rule:evenodd;fill:#00000F;}
	.st285{fill:#FFFFFF;stroke:#DBDBDB;stroke-miterlimit:10;}
	.st286{opacity:0.35;fill:#DBDBDB;}
	.st287{opacity:0.78;}
	.st288{fill:#FFFFFF;stroke:#FFFFFF;stroke-width:0.2;stroke-miterlimit:10;}
	.st289{fill:url(#SVGID_292_);}
	.st290{fill:url(#SVGID_293_);}
	.st291{fill:url(#SVGID_294_);}
	.st292{fill:url(#SVGID_295_);}
	.st293{opacity:0.2;enable-background:new    ;}
	.st294{opacity:0.12;enable-background:new    ;}
	.st295{opacity:0.25;fill:#FFFFFF;enable-background:new    ;}
	.st296{clip-path:url(#SVGID_297_);}
	.st297{clip-path:url(#SVGID_300_);fill:#FFFFFF;}
	.st298{clip-path:url(#SVGID_302_);fill:#D8D8D8;}
	.st299{clip-path:url(#SVGID_304_);fill:#D8D8D8;}
	.st300{clip-path:url(#SVGID_306_);}
	.st301{clip-path:url(#SVGID_308_);}
	.st302{clip-path:url(#SVGID_310_);fill:url(#SVGID_311_);}
	.st303{opacity:0.46;clip-path:url(#SVGID_310_);fill:#3F3CB2;}
	.st304{opacity:0.15;clip-path:url(#SVGID_310_);fill:#352D90;}
	.st305{opacity:0.46;clip-path:url(#SVGID_308_);fill:#3F3CB2;}
	.st306{fill:#FFFFFF;stroke:#FFFFFF;stroke-width:0.25;stroke-miterlimit:10;}
	.st307{fill:#FFFFFF;stroke:#FFFFFF;stroke-width:0.25;stroke-linecap:round;stroke-linejoin:round;stroke-miterlimit:10;}
	.st308{clip-path:url(#SVGID_315_);fill:#FFFFFF;}
	.st309{clip-path:url(#SVGID_317_);fill:#F0F0F2;}
	.st310{clip-path:url(#SVGID_319_);fill:#F0F0F2;}
	.st311{clip-path:url(#SVGID_321_);fill:#FFFFFF;}
	.st312{opacity:0.39;clip-path:url(#SVGID_323_);fill:#D2D2D2;}
	.st313{opacity:0.32;clip-path:url(#SVGID_323_);fill:#D2D2D2;}
	.st314{clip-path:url(#SVGID_323_);}
	.st315{clip-path:url(#SVGID_323_);fill:none;stroke:#DBDBDB;stroke-width:3;stroke-miterlimit:10;}
	.st316{opacity:0.81;clip-path:url(#SVGID_323_);}
	.st317{clip-path:url(#SVGID_325_);}
	.st318{clip-path:url(#SVGID_327_);fill:url(#SVGID_328_);}
	.st319{opacity:0.46;clip-path:url(#SVGID_327_);fill:#3F3CB2;}
	.st320{opacity:0.15;clip-path:url(#SVGID_327_);fill:#352D90;}
	.st321{opacity:0.46;clip-path:url(#SVGID_325_);fill:#3F3CB2;}
	.st322{clip-path:url(#SVGID_332_);}
	.st323{clip-path:url(#SVGID_334_);fill:none;stroke:#DBDBDB;stroke-width:3;stroke-miterlimit:10;}
	.st324{opacity:0.81;clip-path:url(#SVGID_334_);}
	.st325{fill-rule:evenodd;clip-rule:evenodd;fill:#D7D9DE;}
	.st326{fill-rule:evenodd;clip-rule:evenodd;fill:#E7EAED;}
	.st327{fill-rule:evenodd;clip-rule:evenodd;fill:#FFEFF0;}
	.st328{fill-rule:evenodd;clip-rule:evenodd;fill:#C6C7C8;}
	.st329{fill-rule:evenodd;clip-rule:evenodd;fill:#E6E7E8;}
	.st330{fill-rule:evenodd;clip-rule:evenodd;fill:#C9C2C0;}
	.st331{fill-rule:evenodd;clip-rule:evenodd;fill:#E2DEDB;}
	.st332{fill-rule:evenodd;clip-rule:evenodd;fill:#B1B1E8;}
	.st333{fill-rule:evenodd;clip-rule:evenodd;fill:#9AA2C3;}
	.st334{fill-rule:evenodd;clip-rule:evenodd;fill:#D9D2E2;}
	.st335{fill-rule:evenodd;clip-rule:evenodd;fill:#0B1329;}
	.st336{fill-rule:evenodd;clip-rule:evenodd;fill:#EAA180;}
	.st337{fill-rule:evenodd;clip-rule:evenodd;fill:#78809D;}
	.st338{clip-path:url(#SVGID_336_);}
	.st339{opacity:0.32;clip-path:url(#SVGID_336_);fill:#D2D2D2;}
	.st340{clip-path:url(#SVGID_338_);}
	.st341{clip-path:url(#SVGID_340_);fill:url(#SVGID_341_);}
	.st342{opacity:0.46;clip-path:url(#SVGID_340_);fill:#3F3CB2;}
	.st343{opacity:0.15;clip-path:url(#SVGID_340_);fill:#352D90;}
	.st344{opacity:0.46;clip-path:url(#SVGID_338_);fill:#3F3CB2;}
	.st345{clip-path:url(#SVGID_336_);fill:none;stroke:#DBDBDB;stroke-width:3;stroke-miterlimit:10;}
	.st346{opacity:0.81;clip-path:url(#SVGID_336_);}
	.st347{clip-path:url(#SVGID_343_);}
	.st348{clip-path:url(#SVGID_345_);}
	.st349{clip-path:url(#SVGID_347_);fill:url(#SVGID_348_);}
	.st350{opacity:0.46;clip-path:url(#SVGID_347_);fill:#3F3CB2;}
	.st351{opacity:0.15;clip-path:url(#SVGID_347_);fill:#352D90;}
	.st352{opacity:0.46;clip-path:url(#SVGID_345_);fill:#3F3CB2;}
	.st353{clip-path:url(#SVGID_350_);}
	.st354{clip-path:url(#SVGID_352_);}
	.st355{clip-path:url(#SVGID_354_);fill:url(#SVGID_355_);}
	.st356{opacity:0.46;clip-path:url(#SVGID_354_);fill:#3F3CB2;}
	.st357{opacity:0.15;clip-path:url(#SVGID_354_);fill:#352D90;}
	.st358{opacity:0.46;clip-path:url(#SVGID_352_);fill:#3F3CB2;}
</style>
<g>
	<g>
		<g>
			<g>
				<g>
					<ellipse class="st118" cx="294.97" cy="450.65" rx="90.88" ry="8.86"/>
					<g>
						<path class="st119" d="M332.19,326.27l-32.27,8.15c0,0,8.34,36.18,11.58,49.44c3.32,13.58,1.48,57.24,1.48,57.24h9.23
							l4.99-57.42L332.19,326.27z"/>
						<path class="st120" d="M325.16,267.47c0,0,3.3,11.36,8.61,30.62c0,0,6.85,2.49,25.38,3.8l-0.58,6.16c0,0-20.44,3.7-31.71-0.95
							C315.6,302.46,306.15,261.24,325.16,267.47z"/>
						<g>
							<polygon class="st119" points="343.04,307.19 352.7,318.38 368.32,298.04 362,285.87 							"/>
							<polygon class="st19" points="341.34,311.88 357.74,289.89 368.32,298.04 352.7,318.38 							"/>
						</g>
						<path class="st120" d="M365.6,302.57c-0.07-0.34-0.5-0.46-0.79-0.28c-0.57,0.36-1.23,1.2-2.83,1.25
							c-1.59,0.05-3.67-1.06-4.35-0.34c0,0-3.43,4.38,0.05,8.71C357.68,311.9,368.2,314.65,365.6,302.57z"/>
						<path class="st121" d="M318.66,300.33c0,0,8.21-1.21,14.94-7.01c0,0-2.38-12.81-5.69-20.53c-3.31-7.72-8.54-14.49-17.04-9.46
							C302.36,268.35,304.84,279.89,318.66,300.33z"/>
						<path class="st122" d="M291.25,295.16c0,0,7.01,4.44,15.89,4.44c0,0,6.56-11.26,9.09-19.27c2.54-8.01,2.99-16.55-6.73-18.29
							C299.79,260.31,294.13,270.66,291.25,295.16z"/>
						<path class="st19" d="M327.74,329.75c0,0-19.94-6.74-32.31,4.41c0,0,2.27,10.47,9.09,22.99
							c11.53,21.18,17.43,28.04,17.43,28.04s-12.57,11.19-36.79,39.14c0,0,1.51,5.72,6.39,7.55c0,0,35.49-33.48,46.2-42.4
							c3.5-2.92,2.79-5.12,1.41-11.57C336.84,366.96,329.11,334.74,327.74,329.75z"/>
						<path class="st120" d="M310.76,246.77l-0.43,8.75c0,0,6.87,5.66,12.53,5.4l2.61-11.67l-16.02-10.89L310.76,246.77z"/>
						<path class="st120" d="M314.07,245.24c0,0,3.65,6.82,10.32,8.9l1.09-4.89L314.07,245.24z"/>
						<g>
							<path class="st123" d="M299.99,365.89l-16.29-12.37c-0.92-0.69-1.09-2-0.4-2.91l0,0c0.69-0.92,2-1.09,2.91-0.4l16.29,12.37
								c0.91,0.69,1.09,2,0.4,2.91l0,0C302.21,366.41,300.91,366.59,299.99,365.89z"/>
							<line class="st124" x1="286.44" y1="354.91" x2="250.62" y2="402.07"/>
							<line class="st124" x1="297.91" y1="363.64" x2="262.09" y2="410.81"/>
						</g>
						<path class="st125" d="M296.48,269.02c0,0-17.44,0.88-20.24,10.71c-2.8,9.84-2.42,48.51-2.42,48.51s3.68,8.79,15.47,9.92
							c0,0,6.15,1.42,5.79-11.48C294.73,313.77,296.48,269.02,296.48,269.02z"/>
						<path class="st126" d="M286.66,270.92c0,0-1.75,1.53-2.68,3.54c-3.42,7.36-2.37,27.19-3.82,28.78
							c-1.21,1.33-3.27,1.58-5.3,2.13c-0.87,0.24-1.87-0.31-1.84-1.16C273.8,287.26,272.49,273.15,286.66,270.92z"/>
						<path class="st126" d="M273.98,307.77c0,0,4.69-1.08,5.51,0.04c1.16,1.6,0.71,19.8-0.59,20.3c-1.3,0.5-5.87,0.1-6.13-0.29
							C271.79,326.39,271.19,308.36,273.98,307.77z"/>
						<path class="st120" d="M332.97,224.82c0,0,2.32,11.3,1.35,19.19c-0.43,3.49-1.5,6.32-3.71,7.2
							c-7.18,2.87-17.68-4.44-20.25-11.89C308.18,232.97,308.41,217.9,332.97,224.82z"/>
						<path class="st11" d="M325.86,228.51c0,0,1.95,4.99-1.9,6.17c-3.14,0.96-4.05,3.27-4.05,3.27s-0.64-5.02-4.06-5.21
							c-3.72-0.2-3.51,5.11-0.25,7.72c0,0,0,6.3-4.84,6.3c0,0-10.9-12.51-6.14-20.06c-0.7-2.29,2.55-8.44,10.91-9.23
							c8.36-0.78,10.76,1.17,17.11-0.8C338.71,214.8,342.71,229.36,325.86,228.51z"/>
						<polyline class="st127" points="312.08,327.8 333.6,383.69 287.97,427.49 						"/>
						<g>
							<path class="st123" d="M251.58,450.62c0,2.89-2.34,5.23-5.23,5.23c-2.89,0-5.23-2.34-5.23-5.23c0-2.89,2.34-5.23,5.23-5.23
								C249.25,445.4,251.58,447.74,251.58,450.62z"/>
							<path class="st123" d="M232.12,441.39c0,2.89-2.34,5.23-5.23,5.23c-2.89,0-5.23-2.34-5.23-5.23c0-2.89,2.34-5.23,5.23-5.23
								C229.78,436.17,232.12,438.51,232.12,441.39z"/>
							<path class="st123" d="M274.49,401.07c0,0,1.61,23.34-6.75,36.23c-8.36,12.89-20.55,10.8-20.55,10.8l2.51-3.95
								c0,0,8.81,3.6,14.03-10.16c5.23-13.76,4.18-28.04,4.18-28.04L274.49,401.07z"/>
							<path class="st125" d="M264.82,394.47c0,0,5.23,0.5,9.37,5.47c3.19,3.83-20.74,40.85-26.13,49.07
								c-0.64,0.98-1.83,1.44-2.97,1.13c-3.85-1.03-12.75-3.79-19.22-8.67C225.88,441.48,250.6,398.11,264.82,394.47z"/>
							<path class="st126" d="M266.68,394.89c0,0-19.65-11.83-30.21-2c-7,6.51-20.5,24.87-25.73,32.1
								c-1.27,1.75-1.07,4.16,0.48,5.67c3.37,3.3,10.44,8.53,15.43,11.25c0.74,0.4,1.66,0.17,2.12-0.53
								C233.04,434.9,253.48,404.48,266.68,394.89z"/>
							<path class="st128" d="M223.15,409.68c-0.77-0.6-1.92-0.28-2.52,0.5c-2.5,3.28-8.74,11.49-9.67,13.04
								c-1.81,3.04,5.59,9.46,14.64,14.23c2.83,1.49,6.28-4.98,9.92-9.95c2.41-3.28,4.49-6.16,4.21-7.23
								c-0.3-1.14-5.01-2.61-9.32-5.28C227.6,413.24,225.21,411.28,223.15,409.68z"/>
							<path class="st128" d="M266.68,394.89c0,0-8.88-6.3-21.48-6.49c-10.7-0.17-22.45,18.36-22.45,18.36
								c-1.52,1.95,16.81,13.06,18.86,10.53c8.1-9.98,16.02-17.55,20.06-21.21C261.94,395.84,264.11,394.09,266.68,394.89z"/>
							<path class="st129" d="M233.37,439.51L244.32,423c0.4-0.6,1.17-0.81,1.82-0.51l10.71,5.08c0.68,0.32,0.92,1.17,0.5,1.8
								l-10.61,16.08c-0.61,0.93-1.8,1.29-2.82,0.86l-9.71-4.05C233.13,441.81,232.72,440.49,233.37,439.51z"/>
						</g>
						<g>
							<g>
								<g>
									<path class="st130" d="M307.89,256.63c0,0-10.71,1.94-12.45,17.96c-1.74,16.02,0,61.38,0,61.38s10.04,3.89,21.42-1.65
										c7.32-3.57,12.01-3.76,13.99-4.22c0.8-0.18,1.36-0.88,1.37-1.7c0.02-1.75,0.05-5.11,0.04-10.18
										c-0.03-14.16-1.56-38.24-7.66-54.78C324.59,263.44,314.24,257.13,307.89,256.63z"/>
								</g>
							</g>
						</g>
						<path class="st131" d="M315.11,285.9c-8.94-0.45-15.56,3.14-20.45,8.64c-0.1,18.91,0.77,41.43,0.77,41.43
							s5.97,2.29,13.92,0.82c-5.69-8.69-5.73-16.67-0.82-26.44C312.46,302.52,315.11,285.9,315.11,285.9z"/>
						<g>
							<path class="st125" d="M295.43,274.59c0,0,8.5-13.83,14.72-11.5c7.64,2.87,9.19,17.65-2.26,33.12l-6.1,6.46l-1.57,5.75
								c0,0,15.55-13.72,19.2-27.04c3.66-13.32-1.15-18.62-7.84-20.9c-8.23-2.81-12.17,2.2-17.19,9.14L295.43,274.59z"/>
							<g>
								<path class="st120" d="M294.04,288.87c0,0-2.61,11.32-3.48,25.6c-0.73,12.02-0.85,26.8-0.87,31.2
									c0,0.76-0.29,1.48-0.83,2.01c-1.43,1.41-4.16,4.86-3.71,10.42c0.16,1.95,1.01,4.64,5.86,6.19c0.67,0.21,2.42,0.95,2.42-2.45
									c0-3.4,1.37-5.68,2.77-6.81c1.39-1.13,2.81,1.85,2.81,4.29c0,2.44,1.63,0.89,1.96-0.84s0.07-6.37-3.59-11.2
									c0,0-0.07-0.85,0.39-6.66c0.46-5.81,1.43-25.49,3.52-30.52c2.09-5.03,8.1-19.38,8.1-19.38L294.04,288.87z"/>
								<path class="st131" d="M291.25,296.28c0,0,7.01,3.32,15.89,3.32c0,0,6.56-11.26,9.09-19.27c2.54-8.01,2.99-16.55-6.73-18.29
									C299.79,260.31,294.13,271.78,291.25,296.28z"/>
							</g>
						</g>
						<g>
							<g>
								<g>
									<path class="st119" d="M313.16,440.15c0,0-2.56,3.74-1.31,9.14c0.19,0.8,0.87,1.35,1.64,1.35h27.73
										c0.57,0,1.03-0.54,0.95-1.15c-0.19-1.58-1.49-4.31-8.07-5.13c-1.8-0.22-3.54-0.9-4.97-2.02c-2.37-1.86-5.98-4.4-7.24-3.69
										C321.89,438.65,317.92,441.06,313.16,440.15z"/>
								</g>
							</g>
						</g>
						<path class="st132" d="M310.43,253.6c-0.99,0.04-2.54,3.03-2.54,3.03s2.94,2.26,10.08,4.88c3.31,1.21,4.96,2.92,5.72,3.99
							c0.23,0.32,0.73,0.2,0.79-0.19c0.21-1.59,0.3-4.37-1.25-5.99C323.23,259.31,313.4,256.63,310.43,253.6z"/>
						<g>
							<path class="st119" d="M285.31,424.41c0,0-4.49,0.57-7.7,5.1c-0.48,0.67-0.43,1.55,0.08,2.12l18.44,20.72
								c0.38,0.43,1.08,0.41,1.49-0.05c1.05-1.19,2.23-3.98-1.53-9.44c-1.03-1.5-1.68-3.24-1.79-5.05
								c-0.19-3.01-0.69-7.39-2.05-7.86C292.24,429.94,287.8,428.57,285.31,424.41z"/>
						</g>
						<polygon class="st123" points="296.76,358.21 301.12,361.52 300.76,363.47 295.67,360.92 						"/>
					</g>
				</g>
				<g>
					<g>
						<g>
							<path class="st34" d="M328.2,244.28l6.36-0.15C333.42,244.03,336.05,251.37,328.2,244.28z"/>
						</g>
					</g>
					<g>
						<g>
							<path class="st35" d="M331.01,237.51c0.14,1.44-0.3,2.65-1,2.73c-0.69,0.07-1.38-1.03-1.52-2.46c-0.15-1.43,0.3-2.65,1-2.72
								C330.18,234.98,330.86,236.08,331.01,237.51z"/>
						</g>
					</g>
				</g>
			</g>
		</g>
	</g>
</g>
</svg>
